<?xml version="1.0" encoding="utf-8" standalone="no"?>
<!DOCTYPE svg PUBLIC "-//W3C//DTD SVG 1.1//EN"
  "http://www.w3.org/Graphics/SVG/1.1/DTD/svg11.dtd">
<!-- Created with matplotlib (https://matplotlib.org/) -->
<svg height="276.788281pt" version="1.1" viewBox="0 0 384.159844 276.788281" width="384.159844pt" xmlns="http://www.w3.org/2000/svg" xmlns:xlink="http://www.w3.org/1999/xlink">
 <defs>
  <style type="text/css">
*{stroke-linecap:butt;stroke-linejoin:round;}
  </style>
 </defs>
 <g id="figure_1">
  <g id="patch_1">
   <path d="M 0 276.788281 
L 384.159844 276.788281 
L 384.159844 0 
L 0 0 
z
" style="fill:#ffffff;"/>
  </g>
  <g id="axes_1">
   <g id="patch_2">
    <path d="M 42.159844 239.383125 
L 376.959844 239.383125 
L 376.959844 21.943125 
L 42.159844 21.943125 
z
" style="fill:#ffffff;"/>
   </g>
   <g id="matplotlib.axis_1">
    <g id="xtick_1">
     <g id="line2d_1">
      <path clip-path="url(#p1427051f26)" d="M 57.378026 239.383125 
L 57.378026 21.943125 
" style="fill:none;stroke:#cccccc;stroke-linecap:round;"/>
     </g>
     <g id="line2d_2"/>
     <g id="text_1">
      <!-- 0.0 -->
      <defs>
       <path d="M 4.15625 35.296875 
Q 4.15625 48 6.765625 55.734375 
Q 9.375 63.484375 14.515625 67.671875 
Q 19.671875 71.875 27.484375 71.875 
Q 33.25 71.875 37.59375 69.546875 
Q 41.9375 67.234375 44.765625 62.859375 
Q 47.609375 58.5 49.21875 52.21875 
Q 50.828125 45.953125 50.828125 35.296875 
Q 50.828125 22.703125 48.234375 14.96875 
Q 45.65625 7.234375 40.5 3 
Q 35.359375 -1.21875 27.484375 -1.21875 
Q 17.140625 -1.21875 11.234375 6.203125 
Q 4.15625 15.140625 4.15625 35.296875 
z
M 13.1875 35.296875 
Q 13.1875 17.671875 17.3125 11.828125 
Q 21.4375 6 27.484375 6 
Q 33.546875 6 37.671875 11.859375 
Q 41.796875 17.71875 41.796875 35.296875 
Q 41.796875 52.984375 37.671875 58.78125 
Q 33.546875 64.59375 27.390625 64.59375 
Q 21.34375 64.59375 17.71875 59.46875 
Q 13.1875 52.9375 13.1875 35.296875 
z
" id="ArialMT-48"/>
       <path d="M 9.078125 0 
L 9.078125 10.015625 
L 19.09375 10.015625 
L 19.09375 0 
z
" id="ArialMT-46"/>
      </defs>
      <g style="fill:#262626;" transform="translate(50.428026 253.540938)scale(0.1 -0.1)">
       <use xlink:href="#ArialMT-48"/>
       <use x="55.615234" xlink:href="#ArialMT-46"/>
       <use x="83.398438" xlink:href="#ArialMT-48"/>
      </g>
     </g>
    </g>
    <g id="xtick_2">
     <g id="line2d_3">
      <path clip-path="url(#p1427051f26)" d="M 118.250753 239.383125 
L 118.250753 21.943125 
" style="fill:none;stroke:#cccccc;stroke-linecap:round;"/>
     </g>
     <g id="line2d_4"/>
     <g id="text_2">
      <!-- 0.2 -->
      <defs>
       <path d="M 50.34375 8.453125 
L 50.34375 0 
L 3.03125 0 
Q 2.9375 3.171875 4.046875 6.109375 
Q 5.859375 10.9375 9.828125 15.625 
Q 13.8125 20.3125 21.34375 26.46875 
Q 33.015625 36.03125 37.109375 41.625 
Q 41.21875 47.21875 41.21875 52.203125 
Q 41.21875 57.421875 37.46875 61 
Q 33.734375 64.59375 27.734375 64.59375 
Q 21.390625 64.59375 17.578125 60.78125 
Q 13.765625 56.984375 13.71875 50.25 
L 4.6875 51.171875 
Q 5.609375 61.28125 11.65625 66.578125 
Q 17.71875 71.875 27.9375 71.875 
Q 38.234375 71.875 44.234375 66.15625 
Q 50.25 60.453125 50.25 52 
Q 50.25 47.703125 48.484375 43.546875 
Q 46.734375 39.40625 42.65625 34.8125 
Q 38.578125 30.21875 29.109375 22.21875 
Q 21.1875 15.578125 18.9375 13.203125 
Q 16.703125 10.84375 15.234375 8.453125 
z
" id="ArialMT-50"/>
      </defs>
      <g style="fill:#262626;" transform="translate(111.300753 253.540938)scale(0.1 -0.1)">
       <use xlink:href="#ArialMT-48"/>
       <use x="55.615234" xlink:href="#ArialMT-46"/>
       <use x="83.398438" xlink:href="#ArialMT-50"/>
      </g>
     </g>
    </g>
    <g id="xtick_3">
     <g id="line2d_5">
      <path clip-path="url(#p1427051f26)" d="M 179.12348 239.383125 
L 179.12348 21.943125 
" style="fill:none;stroke:#cccccc;stroke-linecap:round;"/>
     </g>
     <g id="line2d_6"/>
     <g id="text_3">
      <!-- 0.4 -->
      <defs>
       <path d="M 32.328125 0 
L 32.328125 17.140625 
L 1.265625 17.140625 
L 1.265625 25.203125 
L 33.9375 71.578125 
L 41.109375 71.578125 
L 41.109375 25.203125 
L 50.78125 25.203125 
L 50.78125 17.140625 
L 41.109375 17.140625 
L 41.109375 0 
z
M 32.328125 25.203125 
L 32.328125 57.46875 
L 9.90625 25.203125 
z
" id="ArialMT-52"/>
      </defs>
      <g style="fill:#262626;" transform="translate(172.17348 253.540938)scale(0.1 -0.1)">
       <use xlink:href="#ArialMT-48"/>
       <use x="55.615234" xlink:href="#ArialMT-46"/>
       <use x="83.398438" xlink:href="#ArialMT-52"/>
      </g>
     </g>
    </g>
    <g id="xtick_4">
     <g id="line2d_7">
      <path clip-path="url(#p1427051f26)" d="M 239.996207 239.383125 
L 239.996207 21.943125 
" style="fill:none;stroke:#cccccc;stroke-linecap:round;"/>
     </g>
     <g id="line2d_8"/>
     <g id="text_4">
      <!-- 0.6 -->
      <defs>
       <path d="M 49.75 54.046875 
L 41.015625 53.375 
Q 39.84375 58.546875 37.703125 60.890625 
Q 34.125 64.65625 28.90625 64.65625 
Q 24.703125 64.65625 21.53125 62.3125 
Q 17.390625 59.28125 14.984375 53.46875 
Q 12.59375 47.65625 12.5 36.921875 
Q 15.671875 41.75 20.265625 44.09375 
Q 24.859375 46.4375 29.890625 46.4375 
Q 38.671875 46.4375 44.84375 39.96875 
Q 51.03125 33.5 51.03125 23.25 
Q 51.03125 16.5 48.125 10.71875 
Q 45.21875 4.9375 40.140625 1.859375 
Q 35.0625 -1.21875 28.609375 -1.21875 
Q 17.625 -1.21875 10.6875 6.859375 
Q 3.765625 14.9375 3.765625 33.5 
Q 3.765625 54.25 11.421875 63.671875 
Q 18.109375 71.875 29.4375 71.875 
Q 37.890625 71.875 43.28125 67.140625 
Q 48.6875 62.40625 49.75 54.046875 
z
M 13.875 23.1875 
Q 13.875 18.65625 15.796875 14.5 
Q 17.71875 10.359375 21.1875 8.171875 
Q 24.65625 6 28.46875 6 
Q 34.03125 6 38.03125 10.484375 
Q 42.046875 14.984375 42.046875 22.703125 
Q 42.046875 30.125 38.078125 34.390625 
Q 34.125 38.671875 28.125 38.671875 
Q 22.171875 38.671875 18.015625 34.390625 
Q 13.875 30.125 13.875 23.1875 
z
" id="ArialMT-54"/>
      </defs>
      <g style="fill:#262626;" transform="translate(233.046207 253.540938)scale(0.1 -0.1)">
       <use xlink:href="#ArialMT-48"/>
       <use x="55.615234" xlink:href="#ArialMT-46"/>
       <use x="83.398438" xlink:href="#ArialMT-54"/>
      </g>
     </g>
    </g>
    <g id="xtick_5">
     <g id="line2d_9">
      <path clip-path="url(#p1427051f26)" d="M 300.868935 239.383125 
L 300.868935 21.943125 
" style="fill:none;stroke:#cccccc;stroke-linecap:round;"/>
     </g>
     <g id="line2d_10"/>
     <g id="text_5">
      <!-- 0.8 -->
      <defs>
       <path d="M 17.671875 38.8125 
Q 12.203125 40.828125 9.5625 44.53125 
Q 6.9375 48.25 6.9375 53.421875 
Q 6.9375 61.234375 12.546875 66.546875 
Q 18.171875 71.875 27.484375 71.875 
Q 36.859375 71.875 42.578125 66.421875 
Q 48.296875 60.984375 48.296875 53.171875 
Q 48.296875 48.1875 45.671875 44.5 
Q 43.0625 40.828125 37.75 38.8125 
Q 44.34375 36.671875 47.78125 31.875 
Q 51.21875 27.09375 51.21875 20.453125 
Q 51.21875 11.28125 44.71875 5.03125 
Q 38.234375 -1.21875 27.640625 -1.21875 
Q 17.046875 -1.21875 10.546875 5.046875 
Q 4.046875 11.328125 4.046875 20.703125 
Q 4.046875 27.6875 7.59375 32.390625 
Q 11.140625 37.109375 17.671875 38.8125 
z
M 15.921875 53.71875 
Q 15.921875 48.640625 19.1875 45.40625 
Q 22.46875 42.1875 27.6875 42.1875 
Q 32.765625 42.1875 36.015625 45.375 
Q 39.265625 48.578125 39.265625 53.21875 
Q 39.265625 58.0625 35.90625 61.359375 
Q 32.5625 64.65625 27.59375 64.65625 
Q 22.5625 64.65625 19.234375 61.421875 
Q 15.921875 58.203125 15.921875 53.71875 
z
M 13.09375 20.65625 
Q 13.09375 16.890625 14.875 13.375 
Q 16.65625 9.859375 20.171875 7.921875 
Q 23.6875 6 27.734375 6 
Q 34.03125 6 38.125 10.046875 
Q 42.234375 14.109375 42.234375 20.359375 
Q 42.234375 26.703125 38.015625 30.859375 
Q 33.796875 35.015625 27.4375 35.015625 
Q 21.234375 35.015625 17.15625 30.90625 
Q 13.09375 26.8125 13.09375 20.65625 
z
" id="ArialMT-56"/>
      </defs>
      <g style="fill:#262626;" transform="translate(293.918935 253.540938)scale(0.1 -0.1)">
       <use xlink:href="#ArialMT-48"/>
       <use x="55.615234" xlink:href="#ArialMT-46"/>
       <use x="83.398438" xlink:href="#ArialMT-56"/>
      </g>
     </g>
    </g>
    <g id="xtick_6">
     <g id="line2d_11">
      <path clip-path="url(#p1427051f26)" d="M 361.741662 239.383125 
L 361.741662 21.943125 
" style="fill:none;stroke:#cccccc;stroke-linecap:round;"/>
     </g>
     <g id="line2d_12"/>
     <g id="text_6">
      <!-- 1.0 -->
      <defs>
       <path d="M 37.25 0 
L 28.46875 0 
L 28.46875 56 
Q 25.296875 52.984375 20.140625 49.953125 
Q 14.984375 46.921875 10.890625 45.40625 
L 10.890625 53.90625 
Q 18.265625 57.375 23.78125 62.296875 
Q 29.296875 67.234375 31.59375 71.875 
L 37.25 71.875 
z
" id="ArialMT-49"/>
      </defs>
      <g style="fill:#262626;" transform="translate(354.791662 253.540938)scale(0.1 -0.1)">
       <use xlink:href="#ArialMT-49"/>
       <use x="55.615234" xlink:href="#ArialMT-46"/>
       <use x="83.398438" xlink:href="#ArialMT-48"/>
      </g>
     </g>
    </g>
    <g id="text_7">
     <!-- False positive rate -->
     <defs>
      <path d="M 8.203125 0 
L 8.203125 71.578125 
L 56.5 71.578125 
L 56.5 63.140625 
L 17.671875 63.140625 
L 17.671875 40.96875 
L 51.265625 40.96875 
L 51.265625 32.515625 
L 17.671875 32.515625 
L 17.671875 0 
z
" id="ArialMT-70"/>
      <path d="M 40.4375 6.390625 
Q 35.546875 2.25 31.03125 0.53125 
Q 26.515625 -1.171875 21.34375 -1.171875 
Q 12.796875 -1.171875 8.203125 3 
Q 3.609375 7.171875 3.609375 13.671875 
Q 3.609375 17.484375 5.34375 20.625 
Q 7.078125 23.78125 9.890625 25.6875 
Q 12.703125 27.59375 16.21875 28.5625 
Q 18.796875 29.25 24.03125 29.890625 
Q 34.671875 31.15625 39.703125 32.90625 
Q 39.75 34.71875 39.75 35.203125 
Q 39.75 40.578125 37.25 42.78125 
Q 33.890625 45.75 27.25 45.75 
Q 21.046875 45.75 18.09375 43.578125 
Q 15.140625 41.40625 13.71875 35.890625 
L 5.125 37.0625 
Q 6.296875 42.578125 8.984375 45.96875 
Q 11.671875 49.359375 16.75 51.1875 
Q 21.828125 53.03125 28.515625 53.03125 
Q 35.15625 53.03125 39.296875 51.46875 
Q 43.453125 49.90625 45.40625 47.53125 
Q 47.359375 45.171875 48.140625 41.546875 
Q 48.578125 39.3125 48.578125 33.453125 
L 48.578125 21.734375 
Q 48.578125 9.46875 49.140625 6.21875 
Q 49.703125 2.984375 51.375 0 
L 42.1875 0 
Q 40.828125 2.734375 40.4375 6.390625 
z
M 39.703125 26.03125 
Q 34.90625 24.078125 25.34375 22.703125 
Q 19.921875 21.921875 17.671875 20.9375 
Q 15.4375 19.96875 14.203125 18.09375 
Q 12.984375 16.21875 12.984375 13.921875 
Q 12.984375 10.40625 15.640625 8.0625 
Q 18.3125 5.71875 23.4375 5.71875 
Q 28.515625 5.71875 32.46875 7.9375 
Q 36.421875 10.15625 38.28125 14.015625 
Q 39.703125 17 39.703125 22.796875 
z
" id="ArialMT-97"/>
      <path d="M 6.390625 0 
L 6.390625 71.578125 
L 15.1875 71.578125 
L 15.1875 0 
z
" id="ArialMT-108"/>
      <path d="M 3.078125 15.484375 
L 11.765625 16.84375 
Q 12.5 11.625 15.84375 8.84375 
Q 19.1875 6.0625 25.203125 6.0625 
Q 31.25 6.0625 34.171875 8.515625 
Q 37.109375 10.984375 37.109375 14.3125 
Q 37.109375 17.28125 34.515625 19 
Q 32.71875 20.171875 25.53125 21.96875 
Q 15.875 24.421875 12.140625 26.203125 
Q 8.40625 27.984375 6.46875 31.125 
Q 4.546875 34.28125 4.546875 38.09375 
Q 4.546875 41.546875 6.125 44.5 
Q 7.71875 47.46875 10.453125 49.421875 
Q 12.5 50.921875 16.03125 51.96875 
Q 19.578125 53.03125 23.640625 53.03125 
Q 29.734375 53.03125 34.34375 51.265625 
Q 38.96875 49.515625 41.15625 46.5 
Q 43.359375 43.5 44.1875 38.484375 
L 35.59375 37.3125 
Q 35.015625 41.3125 32.203125 43.546875 
Q 29.390625 45.796875 24.265625 45.796875 
Q 18.21875 45.796875 15.625 43.796875 
Q 13.03125 41.796875 13.03125 39.109375 
Q 13.03125 37.40625 14.109375 36.03125 
Q 15.1875 34.625 17.484375 33.6875 
Q 18.796875 33.203125 25.25 31.453125 
Q 34.578125 28.953125 38.25 27.359375 
Q 41.9375 25.78125 44.03125 22.75 
Q 46.140625 19.734375 46.140625 15.234375 
Q 46.140625 10.84375 43.578125 6.953125 
Q 41.015625 3.078125 36.171875 0.953125 
Q 31.34375 -1.171875 25.25 -1.171875 
Q 15.140625 -1.171875 9.84375 3.03125 
Q 4.546875 7.234375 3.078125 15.484375 
z
" id="ArialMT-115"/>
      <path d="M 42.09375 16.703125 
L 51.171875 15.578125 
Q 49.03125 7.625 43.21875 3.21875 
Q 37.40625 -1.171875 28.375 -1.171875 
Q 17 -1.171875 10.328125 5.828125 
Q 3.65625 12.84375 3.65625 25.484375 
Q 3.65625 38.578125 10.390625 45.796875 
Q 17.140625 53.03125 27.875 53.03125 
Q 38.28125 53.03125 44.875 45.953125 
Q 51.46875 38.875 51.46875 26.03125 
Q 51.46875 25.25 51.421875 23.6875 
L 12.75 23.6875 
Q 13.234375 15.140625 17.578125 10.59375 
Q 21.921875 6.0625 28.421875 6.0625 
Q 33.25 6.0625 36.671875 8.59375 
Q 40.09375 11.140625 42.09375 16.703125 
z
M 13.234375 30.90625 
L 42.1875 30.90625 
Q 41.609375 37.453125 38.875 40.71875 
Q 34.671875 45.796875 27.984375 45.796875 
Q 21.921875 45.796875 17.796875 41.75 
Q 13.671875 37.703125 13.234375 30.90625 
z
" id="ArialMT-101"/>
      <path id="ArialMT-32"/>
      <path d="M 6.59375 -19.875 
L 6.59375 51.859375 
L 14.59375 51.859375 
L 14.59375 45.125 
Q 17.4375 49.078125 21 51.046875 
Q 24.5625 53.03125 29.640625 53.03125 
Q 36.28125 53.03125 41.359375 49.609375 
Q 46.4375 46.1875 49.015625 39.953125 
Q 51.609375 33.734375 51.609375 26.3125 
Q 51.609375 18.359375 48.75 11.984375 
Q 45.90625 5.609375 40.453125 2.21875 
Q 35.015625 -1.171875 29 -1.171875 
Q 24.609375 -1.171875 21.109375 0.6875 
Q 17.625 2.546875 15.375 5.375 
L 15.375 -19.875 
z
M 14.546875 25.640625 
Q 14.546875 15.625 18.59375 10.84375 
Q 22.65625 6.0625 28.421875 6.0625 
Q 34.28125 6.0625 38.453125 11.015625 
Q 42.625 15.96875 42.625 26.375 
Q 42.625 36.28125 38.546875 41.203125 
Q 34.46875 46.140625 28.8125 46.140625 
Q 23.1875 46.140625 18.859375 40.890625 
Q 14.546875 35.640625 14.546875 25.640625 
z
" id="ArialMT-112"/>
      <path d="M 3.328125 25.921875 
Q 3.328125 40.328125 11.328125 47.265625 
Q 18.015625 53.03125 27.640625 53.03125 
Q 38.328125 53.03125 45.109375 46.015625 
Q 51.90625 39.015625 51.90625 26.65625 
Q 51.90625 16.65625 48.90625 10.90625 
Q 45.90625 5.171875 40.15625 2 
Q 34.421875 -1.171875 27.640625 -1.171875 
Q 16.75 -1.171875 10.03125 5.8125 
Q 3.328125 12.796875 3.328125 25.921875 
z
M 12.359375 25.921875 
Q 12.359375 15.96875 16.703125 11.015625 
Q 21.046875 6.0625 27.640625 6.0625 
Q 34.1875 6.0625 38.53125 11.03125 
Q 42.875 16.015625 42.875 26.21875 
Q 42.875 35.84375 38.5 40.796875 
Q 34.125 45.75 27.640625 45.75 
Q 21.046875 45.75 16.703125 40.8125 
Q 12.359375 35.890625 12.359375 25.921875 
z
" id="ArialMT-111"/>
      <path d="M 6.640625 61.46875 
L 6.640625 71.578125 
L 15.4375 71.578125 
L 15.4375 61.46875 
z
M 6.640625 0 
L 6.640625 51.859375 
L 15.4375 51.859375 
L 15.4375 0 
z
" id="ArialMT-105"/>
      <path d="M 25.78125 7.859375 
L 27.046875 0.09375 
Q 23.34375 -0.6875 20.40625 -0.6875 
Q 15.625 -0.6875 12.984375 0.828125 
Q 10.359375 2.34375 9.28125 4.8125 
Q 8.203125 7.28125 8.203125 15.1875 
L 8.203125 45.015625 
L 1.765625 45.015625 
L 1.765625 51.859375 
L 8.203125 51.859375 
L 8.203125 64.703125 
L 16.9375 69.96875 
L 16.9375 51.859375 
L 25.78125 51.859375 
L 25.78125 45.015625 
L 16.9375 45.015625 
L 16.9375 14.703125 
Q 16.9375 10.9375 17.40625 9.859375 
Q 17.875 8.796875 18.921875 8.15625 
Q 19.96875 7.515625 21.921875 7.515625 
Q 23.390625 7.515625 25.78125 7.859375 
z
" id="ArialMT-116"/>
      <path d="M 21 0 
L 1.265625 51.859375 
L 10.546875 51.859375 
L 21.6875 20.796875 
Q 23.484375 15.765625 25 10.359375 
Q 26.171875 14.453125 28.265625 20.21875 
L 39.796875 51.859375 
L 48.828125 51.859375 
L 29.203125 0 
z
" id="ArialMT-118"/>
      <path d="M 6.5 0 
L 6.5 51.859375 
L 14.40625 51.859375 
L 14.40625 44 
Q 17.4375 49.515625 20 51.265625 
Q 22.5625 53.03125 25.640625 53.03125 
Q 30.078125 53.03125 34.671875 50.203125 
L 31.640625 42.046875 
Q 28.421875 43.953125 25.203125 43.953125 
Q 22.3125 43.953125 20.015625 42.21875 
Q 17.71875 40.484375 16.75 37.40625 
Q 15.28125 32.71875 15.28125 27.15625 
L 15.28125 0 
z
" id="ArialMT-114"/>
     </defs>
     <g style="fill:#262626;" transform="translate(164.931641 267.402031)scale(0.11 -0.11)">
      <use xlink:href="#ArialMT-70"/>
      <use x="61.083984" xlink:href="#ArialMT-97"/>
      <use x="116.699219" xlink:href="#ArialMT-108"/>
      <use x="138.916016" xlink:href="#ArialMT-115"/>
      <use x="188.916016" xlink:href="#ArialMT-101"/>
      <use x="244.53125" xlink:href="#ArialMT-32"/>
      <use x="272.314453" xlink:href="#ArialMT-112"/>
      <use x="327.929688" xlink:href="#ArialMT-111"/>
      <use x="383.544922" xlink:href="#ArialMT-115"/>
      <use x="433.544922" xlink:href="#ArialMT-105"/>
      <use x="455.761719" xlink:href="#ArialMT-116"/>
      <use x="483.544922" xlink:href="#ArialMT-105"/>
      <use x="505.761719" xlink:href="#ArialMT-118"/>
      <use x="555.761719" xlink:href="#ArialMT-101"/>
      <use x="611.376953" xlink:href="#ArialMT-32"/>
      <use x="639.160156" xlink:href="#ArialMT-114"/>
      <use x="672.460938" xlink:href="#ArialMT-97"/>
      <use x="728.076172" xlink:href="#ArialMT-116"/>
      <use x="755.859375" xlink:href="#ArialMT-101"/>
     </g>
    </g>
   </g>
   <g id="matplotlib.axis_2">
    <g id="ytick_1">
     <g id="line2d_13">
      <path clip-path="url(#p1427051f26)" d="M 42.159844 229.499489 
L 376.959844 229.499489 
" style="fill:none;stroke:#cccccc;stroke-linecap:round;"/>
     </g>
     <g id="line2d_14"/>
     <g id="text_8">
      <!-- 0.0 -->
      <g style="fill:#262626;" transform="translate(21.259844 233.078395)scale(0.1 -0.1)">
       <use xlink:href="#ArialMT-48"/>
       <use x="55.615234" xlink:href="#ArialMT-46"/>
       <use x="83.398438" xlink:href="#ArialMT-48"/>
      </g>
     </g>
    </g>
    <g id="ytick_2">
     <g id="line2d_15">
      <path clip-path="url(#p1427051f26)" d="M 42.159844 189.964943 
L 376.959844 189.964943 
" style="fill:none;stroke:#cccccc;stroke-linecap:round;"/>
     </g>
     <g id="line2d_16"/>
     <g id="text_9">
      <!-- 0.2 -->
      <g style="fill:#262626;" transform="translate(21.259844 193.543849)scale(0.1 -0.1)">
       <use xlink:href="#ArialMT-48"/>
       <use x="55.615234" xlink:href="#ArialMT-46"/>
       <use x="83.398438" xlink:href="#ArialMT-50"/>
      </g>
     </g>
    </g>
    <g id="ytick_3">
     <g id="line2d_17">
      <path clip-path="url(#p1427051f26)" d="M 42.159844 150.430398 
L 376.959844 150.430398 
" style="fill:none;stroke:#cccccc;stroke-linecap:round;"/>
     </g>
     <g id="line2d_18"/>
     <g id="text_10">
      <!-- 0.4 -->
      <g style="fill:#262626;" transform="translate(21.259844 154.009304)scale(0.1 -0.1)">
       <use xlink:href="#ArialMT-48"/>
       <use x="55.615234" xlink:href="#ArialMT-46"/>
       <use x="83.398438" xlink:href="#ArialMT-52"/>
      </g>
     </g>
    </g>
    <g id="ytick_4">
     <g id="line2d_19">
      <path clip-path="url(#p1427051f26)" d="M 42.159844 110.895852 
L 376.959844 110.895852 
" style="fill:none;stroke:#cccccc;stroke-linecap:round;"/>
     </g>
     <g id="line2d_20"/>
     <g id="text_11">
      <!-- 0.6 -->
      <g style="fill:#262626;" transform="translate(21.259844 114.474759)scale(0.1 -0.1)">
       <use xlink:href="#ArialMT-48"/>
       <use x="55.615234" xlink:href="#ArialMT-46"/>
       <use x="83.398438" xlink:href="#ArialMT-54"/>
      </g>
     </g>
    </g>
    <g id="ytick_5">
     <g id="line2d_21">
      <path clip-path="url(#p1427051f26)" d="M 42.159844 71.361307 
L 376.959844 71.361307 
" style="fill:none;stroke:#cccccc;stroke-linecap:round;"/>
     </g>
     <g id="line2d_22"/>
     <g id="text_12">
      <!-- 0.8 -->
      <g style="fill:#262626;" transform="translate(21.259844 74.940213)scale(0.1 -0.1)">
       <use xlink:href="#ArialMT-48"/>
       <use x="55.615234" xlink:href="#ArialMT-46"/>
       <use x="83.398438" xlink:href="#ArialMT-56"/>
      </g>
     </g>
    </g>
    <g id="ytick_6">
     <g id="line2d_23">
      <path clip-path="url(#p1427051f26)" d="M 42.159844 31.826761 
L 376.959844 31.826761 
" style="fill:none;stroke:#cccccc;stroke-linecap:round;"/>
     </g>
     <g id="line2d_24"/>
     <g id="text_13">
      <!-- 1.0 -->
      <g style="fill:#262626;" transform="translate(21.259844 35.405668)scale(0.1 -0.1)">
       <use xlink:href="#ArialMT-49"/>
       <use x="55.615234" xlink:href="#ArialMT-46"/>
       <use x="83.398438" xlink:href="#ArialMT-48"/>
      </g>
     </g>
    </g>
    <g id="text_14">
     <!-- True positive rate -->
     <defs>
      <path d="M 25.921875 0 
L 25.921875 63.140625 
L 2.34375 63.140625 
L 2.34375 71.578125 
L 59.078125 71.578125 
L 59.078125 63.140625 
L 35.40625 63.140625 
L 35.40625 0 
z
" id="ArialMT-84"/>
      <path d="M 40.578125 0 
L 40.578125 7.625 
Q 34.515625 -1.171875 24.125 -1.171875 
Q 19.53125 -1.171875 15.546875 0.578125 
Q 11.578125 2.34375 9.640625 5 
Q 7.71875 7.671875 6.9375 11.53125 
Q 6.390625 14.109375 6.390625 19.734375 
L 6.390625 51.859375 
L 15.1875 51.859375 
L 15.1875 23.09375 
Q 15.1875 16.21875 15.71875 13.8125 
Q 16.546875 10.359375 19.234375 8.375 
Q 21.921875 6.390625 25.875 6.390625 
Q 29.828125 6.390625 33.296875 8.421875 
Q 36.765625 10.453125 38.203125 13.9375 
Q 39.65625 17.4375 39.65625 24.078125 
L 39.65625 51.859375 
L 48.4375 51.859375 
L 48.4375 0 
z
" id="ArialMT-117"/>
     </defs>
     <g style="fill:#262626;" transform="translate(15.073594 172.944375)rotate(-90)scale(0.11 -0.11)">
      <use xlink:href="#ArialMT-84"/>
      <use x="57.333984" xlink:href="#ArialMT-114"/>
      <use x="90.634766" xlink:href="#ArialMT-117"/>
      <use x="146.25" xlink:href="#ArialMT-101"/>
      <use x="201.865234" xlink:href="#ArialMT-32"/>
      <use x="229.648438" xlink:href="#ArialMT-112"/>
      <use x="285.263672" xlink:href="#ArialMT-111"/>
      <use x="340.878906" xlink:href="#ArialMT-115"/>
      <use x="390.878906" xlink:href="#ArialMT-105"/>
      <use x="413.095703" xlink:href="#ArialMT-116"/>
      <use x="440.878906" xlink:href="#ArialMT-105"/>
      <use x="463.095703" xlink:href="#ArialMT-118"/>
      <use x="513.095703" xlink:href="#ArialMT-101"/>
      <use x="568.710938" xlink:href="#ArialMT-32"/>
      <use x="596.494141" xlink:href="#ArialMT-114"/>
      <use x="629.794922" xlink:href="#ArialMT-97"/>
      <use x="685.410156" xlink:href="#ArialMT-116"/>
      <use x="713.193359" xlink:href="#ArialMT-101"/>
     </g>
    </g>
   </g>
   <g id="line2d_25">
    <path clip-path="url(#p1427051f26)" d="M 57.378026 229.499489 
L 57.378026 229.248476 
L 57.586422 229.248476 
L 57.586422 229.122969 
L 57.794819 229.122969 
L 57.899018 228.244424 
L 58.315812 228.244424 
L 58.315812 227.616891 
L 58.524208 227.616891 
L 58.628407 227.114865 
L 58.732605 227.114865 
L 58.836804 226.110813 
L 58.941002 226.110813 
L 58.941002 225.985307 
L 59.253597 225.985307 
L 59.253597 225.8598 
L 59.566193 225.8598 
L 59.566193 225.734294 
L 59.77459 225.734294 
L 59.878788 225.106761 
L 60.087185 225.106761 
L 60.191383 224.604735 
L 60.608177 224.604735 
L 60.608177 224.479229 
L 60.920772 224.479229 
L 61.024971 223.600683 
L 61.337566 223.600683 
L 61.337566 223.34967 
L 61.545963 223.34967 
L 61.545963 223.224164 
L 61.75436 223.224164 
L 61.75436 222.973151 
L 61.962757 222.973151 
L 62.066955 222.596631 
L 62.171154 222.596631 
L 62.275352 221.969099 
L 62.483749 221.969099 
L 62.587947 221.467073 
L 62.900543 221.467073 
L 62.900543 221.341567 
L 63.525733 221.341567 
L 63.629932 221.090554 
L 63.73413 220.965047 
L 63.942527 220.965047 
L 64.046726 220.714034 
L 64.150924 220.714034 
L 64.255122 220.212008 
L 64.359321 220.212008 
L 64.463519 219.709982 
L 64.671916 219.709982 
L 64.776115 219.08245 
L 64.984512 219.08245 
L 64.984512 218.454917 
L 65.505504 218.454917 
L 65.609702 217.827385 
L 65.713901 217.701878 
L 65.713901 217.325359 
L 66.130694 217.325359 
L 66.234893 216.321307 
L 66.339091 216.321307 
L 66.44329 215.442761 
L 66.651687 215.442761 
L 66.651687 215.317255 
L 66.860083 215.317255 
L 66.860083 215.191748 
L 67.06848 215.191748 
L 67.06848 215.066242 
L 67.381076 215.066242 
L 67.485274 214.689722 
L 67.589472 214.689722 
L 67.589472 214.187696 
L 67.693671 214.187696 
L 67.797869 214.06219 
L 67.902068 212.932631 
L 68.006266 212.932631 
L 68.110465 212.430606 
L 68.214663 212.430606 
L 68.318862 212.179593 
L 68.631457 212.179593 
L 68.631457 212.054086 
L 68.839854 212.054086 
L 68.839854 211.92858 
L 68.944052 211.92858 
L 69.256647 211.92858 
L 69.360846 211.426554 
L 69.569243 211.426554 
L 69.673441 211.175541 
L 69.881838 211.175541 
L 69.881838 210.799021 
L 70.090235 210.799021 
L 70.090235 210.673515 
L 70.298632 210.673515 
L 70.298632 209.920476 
L 70.507029 209.920476 
L 70.611227 209.167437 
L 70.715426 209.167437 
L 70.715426 209.04193 
L 71.028021 209.04193 
L 71.132219 208.539904 
L 71.236418 208.539904 
L 71.236418 208.414398 
L 71.549013 208.414398 
L 71.549013 208.288891 
L 71.75741 208.288891 
L 71.75741 207.912372 
L 71.861608 207.912372 
L 72.070005 207.661359 
L 72.174204 207.033826 
L 72.278402 207.033826 
L 72.382601 206.657307 
L 72.695196 206.657307 
L 72.799394 206.155281 
L 73.11199 206.155281 
L 73.216188 205.778761 
L 73.320387 205.778761 
L 73.320387 205.276735 
L 73.841379 205.276735 
L 73.945577 205.025722 
L 74.362371 205.025722 
L 74.362371 204.900216 
L 74.570768 204.900216 
L 74.570768 204.774709 
L 74.779165 204.774709 
L 74.883363 204.39819 
L 75.09176 204.39819 
L 75.195958 203.770657 
L 75.404355 203.770657 
L 75.404355 203.519644 
L 75.612752 203.519644 
L 75.612752 203.394138 
L 75.821149 203.394138 
L 75.925347 202.515593 
L 76.133744 202.515593 
L 76.237943 202.26458 
L 76.342141 202.26458 
L 76.342141 202.139073 
L 76.550538 202.139073 
L 76.654737 201.762554 
L 76.758935 201.762554 
L 76.863133 201.511541 
L 76.967332 201.511541 
L 77.07153 201.009515 
L 77.384126 201.009515 
L 77.384126 200.884008 
L 77.800919 200.884008 
L 77.905118 200.256476 
L 78.009316 200.256476 
L 78.009316 199.879956 
L 78.530308 199.879956 
L 78.530308 199.75445 
L 78.634507 199.75445 
L 78.947102 199.503437 
L 79.051301 198.875904 
L 79.155499 198.875904 
L 79.259697 198.499385 
L 79.363896 198.499385 
L 79.363896 198.248372 
L 79.78069 198.248372 
L 79.884888 197.620839 
L 79.989087 197.620839 
L 80.093285 197.24432 
L 80.197483 197.24432 
L 80.197483 196.993307 
L 80.40588 196.993307 
L 80.40588 196.365774 
L 80.510079 196.365774 
L 80.614277 196.114761 
L 80.822674 196.114761 
L 80.822674 195.989255 
L 81.031071 195.989255 
L 81.031071 195.738242 
L 81.239468 195.738242 
L 81.343666 195.236216 
L 81.447865 195.236216 
L 81.447865 194.35767 
L 81.656262 194.35767 
L 81.76046 194.106657 
L 81.968857 194.106657 
L 81.968857 193.855644 
L 82.281452 193.855644 
L 82.385651 192.349567 
L 82.489849 192.349567 
L 82.489849 191.722034 
L 82.802444 191.722034 
L 82.906643 191.345515 
L 83.11504 191.345515 
L 83.219238 190.843489 
L 83.531833 190.843489 
L 83.531833 190.592476 
L 83.844429 190.592476 
L 83.844429 189.964943 
L 84.157024 189.964943 
L 84.157024 189.588424 
L 84.365421 189.588424 
L 84.365421 189.462917 
L 84.782215 189.462917 
L 84.782215 189.211904 
L 84.990612 189.211904 
L 84.990612 188.960891 
L 85.199008 188.960891 
L 85.303207 188.207852 
L 85.511604 188.207852 
L 85.511604 188.082346 
L 85.720001 188.082346 
L 85.824199 187.454813 
L 86.032596 187.454813 
L 86.136794 186.952787 
L 86.44939 186.952787 
L 86.553588 186.450761 
L 86.761985 186.450761 
L 86.866183 186.199748 
L 87.07458 186.199748 
L 87.178779 185.823229 
L 87.387176 185.823229 
L 87.491374 185.321203 
L 87.595572 185.321203 
L 87.699771 185.07019 
L 87.803969 185.07019 
L 87.908168 183.689619 
L 88.012366 183.689619 
L 88.012366 183.313099 
L 88.324962 183.313099 
L 88.324962 183.187593 
L 88.533358 183.187593 
L 88.637557 182.93658 
L 88.845954 182.93658 
L 88.950152 182.56006 
L 89.054351 182.56006 
L 89.158549 182.309047 
L 89.262747 182.309047 
L 89.471144 182.058034 
L 89.575343 181.556008 
L 89.679541 181.556008 
L 89.78374 180.928476 
L 89.887938 180.928476 
L 89.992137 179.924424 
L 90.096335 179.924424 
L 90.200533 179.171385 
L 90.304732 179.171385 
L 90.304732 179.045878 
L 90.721526 179.045878 
L 90.825724 178.669359 
L 90.929922 178.669359 
L 90.929922 178.418346 
L 91.138319 178.418346 
L 91.346716 178.167333 
L 91.346716 177.790813 
L 92.284502 177.790813 
L 92.388701 177.288787 
L 92.492899 177.288787 
L 92.597097 176.786761 
L 92.701296 176.786761 
L 92.805494 176.410242 
L 92.909693 176.410242 
L 92.909693 176.159229 
L 93.222288 176.159229 
L 93.326487 175.657203 
L 93.430685 175.657203 
L 93.430685 175.40619 
L 93.74328 175.40619 
L 93.74328 175.280683 
L 93.951677 175.280683 
L 94.055876 174.904164 
L 94.160074 174.904164 
L 94.160074 174.527644 
L 94.368471 174.527644 
L 94.368471 174.151125 
L 94.681066 174.151125 
L 94.681066 173.523593 
L 94.889463 173.523593 
L 94.889463 173.147073 
L 95.09786 173.147073 
L 95.09786 173.021567 
L 95.514654 173.021567 
L 95.618852 172.394034 
L 96.035646 172.394034 
L 96.139844 171.892008 
L 96.244043 171.892008 
L 96.348241 170.887956 
L 96.45244 170.887956 
L 96.556638 170.38593 
L 96.660837 170.38593 
L 96.660837 169.632891 
L 96.869233 169.632891 
L 96.869233 169.507385 
L 97.07763 169.507385 
L 97.181829 168.754346 
L 97.494424 168.754346 
L 97.598622 168.126813 
L 97.702821 168.126813 
L 97.702821 168.001307 
L 97.911218 168.001307 
L 98.015416 167.248268 
L 98.119615 167.248268 
L 98.223813 166.118709 
L 98.328012 166.118709 
L 98.43221 165.867696 
L 98.640607 165.867696 
L 98.640607 165.616683 
L 98.849004 165.616683 
L 98.849004 165.36567 
L 99.057401 165.36567 
L 99.057401 165.240164 
L 99.369996 165.240164 
L 99.474194 164.487125 
L 99.995187 164.487125 
L 99.995187 163.60858 
L 100.203583 163.60858 
L 100.203583 163.483073 
L 100.41198 163.483073 
L 100.516179 163.106554 
L 100.620377 163.106554 
L 100.620377 162.855541 
L 100.828774 162.855541 
L 100.932973 162.479021 
L 101.037171 162.479021 
L 101.037171 161.851489 
L 101.245568 161.851489 
L 101.349766 161.474969 
L 101.558163 161.09845 
L 101.974957 161.09845 
L 101.974957 160.72193 
L 102.600148 160.72193 
L 102.704346 160.094398 
L 103.433735 160.094398 
L 103.537933 159.843385 
L 103.74633 159.843385 
L 103.74633 159.717878 
L 104.058926 159.717878 
L 104.058926 159.592372 
L 104.788315 159.592372 
L 104.788315 159.466865 
L 105.10091 159.466865 
L 105.10091 159.341359 
L 105.413505 159.341359 
L 105.517704 158.964839 
L 105.830299 158.964839 
L 105.934498 158.713826 
L 106.45549 158.713826 
L 106.45549 158.58832 
L 106.663887 158.58832 
L 106.768085 157.584268 
L 106.872283 157.584268 
L 106.976482 156.580216 
L 107.08068 156.580216 
L 107.184879 156.329203 
L 107.810069 156.329203 
L 107.914268 155.70167 
L 108.018466 155.70167 
L 108.018466 155.576164 
L 108.331062 155.576164 
L 108.43526 155.074138 
L 108.539458 155.074138 
L 108.643657 154.321099 
L 108.852054 154.321099 
L 108.852054 154.070086 
L 109.060451 154.070086 
L 109.060451 153.94458 
L 109.373046 153.94458 
L 109.373046 153.819073 
L 109.685641 153.819073 
L 109.685641 153.442554 
L 109.894038 153.442554 
L 109.894038 153.066034 
L 110.102435 153.066034 
L 110.102435 152.940528 
L 110.519229 152.940528 
L 110.519229 152.815021 
L 110.936023 152.815021 
L 110.936023 152.689515 
L 111.144419 152.689515 
L 111.248618 152.187489 
L 111.665412 152.187489 
L 111.665412 151.810969 
L 112.394801 151.810969 
L 112.498999 151.05793 
L 112.603198 151.05793 
L 112.707396 150.555904 
L 113.019991 150.555904 
L 113.019991 150.430398 
L 113.332587 150.430398 
L 113.332587 150.304891 
L 113.540983 150.304891 
L 113.540983 150.179385 
L 113.957777 150.179385 
L 114.061976 149.928372 
L 114.166174 149.928372 
L 114.166174 149.551852 
L 114.478769 149.551852 
L 114.582968 148.798813 
L 114.999762 148.798813 
L 115.10396 148.296787 
L 115.208158 148.296787 
L 115.208158 148.171281 
L 115.416555 148.171281 
L 115.416555 147.920268 
L 115.624952 147.920268 
L 115.729151 147.543748 
L 116.145944 147.543748 
L 116.145944 147.292735 
L 116.354341 147.292735 
L 116.354341 147.167229 
L 116.45854 147.167229 
L 116.562738 146.916216 
L 116.875333 146.916216 
L 116.875333 146.790709 
L 117.08373 146.790709 
L 117.08373 146.665203 
L 117.604723 146.665203 
L 117.604723 146.288683 
L 117.813119 146.288683 
L 117.813119 146.163177 
L 118.021516 146.163177 
L 118.125715 145.159125 
L 118.229913 145.159125 
L 118.334112 144.657099 
L 118.43831 144.657099 
L 118.43831 144.531593 
L 118.750905 144.531593 
L 118.750905 144.28058 
L 119.167699 144.28058 
L 119.271898 143.653047 
L 119.376096 143.653047 
L 119.480294 143.151021 
L 119.584493 143.151021 
L 119.688691 142.272476 
L 119.79289 142.272476 
L 119.897088 141.77045 
L 120.001287 141.77045 
L 120.105485 141.268424 
L 120.209683 141.268424 
L 120.209683 141.017411 
L 120.41808 141.017411 
L 120.522279 140.389878 
L 120.834874 140.389878 
L 120.834874 140.264372 
L 121.043271 140.264372 
L 121.043271 140.138865 
L 121.460065 140.138865 
L 121.460065 139.762346 
L 121.668462 139.762346 
L 121.668462 139.26032 
L 121.876858 139.26032 
L 121.981057 138.8838 
L 122.085255 138.8838 
L 122.189454 138.005255 
L 122.397851 138.005255 
L 122.397851 137.879748 
L 122.606248 137.879748 
L 122.710446 137.252216 
L 122.814644 137.252216 
L 122.814644 137.126709 
L 123.648232 137.126709 
L 123.648232 136.875696 
L 123.856629 136.875696 
L 123.960827 136.248164 
L 124.065026 136.248164 
L 124.065026 136.122657 
L 124.273423 136.122657 
L 124.377621 135.620631 
L 124.481819 135.620631 
L 124.586018 135.244112 
L 124.690216 135.244112 
L 124.690216 135.118606 
L 124.898613 135.118606 
L 125.002812 134.742086 
L 125.211208 134.742086 
L 125.211208 134.61658 
L 125.523804 134.61658 
L 125.628002 133.487021 
L 125.940598 133.487021 
L 125.940598 133.361515 
L 126.148994 133.361515 
L 126.253193 133.110502 
L 126.46159 133.110502 
L 126.46159 132.859489 
L 126.669987 132.859489 
L 126.669987 132.482969 
L 127.190979 132.482969 
L 127.295177 132.231956 
L 127.399376 132.10645 
L 127.816169 132.10645 
L 127.920368 131.72993 
L 128.545558 131.72993 
L 128.649757 130.976891 
L 128.753955 130.976891 
L 128.753955 130.851385 
L 129.066551 130.851385 
L 129.170749 130.600372 
L 129.79594 130.600372 
L 129.900138 130.223852 
L 130.108535 130.223852 
L 130.108535 130.098346 
L 130.316932 130.098346 
L 130.316932 129.721826 
L 130.629527 129.721826 
L 130.629527 129.59632 
L 130.837924 129.59632 
L 130.942123 128.843281 
L 131.254718 128.843281 
L 131.254718 128.717774 
L 131.567313 128.717774 
L 131.671512 128.466761 
L 131.879908 128.466761 
L 131.984107 128.090242 
L 132.505099 128.090242 
L 132.505099 127.713722 
L 132.817694 127.713722 
L 132.817694 127.462709 
L 133.026091 127.462709 
L 133.13029 126.584164 
L 133.234488 126.584164 
L 133.338687 125.956631 
L 133.442885 125.956631 
L 133.547083 125.580112 
L 133.75548 125.580112 
L 133.859679 125.329099 
L 134.068076 125.329099 
L 134.068076 125.203593 
L 134.276473 125.203593 
L 134.276473 124.57606 
L 134.693266 124.57606 
L 134.693266 124.450554 
L 135.005862 124.450554 
L 135.005862 124.074034 
L 135.214258 124.074034 
L 135.318457 122.944476 
L 135.631052 122.944476 
L 135.631052 122.818969 
L 135.943648 122.818969 
L 135.943648 122.693463 
L 136.152044 122.693463 
L 136.256243 122.44245 
L 136.360441 122.44245 
L 136.360441 122.316943 
L 136.985632 122.316943 
L 136.985632 121.940424 
L 137.298227 121.940424 
L 137.298227 121.814917 
L 137.506624 121.814917 
L 137.506624 121.689411 
L 137.715021 121.689411 
L 137.819219 121.061878 
L 138.236013 121.061878 
L 138.236013 120.559852 
L 138.548608 120.559852 
L 138.652807 120.308839 
L 138.757005 120.183333 
L 138.861204 118.928268 
L 138.965402 118.928268 
L 139.069601 118.426242 
L 139.277998 118.426242 
L 139.382196 117.924216 
L 139.486394 117.924216 
L 139.590593 117.42219 
L 139.694791 117.42219 
L 139.79899 116.920164 
L 140.111585 116.920164 
L 140.111585 116.794657 
L 140.319982 116.794657 
L 140.319982 115.916112 
L 140.528379 115.916112 
L 140.528379 115.790606 
L 140.945173 115.790606 
L 140.945173 115.163073 
L 141.153569 115.163073 
L 141.153569 114.661047 
L 142.091355 114.661047 
L 142.091355 114.535541 
L 142.299752 114.535541 
L 142.403951 113.531489 
L 143.13334 113.531489 
L 143.13334 113.154969 
L 143.75853 113.154969 
L 143.75853 113.029463 
L 143.966927 113.029463 
L 144.071126 112.652943 
L 144.175324 112.652943 
L 144.279523 112.276424 
L 144.487919 112.276424 
L 144.592118 111.397878 
L 144.696316 111.397878 
L 144.696316 111.272372 
L 144.904713 111.272372 
L 145.008912 111.021359 
L 145.11311 111.021359 
L 145.217309 110.644839 
L 145.321507 110.644839 
L 145.321507 110.393826 
L 145.634102 110.393826 
L 145.634102 110.26832 
L 145.842499 110.26832 
L 145.842499 110.017307 
L 146.050896 110.017307 
L 146.050896 109.389774 
L 146.259293 109.389774 
L 146.363491 109.013255 
L 146.46769 109.013255 
L 146.46769 108.636735 
L 146.780285 108.636735 
L 146.884484 107.883696 
L 147.09288 107.883696 
L 147.197079 107.38167 
L 147.509674 107.38167 
L 147.613873 106.503125 
L 147.822269 106.503125 
L 147.822269 106.377619 
L 148.030666 106.377619 
L 148.134865 105.750086 
L 148.343262 105.750086 
L 148.343262 105.62458 
L 148.760055 105.62458 
L 148.760055 105.499073 
L 149.072651 105.499073 
L 149.072651 105.122554 
L 149.281048 105.122554 
L 149.281048 104.997047 
L 149.593643 104.997047 
L 149.593643 104.871541 
L 149.80204 104.871541 
L 149.80204 104.746034 
L 150.010437 104.746034 
L 150.010437 104.620528 
L 150.323032 104.620528 
L 150.323032 104.244008 
L 150.739826 104.244008 
L 150.739826 104.118502 
L 150.948223 104.118502 
L 151.052421 103.365463 
L 151.365016 103.365463 
L 151.469215 103.11445 
L 151.573413 103.11445 
L 151.573413 102.988943 
L 151.78181 102.988943 
L 151.886009 102.612424 
L 152.407001 102.612424 
L 152.407001 102.486917 
L 152.719596 102.486917 
L 152.719596 102.361411 
L 153.032191 102.361411 
L 153.032191 102.110398 
L 153.344787 102.110398 
L 153.448985 101.608372 
L 153.657382 101.608372 
L 153.657382 101.482865 
L 153.865779 101.482865 
L 153.865779 101.357359 
L 154.074176 101.357359 
L 154.178374 101.106346 
L 154.282573 101.106346 
L 154.386771 100.855333 
L 155.011962 100.855333 
L 155.011962 100.60432 
L 155.220359 100.60432 
L 155.324557 100.353307 
L 155.428755 100.353307 
L 155.532954 99.976787 
L 155.637152 99.976787 
L 155.637152 99.725774 
L 155.845549 99.725774 
L 155.845549 99.600268 
L 156.158144 99.600268 
L 156.158144 99.098242 
L 156.679137 99.098242 
L 156.679137 98.972735 
L 156.991732 98.972735 
L 156.991732 98.721722 
L 157.304327 98.721722 
L 157.408526 98.345203 
L 157.512724 98.345203 
L 157.616923 98.09419 
L 158.033716 98.09419 
L 158.137915 97.843177 
L 158.554709 97.843177 
L 158.658907 97.71767 
L 158.763105 96.964631 
L 159.284098 96.964631 
L 159.388296 96.462606 
L 159.492494 96.462606 
L 159.492494 96.211593 
L 160.326082 96.211593 
L 160.326082 96.086086 
L 160.534479 96.086086 
L 160.534479 95.835073 
L 160.951273 95.835073 
L 160.951273 95.58406 
L 161.159669 95.58406 
L 161.159669 95.458554 
L 161.472265 95.458554 
L 161.576463 95.207541 
L 161.78486 95.207541 
L 161.78486 94.956528 
L 161.993257 94.956528 
L 161.993257 94.705515 
L 162.201654 94.705515 
L 162.201654 94.580008 
L 162.410051 94.580008 
L 162.514249 93.701463 
L 162.722646 93.701463 
L 162.722646 93.575956 
L 163.035241 93.575956 
L 163.035241 93.324943 
L 163.243638 93.324943 
L 163.243638 93.07393 
L 163.452035 93.07393 
L 163.452035 92.571904 
L 163.660432 92.571904 
L 163.660432 92.446398 
L 163.868829 92.446398 
L 163.868829 92.195385 
L 164.077226 92.195385 
L 164.077226 91.944372 
L 164.389821 91.944372 
L 164.389821 91.693359 
L 164.806615 91.693359 
L 164.806615 91.567852 
L 165.015012 91.567852 
L 165.11921 90.814813 
L 165.223409 90.814813 
L 165.327607 90.438294 
L 166.369591 90.438294 
L 166.369591 90.312787 
L 166.786385 90.312787 
L 166.786385 90.187281 
L 166.994782 90.187281 
L 166.994782 90.061774 
L 167.203179 90.061774 
L 167.203179 89.936268 
L 167.411576 89.936268 
L 167.515774 89.308735 
L 167.828369 89.308735 
L 167.828369 89.183229 
L 168.036766 89.183229 
L 168.140965 88.681203 
L 168.45356 88.681203 
L 168.45356 88.43019 
L 168.661957 88.43019 
L 168.661957 88.304683 
L 169.182949 88.304683 
L 169.287148 87.802657 
L 169.80814 87.802657 
L 169.80814 87.426138 
L 170.120735 87.426138 
L 170.120735 87.300631 
L 171.162719 87.300631 
L 171.266918 87.049619 
L 171.475315 87.049619 
L 171.475315 86.924112 
L 172.100505 86.924112 
L 172.204704 86.673099 
L 172.413101 86.673099 
L 172.413101 86.422086 
L 172.621498 86.422086 
L 172.725696 86.171073 
L 173.038291 86.171073 
L 173.14249 85.669047 
L 173.350887 85.669047 
L 173.455085 85.418034 
L 173.76768 85.418034 
L 173.76768 84.790502 
L 175.018062 84.790502 
L 175.018062 84.664995 
L 175.226459 84.664995 
L 175.330657 84.037463 
L 175.434855 84.037463 
L 175.434855 83.911956 
L 175.643252 83.911956 
L 175.643252 83.660943 
L 175.851649 83.660943 
L 175.851649 83.535437 
L 176.47684 83.535437 
L 176.47684 83.40993 
L 176.997832 83.40993 
L 177.10203 82.907904 
L 177.727221 82.907904 
L 177.727221 82.531385 
L 177.831419 82.531385 
L 178.144015 82.531385 
L 178.248213 82.280372 
L 178.352412 82.280372 
L 178.352412 82.154865 
L 178.769205 82.154865 
L 178.769205 82.029359 
L 178.873404 82.029359 
L 179.081801 81.652839 
L 179.602793 81.652839 
L 179.602793 81.527333 
L 180.019587 81.527333 
L 180.123785 81.27632 
L 180.540579 81.27632 
L 180.540579 81.150813 
L 180.748976 81.150813 
L 180.853174 80.648787 
L 181.061571 80.648787 
L 181.165769 80.397774 
L 181.269968 80.397774 
L 181.374166 79.770242 
L 181.478365 79.770242 
L 181.478365 79.644735 
L 181.686762 79.644735 
L 181.79096 79.142709 
L 182.311952 79.142709 
L 182.416151 78.640683 
L 182.520349 78.640683 
L 182.520349 78.515177 
L 182.832944 78.515177 
L 182.832944 78.138657 
L 183.353937 78.138657 
L 183.458135 77.762138 
L 183.874929 77.762138 
L 183.874929 77.511125 
L 184.291723 77.511125 
L 184.395921 77.009099 
L 184.500119 77.009099 
L 184.500119 76.883593 
L 184.708516 76.883593 
L 184.708516 76.758086 
L 185.12531 76.758086 
L 185.12531 76.63258 
L 186.375691 76.63258 
L 186.375691 76.381567 
L 186.688287 76.381567 
L 186.688287 76.25606 
L 186.896684 76.25606 
L 186.896684 76.130554 
L 187.209279 76.130554 
L 187.209279 76.005047 
L 187.730271 76.005047 
L 187.83447 75.754034 
L 188.45966 75.754034 
L 188.45966 75.377515 
L 188.668057 75.377515 
L 188.668057 75.126502 
L 188.876454 75.126502 
L 188.876454 75.000995 
L 189.084851 75.000995 
L 189.084851 74.875489 
L 189.710041 74.875489 
L 189.710041 74.749982 
L 190.43943 74.749982 
L 190.43943 74.373463 
L 190.752026 74.373463 
L 190.752026 74.247956 
L 191.064621 74.247956 
L 191.16882 73.871437 
L 191.273018 73.871437 
L 191.377216 73.243904 
L 191.689812 73.243904 
L 191.689812 73.118398 
L 191.898209 73.118398 
L 192.002407 72.741878 
L 192.523399 72.741878 
L 192.523399 72.616372 
L 192.940193 72.616372 
L 192.940193 72.239852 
L 193.356987 72.239852 
L 193.461185 71.988839 
L 193.877979 71.988839 
L 193.877979 71.61232 
L 194.294773 71.61232 
L 194.294773 71.486813 
L 194.50317 71.486813 
L 194.50317 71.2358 
L 195.12836 71.2358 
L 195.232559 70.482761 
L 195.545154 70.482761 
L 195.545154 70.106242 
L 195.857749 70.106242 
L 195.961948 69.855229 
L 196.378741 69.855229 
L 196.378741 69.604216 
L 196.587138 69.604216 
L 196.587138 69.227696 
L 196.899734 69.227696 
L 196.899734 69.10219 
L 197.10813 69.10219 
L 197.10813 68.976683 
L 197.420726 68.976683 
L 197.420726 68.600164 
L 198.045916 68.600164 
L 198.150115 68.349151 
L 199.087901 68.349151 
L 199.192099 68.098138 
L 199.296298 68.098138 
L 199.296298 67.972631 
L 199.504695 67.972631 
L 199.504695 67.847125 
L 200.44248 67.847125 
L 200.546679 67.345099 
L 201.276068 67.345099 
L 201.276068 67.094086 
L 201.588663 67.094086 
L 201.588663 66.843073 
L 202.318052 66.843073 
L 202.318052 66.59206 
L 202.734846 66.59206 
L 202.734846 66.341047 
L 203.360037 66.341047 
L 203.360037 66.090034 
L 203.672632 66.090034 
L 203.77683 65.839021 
L 203.881029 65.839021 
L 203.985227 65.336995 
L 204.089426 65.336995 
L 204.089426 65.085982 
L 204.818815 65.085982 
L 204.923013 64.583956 
L 205.027212 64.583956 
L 205.13141 64.332943 
L 205.964998 64.332943 
L 205.964998 64.08193 
L 206.798585 64.08193 
L 206.798585 63.956424 
L 207.006982 63.956424 
L 207.006982 63.830917 
L 207.632173 63.830917 
L 207.632173 63.705411 
L 207.84057 63.705411 
L 207.944768 63.454398 
L 208.153165 63.454398 
L 208.257363 63.203385 
L 209.090951 63.203385 
L 209.090951 63.077878 
L 209.403546 63.077878 
L 209.507745 62.952372 
L 209.716141 62.952372 
L 209.716141 62.826865 
L 210.341332 62.826865 
L 210.44553 62.575852 
L 210.549729 62.575852 
L 210.549729 62.324839 
L 210.758126 62.324839 
L 210.758126 62.199333 
L 210.966523 62.199333 
L 210.966523 62.073826 
L 212.633698 62.073826 
L 212.633698 61.94832 
L 213.467285 61.94832 
L 213.467285 61.697307 
L 213.675682 61.697307 
L 213.675682 61.5718 
L 214.092476 61.5718 
L 214.092476 61.446294 
L 214.300873 61.446294 
L 214.300873 61.320787 
L 214.613468 61.320787 
L 214.613468 61.195281 
L 215.030262 61.195281 
L 215.030262 61.069774 
L 215.238659 61.069774 
L 215.238659 60.818761 
L 215.551254 60.818761 
L 215.551254 60.693255 
L 215.968048 60.693255 
L 215.968048 60.567748 
L 216.176445 60.567748 
L 216.176445 60.442242 
L 216.593238 60.442242 
L 216.697437 60.065722 
L 216.905834 60.065722 
L 216.905834 59.940216 
L 217.739421 59.940216 
L 217.84362 59.43819 
L 217.947818 59.43819 
L 218.052016 59.187177 
L 218.260413 59.187177 
L 218.260413 59.06167 
L 218.677207 59.06167 
L 218.677207 58.936164 
L 219.302398 58.936164 
L 219.302398 58.810657 
L 219.82339 58.810657 
L 219.82339 58.685151 
L 220.031787 58.685151 
L 220.031787 58.559644 
L 220.552779 58.559644 
L 220.552779 58.434138 
L 220.865374 58.434138 
L 220.865374 58.308631 
L 221.17797 58.308631 
L 221.17797 58.057619 
L 221.386366 58.057619 
L 221.386366 57.932112 
L 222.115755 57.932112 
L 222.115755 57.681099 
L 222.636748 57.681099 
L 222.636748 57.555593 
L 223.261938 57.555593 
L 223.366137 57.179073 
L 224.095526 57.179073 
L 224.095526 57.053567 
L 224.720716 57.053567 
L 224.720716 56.92806 
L 225.033312 56.92806 
L 225.033312 56.802554 
L 225.554304 56.802554 
L 225.658502 56.300528 
L 225.866899 56.300528 
L 225.866899 56.175021 
L 226.075296 56.175021 
L 226.179495 55.924008 
L 226.387891 55.924008 
L 226.387891 55.798502 
L 226.804685 55.798502 
L 226.804685 55.672995 
L 227.11728 55.672995 
L 227.11728 55.547489 
L 227.638273 55.547489 
L 227.742471 55.045463 
L 227.84667 55.045463 
L 227.84667 54.919956 
L 228.055066 54.919956 
L 228.159265 54.292424 
L 228.888654 54.292424 
L 228.888654 54.166917 
L 229.618043 54.166917 
L 229.618043 54.041411 
L 230.45163 54.041411 
L 230.45163 53.915904 
L 230.764226 53.915904 
L 230.764226 53.790398 
L 231.597813 53.790398 
L 231.597813 53.664891 
L 232.014607 53.664891 
L 232.118806 53.288372 
L 232.431401 53.288372 
L 232.431401 53.162865 
L 233.577584 53.162865 
L 233.577584 53.037359 
L 234.619568 53.037359 
L 234.619568 52.911852 
L 235.14056 52.911852 
L 235.14056 52.786346 
L 235.453156 52.786346 
L 235.453156 52.660839 
L 235.869949 52.660839 
L 235.869949 52.535333 
L 236.599338 52.535333 
L 236.599338 52.409826 
L 237.016132 52.409826 
L 237.016132 52.28432 
L 237.432926 52.28432 
L 237.537124 52.033307 
L 237.84972 52.033307 
L 237.953918 51.656787 
L 240.454681 51.656787 
L 240.454681 51.405774 
L 241.18407 51.405774 
L 241.18407 51.280268 
L 242.538649 51.280268 
L 242.538649 51.154761 
L 242.747046 51.154761 
L 242.747046 51.029255 
L 243.059641 51.029255 
L 243.059641 50.903748 
L 243.268038 50.903748 
L 243.268038 50.527229 
L 243.684832 50.527229 
L 243.684832 50.276216 
L 243.997427 50.276216 
L 243.997427 50.150709 
L 245.872999 50.150709 
L 245.977198 49.899696 
L 247.019182 49.899696 
L 247.019182 48.895644 
L 247.435976 48.895644 
L 247.435976 48.770138 
L 247.644373 48.770138 
L 247.644373 48.644631 
L 247.956968 48.644631 
L 248.061166 48.268112 
L 248.47796 48.268112 
L 248.47796 48.142606 
L 248.894754 48.142606 
L 248.894754 48.017099 
L 249.728341 48.017099 
L 249.728341 47.891593 
L 250.457731 47.891593 
L 250.457731 47.766086 
L 250.770326 47.766086 
L 250.770326 47.64058 
L 251.082921 47.64058 
L 251.082921 47.515073 
L 252.020707 47.515073 
L 252.020707 47.389567 
L 252.333302 47.389567 
L 252.333302 47.26406 
L 253.479485 47.26406 
L 253.479485 47.138554 
L 253.896279 47.138554 
L 253.896279 47.013047 
L 254.52147 47.013047 
L 254.52147 46.887541 
L 254.729866 46.887541 
L 254.834065 46.636528 
L 255.042462 46.636528 
L 255.042462 46.511021 
L 256.188645 46.511021 
L 256.188645 46.385515 
L 256.397041 46.385515 
L 256.397041 46.260008 
L 256.918034 46.260008 
L 256.918034 46.134502 
L 258.689407 46.134502 
L 258.689407 46.008995 
L 259.210399 46.008995 
L 259.210399 45.883489 
L 259.522995 45.883489 
L 259.522995 45.757982 
L 259.83559 45.757982 
L 259.83559 45.632476 
L 260.043987 45.632476 
L 260.043987 45.506969 
L 260.773376 45.506969 
L 260.773376 45.255956 
L 260.981773 45.255956 
L 260.981773 45.13045 
L 261.19017 45.13045 
L 261.294368 44.879437 
L 261.502765 44.879437 
L 261.502765 44.75393 
L 262.023757 44.75393 
L 262.023757 44.628424 
L 262.857345 44.628424 
L 262.857345 44.502917 
L 264.420321 44.502917 
L 264.420321 44.377411 
L 265.358107 44.377411 
L 265.358107 44.251904 
L 266.295893 44.251904 
L 266.295893 44.126398 
L 267.129481 44.126398 
L 267.129481 44.000891 
L 267.963068 44.000891 
L 267.963068 43.875385 
L 268.171465 43.875385 
L 268.171465 43.749878 
L 268.796656 43.749878 
L 268.796656 43.624372 
L 269.317648 43.624372 
L 269.317648 43.498865 
L 273.277188 43.498865 
L 273.277188 43.373359 
L 273.485585 43.373359 
L 273.589784 43.122346 
L 273.902379 43.122346 
L 273.902379 42.996839 
L 274.214974 42.996839 
L 274.214974 42.871333 
L 274.52757 42.871333 
L 274.631768 42.62032 
L 275.361157 42.62032 
L 275.361157 42.2438 
L 276.194745 42.2438 
L 276.194745 42.118294 
L 277.236729 42.118294 
L 277.340927 41.867281 
L 278.278713 41.867281 
L 278.278713 41.741774 
L 279.112301 41.741774 
L 279.112301 41.616268 
L 279.737492 41.616268 
L 279.737492 41.490761 
L 280.050087 41.490761 
L 280.050087 41.239748 
L 280.571079 41.239748 
L 280.675277 40.988735 
L 281.508865 40.988735 
L 281.508865 40.863229 
L 281.717262 40.863229 
L 281.717262 40.737722 
L 282.342452 40.737722 
L 282.342452 40.486709 
L 283.592834 40.486709 
L 283.592834 40.235696 
L 284.113826 40.235696 
L 284.218024 39.73367 
L 285.051612 39.73367 
L 285.051612 39.608164 
L 286.301993 39.608164 
L 286.301993 39.482657 
L 286.927184 39.482657 
L 286.927184 39.231644 
L 287.239779 39.231644 
L 287.239779 39.106138 
L 287.656573 39.106138 
L 287.656573 38.855125 
L 288.073367 38.855125 
L 288.073367 38.729619 
L 289.115351 38.729619 
L 289.115351 38.478606 
L 289.427946 38.478606 
L 289.427946 38.353099 
L 290.053137 38.353099 
L 290.053137 38.227593 
L 292.553899 38.227593 
L 292.553899 38.102086 
L 293.491685 38.102086 
L 293.491685 37.97658 
L 295.471456 37.97658 
L 295.575654 37.725567 
L 297.555424 37.725567 
L 297.555424 37.60006 
L 297.763821 37.60006 
L 297.763821 37.349047 
L 298.701607 37.349047 
L 298.701607 37.223541 
L 299.84779 37.223541 
L 299.84779 37.098034 
L 300.368782 37.098034 
L 300.368782 36.972528 
L 300.681377 36.972528 
L 300.681377 36.847021 
L 301.931759 36.847021 
L 302.035957 36.721515 
L 302.452751 36.721515 
L 302.452751 36.596008 
L 302.973743 36.596008 
L 302.973743 36.470502 
L 304.328323 36.470502 
L 304.328323 36.219489 
L 304.53672 36.219489 
L 304.53672 36.093982 
L 305.578704 36.093982 
L 305.578704 35.968476 
L 305.891299 35.968476 
L 305.891299 35.842969 
L 307.037482 35.842969 
L 307.037482 35.717463 
L 307.766871 35.717463 
L 307.766871 35.591956 
L 308.183665 35.591956 
L 308.183665 35.46645 
L 308.600459 35.46645 
L 308.600459 35.340943 
L 309.121451 35.340943 
L 309.225649 35.08993 
L 310.267634 35.08993 
L 310.267634 34.964424 
L 311.83061 34.964424 
L 311.83061 34.838917 
L 312.872595 34.838917 
L 312.872595 34.713411 
L 314.643968 34.713411 
L 314.643968 34.587904 
L 316.415342 34.587904 
L 316.415342 34.462398 
L 318.603509 34.462398 
L 318.603509 34.336891 
L 319.645493 34.336891 
L 319.645493 34.211385 
L 321.521065 34.211385 
L 321.521065 34.085878 
L 323.084042 34.085878 
L 323.084042 33.960372 
L 324.855415 33.960372 
L 324.855415 33.834865 
L 325.480606 33.834865 
L 325.480606 33.709359 
L 326.418392 33.709359 
L 326.418392 33.583852 
L 332.357703 33.583852 
L 332.357703 33.458346 
L 335.692053 33.458346 
L 335.692053 33.332839 
L 336.421442 33.332839 
L 336.421442 33.207333 
L 341.735562 33.207333 
L 341.735562 33.081826 
L 345.069912 33.081826 
L 345.069912 32.95632 
L 346.632888 32.95632 
L 346.632888 32.830813 
L 346.841285 32.830813 
L 346.841285 32.5798 
L 348.925254 32.5798 
L 348.925254 32.454294 
L 358.303113 32.454294 
L 358.303113 32.328787 
L 358.719907 32.328787 
L 358.719907 32.203281 
L 359.032503 32.203281 
L 359.032503 32.077774 
L 360.908074 32.077774 
L 360.908074 31.952268 
L 361.116471 31.952268 
L 361.116471 31.826761 
L 361.741662 31.826761 
L 361.741662 31.826761 
" style="fill:none;stroke:#0272a2;stroke-linecap:round;stroke-width:2;"/>
   </g>
   <g id="line2d_26">
    <path clip-path="url(#p1427051f26)" d="M 57.378026 229.499489 
L 361.741662 31.826761 
" style="fill:none;stroke:#ee82ee;stroke-dasharray:6.475,2.8;stroke-dashoffset:0;stroke-width:1.75;"/>
   </g>
   <g id="patch_3">
    <path d="M 42.159844 239.383125 
L 42.159844 21.943125 
" style="fill:none;stroke:#cccccc;stroke-linecap:square;stroke-linejoin:miter;stroke-width:1.25;"/>
   </g>
   <g id="patch_4">
    <path d="M 376.959844 239.383125 
L 376.959844 21.943125 
" style="fill:none;stroke:#cccccc;stroke-linecap:square;stroke-linejoin:miter;stroke-width:1.25;"/>
   </g>
   <g id="patch_5">
    <path d="M 42.159844 239.383125 
L 376.959844 239.383125 
" style="fill:none;stroke:#cccccc;stroke-linecap:square;stroke-linejoin:miter;stroke-width:1.25;"/>
   </g>
   <g id="patch_6">
    <path d="M 42.159844 21.943125 
L 376.959844 21.943125 
" style="fill:none;stroke:#cccccc;stroke-linecap:square;stroke-linejoin:miter;stroke-width:1.25;"/>
   </g>
   <g id="text_15">
    <!-- ROC curve for high blood pressure in lm2 model -->
    <defs>
     <path d="M 7.859375 0 
L 7.859375 71.578125 
L 39.59375 71.578125 
Q 49.171875 71.578125 54.140625 69.640625 
Q 59.125 67.71875 62.109375 62.828125 
Q 65.09375 57.953125 65.09375 52.046875 
Q 65.09375 44.4375 60.15625 39.203125 
Q 55.21875 33.984375 44.921875 32.5625 
Q 48.6875 30.765625 50.640625 29 
Q 54.78125 25.203125 58.5 19.484375 
L 70.953125 0 
L 59.03125 0 
L 49.5625 14.890625 
Q 45.40625 21.34375 42.71875 24.75 
Q 40.046875 28.171875 37.921875 29.53125 
Q 35.796875 30.90625 33.59375 31.453125 
Q 31.984375 31.78125 28.328125 31.78125 
L 17.328125 31.78125 
L 17.328125 0 
z
M 17.328125 39.984375 
L 37.703125 39.984375 
Q 44.1875 39.984375 47.84375 41.328125 
Q 51.515625 42.671875 53.421875 45.625 
Q 55.328125 48.578125 55.328125 52.046875 
Q 55.328125 57.125 51.640625 60.390625 
Q 47.953125 63.671875 39.984375 63.671875 
L 17.328125 63.671875 
z
" id="ArialMT-82"/>
     <path d="M 4.828125 34.859375 
Q 4.828125 52.6875 14.390625 62.765625 
Q 23.96875 72.859375 39.109375 72.859375 
Q 49.03125 72.859375 56.984375 68.109375 
Q 64.9375 63.375 69.109375 54.90625 
Q 73.296875 46.4375 73.296875 35.6875 
Q 73.296875 24.8125 68.890625 16.21875 
Q 64.5 7.625 56.4375 3.203125 
Q 48.390625 -1.21875 39.0625 -1.21875 
Q 28.953125 -1.21875 20.984375 3.65625 
Q 13.03125 8.546875 8.921875 16.984375 
Q 4.828125 25.4375 4.828125 34.859375 
z
M 14.59375 34.71875 
Q 14.59375 21.78125 21.546875 14.328125 
Q 28.515625 6.890625 39.015625 6.890625 
Q 49.703125 6.890625 56.609375 14.40625 
Q 63.53125 21.921875 63.53125 35.75 
Q 63.53125 44.484375 60.578125 51 
Q 57.625 57.515625 51.921875 61.109375 
Q 46.234375 64.703125 39.15625 64.703125 
Q 29.109375 64.703125 21.84375 57.78125 
Q 14.59375 50.875 14.59375 34.71875 
z
" id="ArialMT-79"/>
     <path d="M 58.796875 25.09375 
L 68.265625 22.703125 
Q 65.28125 11.03125 57.546875 4.90625 
Q 49.8125 -1.21875 38.625 -1.21875 
Q 27.046875 -1.21875 19.796875 3.484375 
Q 12.546875 8.203125 8.765625 17.140625 
Q 4.984375 26.078125 4.984375 36.328125 
Q 4.984375 47.515625 9.25 55.828125 
Q 13.53125 64.15625 21.40625 68.46875 
Q 29.296875 72.796875 38.765625 72.796875 
Q 49.515625 72.796875 56.828125 67.328125 
Q 64.15625 61.859375 67.046875 51.953125 
L 57.71875 49.75 
Q 55.21875 57.5625 50.484375 61.125 
Q 45.75 64.703125 38.578125 64.703125 
Q 30.328125 64.703125 24.78125 60.734375 
Q 19.234375 56.78125 16.984375 50.109375 
Q 14.75 43.453125 14.75 36.375 
Q 14.75 27.25 17.40625 20.4375 
Q 20.0625 13.625 25.671875 10.25 
Q 31.296875 6.890625 37.84375 6.890625 
Q 45.796875 6.890625 51.3125 11.46875 
Q 56.84375 16.0625 58.796875 25.09375 
z
" id="ArialMT-67"/>
     <path d="M 40.4375 19 
L 49.078125 17.875 
Q 47.65625 8.9375 41.8125 3.875 
Q 35.984375 -1.171875 27.484375 -1.171875 
Q 16.84375 -1.171875 10.375 5.78125 
Q 3.90625 12.75 3.90625 25.734375 
Q 3.90625 34.125 6.6875 40.421875 
Q 9.46875 46.734375 15.15625 49.875 
Q 20.84375 53.03125 27.546875 53.03125 
Q 35.984375 53.03125 41.359375 48.75 
Q 46.734375 44.484375 48.25 36.625 
L 39.703125 35.296875 
Q 38.484375 40.53125 35.375 43.15625 
Q 32.28125 45.796875 27.875 45.796875 
Q 21.234375 45.796875 17.078125 41.03125 
Q 12.9375 36.28125 12.9375 25.984375 
Q 12.9375 15.53125 16.9375 10.796875 
Q 20.953125 6.0625 27.390625 6.0625 
Q 32.5625 6.0625 36.03125 9.234375 
Q 39.5 12.40625 40.4375 19 
z
" id="ArialMT-99"/>
     <path d="M 8.6875 0 
L 8.6875 45.015625 
L 0.921875 45.015625 
L 0.921875 51.859375 
L 8.6875 51.859375 
L 8.6875 57.375 
Q 8.6875 62.59375 9.625 65.140625 
Q 10.890625 68.5625 14.078125 70.671875 
Q 17.28125 72.796875 23.046875 72.796875 
Q 26.765625 72.796875 31.25 71.921875 
L 29.9375 64.265625 
Q 27.203125 64.75 24.75 64.75 
Q 20.75 64.75 19.09375 63.03125 
Q 17.4375 61.328125 17.4375 56.640625 
L 17.4375 51.859375 
L 27.546875 51.859375 
L 27.546875 45.015625 
L 17.4375 45.015625 
L 17.4375 0 
z
" id="ArialMT-102"/>
     <path d="M 6.59375 0 
L 6.59375 71.578125 
L 15.375 71.578125 
L 15.375 45.90625 
Q 21.53125 53.03125 30.90625 53.03125 
Q 36.671875 53.03125 40.921875 50.75 
Q 45.171875 48.484375 47 44.484375 
Q 48.828125 40.484375 48.828125 32.859375 
L 48.828125 0 
L 40.046875 0 
L 40.046875 32.859375 
Q 40.046875 39.453125 37.1875 42.453125 
Q 34.328125 45.453125 29.109375 45.453125 
Q 25.203125 45.453125 21.75 43.421875 
Q 18.3125 41.40625 16.84375 37.9375 
Q 15.375 34.46875 15.375 28.375 
L 15.375 0 
z
" id="ArialMT-104"/>
     <path d="M 4.984375 -4.296875 
L 13.53125 -5.5625 
Q 14.0625 -9.515625 16.5 -11.328125 
Q 19.78125 -13.765625 25.4375 -13.765625 
Q 31.546875 -13.765625 34.859375 -11.328125 
Q 38.1875 -8.890625 39.359375 -4.5 
Q 40.046875 -1.8125 39.984375 6.78125 
Q 34.234375 0 25.640625 0 
Q 14.9375 0 9.078125 7.71875 
Q 3.21875 15.4375 3.21875 26.21875 
Q 3.21875 33.640625 5.90625 39.90625 
Q 8.59375 46.1875 13.6875 49.609375 
Q 18.796875 53.03125 25.6875 53.03125 
Q 34.859375 53.03125 40.828125 45.609375 
L 40.828125 51.859375 
L 48.921875 51.859375 
L 48.921875 7.03125 
Q 48.921875 -5.078125 46.453125 -10.125 
Q 44 -15.1875 38.640625 -18.109375 
Q 33.296875 -21.046875 25.484375 -21.046875 
Q 16.21875 -21.046875 10.5 -16.875 
Q 4.78125 -12.703125 4.984375 -4.296875 
z
M 12.25 26.859375 
Q 12.25 16.65625 16.296875 11.96875 
Q 20.359375 7.28125 26.46875 7.28125 
Q 32.515625 7.28125 36.609375 11.9375 
Q 40.71875 16.609375 40.71875 26.5625 
Q 40.71875 36.078125 36.5 40.90625 
Q 32.28125 45.75 26.3125 45.75 
Q 20.453125 45.75 16.34375 40.984375 
Q 12.25 36.234375 12.25 26.859375 
z
" id="ArialMT-103"/>
     <path d="M 14.703125 0 
L 6.546875 0 
L 6.546875 71.578125 
L 15.328125 71.578125 
L 15.328125 46.046875 
Q 20.90625 53.03125 29.546875 53.03125 
Q 34.328125 53.03125 38.59375 51.09375 
Q 42.875 49.171875 45.625 45.671875 
Q 48.390625 42.1875 49.953125 37.25 
Q 51.515625 32.328125 51.515625 26.703125 
Q 51.515625 13.375 44.921875 6.09375 
Q 38.328125 -1.171875 29.109375 -1.171875 
Q 19.921875 -1.171875 14.703125 6.5 
z
M 14.59375 26.3125 
Q 14.59375 17 17.140625 12.84375 
Q 21.296875 6.0625 28.375 6.0625 
Q 34.125 6.0625 38.328125 11.0625 
Q 42.53125 16.0625 42.53125 25.984375 
Q 42.53125 36.140625 38.5 40.96875 
Q 34.46875 45.796875 28.765625 45.796875 
Q 23 45.796875 18.796875 40.796875 
Q 14.59375 35.796875 14.59375 26.3125 
z
" id="ArialMT-98"/>
     <path d="M 40.234375 0 
L 40.234375 6.546875 
Q 35.296875 -1.171875 25.734375 -1.171875 
Q 19.53125 -1.171875 14.328125 2.25 
Q 9.125 5.671875 6.265625 11.796875 
Q 3.421875 17.921875 3.421875 25.875 
Q 3.421875 33.640625 6 39.96875 
Q 8.59375 46.296875 13.765625 49.65625 
Q 18.953125 53.03125 25.34375 53.03125 
Q 30.03125 53.03125 33.6875 51.046875 
Q 37.359375 49.078125 39.65625 45.90625 
L 39.65625 71.578125 
L 48.390625 71.578125 
L 48.390625 0 
z
M 12.453125 25.875 
Q 12.453125 15.921875 16.640625 10.984375 
Q 20.84375 6.0625 26.5625 6.0625 
Q 32.328125 6.0625 36.34375 10.765625 
Q 40.375 15.484375 40.375 25.140625 
Q 40.375 35.796875 36.265625 40.765625 
Q 32.171875 45.75 26.171875 45.75 
Q 20.3125 45.75 16.375 40.96875 
Q 12.453125 36.1875 12.453125 25.875 
z
" id="ArialMT-100"/>
     <path d="M 6.59375 0 
L 6.59375 51.859375 
L 14.5 51.859375 
L 14.5 44.484375 
Q 20.21875 53.03125 31 53.03125 
Q 35.6875 53.03125 39.625 51.34375 
Q 43.5625 49.65625 45.515625 46.921875 
Q 47.46875 44.1875 48.25 40.4375 
Q 48.734375 37.984375 48.734375 31.890625 
L 48.734375 0 
L 39.9375 0 
L 39.9375 31.546875 
Q 39.9375 36.921875 38.90625 39.578125 
Q 37.890625 42.234375 35.28125 43.8125 
Q 32.671875 45.40625 29.15625 45.40625 
Q 23.53125 45.40625 19.453125 41.84375 
Q 15.375 38.28125 15.375 28.328125 
L 15.375 0 
z
" id="ArialMT-110"/>
     <path d="M 6.59375 0 
L 6.59375 51.859375 
L 14.453125 51.859375 
L 14.453125 44.578125 
Q 16.890625 48.390625 20.9375 50.703125 
Q 25 53.03125 30.171875 53.03125 
Q 35.9375 53.03125 39.625 50.640625 
Q 43.3125 48.25 44.828125 43.953125 
Q 50.984375 53.03125 60.84375 53.03125 
Q 68.5625 53.03125 72.703125 48.75 
Q 76.859375 44.484375 76.859375 35.59375 
L 76.859375 0 
L 68.109375 0 
L 68.109375 32.671875 
Q 68.109375 37.9375 67.25 40.25 
Q 66.40625 42.578125 64.15625 43.984375 
Q 61.921875 45.40625 58.890625 45.40625 
Q 53.421875 45.40625 49.796875 41.765625 
Q 46.1875 38.140625 46.1875 30.125 
L 46.1875 0 
L 37.40625 0 
L 37.40625 33.6875 
Q 37.40625 39.546875 35.25 42.46875 
Q 33.109375 45.40625 28.21875 45.40625 
Q 24.515625 45.40625 21.359375 43.453125 
Q 18.21875 41.5 16.796875 37.734375 
Q 15.375 33.984375 15.375 26.90625 
L 15.375 0 
z
" id="ArialMT-109"/>
    </defs>
    <g style="fill:#262626;" transform="translate(81.177656 15.943125)scale(0.12 -0.12)">
     <use xlink:href="#ArialMT-82"/>
     <use x="72.216797" xlink:href="#ArialMT-79"/>
     <use x="150" xlink:href="#ArialMT-67"/>
     <use x="222.216797" xlink:href="#ArialMT-32"/>
     <use x="250" xlink:href="#ArialMT-99"/>
     <use x="300" xlink:href="#ArialMT-117"/>
     <use x="355.615234" xlink:href="#ArialMT-114"/>
     <use x="388.916016" xlink:href="#ArialMT-118"/>
     <use x="438.916016" xlink:href="#ArialMT-101"/>
     <use x="494.53125" xlink:href="#ArialMT-32"/>
     <use x="522.314453" xlink:href="#ArialMT-102"/>
     <use x="550.097656" xlink:href="#ArialMT-111"/>
     <use x="605.712891" xlink:href="#ArialMT-114"/>
     <use x="639.013672" xlink:href="#ArialMT-32"/>
     <use x="666.796875" xlink:href="#ArialMT-104"/>
     <use x="722.412109" xlink:href="#ArialMT-105"/>
     <use x="744.628906" xlink:href="#ArialMT-103"/>
     <use x="800.244141" xlink:href="#ArialMT-104"/>
     <use x="855.859375" xlink:href="#ArialMT-32"/>
     <use x="883.642578" xlink:href="#ArialMT-98"/>
     <use x="939.257812" xlink:href="#ArialMT-108"/>
     <use x="961.474609" xlink:href="#ArialMT-111"/>
     <use x="1017.089844" xlink:href="#ArialMT-111"/>
     <use x="1072.705078" xlink:href="#ArialMT-100"/>
     <use x="1128.320312" xlink:href="#ArialMT-32"/>
     <use x="1156.103516" xlink:href="#ArialMT-112"/>
     <use x="1211.71875" xlink:href="#ArialMT-114"/>
     <use x="1245.019531" xlink:href="#ArialMT-101"/>
     <use x="1300.634766" xlink:href="#ArialMT-115"/>
     <use x="1350.634766" xlink:href="#ArialMT-115"/>
     <use x="1400.634766" xlink:href="#ArialMT-117"/>
     <use x="1456.25" xlink:href="#ArialMT-114"/>
     <use x="1489.550781" xlink:href="#ArialMT-101"/>
     <use x="1545.166016" xlink:href="#ArialMT-32"/>
     <use x="1572.949219" xlink:href="#ArialMT-105"/>
     <use x="1595.166016" xlink:href="#ArialMT-110"/>
     <use x="1650.78125" xlink:href="#ArialMT-32"/>
     <use x="1678.564453" xlink:href="#ArialMT-108"/>
     <use x="1700.78125" xlink:href="#ArialMT-109"/>
     <use x="1784.082031" xlink:href="#ArialMT-50"/>
     <use x="1839.697266" xlink:href="#ArialMT-32"/>
     <use x="1867.480469" xlink:href="#ArialMT-109"/>
     <use x="1950.78125" xlink:href="#ArialMT-111"/>
     <use x="2006.396484" xlink:href="#ArialMT-100"/>
     <use x="2062.011719" xlink:href="#ArialMT-101"/>
     <use x="2117.626953" xlink:href="#ArialMT-108"/>
    </g>
   </g>
  </g>
 </g>
 <defs>
  <clipPath id="p1427051f26">
   <rect height="217.44" width="334.8" x="42.159844" y="21.943125"/>
  </clipPath>
 </defs>
</svg>
