<?xml version="1.0" encoding="utf-8" standalone="no"?>
<!DOCTYPE svg PUBLIC "-//W3C//DTD SVG 1.1//EN"
  "http://www.w3.org/Graphics/SVG/1.1/DTD/svg11.dtd">
<!-- Created with matplotlib (https://matplotlib.org/) -->
<svg height="276.634531pt" version="1.1" viewBox="0 0 370.1 276.634531" width="370.1pt" xmlns="http://www.w3.org/2000/svg" xmlns:xlink="http://www.w3.org/1999/xlink">
 <defs>
  <style type="text/css">
*{stroke-linecap:butt;stroke-linejoin:round;}
  </style>
 </defs>
 <g id="figure_1">
  <g id="patch_1">
   <path d="M 0 276.634531 
L 370.1 276.634531 
L 370.1 0 
L 0 0 
z
" style="fill:#ffffff;"/>
  </g>
  <g id="axes_1">
   <g id="patch_2">
    <path d="M 28.1 239.229375 
L 362.9 239.229375 
L 362.9 21.789375 
L 28.1 21.789375 
z
" style="fill:#ffffff;"/>
   </g>
   <g id="matplotlib.axis_1">
    <g id="xtick_1">
     <g id="line2d_1">
      <path clip-path="url(#p056cb9fb7e)" d="M 61.293712 239.229375 
L 61.293712 21.789375 
" style="fill:none;stroke:#cccccc;stroke-linecap:round;"/>
     </g>
     <g id="line2d_2"/>
     <g id="text_1">
      <!-- 0.1 -->
      <defs>
       <path d="M 4.15625 35.296875 
Q 4.15625 48 6.765625 55.734375 
Q 9.375 63.484375 14.515625 67.671875 
Q 19.671875 71.875 27.484375 71.875 
Q 33.25 71.875 37.59375 69.546875 
Q 41.9375 67.234375 44.765625 62.859375 
Q 47.609375 58.5 49.21875 52.21875 
Q 50.828125 45.953125 50.828125 35.296875 
Q 50.828125 22.703125 48.234375 14.96875 
Q 45.65625 7.234375 40.5 3 
Q 35.359375 -1.21875 27.484375 -1.21875 
Q 17.140625 -1.21875 11.234375 6.203125 
Q 4.15625 15.140625 4.15625 35.296875 
z
M 13.1875 35.296875 
Q 13.1875 17.671875 17.3125 11.828125 
Q 21.4375 6 27.484375 6 
Q 33.546875 6 37.671875 11.859375 
Q 41.796875 17.71875 41.796875 35.296875 
Q 41.796875 52.984375 37.671875 58.78125 
Q 33.546875 64.59375 27.390625 64.59375 
Q 21.34375 64.59375 17.71875 59.46875 
Q 13.1875 52.9375 13.1875 35.296875 
z
" id="ArialMT-48"/>
       <path d="M 9.078125 0 
L 9.078125 10.015625 
L 19.09375 10.015625 
L 19.09375 0 
z
" id="ArialMT-46"/>
       <path d="M 37.25 0 
L 28.46875 0 
L 28.46875 56 
Q 25.296875 52.984375 20.140625 49.953125 
Q 14.984375 46.921875 10.890625 45.40625 
L 10.890625 53.90625 
Q 18.265625 57.375 23.78125 62.296875 
Q 29.296875 67.234375 31.59375 71.875 
L 37.25 71.875 
z
" id="ArialMT-49"/>
      </defs>
      <g style="fill:#262626;" transform="translate(54.343712 253.387188)scale(0.1 -0.1)">
       <use xlink:href="#ArialMT-48"/>
       <use x="55.615234" xlink:href="#ArialMT-46"/>
       <use x="83.398438" xlink:href="#ArialMT-49"/>
      </g>
     </g>
    </g>
    <g id="xtick_2">
     <g id="line2d_3">
      <path clip-path="url(#p056cb9fb7e)" d="M 100.098732 239.229375 
L 100.098732 21.789375 
" style="fill:none;stroke:#cccccc;stroke-linecap:round;"/>
     </g>
     <g id="line2d_4"/>
     <g id="text_2">
      <!-- 0.2 -->
      <defs>
       <path d="M 50.34375 8.453125 
L 50.34375 0 
L 3.03125 0 
Q 2.9375 3.171875 4.046875 6.109375 
Q 5.859375 10.9375 9.828125 15.625 
Q 13.8125 20.3125 21.34375 26.46875 
Q 33.015625 36.03125 37.109375 41.625 
Q 41.21875 47.21875 41.21875 52.203125 
Q 41.21875 57.421875 37.46875 61 
Q 33.734375 64.59375 27.734375 64.59375 
Q 21.390625 64.59375 17.578125 60.78125 
Q 13.765625 56.984375 13.71875 50.25 
L 4.6875 51.171875 
Q 5.609375 61.28125 11.65625 66.578125 
Q 17.71875 71.875 27.9375 71.875 
Q 38.234375 71.875 44.234375 66.15625 
Q 50.25 60.453125 50.25 52 
Q 50.25 47.703125 48.484375 43.546875 
Q 46.734375 39.40625 42.65625 34.8125 
Q 38.578125 30.21875 29.109375 22.21875 
Q 21.1875 15.578125 18.9375 13.203125 
Q 16.703125 10.84375 15.234375 8.453125 
z
" id="ArialMT-50"/>
      </defs>
      <g style="fill:#262626;" transform="translate(93.148732 253.387188)scale(0.1 -0.1)">
       <use xlink:href="#ArialMT-48"/>
       <use x="55.615234" xlink:href="#ArialMT-46"/>
       <use x="83.398438" xlink:href="#ArialMT-50"/>
      </g>
     </g>
    </g>
    <g id="xtick_3">
     <g id="line2d_5">
      <path clip-path="url(#p056cb9fb7e)" d="M 138.903753 239.229375 
L 138.903753 21.789375 
" style="fill:none;stroke:#cccccc;stroke-linecap:round;"/>
     </g>
     <g id="line2d_6"/>
     <g id="text_3">
      <!-- 0.3 -->
      <defs>
       <path d="M 4.203125 18.890625 
L 12.984375 20.0625 
Q 14.5 12.59375 18.140625 9.296875 
Q 21.78125 6 27 6 
Q 33.203125 6 37.46875 10.296875 
Q 41.75 14.59375 41.75 20.953125 
Q 41.75 27 37.796875 30.921875 
Q 33.84375 34.859375 27.734375 34.859375 
Q 25.25 34.859375 21.53125 33.890625 
L 22.515625 41.609375 
Q 23.390625 41.5 23.921875 41.5 
Q 29.546875 41.5 34.03125 44.421875 
Q 38.53125 47.359375 38.53125 53.46875 
Q 38.53125 58.296875 35.25 61.46875 
Q 31.984375 64.65625 26.8125 64.65625 
Q 21.6875 64.65625 18.265625 61.421875 
Q 14.84375 58.203125 13.875 51.765625 
L 5.078125 53.328125 
Q 6.6875 62.15625 12.390625 67.015625 
Q 18.109375 71.875 26.609375 71.875 
Q 32.46875 71.875 37.390625 69.359375 
Q 42.328125 66.84375 44.9375 62.5 
Q 47.5625 58.15625 47.5625 53.265625 
Q 47.5625 48.640625 45.0625 44.828125 
Q 42.578125 41.015625 37.703125 38.765625 
Q 44.046875 37.3125 47.5625 32.6875 
Q 51.078125 28.078125 51.078125 21.140625 
Q 51.078125 11.765625 44.234375 5.25 
Q 37.40625 -1.265625 26.953125 -1.265625 
Q 17.53125 -1.265625 11.296875 4.34375 
Q 5.078125 9.96875 4.203125 18.890625 
z
" id="ArialMT-51"/>
      </defs>
      <g style="fill:#262626;" transform="translate(131.953753 253.387188)scale(0.1 -0.1)">
       <use xlink:href="#ArialMT-48"/>
       <use x="55.615234" xlink:href="#ArialMT-46"/>
       <use x="83.398438" xlink:href="#ArialMT-51"/>
      </g>
     </g>
    </g>
    <g id="xtick_4">
     <g id="line2d_7">
      <path clip-path="url(#p056cb9fb7e)" d="M 177.708773 239.229375 
L 177.708773 21.789375 
" style="fill:none;stroke:#cccccc;stroke-linecap:round;"/>
     </g>
     <g id="line2d_8"/>
     <g id="text_4">
      <!-- 0.4 -->
      <defs>
       <path d="M 32.328125 0 
L 32.328125 17.140625 
L 1.265625 17.140625 
L 1.265625 25.203125 
L 33.9375 71.578125 
L 41.109375 71.578125 
L 41.109375 25.203125 
L 50.78125 25.203125 
L 50.78125 17.140625 
L 41.109375 17.140625 
L 41.109375 0 
z
M 32.328125 25.203125 
L 32.328125 57.46875 
L 9.90625 25.203125 
z
" id="ArialMT-52"/>
      </defs>
      <g style="fill:#262626;" transform="translate(170.758773 253.387188)scale(0.1 -0.1)">
       <use xlink:href="#ArialMT-48"/>
       <use x="55.615234" xlink:href="#ArialMT-46"/>
       <use x="83.398438" xlink:href="#ArialMT-52"/>
      </g>
     </g>
    </g>
    <g id="xtick_5">
     <g id="line2d_9">
      <path clip-path="url(#p056cb9fb7e)" d="M 216.513794 239.229375 
L 216.513794 21.789375 
" style="fill:none;stroke:#cccccc;stroke-linecap:round;"/>
     </g>
     <g id="line2d_10"/>
     <g id="text_5">
      <!-- 0.5 -->
      <defs>
       <path d="M 4.15625 18.75 
L 13.375 19.53125 
Q 14.40625 12.796875 18.140625 9.390625 
Q 21.875 6 27.15625 6 
Q 33.5 6 37.890625 10.78125 
Q 42.28125 15.578125 42.28125 23.484375 
Q 42.28125 31 38.0625 35.34375 
Q 33.84375 39.703125 27 39.703125 
Q 22.75 39.703125 19.328125 37.765625 
Q 15.921875 35.84375 13.96875 32.765625 
L 5.71875 33.84375 
L 12.640625 70.609375 
L 48.25 70.609375 
L 48.25 62.203125 
L 19.671875 62.203125 
L 15.828125 42.96875 
Q 22.265625 47.46875 29.34375 47.46875 
Q 38.71875 47.46875 45.15625 40.96875 
Q 51.609375 34.46875 51.609375 24.265625 
Q 51.609375 14.546875 45.953125 7.46875 
Q 39.0625 -1.21875 27.15625 -1.21875 
Q 17.390625 -1.21875 11.203125 4.25 
Q 5.03125 9.71875 4.15625 18.75 
z
" id="ArialMT-53"/>
      </defs>
      <g style="fill:#262626;" transform="translate(209.563794 253.387188)scale(0.1 -0.1)">
       <use xlink:href="#ArialMT-48"/>
       <use x="55.615234" xlink:href="#ArialMT-46"/>
       <use x="83.398438" xlink:href="#ArialMT-53"/>
      </g>
     </g>
    </g>
    <g id="xtick_6">
     <g id="line2d_11">
      <path clip-path="url(#p056cb9fb7e)" d="M 255.318814 239.229375 
L 255.318814 21.789375 
" style="fill:none;stroke:#cccccc;stroke-linecap:round;"/>
     </g>
     <g id="line2d_12"/>
     <g id="text_6">
      <!-- 0.6 -->
      <defs>
       <path d="M 49.75 54.046875 
L 41.015625 53.375 
Q 39.84375 58.546875 37.703125 60.890625 
Q 34.125 64.65625 28.90625 64.65625 
Q 24.703125 64.65625 21.53125 62.3125 
Q 17.390625 59.28125 14.984375 53.46875 
Q 12.59375 47.65625 12.5 36.921875 
Q 15.671875 41.75 20.265625 44.09375 
Q 24.859375 46.4375 29.890625 46.4375 
Q 38.671875 46.4375 44.84375 39.96875 
Q 51.03125 33.5 51.03125 23.25 
Q 51.03125 16.5 48.125 10.71875 
Q 45.21875 4.9375 40.140625 1.859375 
Q 35.0625 -1.21875 28.609375 -1.21875 
Q 17.625 -1.21875 10.6875 6.859375 
Q 3.765625 14.9375 3.765625 33.5 
Q 3.765625 54.25 11.421875 63.671875 
Q 18.109375 71.875 29.4375 71.875 
Q 37.890625 71.875 43.28125 67.140625 
Q 48.6875 62.40625 49.75 54.046875 
z
M 13.875 23.1875 
Q 13.875 18.65625 15.796875 14.5 
Q 17.71875 10.359375 21.1875 8.171875 
Q 24.65625 6 28.46875 6 
Q 34.03125 6 38.03125 10.484375 
Q 42.046875 14.984375 42.046875 22.703125 
Q 42.046875 30.125 38.078125 34.390625 
Q 34.125 38.671875 28.125 38.671875 
Q 22.171875 38.671875 18.015625 34.390625 
Q 13.875 30.125 13.875 23.1875 
z
" id="ArialMT-54"/>
      </defs>
      <g style="fill:#262626;" transform="translate(248.368814 253.387188)scale(0.1 -0.1)">
       <use xlink:href="#ArialMT-48"/>
       <use x="55.615234" xlink:href="#ArialMT-46"/>
       <use x="83.398438" xlink:href="#ArialMT-54"/>
      </g>
     </g>
    </g>
    <g id="xtick_7">
     <g id="line2d_13">
      <path clip-path="url(#p056cb9fb7e)" d="M 294.123834 239.229375 
L 294.123834 21.789375 
" style="fill:none;stroke:#cccccc;stroke-linecap:round;"/>
     </g>
     <g id="line2d_14"/>
     <g id="text_7">
      <!-- 0.7 -->
      <defs>
       <path d="M 4.734375 62.203125 
L 4.734375 70.65625 
L 51.078125 70.65625 
L 51.078125 63.8125 
Q 44.234375 56.546875 37.515625 44.484375 
Q 30.8125 32.421875 27.15625 19.671875 
Q 24.515625 10.6875 23.78125 0 
L 14.75 0 
Q 14.890625 8.453125 18.0625 20.40625 
Q 21.234375 32.375 27.171875 43.484375 
Q 33.109375 54.59375 39.796875 62.203125 
z
" id="ArialMT-55"/>
      </defs>
      <g style="fill:#262626;" transform="translate(287.173834 253.387188)scale(0.1 -0.1)">
       <use xlink:href="#ArialMT-48"/>
       <use x="55.615234" xlink:href="#ArialMT-46"/>
       <use x="83.398438" xlink:href="#ArialMT-55"/>
      </g>
     </g>
    </g>
    <g id="xtick_8">
     <g id="line2d_15">
      <path clip-path="url(#p056cb9fb7e)" d="M 332.928855 239.229375 
L 332.928855 21.789375 
" style="fill:none;stroke:#cccccc;stroke-linecap:round;"/>
     </g>
     <g id="line2d_16"/>
     <g id="text_8">
      <!-- 0.8 -->
      <defs>
       <path d="M 17.671875 38.8125 
Q 12.203125 40.828125 9.5625 44.53125 
Q 6.9375 48.25 6.9375 53.421875 
Q 6.9375 61.234375 12.546875 66.546875 
Q 18.171875 71.875 27.484375 71.875 
Q 36.859375 71.875 42.578125 66.421875 
Q 48.296875 60.984375 48.296875 53.171875 
Q 48.296875 48.1875 45.671875 44.5 
Q 43.0625 40.828125 37.75 38.8125 
Q 44.34375 36.671875 47.78125 31.875 
Q 51.21875 27.09375 51.21875 20.453125 
Q 51.21875 11.28125 44.71875 5.03125 
Q 38.234375 -1.21875 27.640625 -1.21875 
Q 17.046875 -1.21875 10.546875 5.046875 
Q 4.046875 11.328125 4.046875 20.703125 
Q 4.046875 27.6875 7.59375 32.390625 
Q 11.140625 37.109375 17.671875 38.8125 
z
M 15.921875 53.71875 
Q 15.921875 48.640625 19.1875 45.40625 
Q 22.46875 42.1875 27.6875 42.1875 
Q 32.765625 42.1875 36.015625 45.375 
Q 39.265625 48.578125 39.265625 53.21875 
Q 39.265625 58.0625 35.90625 61.359375 
Q 32.5625 64.65625 27.59375 64.65625 
Q 22.5625 64.65625 19.234375 61.421875 
Q 15.921875 58.203125 15.921875 53.71875 
z
M 13.09375 20.65625 
Q 13.09375 16.890625 14.875 13.375 
Q 16.65625 9.859375 20.171875 7.921875 
Q 23.6875 6 27.734375 6 
Q 34.03125 6 38.125 10.046875 
Q 42.234375 14.109375 42.234375 20.359375 
Q 42.234375 26.703125 38.015625 30.859375 
Q 33.796875 35.015625 27.4375 35.015625 
Q 21.234375 35.015625 17.15625 30.90625 
Q 13.09375 26.8125 13.09375 20.65625 
z
" id="ArialMT-56"/>
      </defs>
      <g style="fill:#262626;" transform="translate(325.978855 253.387188)scale(0.1 -0.1)">
       <use xlink:href="#ArialMT-48"/>
       <use x="55.615234" xlink:href="#ArialMT-46"/>
       <use x="83.398438" xlink:href="#ArialMT-56"/>
      </g>
     </g>
    </g>
    <g id="text_9">
     <!-- Threshold -->
     <defs>
      <path d="M 25.921875 0 
L 25.921875 63.140625 
L 2.34375 63.140625 
L 2.34375 71.578125 
L 59.078125 71.578125 
L 59.078125 63.140625 
L 35.40625 63.140625 
L 35.40625 0 
z
" id="ArialMT-84"/>
      <path d="M 6.59375 0 
L 6.59375 71.578125 
L 15.375 71.578125 
L 15.375 45.90625 
Q 21.53125 53.03125 30.90625 53.03125 
Q 36.671875 53.03125 40.921875 50.75 
Q 45.171875 48.484375 47 44.484375 
Q 48.828125 40.484375 48.828125 32.859375 
L 48.828125 0 
L 40.046875 0 
L 40.046875 32.859375 
Q 40.046875 39.453125 37.1875 42.453125 
Q 34.328125 45.453125 29.109375 45.453125 
Q 25.203125 45.453125 21.75 43.421875 
Q 18.3125 41.40625 16.84375 37.9375 
Q 15.375 34.46875 15.375 28.375 
L 15.375 0 
z
" id="ArialMT-104"/>
      <path d="M 6.5 0 
L 6.5 51.859375 
L 14.40625 51.859375 
L 14.40625 44 
Q 17.4375 49.515625 20 51.265625 
Q 22.5625 53.03125 25.640625 53.03125 
Q 30.078125 53.03125 34.671875 50.203125 
L 31.640625 42.046875 
Q 28.421875 43.953125 25.203125 43.953125 
Q 22.3125 43.953125 20.015625 42.21875 
Q 17.71875 40.484375 16.75 37.40625 
Q 15.28125 32.71875 15.28125 27.15625 
L 15.28125 0 
z
" id="ArialMT-114"/>
      <path d="M 42.09375 16.703125 
L 51.171875 15.578125 
Q 49.03125 7.625 43.21875 3.21875 
Q 37.40625 -1.171875 28.375 -1.171875 
Q 17 -1.171875 10.328125 5.828125 
Q 3.65625 12.84375 3.65625 25.484375 
Q 3.65625 38.578125 10.390625 45.796875 
Q 17.140625 53.03125 27.875 53.03125 
Q 38.28125 53.03125 44.875 45.953125 
Q 51.46875 38.875 51.46875 26.03125 
Q 51.46875 25.25 51.421875 23.6875 
L 12.75 23.6875 
Q 13.234375 15.140625 17.578125 10.59375 
Q 21.921875 6.0625 28.421875 6.0625 
Q 33.25 6.0625 36.671875 8.59375 
Q 40.09375 11.140625 42.09375 16.703125 
z
M 13.234375 30.90625 
L 42.1875 30.90625 
Q 41.609375 37.453125 38.875 40.71875 
Q 34.671875 45.796875 27.984375 45.796875 
Q 21.921875 45.796875 17.796875 41.75 
Q 13.671875 37.703125 13.234375 30.90625 
z
" id="ArialMT-101"/>
      <path d="M 3.078125 15.484375 
L 11.765625 16.84375 
Q 12.5 11.625 15.84375 8.84375 
Q 19.1875 6.0625 25.203125 6.0625 
Q 31.25 6.0625 34.171875 8.515625 
Q 37.109375 10.984375 37.109375 14.3125 
Q 37.109375 17.28125 34.515625 19 
Q 32.71875 20.171875 25.53125 21.96875 
Q 15.875 24.421875 12.140625 26.203125 
Q 8.40625 27.984375 6.46875 31.125 
Q 4.546875 34.28125 4.546875 38.09375 
Q 4.546875 41.546875 6.125 44.5 
Q 7.71875 47.46875 10.453125 49.421875 
Q 12.5 50.921875 16.03125 51.96875 
Q 19.578125 53.03125 23.640625 53.03125 
Q 29.734375 53.03125 34.34375 51.265625 
Q 38.96875 49.515625 41.15625 46.5 
Q 43.359375 43.5 44.1875 38.484375 
L 35.59375 37.3125 
Q 35.015625 41.3125 32.203125 43.546875 
Q 29.390625 45.796875 24.265625 45.796875 
Q 18.21875 45.796875 15.625 43.796875 
Q 13.03125 41.796875 13.03125 39.109375 
Q 13.03125 37.40625 14.109375 36.03125 
Q 15.1875 34.625 17.484375 33.6875 
Q 18.796875 33.203125 25.25 31.453125 
Q 34.578125 28.953125 38.25 27.359375 
Q 41.9375 25.78125 44.03125 22.75 
Q 46.140625 19.734375 46.140625 15.234375 
Q 46.140625 10.84375 43.578125 6.953125 
Q 41.015625 3.078125 36.171875 0.953125 
Q 31.34375 -1.171875 25.25 -1.171875 
Q 15.140625 -1.171875 9.84375 3.03125 
Q 4.546875 7.234375 3.078125 15.484375 
z
" id="ArialMT-115"/>
      <path d="M 3.328125 25.921875 
Q 3.328125 40.328125 11.328125 47.265625 
Q 18.015625 53.03125 27.640625 53.03125 
Q 38.328125 53.03125 45.109375 46.015625 
Q 51.90625 39.015625 51.90625 26.65625 
Q 51.90625 16.65625 48.90625 10.90625 
Q 45.90625 5.171875 40.15625 2 
Q 34.421875 -1.171875 27.640625 -1.171875 
Q 16.75 -1.171875 10.03125 5.8125 
Q 3.328125 12.796875 3.328125 25.921875 
z
M 12.359375 25.921875 
Q 12.359375 15.96875 16.703125 11.015625 
Q 21.046875 6.0625 27.640625 6.0625 
Q 34.1875 6.0625 38.53125 11.03125 
Q 42.875 16.015625 42.875 26.21875 
Q 42.875 35.84375 38.5 40.796875 
Q 34.125 45.75 27.640625 45.75 
Q 21.046875 45.75 16.703125 40.8125 
Q 12.359375 35.890625 12.359375 25.921875 
z
" id="ArialMT-111"/>
      <path d="M 6.390625 0 
L 6.390625 71.578125 
L 15.1875 71.578125 
L 15.1875 0 
z
" id="ArialMT-108"/>
      <path d="M 40.234375 0 
L 40.234375 6.546875 
Q 35.296875 -1.171875 25.734375 -1.171875 
Q 19.53125 -1.171875 14.328125 2.25 
Q 9.125 5.671875 6.265625 11.796875 
Q 3.421875 17.921875 3.421875 25.875 
Q 3.421875 33.640625 6 39.96875 
Q 8.59375 46.296875 13.765625 49.65625 
Q 18.953125 53.03125 25.34375 53.03125 
Q 30.03125 53.03125 33.6875 51.046875 
Q 37.359375 49.078125 39.65625 45.90625 
L 39.65625 71.578125 
L 48.390625 71.578125 
L 48.390625 0 
z
M 12.453125 25.875 
Q 12.453125 15.921875 16.640625 10.984375 
Q 20.84375 6.0625 26.5625 6.0625 
Q 32.328125 6.0625 36.34375 10.765625 
Q 40.375 15.484375 40.375 25.140625 
Q 40.375 35.796875 36.265625 40.765625 
Q 32.171875 45.75 26.171875 45.75 
Q 20.3125 45.75 16.375 40.96875 
Q 12.453125 36.1875 12.453125 25.875 
z
" id="ArialMT-100"/>
     </defs>
     <g style="fill:#262626;" transform="translate(171.044766 267.248281)scale(0.11 -0.11)">
      <use xlink:href="#ArialMT-84"/>
      <use x="61.083984" xlink:href="#ArialMT-104"/>
      <use x="116.699219" xlink:href="#ArialMT-114"/>
      <use x="150" xlink:href="#ArialMT-101"/>
      <use x="205.615234" xlink:href="#ArialMT-115"/>
      <use x="255.615234" xlink:href="#ArialMT-104"/>
      <use x="311.230469" xlink:href="#ArialMT-111"/>
      <use x="366.845703" xlink:href="#ArialMT-108"/>
      <use x="389.0625" xlink:href="#ArialMT-100"/>
     </g>
    </g>
   </g>
   <g id="matplotlib.axis_2">
    <g id="ytick_1">
     <g id="line2d_17">
      <path clip-path="url(#p056cb9fb7e)" d="M 28.1 229.345739 
L 362.9 229.345739 
" style="fill:none;stroke:#cccccc;stroke-linecap:round;"/>
     </g>
     <g id="line2d_18"/>
     <g id="text_10">
      <!-- 0.0 -->
      <g style="fill:#262626;" transform="translate(7.2 232.924645)scale(0.1 -0.1)">
       <use xlink:href="#ArialMT-48"/>
       <use x="55.615234" xlink:href="#ArialMT-46"/>
       <use x="83.398438" xlink:href="#ArialMT-48"/>
      </g>
     </g>
    </g>
    <g id="ytick_2">
     <g id="line2d_19">
      <path clip-path="url(#p056cb9fb7e)" d="M 28.1 189.811193 
L 362.9 189.811193 
" style="fill:none;stroke:#cccccc;stroke-linecap:round;"/>
     </g>
     <g id="line2d_20"/>
     <g id="text_11">
      <!-- 0.2 -->
      <g style="fill:#262626;" transform="translate(7.2 193.390099)scale(0.1 -0.1)">
       <use xlink:href="#ArialMT-48"/>
       <use x="55.615234" xlink:href="#ArialMT-46"/>
       <use x="83.398438" xlink:href="#ArialMT-50"/>
      </g>
     </g>
    </g>
    <g id="ytick_3">
     <g id="line2d_21">
      <path clip-path="url(#p056cb9fb7e)" d="M 28.1 150.276648 
L 362.9 150.276648 
" style="fill:none;stroke:#cccccc;stroke-linecap:round;"/>
     </g>
     <g id="line2d_22"/>
     <g id="text_12">
      <!-- 0.4 -->
      <g style="fill:#262626;" transform="translate(7.2 153.855554)scale(0.1 -0.1)">
       <use xlink:href="#ArialMT-48"/>
       <use x="55.615234" xlink:href="#ArialMT-46"/>
       <use x="83.398438" xlink:href="#ArialMT-52"/>
      </g>
     </g>
    </g>
    <g id="ytick_4">
     <g id="line2d_23">
      <path clip-path="url(#p056cb9fb7e)" d="M 28.1 110.742102 
L 362.9 110.742102 
" style="fill:none;stroke:#cccccc;stroke-linecap:round;"/>
     </g>
     <g id="line2d_24"/>
     <g id="text_13">
      <!-- 0.6 -->
      <g style="fill:#262626;" transform="translate(7.2 114.321009)scale(0.1 -0.1)">
       <use xlink:href="#ArialMT-48"/>
       <use x="55.615234" xlink:href="#ArialMT-46"/>
       <use x="83.398438" xlink:href="#ArialMT-54"/>
      </g>
     </g>
    </g>
    <g id="ytick_5">
     <g id="line2d_25">
      <path clip-path="url(#p056cb9fb7e)" d="M 28.1 71.207557 
L 362.9 71.207557 
" style="fill:none;stroke:#cccccc;stroke-linecap:round;"/>
     </g>
     <g id="line2d_26"/>
     <g id="text_14">
      <!-- 0.8 -->
      <g style="fill:#262626;" transform="translate(7.2 74.786463)scale(0.1 -0.1)">
       <use xlink:href="#ArialMT-48"/>
       <use x="55.615234" xlink:href="#ArialMT-46"/>
       <use x="83.398438" xlink:href="#ArialMT-56"/>
      </g>
     </g>
    </g>
    <g id="ytick_6">
     <g id="line2d_27">
      <path clip-path="url(#p056cb9fb7e)" d="M 28.1 31.673011 
L 362.9 31.673011 
" style="fill:none;stroke:#cccccc;stroke-linecap:round;"/>
     </g>
     <g id="line2d_28"/>
     <g id="text_15">
      <!-- 1.0 -->
      <g style="fill:#262626;" transform="translate(7.2 35.251918)scale(0.1 -0.1)">
       <use xlink:href="#ArialMT-49"/>
       <use x="55.615234" xlink:href="#ArialMT-46"/>
       <use x="83.398438" xlink:href="#ArialMT-48"/>
      </g>
     </g>
    </g>
   </g>
   <g id="line2d_29">
    <path clip-path="url(#p056cb9fb7e)" d="M 43.318182 160.034785 
L 43.673949 160.032497 
L 47.200735 159.784396 
L 50.045697 159.573665 
L 53.01512 158.956493 
L 53.136028 158.892576 
L 53.651454 158.78044 
L 54.2566 158.603504 
L 56.545836 158.019589 
L 57.37319 157.87137 
L 57.442836 157.805297 
L 57.74841 157.784828 
L 58.265214 157.468922 
L 60.436355 156.704727 
L 60.564978 156.585055 
L 62.241852 156.109306 
L 62.384083 156.039756 
L 63.214562 155.77227 
L 63.892493 155.578795 
L 65.244363 154.788327 
L 66.183629 154.576593 
L 66.257902 154.540271 
L 69.151251 153.572819 
L 69.210142 153.460507 
L 69.93122 153.283859 
L 70.033086 153.22728 
L 70.495208 153.011309 
L 70.57675 152.954286 
L 70.953578 152.782706 
L 71.815672 152.459232 
L 71.837375 152.401307 
L 72.339529 152.218521 
L 72.429432 152.140732 
L 72.440402 152.171115 
L 72.974296 152.03685 
L 73.190385 152.028178 
L 73.192644 152.008599 
L 73.493088 151.85361 
L 78.106849 150.276648 
L 78.214213 150.235229 
L 79.40942 149.681122 
L 79.825085 149.522412 
L 80.01384 149.37408 
L 80.897947 149.203883 
L 81.329027 149.062636 
L 81.456144 149.00816 
L 82.3239 148.800606 
L 82.450408 148.767128 
L 82.688702 148.765095 
L 82.802742 148.688016 
L 83.262959 148.457738 
L 84.861116 148.002057 
L 85.084096 147.93193 
L 88.535272 146.898766 
L 88.599675 146.917213 
L 88.613409 146.8708 
L 88.941455 146.684626 
L 89.023374 146.521034 
L 89.39348 146.333276 
L 89.488386 146.286203 
L 89.95727 146.050037 
L 90.325011 145.987735 
L 91.158761 145.75195 
L 91.296988 145.656168 
L 91.31417 145.688828 
L 91.622626 145.432898 
L 91.963703 145.312056 
L 92.044397 145.320588 
L 92.05283 145.296366 
L 93.459991 144.546502 
L 93.803771 144.513359 
L 93.812732 144.546334 
L 94.686085 144.355174 
L 95.009341 144.321459 
L 95.576765 144.154041 
L 95.665002 144.078583 
L 96.040936 143.800758 
L 96.221513 143.783277 
L 96.224473 143.757903 
L 96.590544 143.689514 
L 96.68128 143.671887 
L 98.337813 143.205042 
L 98.610257 143.023694 
L 99.566964 142.661878 
L 99.975205 142.492271 
L 100.205159 142.307138 
L 100.393217 142.287802 
L 100.633444 142.195801 
L 100.774851 142.236748 
L 101.311373 142.097923 
L 101.561643 142.335689 
L 101.609118 142.282127 
L 101.699723 142.201662 
L 102.501949 142.027554 
L 102.861704 141.811085 
L 103.080273 141.620792 
L 103.185464 141.627698 
L 103.581575 141.566481 
L 103.676866 141.635015 
L 103.718844 141.580281 
L 103.744632 141.614584 
L 104.306624 141.436164 
L 105.015454 141.187676 
L 105.032129 141.222082 
L 105.043236 141.166675 
L 105.884429 140.873769 
L 105.889347 140.817845 
L 106.237851 140.649648 
L 106.398456 140.565309 
L 109.270097 139.552599 
L 109.850868 139.296255 
L 110.049742 139.301961 
L 110.259941 139.313394 
L 110.681388 139.113649 
L 112.997851 138.428015 
L 113.821475 138.510726 
L 113.98728 138.395255 
L 114.447106 138.314846 
L 114.689358 138.325264 
L 114.691059 138.294883 
L 114.696269 138.264482 
L 114.700048 138.300084 
L 114.705471 138.269664 
L 115.046145 138.285252 
L 115.865411 137.88124 
L 115.884179 137.917097 
L 115.977095 137.855321 
L 116.084469 137.793461 
L 116.656223 137.648115 
L 116.745992 137.65296 
L 117.016518 137.439358 
L 117.030131 137.47537 
L 117.22836 137.448806 
L 117.230949 137.417474 
L 117.260975 137.45354 
L 118.184611 137.12107 
L 118.443761 136.967047 
L 119.218813 136.898037 
L 119.261019 136.938869 
L 119.26456 136.906883 
L 119.640113 136.746621 
L 119.714326 136.654463 
L 119.72259 136.69094 
L 120.051527 136.602735 
L 120.05889 136.639296 
L 121.913429 136.15916 
L 121.956272 136.196042 
L 121.999264 136.097297 
L 122.577915 135.737141 
L 122.954197 135.470545 
L 123.399394 135.377119 
L 123.401314 135.414143 
L 123.759012 135.391057 
L 123.962643 135.226001 
L 124.272393 135.161751 
L 124.374484 135.131219 
L 124.863563 134.927439 
L 124.871161 134.89339 
L 125.189102 134.899723 
L 125.335473 134.837714 
L 125.363635 134.875065 
L 125.374917 134.840849 
L 126.870897 134.239732 
L 127.082264 134.282863 
L 127.097442 134.247952 
L 127.186089 134.073011 
L 127.747205 134.234914 
L 129.700085 133.587581 
L 129.77835 133.666493 
L 129.995372 133.450269 
L 130.095164 133.34179 
L 130.102978 133.380141 
L 130.888201 133.168481 
L 130.954969 133.022482 
L 131.005197 133.060959 
L 131.595821 132.881448 
L 131.846959 132.886882 
L 131.848965 132.850038 
L 132.080645 132.741042 
L 132.741163 132.749615 
L 132.940081 132.714186 
L 133.268852 132.678675 
L 133.294539 132.641438 
L 133.344396 132.758255 
L 133.579873 132.685378 
L 133.581912 132.724409 
L 133.634098 132.763471 
L 133.847672 132.804337 
L 134.126052 132.806115 
L 134.13387 132.768711 
L 134.524773 132.510734 
L 134.527654 132.550017 
L 134.703278 132.553201 
L 135.010919 132.36691 
L 135.110394 132.485327 
L 135.125813 132.447343 
L 136.161209 132.150137 
L 136.650612 132.313531 
L 137.754633 131.854626 
L 137.781283 131.776508 
L 137.821953 131.81663 
L 138.114273 131.702091 
L 138.142868 131.782629 
L 138.172367 131.822947 
L 138.212459 131.704976 
L 138.494757 131.588462 
L 138.859664 131.430833 
L 138.899512 131.351389 
L 139.118295 131.352072 
L 140.160571 130.953674 
L 140.271998 130.832898 
L 140.488836 130.833163 
L 140.590468 130.752415 
L 141.089824 130.753215 
L 141.224414 130.794206 
L 141.243261 130.753616 
L 141.619285 130.591126 
L 141.740313 130.591193 
L 141.956378 130.591261 
L 142.061277 130.468381 
L 142.469222 130.509375 
L 142.715636 130.468279 
L 142.782466 130.42708 
L 142.801255 130.46821 
L 143.170348 130.550608 
L 143.245018 130.426805 
L 143.739881 130.385261 
L 143.945831 130.426459 
L 144.224224 130.384844 
L 144.229559 130.426319 
L 144.444405 130.55099 
L 144.558043 130.467689 
L 144.560195 130.509375 
L 145.130647 130.509375 
L 145.239662 130.383682 
L 145.252581 130.425544 
L 145.485045 130.257027 
L 145.575857 130.088078 
L 145.991312 130.129073 
L 146.298708 129.959108 
L 146.713288 130.000783 
L 146.847338 129.829503 
L 146.847564 129.871721 
L 147.029012 129.956266 
L 147.040951 129.913462 
L 147.048171 129.870622 
L 147.726642 129.783579 
L 147.862561 129.825386 
L 147.866768 129.782323 
L 148.292457 129.522299 
L 148.712327 129.390148 
L 148.961328 129.389172 
L 149.039452 129.344564 
L 149.060059 129.387215 
L 149.169756 129.386235 
L 149.390949 129.469904 
L 149.413036 129.382294 
L 149.72573 129.206611 
L 149.900056 128.941926 
L 149.940124 128.984795 
L 150.088996 129.156648 
L 150.127786 129.112395 
L 150.298374 129.022456 
L 150.302567 129.06555 
L 150.529323 129.018498 
L 150.706646 129.015848 
L 150.827708 128.969868 
L 150.868605 128.923765 
L 150.933564 129.010518 
L 151.1806 128.920933 
L 151.442751 128.918092 
L 151.731299 128.783169 
L 151.933874 128.646212 
L 152.125201 128.688121 
L 152.52465 128.461414 
L 152.770899 128.233684 
L 152.863368 128.231628 
L 152.932379 128.140163 
L 153.428742 128.225435 
L 153.985497 128.039589 
L 154.127616 128.171117 
L 154.15419 128.125066 
L 154.325197 127.940441 
L 154.51158 127.984358 
L 154.513805 127.938096 
L 155.008398 127.882194 
L 155.203286 127.92156 
L 155.207996 127.87495 
L 155.282615 127.7816 
L 155.335231 127.825829 
L 155.529028 127.909618 
L 155.795469 127.813422 
L 155.822015 127.857891 
L 156.044751 127.667142 
L 156.080138 127.619959 
L 156.219938 127.617275 
L 156.344848 127.427925 
L 156.66307 127.187144 
L 157.213943 127.401897 
L 157.597666 127.152668 
L 157.60446 127.197727 
L 157.837211 127.194599 
L 157.881486 127.146323 
L 158.106052 127.188324 
L 158.902385 127.178866 
L 158.939969 127.269608 
L 158.957943 127.221093 
L 159.165161 127.217964 
L 159.477539 127.208542 
L 159.537969 127.11099 
L 160.159339 127.278186 
L 160.167103 127.229092 
L 160.349531 127.225933 
L 160.396392 127.27196 
L 160.443334 127.222768 
L 160.535267 127.173529 
L 160.548766 127.219597 
L 160.741276 127.21642 
L 160.871345 127.16385 
L 160.879127 127.210048 
L 161.356092 127.008621 
L 161.56152 127.051543 
L 161.57164 127.001813 
L 161.734643 126.945101 
L 162.113839 126.590753 
L 162.118181 126.540432 
L 162.986083 126.61818 
L 163.053869 126.466291 
L 163.099068 126.513033 
L 163.433268 126.591184 
L 163.650758 126.485253 
L 163.85187 126.481253 
L 164.164144 126.319305 
L 164.402111 126.362395 
L 164.550359 126.409716 
L 164.558666 126.358248 
L 165.053425 126.030386 
L 165.058048 126.077921 
L 165.173848 126.173135 
L 165.578625 126.003158 
L 165.59212 126.050968 
L 165.760584 126.09435 
L 165.994868 126.037369 
L 166.065575 125.980214 
L 166.091815 126.076347 
L 166.699536 125.749837 
L 166.700482 125.798057 
L 166.71309 125.744955 
L 167.068088 125.740064 
L 167.27585 125.628567 
L 167.53462 125.62354 
L 167.590702 125.565008 
L 167.7118 125.661954 
L 168.080842 125.656944 
L 168.210058 125.549661 
L 168.257866 125.646892 
L 168.305142 125.539376 
L 168.525081 125.480318 
L 168.945429 125.312877 
L 169.713012 125.122068 
L 169.740941 125.171071 
L 169.752029 125.116415 
L 169.895728 125.055976 
L 170.92538 125.192229 
L 171.366398 125.114491 
L 171.824134 124.942609 
L 171.898337 124.825495 
L 171.935227 124.875123 
L 172.17362 124.645753 
L 172.22231 124.745243 
L 172.430599 124.739068 
L 172.521397 124.564331 
L 173.098551 124.438607 
L 173.145014 124.488615 
L 173.250351 124.432058 
L 173.254098 124.482117 
L 173.581522 124.519292 
L 173.834823 124.455983 
L 173.853594 124.657575 
L 174.149131 124.644833 
L 174.16865 124.530718 
L 174.1886 124.581349 
L 174.288482 124.524194 
L 174.290843 124.574877 
L 174.374982 124.676409 
L 174.433021 124.619182 
L 174.575792 124.555377 
L 174.718237 124.75929 
L 174.738041 124.810408 
L 174.80563 124.752971 
L 174.86037 124.637908 
L 174.896326 124.791569 
L 174.90802 124.733931 
L 175.016567 124.836648 
L 175.048023 124.77894 
L 175.106168 124.83038 
L 175.113295 124.772604 
L 175.236724 124.766255 
L 175.330125 124.921066 
L 175.346363 124.972784 
L 176.065899 124.773336 
L 176.173185 124.871059 
L 176.177942 124.812595 
L 176.26201 124.858417 
L 176.29768 124.799815 
L 176.403212 124.852075 
L 176.423481 124.793403 
L 176.53816 124.72817 
L 177.50278 124.971854 
L 177.575561 125.018466 
L 177.625869 124.95929 
L 178.068291 124.99345 
L 178.755011 124.635671 
L 178.803496 124.795309 
L 178.895009 124.675481 
L 179.026885 124.434998 
L 179.443014 124.428012 
L 179.751769 124.688758 
L 179.758559 124.742493 
L 179.766953 124.621494 
L 179.787149 124.675284 
L 179.909615 124.493249 
L 180.119336 124.249547 
L 180.201717 124.127271 
L 180.23732 124.234964 
L 180.461787 124.436924 
L 180.640673 124.491236 
L 180.65708 124.42981 
L 181.136477 124.284837 
L 181.580638 124.489183 
L 181.857411 124.365018 
L 181.997789 124.350432 
L 182.330681 124.453369 
L 182.338487 124.390933 
L 182.425044 124.501443 
L 182.825701 124.59103 
L 182.941628 124.528265 
L 182.955688 124.583934 
L 183.091034 124.688483 
L 183.093203 124.625551 
L 183.618465 124.955428 
L 183.695834 125.124827 
L 184.443959 125.148963 
L 184.705256 125.142422 
L 184.978766 125.05884 
L 185.02883 125.173424 
L 185.053611 125.045448 
L 185.335589 125.038728 
L 185.545939 124.838936 
L 185.556882 124.896446 
L 185.845129 124.882552 
L 186.072687 124.623338 
L 186.078568 124.681036 
L 186.928701 124.463205 
L 187.037437 124.324371 
L 187.214407 124.31662 
L 187.538898 124.600341 
L 187.651153 124.717452 
L 187.824184 124.585429 
L 187.836175 124.702817 
L 187.918719 124.761622 
L 188.351891 124.42231 
L 188.354078 124.35565 
L 188.375415 124.532638 
L 188.723407 124.576669 
L 188.863719 124.442693 
L 188.997465 124.49435 
L 189.089697 124.359839 
L 189.126875 124.419329 
L 189.203654 124.471141 
L 189.292221 124.403654 
L 189.308874 124.463364 
L 189.326521 124.523152 
L 189.33774 124.455568 
L 189.996482 124.80111 
L 190.095166 124.922134 
L 190.514653 124.771321 
L 190.560252 124.703061 
L 190.846095 124.748775 
L 190.877009 124.680232 
L 191.21647 124.596088 
L 191.266006 124.657222 
L 191.343019 124.588303 
L 191.40292 124.51139 
L 191.53986 124.503467 
L 191.785283 124.287072 
L 191.792212 124.217405 
L 191.883556 124.340306 
L 192.337761 124.517297 
L 192.559312 124.228803 
L 192.961273 124.336251 
L 193.453268 124.098368 
L 193.628397 123.884595 
L 193.944727 123.938165 
L 193.968092 123.723194 
L 193.98485 123.785813 
L 194.104021 123.713954 
L 194.123003 123.776653 
L 194.406932 124.019436 
L 194.416747 123.947344 
L 194.662645 123.585399 
L 195.268058 123.629656 
L 195.383959 123.410631 
L 195.761828 123.307558 
L 195.982923 123.149952 
L 196.20114 123.257231 
L 196.330932 123.108752 
L 196.442051 123.162492 
L 196.570394 123.013359 
L 196.624049 123.077547 
L 196.790233 122.927979 
L 196.804576 122.853037 
L 196.879638 122.917294 
L 197.179557 123.239939 
L 197.209453 123.304743 
L 197.627107 123.35951 
L 197.773279 123.133527 
L 197.828127 123.198577 
L 197.891138 123.123028 
L 197.917855 123.04737 
L 197.958706 123.112498 
L 198.203515 123.036726 
L 198.217638 123.101939 
L 198.295101 123.167245 
L 198.350981 123.091349 
L 198.389767 123.015345 
L 198.422252 123.080729 
L 198.723847 123.004608 
L 199.587098 123.159089 
L 199.62182 123.082365 
L 199.623274 123.14846 
L 199.834065 123.1378 
L 200.045378 123.3265 
L 200.066938 123.249395 
L 200.085067 123.172178 
L 200.163878 123.305558 
L 200.384903 122.995499 
L 200.400302 122.839789 
L 200.819207 122.738992 
L 201.066696 122.929005 
L 201.166376 122.771816 
L 201.187974 122.839147 
L 201.260702 122.681476 
L 201.319177 122.74889 
L 201.50598 122.884018 
L 201.585081 122.804981 
L 201.63229 122.872687 
L 202.04314 123.065324 
L 202.247171 123.054205 
L 202.24941 123.122502 
L 202.295817 122.963485 
L 202.332513 123.100352 
L 202.413499 123.237631 
L 202.433964 123.15791 
L 202.672668 123.078069 
L 202.689619 123.146847 
L 202.882492 123.204727 
L 203.238926 122.95262 
L 203.261808 122.87202 
L 203.524611 122.86043 
L 203.56486 122.779576 
L 203.839455 122.756027 
L 203.946582 122.964614 
L 204.00519 122.883345 
L 204.085264 122.801952 
L 204.143877 122.871676 
L 204.396931 122.999935 
L 204.446416 122.918256 
L 204.456159 122.988391 
L 204.669435 123.117604 
L 204.716686 123.035638 
L 204.737573 123.106188 
L 205.575584 123.367353 
L 205.850392 123.642524 
L 205.857594 123.559943 
L 206.39444 123.827042 
L 207.032159 123.376854 
L 207.09541 123.522531 
L 207.110309 123.595544 
L 207.144205 123.511414 
L 207.331943 123.57349 
L 207.348893 123.489075 
L 207.379265 123.56241 
L 207.670654 124.004895 
L 207.757291 123.920284 
L 207.787714 123.835537 
L 207.791049 123.909682 
L 207.986187 123.739761 
L 208.004654 123.814008 
L 208.214631 123.877671 
L 208.329213 123.621265 
L 208.439276 123.53552 
L 208.572912 123.610083 
L 208.604763 123.524189 
L 208.668077 123.438155 
L 208.802329 123.512822 
L 208.829039 123.426639 
L 208.885326 123.253851 
L 209.063265 123.316868 
L 209.240192 123.131107 
L 209.324051 123.281408 
L 209.368301 123.194184 
L 209.651423 122.931649 
L 210.115092 123.070079 
L 210.117357 122.982102 
L 210.141995 122.89398 
L 210.212561 122.969619 
L 210.238245 123.045384 
L 210.323519 122.957095 
L 210.33469 122.868659 
L 210.38189 122.944529 
L 210.527461 122.855935 
L 210.544433 122.93192 
L 210.602874 123.008033 
L 210.675063 122.91927 
L 210.837622 123.071856 
L 210.851876 122.982924 
L 210.942818 122.715232 
L 210.956892 122.791674 
L 211.042609 122.868244 
L 211.619927 123.086222 
L 211.623687 122.816528 
L 211.730959 122.95821 
L 211.773388 123.035767 
L 211.801802 122.945368 
L 212.14603 122.932482 
L 212.544143 122.555079 
L 212.622446 122.632955 
L 212.756682 122.449757 
L 212.805572 122.357922 
L 212.986228 122.435897 
L 213.374449 122.159406 
L 213.630931 122.379977 
L 213.733715 122.287286 
L 213.748386 122.365876 
L 213.904423 122.430577 
L 214.386726 122.574868 
L 214.709589 122.012916 
L 214.712927 122.092231 
L 214.90956 122.25128 
L 215.190315 122.062567 
L 215.240947 121.873188 
L 215.277398 121.95287 
L 215.348281 122.032693 
L 215.441107 121.937726 
L 215.662204 122.002607 
L 215.812464 121.395547 
L 215.96871 121.18519 
L 216.005603 121.346328 
L 216.01617 121.427115 
L 216.095953 121.232316 
L 216.204518 121.475463 
L 216.221732 121.377754 
L 216.674968 120.967795 
L 216.770048 121.049194 
L 216.938734 120.851392 
L 217.400688 120.915369 
L 217.53745 120.79818 
L 217.870444 120.962164 
L 217.930759 121.209274 
L 218.108973 121.092034 
L 218.201795 121.340881 
L 218.24118 121.240598 
L 218.482784 121.021821 
L 218.544714 121.105169 
L 218.553678 121.188672 
L 218.613702 121.087591 
L 218.642311 121.171234 
L 218.685439 121.338991 
L 218.949412 121.136161 
L 218.955396 120.932568 
L 219.578222 120.691193 
L 219.809236 121.029344 
L 219.810248 121.114283 
L 219.850666 121.011304 
L 220.010371 121.267043 
L 220.10219 121.163816 
L 220.739766 121.576088 
L 220.896706 121.749312 
L 221.209453 121.524251 
L 221.396315 121.087231 
L 221.640696 121.174295 
L 222.063145 120.857386 
L 222.06562 120.944566 
L 222.068718 121.031915 
L 222.092107 120.925829 
L 222.186083 121.013332 
L 222.20304 120.90702 
L 222.524434 120.459873 
L 222.585106 120.547607 
L 222.595691 120.439993 
L 222.708218 120.224124 
L 222.8685 120.007398 
L 222.959765 119.789809 
L 222.98318 119.877575 
L 223.154545 119.659076 
L 223.315209 119.417519 
L 223.351617 119.505527 
L 223.500829 119.262135 
L 223.575774 118.928549 
L 223.849318 118.79321 
L 223.891124 118.769421 
L 223.961725 118.946626 
L 224.081081 119.0355 
L 224.081324 118.923053 
L 224.28865 118.357363 
L 224.481033 118.53536 
L 224.513912 118.624632 
L 224.542034 118.396577 
L 224.650457 118.167579 
L 224.717699 118.256933 
L 224.727383 118.346472 
L 224.76901 118.206093 
L 224.82032 118.295951 
L 224.881295 118.385996 
L 225.090859 118.129037 
L 225.117739 118.219378 
L 225.281125 118.491536 
L 225.327201 118.582636 
L 225.527206 118.440935 
L 225.741864 118.623989 
L 225.779245 118.507071 
L 225.853902 118.389905 
L 225.895264 118.481669 
L 225.933081 118.573628 
L 226.015181 118.45616 
L 226.050084 118.548286 
L 226.06124 118.640609 
L 226.097864 118.522837 
L 226.163599 118.615329 
L 226.295061 118.234195 
L 226.532548 118.419949 
L 226.592283 118.606501 
L 226.879963 118.887839 
L 227.149606 118.649011 
L 227.381597 118.288827 
L 227.420861 118.382872 
L 227.425395 118.26226 
L 227.886011 118.450908 
L 227.935095 118.735426 
L 228.273734 118.222786 
L 228.633035 118.413635 
L 228.674737 118.168481 
L 228.886072 118.360055 
L 228.900506 118.237011 
L 228.932297 118.113693 
L 229.072005 118.209739 
L 229.265541 118.058417 
L 229.316525 118.15483 
L 229.644974 118.445362 
L 229.808937 118.835789 
L 229.880946 118.684708 
L 230.284517 119.152751 
L 230.435005 118.901455 
L 230.482412 119.001031 
L 230.620943 118.874923 
L 230.709806 118.974696 
L 230.748561 118.848269 
L 230.772917 119.048442 
L 230.996711 119.249536 
L 231.013604 119.122697 
L 231.07787 118.86814 
L 231.240214 119.272758 
L 231.251816 119.144915 
L 231.602368 119.348575 
L 231.667881 119.091872 
L 231.83972 119.193997 
L 231.941427 118.93603 
L 231.987547 119.038332 
L 232.305432 119.631527 
L 232.373143 119.501534 
L 232.395181 119.605719 
L 232.460651 119.710152 
L 232.553028 119.579789 
L 232.757591 119.894491 
L 232.797736 119.763725 
L 232.892563 119.869097 
L 232.967699 120.18673 
L 233.110884 120.293116 
L 233.292726 120.161886 
L 233.379921 120.375369 
L 233.480218 120.243762 
L 233.745944 120.458219 
L 234.199409 119.928353 
L 234.257352 120.03585 
L 234.608707 120.335043 
L 234.679961 119.798045 
L 234.690867 119.906707 
L 234.867931 119.636153 
L 234.89913 119.745019 
L 235.047 119.96356 
L 235.204281 119.691465 
L 235.269564 119.910962 
L 235.418383 120.242268 
L 235.66671 119.831074 
L 235.888939 120.164585 
L 235.961763 120.02673 
L 235.99296 119.888527 
L 236.030272 120.000192 
L 236.35825 120.198202 
L 236.38345 120.059161 
L 236.414617 120.171898 
L 236.505463 120.284924 
L 236.762733 119.838097 
L 237.075687 119.69716 
L 237.112166 119.810593 
L 237.308607 119.924319 
L 237.463225 119.782948 
L 237.706204 120.098783 
L 237.882413 119.670923 
L 237.884699 119.785953 
L 237.9453 119.901284 
L 237.986236 119.757844 
L 238.174303 119.873441 
L 238.295026 119.729588 
L 238.532368 119.961621 
L 238.547946 119.817315 
L 238.578183 120.050501 
L 238.726489 120.140089 
L 238.844689 119.96683 
L 238.84715 120.084712 
L 239.089853 120.321423 
L 239.26217 120.02874 
L 239.382334 119.586758 
L 239.531477 119.438635 
L 239.842408 119.290112 
L 239.861592 119.141187 
L 240.079045 118.991858 
L 240.080489 119.110337 
L 240.156221 119.348262 
L 240.227494 119.198402 
L 240.236873 119.317809 
L 240.354851 119.287189 
L 240.372016 118.985245 
L 240.374039 119.105179 
L 240.60827 119.225444 
L 240.62294 119.073763 
L 240.681924 119.194315 
L 240.740119 119.042173 
L 240.754402 119.284192 
L 240.908195 118.978466 
L 241.018723 118.671036 
L 241.182679 118.759598 
L 241.314351 118.604715 
L 241.725191 119.185831 
L 241.958022 119.309787 
L 242.172067 119.153708 
L 242.428563 119.402586 
L 242.442958 119.527557 
L 242.697579 119.77857 
L 242.767909 119.904615 
L 243.030939 119.747823 
L 243.40931 120.225823 
L 243.622691 120.037598 
L 243.886964 120.294845 
L 243.931461 120.424032 
L 244.141694 120.265022 
L 244.185278 120.394542 
L 244.206807 120.20485 
L 244.209251 120.335043 
L 244.334628 120.174498 
L 244.382353 120.305031 
L 244.432117 120.143966 
L 244.566468 120.27484 
L 244.572711 120.113254 
L 244.594433 120.244471 
L 244.709266 120.376078 
L 244.743325 120.05128 
L 245.039463 120.183188 
L 245.158634 120.020015 
L 245.228386 120.152271 
L 245.345115 119.824363 
L 245.439317 119.956921 
L 245.457375 119.792179 
L 245.503745 119.461201 
L 245.567177 119.727226 
L 245.813236 119.860844 
L 245.849127 119.694454 
L 246.072001 120.097605 
L 246.092462 120.368431 
L 246.49128 120.640921 
L 246.614885 120.91509 
L 246.655328 120.747759 
L 246.929499 120.994073 
L 246.978192 120.825563 
L 247.029754 120.96443 
L 247.151422 120.795349 
L 247.392237 121.18519 
L 247.413227 120.843989 
L 247.50128 120.954671 
L 247.605871 121.096388 
L 248.023785 120.751645 
L 248.048702 120.893716 
L 248.067669 120.72047 
L 248.167319 120.862946 
L 248.31352 120.514687 
L 248.450464 120.657519 
L 248.513131 120.482498 
L 248.554885 120.625739 
L 248.569411 120.769443 
L 248.742728 120.913612 
L 248.806803 120.384674 
L 248.845099 120.529156 
L 248.994754 120.351641 
L 249.012074 120.496541 
L 249.071445 120.787765 
L 249.077542 120.609509 
L 249.231792 120.397404 
L 249.502326 120.986935 
L 249.512015 120.806637 
L 249.618629 120.410517 
L 249.667095 120.559406 
L 249.888974 120.708794 
L 250.002791 121.159989 
L 250.144892 120.976934 
L 250.159185 121.128296 
L 250.396324 120.944566 
L 250.427271 120.693435 
L 250.420032 121.064262 
L 250.487312 120.999347 
L 250.705194 120.437967 
L 250.777535 120.21392 
L 250.969009 120.024126 
L 251.075794 120.487506 
L 251.127569 120.296861 
L 251.246884 119.913561 
L 251.373458 120.695835 
L 251.407742 120.309181 
L 251.508205 120.11482 
L 251.680006 120.431248 
L 251.935877 120.236061 
L 251.990387 119.84358 
L 252.144761 120.161886 
L 252.181415 120.321902 
L 252.360799 120.124395 
L 252.45143 120.284924 
L 252.700557 119.84878 
L 252.884303 120.172361 
L 253.043451 119.770249 
L 253.122414 119.56808 
L 253.350999 119.730548 
L 253.389534 120.057292 
L 253.707436 120.681369 
L 253.759084 121.016617 
L 254.017377 121.3544 
L 254.055419 121.524251 
L 254.061631 121.319656 
L 254.116633 121.490087 
L 254.348387 121.661167 
L 254.435718 122.00529 
L 254.463597 121.799657 
L 254.505866 121.386018 
L 254.59751 121.558876 
L 254.598484 121.732401 
L 254.647654 121.524251 
L 254.848899 121.315295 
L 254.884933 121.489357 
L 255.069495 121.27952 
L 255.15627 121.454192 
L 255.512768 121.031915 
L 255.953227 122.570711 
L 256.049384 122.140167 
L 256.072822 122.322929 
L 256.201494 122.506431 
L 256.452984 121.818243 
L 256.601616 121.967961 
L 256.650465 121.746563 
L 256.663698 122.119539 
L 256.749203 122.495616 
L 256.753556 122.68483 
L 256.852883 122.462155 
L 256.880804 122.23855 
L 256.881053 122.428414 
L 257.001383 122.619077 
L 257.04579 122.394389 
L 257.12784 122.585785 
L 257.407925 122.777989 
L 257.483337 122.55221 
L 257.760268 122.74516 
L 257.793127 122.51835 
L 257.8467 122.71205 
L 257.924417 122.678657 
L 257.95849 123.267055 
L 258.348491 122.344632 
L 258.357023 122.542174 
L 258.369849 122.740578 
L 258.447903 122.507306 
L 258.471635 122.706504 
L 258.510717 122.472132 
L 258.547854 122.67213 
L 258.72315 122.873011 
L 258.780857 122.602466 
L 259.043702 123.212731 
L 259.09974 123.417977 
L 259.134435 123.146847 
L 259.191006 122.87202 
L 259.378544 123.079762 
L 259.462104 122.593419 
L 259.62699 121.8555 
L 259.816085 122.48322 
L 259.838359 122.234703 
L 259.843083 122.445802 
L 259.999565 122.870968 
L 260.014738 123.085047 
L 260.102906 122.835022 
L 260.204815 123.050027 
L 260.608298 122.037687 
L 260.768241 122.253354 
L 260.90731 121.481053 
L 260.981137 121.437438 
L 261.149964 122.092653 
L 261.304983 121.83106 
L 261.429733 122.051495 
L 261.524643 121.74556 
L 261.626409 121.967961 
L 261.77674 121.702174 
L 261.834328 122.150081 
L 262.164515 121.524251 
L 262.304051 121.751723 
L 262.427527 121.156573 
L 262.62175 121.848457 
L 262.77654 122.551122 
L 262.82171 122.273011 
L 262.840082 121.993448 
L 262.969061 122.229889 
L 263.103375 121.666121 
L 263.16044 122.142275 
L 263.202544 121.857916 
L 263.303899 121.572044 
L 263.325625 121.811775 
L 263.365004 121.765139 
L 263.37635 122.007322 
L 263.776546 122.495616 
L 263.857786 121.914909 
L 264.132713 122.160799 
L 264.146518 121.867944 
L 264.543409 122.363521 
L 264.658171 121.772459 
L 264.68441 122.022042 
L 264.918059 121.72392 
L 264.924111 121.424138 
L 265.047679 121.67484 
L 265.326926 120.764945 
L 265.3316 120.458219 
L 265.394268 120.709736 
L 265.465045 120.401111 
L 265.564483 120.653897 
L 265.571822 120.343349 
L 266.06576 119.083206 
L 266.126957 119.336569 
L 266.220682 120.105547 
L 266.350778 119.785195 
L 266.535408 120.044348 
L 266.610826 119.721925 
L 266.647191 119.982425 
L 266.654159 120.244471 
L 266.741189 119.59312 
L 266.773588 119.264519 
L 266.81211 119.527557 
L 267.148499 119.994868 
L 267.237487 119.326056 
L 267.377256 118.988572 
L 267.38981 119.257235 
L 267.51947 118.917456 
L 267.712717 119.459347 
L 267.822773 119.045596 
L 268.154102 120.155089 
L 268.203237 119.807348 
L 268.271739 120.088928 
L 268.314496 120.021915 
L 268.394173 119.669258 
L 268.641139 120.529156 
L 268.669154 120.173546 
L 268.6842 119.815605 
L 268.898081 120.105547 
L 269.133544 119.745019 
L 269.185769 119.016775 
L 269.203574 119.30792 
L 269.329532 118.939901 
L 269.476479 119.527557 
L 269.580435 119.824363 
L 269.69867 119.001031 
L 269.878619 118.62184 
L 269.890102 118.921663 
L 269.902144 118.539573 
L 270.410115 119.144915 
L 270.603596 120.068914 
L 270.749409 119.682777 
L 270.891117 119.994868 
L 270.915964 119.605719 
L 271.086979 119.213791 
L 271.147657 120.161886 
L 271.275849 120.482498 
L 271.293779 121.130742 
L 271.498539 120.335043 
L 271.514162 120.66221 
L 271.898135 120.259678 
L 271.916029 119.854154 
L 271.949913 120.183188 
L 272.22803 120.514687 
L 272.31738 120.848678 
L 272.581869 119.94671 
L 272.682514 120.284924 
L 272.857537 119.442755 
L 272.90929 119.782948 
L 273.047215 120.125788 
L 273.062775 119.699148 
L 273.082869 120.044348 
L 273.213457 120.392267 
L 273.339887 118.649011 
L 273.389142 118.998313 
L 273.72494 118.553363 
L 273.831858 118.104811 
L 274.402146 118.45616 
L 274.757066 117.087153 
L 274.843787 117.440104 
L 274.974954 116.862513 
L 274.981743 117.220452 
L 274.997187 117.581412 
L 275.04257 117.107834 
L 275.049357 117.471387 
L 275.287949 117.838046 
L 275.52629 117.359473 
L 275.538538 117.245621 
L 275.592638 117.99298 
L 275.669392 118.371576 
L 275.837758 119.919765 
L 275.918323 120.31549 
L 275.963971 120.223238 
L 276.026852 119.727226 
L 276.334195 120.1293 
L 276.430781 120.535063 
L 276.749844 120.944566 
L 276.928423 121.35786 
L 277.001407 120.855591 
L 277.028927 121.272332 
L 277.114964 121.692986 
L 277.135695 121.18519 
L 277.185664 121.609418 
L 277.536517 120.055529 
L 277.750031 120.482498 
L 277.885527 119.954035 
L 278.433444 119.420417 
L 278.903927 119.850551 
L 278.941315 119.311166 
L 279.210553 118.766441 
L 279.337988 119.199741 
L 279.433544 118.092746 
L 279.615738 118.52921 
L 279.995733 118.970104 
L 280.133167 119.865459 
L 280.330843 119.301128 
L 280.352475 119.755159 
L 280.727494 120.21392 
L 280.849133 120.677485 
L 280.98335 119.994868 
L 281.076631 120.944566 
L 281.107205 121.427115 
L 281.316605 121.914909 
L 281.357622 122.408034 
L 281.622419 122.906578 
L 281.663619 123.410631 
L 282.461664 122.822102 
L 282.571603 121.016617 
L 282.579099 121.524251 
L 282.817718 122.037687 
L 282.85213 122.557024 
L 282.97508 122.464555 
L 283.404889 123.532691 
L 283.974502 124.076239 
L 284.031922 123.449635 
L 284.066166 123.999195 
L 284.14336 124.555377 
L 284.184132 123.277446 
L 284.513168 122.62672 
L 284.655843 121.301018 
L 284.855766 122.428414 
L 284.899886 123.002816 
L 285.402963 123.584534 
L 285.545996 124.173711 
L 285.637051 122.80784 
L 285.647541 123.403493 
L 286.005874 122.706504 
L 286.375895 124.539393 
L 286.814658 125.166869 
L 286.962072 123.739761 
L 287.101995 125.018466 
L 287.343524 124.288905 
L 287.688483 125.602605 
L 287.842673 124.861583 
L 288.382934 126.212142 
L 288.442793 125.459342 
L 288.783955 126.848769 
L 288.835913 126.083866 
L 288.851047 126.793722 
L 289.010349 126.016813 
L 289.046874 126.736995 
L 289.27921 125.146161 
L 289.522555 125.061701 
L 289.554883 125.802881 
L 289.933251 124.974539 
L 290.193388 125.72697 
L 290.417091 123.15791 
L 290.562522 122.273011 
L 290.602187 120.458219 
L 291.398488 121.217067 
L 291.66805 120.284924 
L 292.135471 119.336569 
L 292.256017 118.371576 
L 292.592131 119.919765 
L 292.732738 120.71478 
L 292.852583 119.727226 
L 293.180545 120.535063 
L 293.234896 119.527557 
L 293.566608 118.501219 
L 293.711836 120.155089 
L 293.812628 119.105179 
L 294.001525 119.954035 
L 294.324504 120.819535 
L 294.344859 121.702174 
L 294.352368 120.625739 
L 294.490536 121.524251 
L 294.517299 122.4411 
L 294.530692 121.338991 
L 294.77393 122.273011 
L 294.784521 121.14593 
L 295.033886 119.994868 
L 295.167405 120.944566 
L 295.168643 121.914909 
L 295.642747 119.527557 
L 295.721832 120.514687 
L 295.933457 119.27797 
L 296.409007 118.012823 
L 296.428473 119.016775 
L 296.560241 120.044348 
L 296.777978 118.743141 
L 296.868506 117.41058 
L 297.153289 116.045517 
L 297.454917 119.249536 
L 298.057316 120.372312 
L 298.218528 118.957073 
L 298.667255 121.284648 
L 298.876458 122.495616 
L 299.47554 117.980822 
L 299.753889 119.213791 
L 299.882395 117.617675 
L 299.902347 115.974616 
L 300.173961 114.282509 
L 300.328752 112.539127 
L 300.42211 115.066193 
L 301.145802 113.252232 
L 301.266578 115.926961 
L 301.438193 112.082256 
L 301.488979 113.468623 
L 301.550738 114.903633 
L 301.637583 112.860024 
L 302.042824 115.866951 
L 302.297252 117.455516 
L 303.986811 115.303781 
L 304.130724 113.067664 
L 304.410622 114.695557 
L 304.473337 109.918466 
L 304.727171 107.37746 
L 304.904995 109.023209 
L 305.691122 106.349375 
L 305.77457 103.554003 
L 306.650537 100.628614 
L 306.836343 102.270414 
L 307.105898 99.171016 
L 307.19955 100.858466 
L 307.738939 102.632452 
L 307.872566 104.499806 
L 307.911437 101.125591 
L 308.073716 103.05483 
L 308.583069 105.09431 
L 309.357804 107.25376 
L 309.428305 109.544086 
L 309.67959 111.977557 
L 310.133231 108.191486 
L 310.579286 113.468623 
L 311.315765 116.389894 
L 311.961826 112.206345 
L 312.141423 115.303781 
L 312.430443 105.800284 
L 314.941887 109.023209 
L 314.944165 112.539127 
L 315.11625 116.389894 
L 316.83225 120.625739 
L 317.54022 125.307461 
L 317.809895 113.067664 
L 318.138118 105.800284 
L 318.920039 97.56392 
L 319.609244 102.270414 
L 320.757242 114.036648 
L 321.88597 121.524251 
L 322.078275 130.509375 
L 322.974992 141.491193 
L 323.140581 130.509375 
L 324.79205 144.628856 
L 326.22473 130.509375 
L 326.73046 110.742102 
L 329.766359 130.509375 
L 330.413877 97.56392 
L 336.476776 31.673011 
L 347.681818 31.673011 
L 347.681818 31.673011 
" style="fill:none;stroke:#0272a2;stroke-linecap:round;stroke-width:1.75;"/>
   </g>
   <g id="line2d_30">
    <path clip-path="url(#p056cb9fb7e)" d="M 43.318182 31.798518 
L 43.545709 31.798518 
L 43.673949 31.924024 
L 47.9476 31.924024 
L 47.955977 32.049531 
L 48.238477 32.049531 
L 48.583869 32.175037 
L 48.815298 32.175037 
L 49.348072 32.300544 
L 55.205756 32.300544 
L 55.390355 32.42605 
L 56.255877 32.42605 
L 56.478603 32.80257 
L 57.442836 32.80257 
L 57.646787 32.928076 
L 58.998111 32.928076 
L 59.139148 33.053583 
L 60.904566 33.053583 
L 61.009242 33.179089 
L 61.167165 33.179089 
L 61.361087 33.304596 
L 62.82526 33.304596 
L 62.981464 33.430102 
L 64.919716 33.430102 
L 65.064605 33.555609 
L 65.515311 33.555609 
L 65.556775 33.681115 
L 66.011977 33.681115 
L 66.127999 33.806622 
L 66.677215 33.806622 
L 66.713696 33.932128 
L 67.54328 33.932128 
L 67.668919 34.057635 
L 68.391726 34.057635 
L 68.534566 34.183141 
L 68.882177 34.183141 
L 68.992331 34.308648 
L 69.637398 34.308648 
L 69.781884 34.434154 
L 70.451727 34.434154 
L 70.57675 34.559661 
L 71.080266 34.559661 
L 71.24386 34.685167 
L 71.461082 34.685167 
L 71.468683 34.810674 
L 72.023165 34.810674 
L 72.031924 34.93618 
L 72.429432 34.93618 
L 72.556624 35.187193 
L 72.763344 35.187193 
L 72.777804 35.3127 
L 72.974296 35.3127 
L 73.162608 35.438206 
L 73.2125 35.438206 
L 73.308194 35.563713 
L 73.331599 35.563713 
L 73.493088 35.689219 
L 73.659603 35.689219 
L 73.686447 35.814726 
L 73.819812 35.814726 
L 73.895016 35.940232 
L 74.443226 35.940232 
L 74.513547 36.065739 
L 74.830861 36.316752 
L 75.339322 36.316752 
L 75.491241 36.442258 
L 75.614617 36.442258 
L 75.667846 36.567765 
L 75.8646 36.567765 
L 75.974826 36.693271 
L 76.436318 36.693271 
L 76.547533 36.818778 
L 76.682451 36.944284 
L 76.755683 36.944284 
L 76.895342 37.069791 
L 77.201228 37.069791 
L 77.378978 37.195297 
L 77.613227 37.195297 
L 77.903309 37.571817 
L 78.297864 37.571817 
L 78.472741 37.82283 
L 79.024413 37.82283 
L 79.112697 37.948336 
L 79.579466 37.948336 
L 79.730649 38.073843 
L 80.998378 38.073843 
L 81.124583 38.199349 
L 81.160861 38.199349 
L 81.243679 38.324856 
L 81.29397 38.324856 
L 81.456144 38.575869 
L 81.674399 38.575869 
L 81.773561 38.701375 
L 81.980714 38.701375 
L 82.173706 38.952388 
L 82.3239 38.952388 
L 82.450408 39.077894 
L 82.722727 39.328907 
L 82.741876 39.328907 
L 82.829643 39.454414 
L 83.160975 39.454414 
L 83.262959 39.57992 
L 83.516396 39.57992 
L 83.652444 40.081946 
L 83.720045 40.081946 
L 83.830517 40.332959 
L 84.351242 40.332959 
L 84.424999 40.583972 
L 84.706857 40.583972 
L 84.861116 40.834985 
L 84.958576 40.834985 
L 84.973465 40.960492 
L 85.211135 41.085998 
L 85.303968 41.085998 
L 85.504957 41.462518 
L 85.766654 41.462518 
L 85.794721 41.588024 
L 86.031138 41.588024 
L 86.165198 41.713531 
L 86.556147 41.713531 
L 86.66271 41.964544 
L 87.121321 41.964544 
L 87.189133 42.09005 
L 87.570507 42.09005 
L 87.699766 42.46657 
L 87.932904 42.46657 
L 88.710252 43.345115 
L 90.005034 43.345115 
L 90.165315 43.470622 
L 90.543154 43.470622 
L 90.70888 43.596128 
L 90.901502 43.596128 
L 91.090556 43.847141 
L 91.296988 43.847141 
L 91.376933 43.972648 
L 91.511041 43.972648 
L 91.622626 44.098154 
L 91.963703 44.098154 
L 92.05283 44.223661 
L 92.304785 44.223661 
L 92.373146 44.349167 
L 92.971982 44.349167 
L 93.086911 44.474674 
L 93.171779 44.474674 
L 93.262112 44.60018 
L 93.410303 44.60018 
L 93.459991 44.725687 
L 93.541792 44.725687 
L 93.680757 44.9767 
L 93.803771 44.9767 
L 93.812732 45.102206 
L 94.103284 45.102206 
L 94.360891 45.353219 
L 94.505745 45.353219 
L 94.619567 45.478726 
L 94.76016 45.729739 
L 94.969186 45.729739 
L 95.009341 45.855245 
L 95.379901 45.855245 
L 95.490123 45.980752 
L 96.040936 45.980752 
L 96.355311 46.231765 
L 96.590544 46.231765 
L 96.68128 46.357271 
L 97.282873 46.357271 
L 97.300418 46.482778 
L 97.514414 46.482778 
L 97.925338 46.859297 
L 98.15367 46.859297 
L 98.270851 46.984804 
L 98.409019 47.11031 
L 98.786093 47.11031 
L 98.876175 47.361323 
L 99.166371 47.361323 
L 99.237768 47.48683 
L 99.389669 47.48683 
L 99.410064 47.612336 
L 99.710237 47.612336 
L 99.821396 47.737843 
L 99.96515 47.737843 
L 99.998792 47.863349 
L 100.205159 47.863349 
L 100.419819 47.988856 
L 100.450281 47.988856 
L 100.841728 48.490881 
L 100.888228 48.490881 
L 101.400117 49.118414 
L 101.699723 49.745946 
L 102.162632 49.745946 
L 102.652382 49.996959 
L 103.080273 49.996959 
L 103.185464 50.122466 
L 103.357238 50.122466 
L 103.463685 50.373479 
L 103.563757 50.373479 
L 103.744632 50.875505 
L 103.955199 50.875505 
L 104.075302 51.001011 
L 104.247481 51.126518 
L 105.015454 51.126518 
L 105.043236 51.252024 
L 105.331798 51.252024 
L 105.774157 51.503037 
L 106.652176 51.503037 
L 106.777505 51.75405 
L 106.892897 51.75405 
L 107.011862 52.005063 
L 107.139475 52.13057 
L 107.334312 52.13057 
L 107.389705 52.256076 
L 107.46153 52.256076 
L 107.521826 52.381583 
L 107.818063 52.381583 
L 108.054623 52.632596 
L 108.15357 52.632596 
L 108.229551 52.758102 
L 108.615325 52.758102 
L 108.665742 52.883609 
L 109.138356 52.883609 
L 109.219181 53.009115 
L 109.59708 53.009115 
L 109.666235 53.134622 
L 109.917105 53.134622 
L 110.128971 53.385635 
L 110.138707 53.511141 
L 110.412374 53.511141 
L 110.446388 53.636648 
L 110.84804 53.636648 
L 110.97201 53.762154 
L 111.210197 53.762154 
L 111.298243 53.887661 
L 111.617555 53.887661 
L 111.636212 54.013167 
L 112.258186 54.013167 
L 112.364355 54.138674 
L 112.634153 54.138674 
L 113.173825 54.389687 
L 113.61976 55.268232 
L 113.717394 55.393739 
L 113.743736 55.393739 
L 113.98728 55.644752 
L 114.235028 55.644752 
L 114.447106 55.895765 
L 114.836165 56.397791 
L 114.839772 56.523297 
L 115.164566 56.77431 
L 115.280044 56.77431 
L 115.392131 56.899817 
L 115.540002 56.899817 
L 115.675469 57.025323 
L 115.725385 57.025323 
L 115.991347 57.401843 
L 116.16644 57.401843 
L 116.329547 57.527349 
L 116.632938 57.527349 
L 116.785645 57.778362 
L 116.898261 57.778362 
L 117.030131 58.029375 
L 117.394178 58.280388 
L 117.426928 58.280388 
L 117.580326 58.405894 
L 117.750509 58.405894 
L 117.920742 58.656907 
L 118.218356 58.656907 
L 118.341947 58.782414 
L 118.585759 58.782414 
L 118.764219 58.90792 
L 118.77709 58.90792 
L 119.058013 59.28444 
L 119.170083 59.28444 
L 119.26456 59.786466 
L 119.674974 59.786466 
L 119.783317 60.162985 
L 119.935687 60.288492 
L 120.051527 60.288492 
L 120.167347 60.413998 
L 120.219054 60.413998 
L 120.3278 60.539505 
L 121.290945 61.292544 
L 121.378124 61.292544 
L 121.469889 61.41805 
L 121.704929 61.41805 
L 121.809983 61.543557 
L 122.129881 61.79457 
L 122.377529 61.79457 
L 122.469412 61.920076 
L 123.041382 61.920076 
L 123.234247 62.171089 
L 123.399394 62.171089 
L 123.401314 62.296596 
L 124.272393 62.924128 
L 124.308334 62.924128 
L 124.374484 63.049635 
L 124.871161 63.049635 
L 125.454858 63.677167 
L 125.7379 63.677167 
L 126.008297 63.92818 
L 126.287757 63.92818 
L 126.408306 64.179193 
L 126.661414 64.179193 
L 126.719837 64.3047 
L 126.941977 64.681219 
L 127.028425 64.932232 
L 127.186089 64.932232 
L 127.597625 65.559765 
L 127.650861 65.810778 
L 127.841089 65.936284 
L 127.96197 65.936284 
L 128.068669 66.187297 
L 128.259976 66.187297 
L 128.625733 66.689323 
L 128.799598 66.689323 
L 129.005833 67.191349 
L 129.585381 67.191349 
L 129.700111 67.442362 
L 129.845495 67.693375 
L 130.095164 67.693375 
L 130.102978 67.818881 
L 130.385294 67.818881 
L 130.434561 67.944388 
L 130.670072 68.195401 
L 130.954969 68.195401 
L 131.142171 68.446414 
L 131.483258 68.446414 
L 132.080645 69.073946 
L 132.360055 69.324959 
L 132.532775 69.450466 
L 132.655737 69.450466 
L 132.741163 69.701479 
L 132.796813 69.701479 
L 132.940081 69.826985 
L 133.334442 70.077998 
L 133.408202 70.329011 
L 133.535855 70.329011 
L 133.634098 70.705531 
L 133.790519 70.705531 
L 133.847672 70.956544 
L 134.214058 71.08205 
L 134.219982 71.08205 
L 134.318921 71.333063 
L 134.362306 71.333063 
L 134.484602 71.45857 
L 134.524773 71.45857 
L 134.607191 71.709583 
L 134.859062 72.086102 
L 135.010919 72.086102 
L 135.125813 72.462622 
L 135.299682 72.462622 
L 135.404026 72.588128 
L 135.599437 72.588128 
L 135.874211 72.839141 
L 135.987385 73.090154 
L 136.141165 73.090154 
L 136.289013 73.466674 
L 136.438743 73.717687 
L 136.603155 73.9687 
L 136.650612 74.094206 
L 136.877103 74.094206 
L 137.070404 74.470726 
L 137.204627 74.596232 
L 137.644573 74.596232 
L 137.821953 74.847245 
L 137.922271 74.847245 
L 138.070055 75.223765 
L 138.114273 75.223765 
L 138.212459 75.600284 
L 138.294131 75.600284 
L 138.341212 75.851297 
L 138.802454 75.851297 
L 139.025973 76.10231 
L 139.264388 76.10231 
L 139.461881 76.227817 
L 139.492972 76.227817 
L 139.701466 76.47883 
L 140.271998 76.47883 
L 140.488836 76.604336 
L 140.820973 76.604336 
L 140.890783 76.729843 
L 140.973412 76.729843 
L 141.243261 77.357375 
L 141.3357 77.357375 
L 141.48191 77.608388 
L 141.540649 77.608388 
L 141.873035 77.984907 
L 142.358922 77.984907 
L 143.170348 78.988959 
L 143.475415 78.988959 
L 143.543529 79.239972 
L 143.739881 79.239972 
L 144.15892 79.741998 
L 144.224224 79.741998 
L 144.265475 79.993011 
L 144.430255 80.244024 
L 144.560195 80.620544 
L 144.887149 80.871557 
L 145.575857 81.499089 
L 145.763329 81.750102 
L 146.220217 82.001115 
L 146.298708 82.001115 
L 146.847564 82.503141 
L 147.048171 82.754154 
L 147.625402 82.754154 
L 148.00147 83.25618 
L 148.149898 83.25618 
L 148.292457 83.381687 
L 148.49375 83.381687 
L 148.596143 83.507193 
L 148.678138 83.507193 
L 148.82933 83.758206 
L 148.963321 83.758206 
L 149.413036 84.636752 
L 149.900056 84.636752 
L 150.16877 85.264284 
L 150.259558 85.264284 
L 150.410449 85.640804 
L 150.868605 86.268336 
L 150.933564 86.519349 
L 151.1806 86.519349 
L 151.442751 86.770362 
L 151.77034 86.770362 
L 152.063679 87.021375 
L 152.100596 87.021375 
L 152.125201 87.146881 
L 152.770899 87.146881 
L 152.895158 87.272388 
L 152.932379 87.272388 
L 153.428742 87.648907 
L 153.75139 87.648907 
L 153.822299 87.774414 
L 153.985497 87.774414 
L 154.180579 88.150933 
L 154.325197 88.150933 
L 154.807739 88.527453 
L 154.85172 88.652959 
L 154.971342 88.652959 
L 155.207996 89.154985 
L 155.282615 89.154985 
L 155.711728 89.908024 
L 155.795469 89.908024 
L 155.930109 90.033531 
L 155.958904 90.033531 
L 156.080138 90.159037 
L 156.33041 90.284544 
L 156.559207 90.284544 
L 157.402464 91.539609 
L 157.493465 91.539609 
L 157.60446 91.916128 
L 158.106052 92.292648 
L 158.613585 92.292648 
L 158.790914 92.418154 
L 158.812983 92.418154 
L 159.062665 92.92018 
L 159.712004 93.547713 
L 159.752177 93.547713 
L 159.886391 94.175245 
L 161.07087 95.304804 
L 161.093582 95.304804 
L 161.268485 95.43031 
L 161.356092 95.43031 
L 161.616631 95.681323 
L 161.734643 95.932336 
L 161.807701 95.932336 
L 161.86838 96.057843 
L 162.118181 96.057843 
L 162.432439 96.308856 
L 162.742258 96.559869 
L 162.781846 96.559869 
L 163.022099 96.810881 
L 163.053869 96.810881 
L 163.47407 97.689427 
L 163.496531 97.689427 
L 163.650758 97.814933 
L 163.912964 97.94044 
L 164.019302 97.94044 
L 164.164144 98.191453 
L 164.402111 98.442466 
L 164.78415 98.818985 
L 164.886417 98.944492 
L 164.996791 98.944492 
L 165.31013 99.572024 
L 165.437804 99.572024 
L 165.678581 100.07405 
L 165.835723 100.325063 
L 165.994868 100.325063 
L 166.163755 100.701583 
L 166.411794 100.701583 
L 166.506037 100.952596 
L 166.699536 100.952596 
L 166.71309 101.078102 
L 167.068088 101.203609 
L 167.161655 101.203609 
L 167.27585 101.329115 
L 167.666401 101.705635 
L 167.7118 101.831141 
L 168.256931 102.082154 
L 168.366976 102.207661 
L 168.525081 102.333167 
L 168.653746 102.333167 
L 168.717966 102.458674 
L 169.195569 102.458674 
L 169.204693 102.709687 
L 169.331263 102.709687 
L 169.412538 102.835193 
L 170.107228 103.462726 
L 170.577816 103.839245 
L 170.640023 103.964752 
L 171.049747 103.964752 
L 171.144563 104.090258 
L 171.170996 104.090258 
L 171.366398 104.466778 
L 171.77094 104.466778 
L 171.888934 104.717791 
L 171.898337 104.717791 
L 172.000414 104.843297 
L 172.09504 104.843297 
L 172.22231 105.219817 
L 172.521397 105.47083 
L 172.713718 105.47083 
L 172.910818 105.596336 
L 173.071979 105.596336 
L 173.145014 105.847349 
L 173.250351 105.847349 
L 173.254098 105.972856 
L 173.834823 106.474881 
L 173.853594 106.976907 
L 174.288482 107.353427 
L 174.374982 107.729946 
L 174.465415 107.729946 
L 174.718237 108.357479 
L 174.828955 108.482985 
L 174.86037 108.482985 
L 175.150471 109.236024 
L 175.322 109.612544 
L 175.346363 109.863557 
L 175.533231 109.863557 
L 176.177942 110.742102 
L 176.403212 111.118622 
L 176.48039 111.118622 
L 176.53816 111.244128 
L 176.861343 111.620648 
L 176.868076 111.746154 
L 176.994384 111.746154 
L 177.158509 112.122674 
L 177.399776 112.122674 
L 178.198281 113.001219 
L 178.755011 113.001219 
L 179.003344 113.377739 
L 179.424429 113.377739 
L 179.605756 113.879765 
L 179.886691 114.507297 
L 180.201717 114.507297 
L 180.335931 115.13483 
L 180.461787 115.511349 
L 180.810582 115.636856 
L 180.956991 115.636856 
L 181.067952 115.887869 
L 181.288941 116.515401 
L 181.379757 116.640907 
L 181.504815 116.640907 
L 181.644402 116.766414 
L 181.970729 116.766414 
L 181.997789 117.017427 
L 182.650207 117.895972 
L 182.723584 118.272492 
L 182.941628 118.272492 
L 183.093203 118.774518 
L 183.425332 119.276544 
L 184.035077 120.406102 
L 184.227925 120.406102 
L 184.978766 121.284648 
L 185.053611 121.535661 
L 185.556882 121.91218 
L 186.078568 122.2887 
L 186.424308 122.2887 
L 186.531509 122.539713 
L 186.690065 122.539713 
L 186.725928 122.665219 
L 186.940216 122.665219 
L 187.037437 122.790726 
L 187.166378 122.790726 
L 187.651153 123.920284 
L 187.824184 123.920284 
L 187.918719 124.296804 
L 188.239099 124.296804 
L 188.571435 125.049843 
L 188.617048 125.049843 
L 189.029561 125.426362 
L 189.089697 125.426362 
L 189.33774 126.053894 
L 189.505344 126.304907 
L 189.7019 126.55592 
L 189.72101 126.55592 
L 190.095166 127.308959 
L 190.461741 127.308959 
L 190.560252 127.559972 
L 190.771968 127.810985 
L 190.877009 127.936492 
L 191.106077 127.936492 
L 191.391106 128.438518 
L 191.40292 128.438518 
L 191.53986 128.564024 
L 191.700879 128.564024 
L 191.883556 128.940544 
L 192.061528 129.191557 
L 192.068698 129.317063 
L 192.749354 129.693583 
L 192.898792 129.944596 
L 192.961273 130.070102 
L 193.185075 130.070102 
L 193.271682 130.195609 
L 193.503931 130.446622 
L 193.628397 130.446622 
L 194.265583 131.199661 
L 194.534739 131.57618 
L 194.662645 131.57618 
L 195.041023 131.827193 
L 195.2779 131.9527 
L 195.383959 131.9527 
L 195.705114 132.329219 
L 195.879258 132.329219 
L 196.075735 132.705739 
L 196.224761 132.956752 
L 196.330932 132.956752 
L 196.442051 133.207765 
L 196.570394 133.207765 
L 196.624049 133.333271 
L 196.804576 133.333271 
L 197.387654 134.337323 
L 198.217638 134.839349 
L 198.422252 135.090362 
L 198.723847 135.090362 
L 199.129576 135.341375 
L 199.315229 135.717894 
L 199.550469 135.968907 
L 199.62182 135.968907 
L 199.623274 136.094414 
L 199.768478 136.094414 
L 200.299697 136.972959 
L 200.632284 136.972959 
L 200.702697 137.098466 
L 200.980405 137.474985 
L 201.086054 137.725998 
L 201.166376 137.725998 
L 201.319177 137.977011 
L 201.63229 138.353531 
L 202.308189 139.232076 
L 202.433964 139.608596 
L 202.672668 139.608596 
L 202.793885 139.985115 
L 203.126904 139.985115 
L 203.261808 140.110622 
L 203.56486 140.236128 
L 203.736054 140.236128 
L 203.898318 140.612648 
L 204.00519 140.863661 
L 204.085264 140.863661 
L 204.396931 141.365687 
L 204.446416 141.365687 
L 204.555812 141.6167 
L 204.601317 141.6167 
L 204.737573 141.993219 
L 205.166004 142.244232 
L 205.236891 142.495245 
L 205.450873 142.495245 
L 205.982998 143.499297 
L 206.013377 143.499297 
L 206.116879 143.75031 
L 206.242572 144.001323 
L 206.366587 144.001323 
L 206.39444 144.12683 
L 206.793173 144.12683 
L 207.017684 144.503349 
L 207.032159 144.503349 
L 207.144205 144.879869 
L 207.470896 145.507401 
L 207.670654 146.009427 
L 207.787714 146.009427 
L 207.791049 146.134933 
L 207.986187 146.134933 
L 208.131444 146.511453 
L 208.439276 146.511453 
L 208.834003 146.762466 
L 208.885326 146.762466 
L 209.523042 147.389998 
L 209.651423 147.389998 
L 210.051742 147.641011 
L 210.38189 148.143037 
L 210.527461 148.143037 
L 210.602874 148.39405 
L 210.675063 148.39405 
L 211.393986 149.147089 
L 211.577043 149.147089 
L 211.801802 149.900128 
L 213.088969 150.402154 
L 213.374449 150.402154 
L 213.620988 150.778674 
L 213.748386 151.029687 
L 214.071356 151.406206 
L 214.569902 151.657219 
L 214.709589 151.657219 
L 214.712927 151.782726 
L 214.90956 152.033739 
L 215.240947 152.033739 
L 215.348281 152.284752 
L 215.441107 152.284752 
L 216.000647 153.037791 
L 216.095953 153.288804 
L 216.401178 153.79083 
L 216.674968 153.79083 
L 216.843655 153.916336 
L 216.938734 153.916336 
L 217.870444 154.543869 
L 218.024369 154.920388 
L 218.685439 156.175453 
L 219.299749 156.175453 
L 219.352233 156.300959 
L 219.764028 156.802985 
L 220.10219 157.430518 
L 220.478351 157.807037 
L 220.739766 158.183557 
L 220.896706 158.43457 
L 221.108446 158.43457 
L 221.396315 158.685583 
L 221.823517 158.811089 
L 222.063145 158.811089 
L 222.092107 159.062102 
L 222.341425 159.313115 
L 222.524434 159.313115 
L 222.708218 159.438622 
L 222.959765 159.438622 
L 223.012591 159.564128 
L 223.191604 159.564128 
L 223.351617 159.815141 
L 223.46978 159.815141 
L 223.575774 159.940648 
L 223.698074 159.940648 
L 223.891124 160.191661 
L 223.961725 160.442674 
L 224.208717 160.56818 
L 224.28865 160.56818 
L 224.481033 160.819193 
L 224.596082 160.9447 
L 224.650457 160.9447 
L 225.527206 162.450778 
L 226.015181 162.952804 
L 226.199978 163.329323 
L 226.246293 163.329323 
L 226.295061 163.45483 
L 226.532548 163.705843 
L 226.592283 163.956856 
L 227.196496 164.333375 
L 227.381597 164.333375 
L 227.425395 164.458881 
L 227.868659 164.584388 
L 228.009905 165.086414 
L 228.120358 165.086414 
L 228.402568 165.337427 
L 228.932297 165.713946 
L 229.644974 166.466985 
L 229.880946 167.094518 
L 230.482412 167.973063 
L 230.620943 167.973063 
L 231.16897 168.851609 
L 231.251816 169.102622 
L 231.888307 169.479141 
L 231.941427 169.479141 
L 232.460651 170.734206 
L 232.553028 170.734206 
L 233.110884 171.738258 
L 233.292726 171.738258 
L 233.480218 171.989271 
L 233.745944 172.240284 
L 234.199409 172.240284 
L 234.608707 172.867817 
L 234.679961 172.867817 
L 234.690867 172.993323 
L 234.867931 172.993323 
L 235.047 173.369843 
L 235.204281 173.369843 
L 235.487993 173.997375 
L 235.66671 173.997375 
L 236.762733 175.25244 
L 237.075687 175.25244 
L 237.112166 175.377946 
L 237.60705 175.754466 
L 237.747296 176.005479 
L 237.882413 176.005479 
L 237.986236 176.256492 
L 238.547946 176.633011 
L 238.668487 177.009531 
L 238.912187 177.511557 
L 239.276045 177.637063 
L 240.079045 177.637063 
L 240.156221 178.013583 
L 240.227494 178.013583 
L 240.357308 178.264596 
L 240.372016 178.264596 
L 240.374039 178.390102 
L 240.740119 178.641115 
L 240.754402 178.892128 
L 241.018723 178.892128 
L 241.182679 179.143141 
L 241.314351 179.143141 
L 241.958022 180.021687 
L 242.172067 180.021687 
L 242.428563 180.2727 
L 242.442958 180.398206 
L 242.697579 180.649219 
L 242.767909 180.774726 
L 243.030939 180.774726 
L 243.343223 181.276752 
L 243.526792 181.402258 
L 243.931461 181.904284 
L 244.141694 181.904284 
L 244.432117 182.40631 
L 245.039463 182.908336 
L 245.158634 182.908336 
L 245.345115 183.033843 
L 245.849127 183.535869 
L 246.072001 183.912388 
L 246.092462 184.163401 
L 246.49128 184.414414 
L 246.614885 184.665427 
L 246.655328 184.665427 
L 247.413227 185.669479 
L 247.50128 185.920492 
L 247.605871 186.045998 
L 248.023785 186.045998 
L 248.167319 186.297011 
L 248.31352 186.297011 
L 249.012074 187.05005 
L 249.231792 187.42657 
L 250.002791 188.681635 
L 250.144892 188.681635 
L 250.159185 188.807141 
L 250.399314 188.807141 
L 250.487312 189.309167 
L 250.746592 189.309167 
L 250.777535 189.434674 
L 250.969009 189.434674 
L 251.680006 190.689739 
L 251.990387 190.689739 
L 252.144761 190.940752 
L 252.181415 191.066258 
L 252.360799 191.066258 
L 252.587325 191.191765 
L 252.60752 191.191765 
L 252.919725 191.568284 
L 253.122414 191.568284 
L 253.360601 191.819297 
L 253.534755 192.195817 
L 253.701655 192.44683 
L 253.759084 192.823349 
L 254.017377 193.074362 
L 254.116633 193.325375 
L 254.362127 193.576388 
L 254.647654 193.952907 
L 254.848899 193.952907 
L 254.884933 194.078414 
L 255.069495 194.078414 
L 255.15627 194.20392 
L 255.512768 194.20392 
L 256.072822 195.709998 
L 256.653605 196.337531 
L 256.753556 196.839557 
L 256.880804 196.839557 
L 256.881053 196.965063 
L 257.12784 197.216076 
L 257.8467 197.592596 
L 257.95849 198.094622 
L 258.348491 198.094622 
L 258.471635 198.471141 
L 258.510717 198.471141 
L 258.547854 198.596648 
L 258.906377 198.973167 
L 259.127329 199.349687 
L 259.191006 199.6007 
L 259.48536 199.726206 
L 259.62699 199.726206 
L 259.816085 200.102726 
L 259.838359 200.102726 
L 259.947426 200.353739 
L 260.204815 200.730258 
L 260.608298 200.730258 
L 260.997232 201.106778 
L 261.149964 201.357791 
L 261.304983 201.357791 
L 262.607258 202.738362 
L 262.77654 203.240388 
L 262.840082 203.240388 
L 263.365004 203.86792 
L 263.37635 203.993427 
L 265.196457 204.871972 
L 265.3316 204.871972 
L 265.571822 205.122985 
L 266.06576 205.122985 
L 266.350778 205.625011 
L 266.647191 205.876024 
L 266.741189 206.001531 
L 266.773588 206.001531 
L 266.961898 206.252544 
L 267.171287 206.503557 
L 267.377256 206.503557 
L 267.38981 206.629063 
L 267.51947 206.629063 
L 267.822773 207.005583 
L 268.154102 207.507609 
L 268.203237 207.507609 
L 268.669154 208.135141 
L 268.6842 208.135141 
L 268.898081 208.260648 
L 269.185769 208.260648 
L 269.203574 208.386154 
L 269.329532 208.386154 
L 269.476479 208.637167 
L 269.69867 208.88818 
L 269.878619 208.88818 
L 269.902144 209.013687 
L 270.410115 209.2647 
L 270.603596 209.641219 
L 270.749409 209.641219 
L 270.915964 209.766726 
L 271.086979 209.766726 
L 271.147657 210.143245 
L 271.281149 210.394258 
L 271.293779 210.519765 
L 271.498539 210.519765 
L 271.514162 210.645271 
L 271.916029 210.645271 
L 271.949913 210.770778 
L 272.44055 211.021791 
L 272.581869 211.147297 
L 272.794519 211.272804 
L 272.857537 211.272804 
L 273.082869 211.649323 
L 273.389142 211.900336 
L 273.831858 211.900336 
L 274.926881 212.151349 
L 275.049357 212.653375 
L 275.585165 213.029894 
L 275.729157 213.657427 
L 276.026852 214.033946 
L 276.749844 214.410466 
L 277.135695 214.786985 
L 277.185664 214.912492 
L 277.536517 214.912492 
L 277.885527 215.037998 
L 278.433444 215.037998 
L 279.995733 215.540024 
L 280.133167 215.791037 
L 280.330843 215.791037 
L 280.352475 215.916544 
L 280.876774 216.167557 
L 281.357622 216.920596 
L 281.663619 217.171609 
L 282.571603 217.171609 
L 282.579099 217.297115 
L 282.85213 217.548128 
L 283.238856 217.799141 
L 283.404889 217.924648 
L 284.066166 218.175661 
L 284.184132 218.301167 
L 284.655843 218.301167 
L 284.855766 218.55218 
L 284.899886 218.677687 
L 285.637051 218.9287 
L 285.647541 219.054206 
L 286.005874 219.054206 
L 286.375895 219.430726 
L 287.028784 219.681739 
L 287.101995 219.807245 
L 287.343524 219.807245 
L 287.688483 220.058258 
L 287.842673 220.058258 
L 288.835913 220.560284 
L 288.851047 220.685791 
L 289.010349 220.685791 
L 289.13228 220.811297 
L 289.27921 220.811297 
L 290.242896 221.187817 
L 290.602187 221.187817 
L 291.66805 221.313323 
L 292.256017 221.313323 
L 293.234896 221.815349 
L 293.566608 221.815349 
L 293.711836 222.066362 
L 293.812628 222.066362 
L 294.490536 222.568388 
L 294.530692 222.693894 
L 294.784521 222.819401 
L 295.033886 222.819401 
L 295.351256 223.070414 
L 295.642747 223.070414 
L 295.721832 223.19592 
L 296.409007 223.19592 
L 296.560241 223.446933 
L 297.153289 223.446933 
L 297.454917 223.823453 
L 298.473561 224.074466 
L 299.06257 224.325479 
L 299.47554 224.325479 
L 299.902347 224.450985 
L 300.328752 224.450985 
L 300.42211 224.701998 
L 301.145802 224.701998 
L 301.266578 224.953011 
L 301.438193 224.953011 
L 301.637583 225.204024 
L 302.042824 225.455037 
L 302.297252 225.580544 
L 304.130724 225.580544 
L 304.473337 225.70605 
L 304.727171 225.70605 
L 304.904995 225.831557 
L 306.650537 225.831557 
L 306.836343 225.957063 
L 307.105898 225.957063 
L 307.19955 226.08257 
L 307.911437 226.333583 
L 308.073716 226.459089 
L 310.321165 227.086622 
L 310.579286 227.212128 
L 312.430443 227.463141 
L 314.941887 227.588648 
L 314.944165 227.714154 
L 315.11625 227.839661 
L 319.609244 228.21618 
L 320.757242 228.467193 
L 322.078275 228.718206 
L 323.140581 228.843713 
L 326.22473 228.969219 
L 326.73046 228.969219 
L 330.413877 229.094726 
L 336.476776 229.094726 
L 339.931112 229.220232 
L 347.681818 229.345739 
L 347.681818 229.345739 
" style="fill:none;stroke:#9fc377;stroke-linecap:round;stroke-width:1.75;"/>
   </g>
   <g id="patch_3">
    <path d="M 28.1 239.229375 
L 28.1 21.789375 
" style="fill:none;stroke:#cccccc;stroke-linecap:square;stroke-linejoin:miter;stroke-width:1.25;"/>
   </g>
   <g id="patch_4">
    <path d="M 362.9 239.229375 
L 362.9 21.789375 
" style="fill:none;stroke:#cccccc;stroke-linecap:square;stroke-linejoin:miter;stroke-width:1.25;"/>
   </g>
   <g id="patch_5">
    <path d="M 28.1 239.229375 
L 362.9 239.229375 
" style="fill:none;stroke:#cccccc;stroke-linecap:square;stroke-linejoin:miter;stroke-width:1.25;"/>
   </g>
   <g id="patch_6">
    <path d="M 28.1 21.789375 
L 362.9 21.789375 
" style="fill:none;stroke:#cccccc;stroke-linecap:square;stroke-linejoin:miter;stroke-width:1.25;"/>
   </g>
   <g id="text_16">
    <!-- Precision and Recall Curves for lm2 model -->
    <defs>
     <path d="M 7.71875 0 
L 7.71875 71.578125 
L 34.71875 71.578125 
Q 41.84375 71.578125 45.609375 70.90625 
Q 50.875 70.015625 54.4375 67.546875 
Q 58.015625 65.09375 60.1875 60.640625 
Q 62.359375 56.203125 62.359375 50.875 
Q 62.359375 41.75 56.546875 35.421875 
Q 50.734375 29.109375 35.546875 29.109375 
L 17.1875 29.109375 
L 17.1875 0 
z
M 17.1875 37.546875 
L 35.6875 37.546875 
Q 44.875 37.546875 48.734375 40.96875 
Q 52.59375 44.390625 52.59375 50.59375 
Q 52.59375 55.078125 50.3125 58.265625 
Q 48.046875 61.46875 44.34375 62.5 
Q 41.9375 63.140625 35.5 63.140625 
L 17.1875 63.140625 
z
" id="ArialMT-80"/>
     <path d="M 40.4375 19 
L 49.078125 17.875 
Q 47.65625 8.9375 41.8125 3.875 
Q 35.984375 -1.171875 27.484375 -1.171875 
Q 16.84375 -1.171875 10.375 5.78125 
Q 3.90625 12.75 3.90625 25.734375 
Q 3.90625 34.125 6.6875 40.421875 
Q 9.46875 46.734375 15.15625 49.875 
Q 20.84375 53.03125 27.546875 53.03125 
Q 35.984375 53.03125 41.359375 48.75 
Q 46.734375 44.484375 48.25 36.625 
L 39.703125 35.296875 
Q 38.484375 40.53125 35.375 43.15625 
Q 32.28125 45.796875 27.875 45.796875 
Q 21.234375 45.796875 17.078125 41.03125 
Q 12.9375 36.28125 12.9375 25.984375 
Q 12.9375 15.53125 16.9375 10.796875 
Q 20.953125 6.0625 27.390625 6.0625 
Q 32.5625 6.0625 36.03125 9.234375 
Q 39.5 12.40625 40.4375 19 
z
" id="ArialMT-99"/>
     <path d="M 6.640625 61.46875 
L 6.640625 71.578125 
L 15.4375 71.578125 
L 15.4375 61.46875 
z
M 6.640625 0 
L 6.640625 51.859375 
L 15.4375 51.859375 
L 15.4375 0 
z
" id="ArialMT-105"/>
     <path d="M 6.59375 0 
L 6.59375 51.859375 
L 14.5 51.859375 
L 14.5 44.484375 
Q 20.21875 53.03125 31 53.03125 
Q 35.6875 53.03125 39.625 51.34375 
Q 43.5625 49.65625 45.515625 46.921875 
Q 47.46875 44.1875 48.25 40.4375 
Q 48.734375 37.984375 48.734375 31.890625 
L 48.734375 0 
L 39.9375 0 
L 39.9375 31.546875 
Q 39.9375 36.921875 38.90625 39.578125 
Q 37.890625 42.234375 35.28125 43.8125 
Q 32.671875 45.40625 29.15625 45.40625 
Q 23.53125 45.40625 19.453125 41.84375 
Q 15.375 38.28125 15.375 28.328125 
L 15.375 0 
z
" id="ArialMT-110"/>
     <path id="ArialMT-32"/>
     <path d="M 40.4375 6.390625 
Q 35.546875 2.25 31.03125 0.53125 
Q 26.515625 -1.171875 21.34375 -1.171875 
Q 12.796875 -1.171875 8.203125 3 
Q 3.609375 7.171875 3.609375 13.671875 
Q 3.609375 17.484375 5.34375 20.625 
Q 7.078125 23.78125 9.890625 25.6875 
Q 12.703125 27.59375 16.21875 28.5625 
Q 18.796875 29.25 24.03125 29.890625 
Q 34.671875 31.15625 39.703125 32.90625 
Q 39.75 34.71875 39.75 35.203125 
Q 39.75 40.578125 37.25 42.78125 
Q 33.890625 45.75 27.25 45.75 
Q 21.046875 45.75 18.09375 43.578125 
Q 15.140625 41.40625 13.71875 35.890625 
L 5.125 37.0625 
Q 6.296875 42.578125 8.984375 45.96875 
Q 11.671875 49.359375 16.75 51.1875 
Q 21.828125 53.03125 28.515625 53.03125 
Q 35.15625 53.03125 39.296875 51.46875 
Q 43.453125 49.90625 45.40625 47.53125 
Q 47.359375 45.171875 48.140625 41.546875 
Q 48.578125 39.3125 48.578125 33.453125 
L 48.578125 21.734375 
Q 48.578125 9.46875 49.140625 6.21875 
Q 49.703125 2.984375 51.375 0 
L 42.1875 0 
Q 40.828125 2.734375 40.4375 6.390625 
z
M 39.703125 26.03125 
Q 34.90625 24.078125 25.34375 22.703125 
Q 19.921875 21.921875 17.671875 20.9375 
Q 15.4375 19.96875 14.203125 18.09375 
Q 12.984375 16.21875 12.984375 13.921875 
Q 12.984375 10.40625 15.640625 8.0625 
Q 18.3125 5.71875 23.4375 5.71875 
Q 28.515625 5.71875 32.46875 7.9375 
Q 36.421875 10.15625 38.28125 14.015625 
Q 39.703125 17 39.703125 22.796875 
z
" id="ArialMT-97"/>
     <path d="M 7.859375 0 
L 7.859375 71.578125 
L 39.59375 71.578125 
Q 49.171875 71.578125 54.140625 69.640625 
Q 59.125 67.71875 62.109375 62.828125 
Q 65.09375 57.953125 65.09375 52.046875 
Q 65.09375 44.4375 60.15625 39.203125 
Q 55.21875 33.984375 44.921875 32.5625 
Q 48.6875 30.765625 50.640625 29 
Q 54.78125 25.203125 58.5 19.484375 
L 70.953125 0 
L 59.03125 0 
L 49.5625 14.890625 
Q 45.40625 21.34375 42.71875 24.75 
Q 40.046875 28.171875 37.921875 29.53125 
Q 35.796875 30.90625 33.59375 31.453125 
Q 31.984375 31.78125 28.328125 31.78125 
L 17.328125 31.78125 
L 17.328125 0 
z
M 17.328125 39.984375 
L 37.703125 39.984375 
Q 44.1875 39.984375 47.84375 41.328125 
Q 51.515625 42.671875 53.421875 45.625 
Q 55.328125 48.578125 55.328125 52.046875 
Q 55.328125 57.125 51.640625 60.390625 
Q 47.953125 63.671875 39.984375 63.671875 
L 17.328125 63.671875 
z
" id="ArialMT-82"/>
     <path d="M 58.796875 25.09375 
L 68.265625 22.703125 
Q 65.28125 11.03125 57.546875 4.90625 
Q 49.8125 -1.21875 38.625 -1.21875 
Q 27.046875 -1.21875 19.796875 3.484375 
Q 12.546875 8.203125 8.765625 17.140625 
Q 4.984375 26.078125 4.984375 36.328125 
Q 4.984375 47.515625 9.25 55.828125 
Q 13.53125 64.15625 21.40625 68.46875 
Q 29.296875 72.796875 38.765625 72.796875 
Q 49.515625 72.796875 56.828125 67.328125 
Q 64.15625 61.859375 67.046875 51.953125 
L 57.71875 49.75 
Q 55.21875 57.5625 50.484375 61.125 
Q 45.75 64.703125 38.578125 64.703125 
Q 30.328125 64.703125 24.78125 60.734375 
Q 19.234375 56.78125 16.984375 50.109375 
Q 14.75 43.453125 14.75 36.375 
Q 14.75 27.25 17.40625 20.4375 
Q 20.0625 13.625 25.671875 10.25 
Q 31.296875 6.890625 37.84375 6.890625 
Q 45.796875 6.890625 51.3125 11.46875 
Q 56.84375 16.0625 58.796875 25.09375 
z
" id="ArialMT-67"/>
     <path d="M 40.578125 0 
L 40.578125 7.625 
Q 34.515625 -1.171875 24.125 -1.171875 
Q 19.53125 -1.171875 15.546875 0.578125 
Q 11.578125 2.34375 9.640625 5 
Q 7.71875 7.671875 6.9375 11.53125 
Q 6.390625 14.109375 6.390625 19.734375 
L 6.390625 51.859375 
L 15.1875 51.859375 
L 15.1875 23.09375 
Q 15.1875 16.21875 15.71875 13.8125 
Q 16.546875 10.359375 19.234375 8.375 
Q 21.921875 6.390625 25.875 6.390625 
Q 29.828125 6.390625 33.296875 8.421875 
Q 36.765625 10.453125 38.203125 13.9375 
Q 39.65625 17.4375 39.65625 24.078125 
L 39.65625 51.859375 
L 48.4375 51.859375 
L 48.4375 0 
z
" id="ArialMT-117"/>
     <path d="M 21 0 
L 1.265625 51.859375 
L 10.546875 51.859375 
L 21.6875 20.796875 
Q 23.484375 15.765625 25 10.359375 
Q 26.171875 14.453125 28.265625 20.21875 
L 39.796875 51.859375 
L 48.828125 51.859375 
L 29.203125 0 
z
" id="ArialMT-118"/>
     <path d="M 8.6875 0 
L 8.6875 45.015625 
L 0.921875 45.015625 
L 0.921875 51.859375 
L 8.6875 51.859375 
L 8.6875 57.375 
Q 8.6875 62.59375 9.625 65.140625 
Q 10.890625 68.5625 14.078125 70.671875 
Q 17.28125 72.796875 23.046875 72.796875 
Q 26.765625 72.796875 31.25 71.921875 
L 29.9375 64.265625 
Q 27.203125 64.75 24.75 64.75 
Q 20.75 64.75 19.09375 63.03125 
Q 17.4375 61.328125 17.4375 56.640625 
L 17.4375 51.859375 
L 27.546875 51.859375 
L 27.546875 45.015625 
L 17.4375 45.015625 
L 17.4375 0 
z
" id="ArialMT-102"/>
     <path d="M 6.59375 0 
L 6.59375 51.859375 
L 14.453125 51.859375 
L 14.453125 44.578125 
Q 16.890625 48.390625 20.9375 50.703125 
Q 25 53.03125 30.171875 53.03125 
Q 35.9375 53.03125 39.625 50.640625 
Q 43.3125 48.25 44.828125 43.953125 
Q 50.984375 53.03125 60.84375 53.03125 
Q 68.5625 53.03125 72.703125 48.75 
Q 76.859375 44.484375 76.859375 35.59375 
L 76.859375 0 
L 68.109375 0 
L 68.109375 32.671875 
Q 68.109375 37.9375 67.25 40.25 
Q 66.40625 42.578125 64.15625 43.984375 
Q 61.921875 45.40625 58.890625 45.40625 
Q 53.421875 45.40625 49.796875 41.765625 
Q 46.1875 38.140625 46.1875 30.125 
L 46.1875 0 
L 37.40625 0 
L 37.40625 33.6875 
Q 37.40625 39.546875 35.25 42.46875 
Q 33.109375 45.40625 28.21875 45.40625 
Q 24.515625 45.40625 21.359375 43.453125 
Q 18.21875 41.5 16.796875 37.734375 
Q 15.375 33.984375 15.375 26.90625 
L 15.375 0 
z
" id="ArialMT-109"/>
    </defs>
    <g style="fill:#262626;" transform="translate(82.127188 15.789375)scale(0.12 -0.12)">
     <use xlink:href="#ArialMT-80"/>
     <use x="66.699219" xlink:href="#ArialMT-114"/>
     <use x="100" xlink:href="#ArialMT-101"/>
     <use x="155.615234" xlink:href="#ArialMT-99"/>
     <use x="205.615234" xlink:href="#ArialMT-105"/>
     <use x="227.832031" xlink:href="#ArialMT-115"/>
     <use x="277.832031" xlink:href="#ArialMT-105"/>
     <use x="300.048828" xlink:href="#ArialMT-111"/>
     <use x="355.664062" xlink:href="#ArialMT-110"/>
     <use x="411.279297" xlink:href="#ArialMT-32"/>
     <use x="439.0625" xlink:href="#ArialMT-97"/>
     <use x="494.677734" xlink:href="#ArialMT-110"/>
     <use x="550.292969" xlink:href="#ArialMT-100"/>
     <use x="605.908203" xlink:href="#ArialMT-32"/>
     <use x="633.691406" xlink:href="#ArialMT-82"/>
     <use x="705.908203" xlink:href="#ArialMT-101"/>
     <use x="761.523438" xlink:href="#ArialMT-99"/>
     <use x="811.523438" xlink:href="#ArialMT-97"/>
     <use x="867.138672" xlink:href="#ArialMT-108"/>
     <use x="889.355469" xlink:href="#ArialMT-108"/>
     <use x="911.572266" xlink:href="#ArialMT-32"/>
     <use x="939.355469" xlink:href="#ArialMT-67"/>
     <use x="1011.572266" xlink:href="#ArialMT-117"/>
     <use x="1067.1875" xlink:href="#ArialMT-114"/>
     <use x="1100.488281" xlink:href="#ArialMT-118"/>
     <use x="1150.488281" xlink:href="#ArialMT-101"/>
     <use x="1206.103516" xlink:href="#ArialMT-115"/>
     <use x="1256.103516" xlink:href="#ArialMT-32"/>
     <use x="1283.886719" xlink:href="#ArialMT-102"/>
     <use x="1311.669922" xlink:href="#ArialMT-111"/>
     <use x="1367.285156" xlink:href="#ArialMT-114"/>
     <use x="1400.585938" xlink:href="#ArialMT-32"/>
     <use x="1428.369141" xlink:href="#ArialMT-108"/>
     <use x="1450.585938" xlink:href="#ArialMT-109"/>
     <use x="1533.886719" xlink:href="#ArialMT-50"/>
     <use x="1589.501953" xlink:href="#ArialMT-32"/>
     <use x="1617.285156" xlink:href="#ArialMT-109"/>
     <use x="1700.585938" xlink:href="#ArialMT-111"/>
     <use x="1756.201172" xlink:href="#ArialMT-100"/>
     <use x="1811.816406" xlink:href="#ArialMT-101"/>
     <use x="1867.431641" xlink:href="#ArialMT-108"/>
    </g>
   </g>
   <g id="legend_1">
    <g id="line2d_31">
     <path d="M 37.1 210.596563 
L 57.1 210.596563 
" style="fill:none;stroke:#0272a2;stroke-linecap:round;stroke-width:1.75;"/>
    </g>
    <g id="line2d_32"/>
    <g id="text_17">
     <!-- precision -->
     <defs>
      <path d="M 6.59375 -19.875 
L 6.59375 51.859375 
L 14.59375 51.859375 
L 14.59375 45.125 
Q 17.4375 49.078125 21 51.046875 
Q 24.5625 53.03125 29.640625 53.03125 
Q 36.28125 53.03125 41.359375 49.609375 
Q 46.4375 46.1875 49.015625 39.953125 
Q 51.609375 33.734375 51.609375 26.3125 
Q 51.609375 18.359375 48.75 11.984375 
Q 45.90625 5.609375 40.453125 2.21875 
Q 35.015625 -1.171875 29 -1.171875 
Q 24.609375 -1.171875 21.109375 0.6875 
Q 17.625 2.546875 15.375 5.375 
L 15.375 -19.875 
z
M 14.546875 25.640625 
Q 14.546875 15.625 18.59375 10.84375 
Q 22.65625 6.0625 28.421875 6.0625 
Q 34.28125 6.0625 38.453125 11.015625 
Q 42.625 15.96875 42.625 26.375 
Q 42.625 36.28125 38.546875 41.203125 
Q 34.46875 46.140625 28.8125 46.140625 
Q 23.1875 46.140625 18.859375 40.890625 
Q 14.546875 35.640625 14.546875 25.640625 
z
" id="ArialMT-112"/>
     </defs>
     <g style="fill:#262626;" transform="translate(65.1 214.096563)scale(0.1 -0.1)">
      <use xlink:href="#ArialMT-112"/>
      <use x="55.615234" xlink:href="#ArialMT-114"/>
      <use x="88.916016" xlink:href="#ArialMT-101"/>
      <use x="144.53125" xlink:href="#ArialMT-99"/>
      <use x="194.53125" xlink:href="#ArialMT-105"/>
      <use x="216.748047" xlink:href="#ArialMT-115"/>
      <use x="266.748047" xlink:href="#ArialMT-105"/>
      <use x="288.964844" xlink:href="#ArialMT-111"/>
      <use x="344.580078" xlink:href="#ArialMT-110"/>
     </g>
    </g>
    <g id="line2d_33">
     <path d="M 37.1 224.741875 
L 57.1 224.741875 
" style="fill:none;stroke:#9fc377;stroke-linecap:round;stroke-width:1.75;"/>
    </g>
    <g id="line2d_34"/>
    <g id="text_18">
     <!-- recall -->
     <g style="fill:#262626;" transform="translate(65.1 228.241875)scale(0.1 -0.1)">
      <use xlink:href="#ArialMT-114"/>
      <use x="33.300781" xlink:href="#ArialMT-101"/>
      <use x="88.916016" xlink:href="#ArialMT-99"/>
      <use x="138.916016" xlink:href="#ArialMT-97"/>
      <use x="194.53125" xlink:href="#ArialMT-108"/>
      <use x="216.748047" xlink:href="#ArialMT-108"/>
     </g>
    </g>
   </g>
  </g>
 </g>
 <defs>
  <clipPath id="p056cb9fb7e">
   <rect height="217.44" width="334.8" x="28.1" y="21.789375"/>
  </clipPath>
 </defs>
</svg>
