<?xml version="1.0" encoding="utf-8" standalone="no"?>
<!DOCTYPE svg PUBLIC "-//W3C//DTD SVG 1.1//EN"
  "http://www.w3.org/Graphics/SVG/1.1/DTD/svg11.dtd">
<!-- Created with matplotlib (https://matplotlib.org/) -->
<svg height="276.788281pt" version="1.1" viewBox="0 0 384.159844 276.788281" width="384.159844pt" xmlns="http://www.w3.org/2000/svg" xmlns:xlink="http://www.w3.org/1999/xlink">
 <defs>
  <style type="text/css">
*{stroke-linecap:butt;stroke-linejoin:round;}
  </style>
 </defs>
 <g id="figure_1">
  <g id="patch_1">
   <path d="M 0 276.788281 
L 384.159844 276.788281 
L 384.159844 0 
L 0 0 
z
" style="fill:#ffffff;"/>
  </g>
  <g id="axes_1">
   <g id="patch_2">
    <path d="M 42.159844 239.383125 
L 376.959844 239.383125 
L 376.959844 21.943125 
L 42.159844 21.943125 
z
" style="fill:#ffffff;"/>
   </g>
   <g id="matplotlib.axis_1">
    <g id="xtick_1">
     <g id="line2d_1">
      <path clip-path="url(#p0ccae872e2)" d="M 57.378026 239.383125 
L 57.378026 21.943125 
" style="fill:none;stroke:#cccccc;stroke-linecap:round;"/>
     </g>
     <g id="line2d_2"/>
     <g id="text_1">
      <!-- 0.0 -->
      <defs>
       <path d="M 4.15625 35.296875 
Q 4.15625 48 6.765625 55.734375 
Q 9.375 63.484375 14.515625 67.671875 
Q 19.671875 71.875 27.484375 71.875 
Q 33.25 71.875 37.59375 69.546875 
Q 41.9375 67.234375 44.765625 62.859375 
Q 47.609375 58.5 49.21875 52.21875 
Q 50.828125 45.953125 50.828125 35.296875 
Q 50.828125 22.703125 48.234375 14.96875 
Q 45.65625 7.234375 40.5 3 
Q 35.359375 -1.21875 27.484375 -1.21875 
Q 17.140625 -1.21875 11.234375 6.203125 
Q 4.15625 15.140625 4.15625 35.296875 
z
M 13.1875 35.296875 
Q 13.1875 17.671875 17.3125 11.828125 
Q 21.4375 6 27.484375 6 
Q 33.546875 6 37.671875 11.859375 
Q 41.796875 17.71875 41.796875 35.296875 
Q 41.796875 52.984375 37.671875 58.78125 
Q 33.546875 64.59375 27.390625 64.59375 
Q 21.34375 64.59375 17.71875 59.46875 
Q 13.1875 52.9375 13.1875 35.296875 
z
" id="ArialMT-48"/>
       <path d="M 9.078125 0 
L 9.078125 10.015625 
L 19.09375 10.015625 
L 19.09375 0 
z
" id="ArialMT-46"/>
      </defs>
      <g style="fill:#262626;" transform="translate(50.428026 253.540938)scale(0.1 -0.1)">
       <use xlink:href="#ArialMT-48"/>
       <use x="55.615234" xlink:href="#ArialMT-46"/>
       <use x="83.398438" xlink:href="#ArialMT-48"/>
      </g>
     </g>
    </g>
    <g id="xtick_2">
     <g id="line2d_3">
      <path clip-path="url(#p0ccae872e2)" d="M 118.250753 239.383125 
L 118.250753 21.943125 
" style="fill:none;stroke:#cccccc;stroke-linecap:round;"/>
     </g>
     <g id="line2d_4"/>
     <g id="text_2">
      <!-- 0.2 -->
      <defs>
       <path d="M 50.34375 8.453125 
L 50.34375 0 
L 3.03125 0 
Q 2.9375 3.171875 4.046875 6.109375 
Q 5.859375 10.9375 9.828125 15.625 
Q 13.8125 20.3125 21.34375 26.46875 
Q 33.015625 36.03125 37.109375 41.625 
Q 41.21875 47.21875 41.21875 52.203125 
Q 41.21875 57.421875 37.46875 61 
Q 33.734375 64.59375 27.734375 64.59375 
Q 21.390625 64.59375 17.578125 60.78125 
Q 13.765625 56.984375 13.71875 50.25 
L 4.6875 51.171875 
Q 5.609375 61.28125 11.65625 66.578125 
Q 17.71875 71.875 27.9375 71.875 
Q 38.234375 71.875 44.234375 66.15625 
Q 50.25 60.453125 50.25 52 
Q 50.25 47.703125 48.484375 43.546875 
Q 46.734375 39.40625 42.65625 34.8125 
Q 38.578125 30.21875 29.109375 22.21875 
Q 21.1875 15.578125 18.9375 13.203125 
Q 16.703125 10.84375 15.234375 8.453125 
z
" id="ArialMT-50"/>
      </defs>
      <g style="fill:#262626;" transform="translate(111.300753 253.540938)scale(0.1 -0.1)">
       <use xlink:href="#ArialMT-48"/>
       <use x="55.615234" xlink:href="#ArialMT-46"/>
       <use x="83.398438" xlink:href="#ArialMT-50"/>
      </g>
     </g>
    </g>
    <g id="xtick_3">
     <g id="line2d_5">
      <path clip-path="url(#p0ccae872e2)" d="M 179.12348 239.383125 
L 179.12348 21.943125 
" style="fill:none;stroke:#cccccc;stroke-linecap:round;"/>
     </g>
     <g id="line2d_6"/>
     <g id="text_3">
      <!-- 0.4 -->
      <defs>
       <path d="M 32.328125 0 
L 32.328125 17.140625 
L 1.265625 17.140625 
L 1.265625 25.203125 
L 33.9375 71.578125 
L 41.109375 71.578125 
L 41.109375 25.203125 
L 50.78125 25.203125 
L 50.78125 17.140625 
L 41.109375 17.140625 
L 41.109375 0 
z
M 32.328125 25.203125 
L 32.328125 57.46875 
L 9.90625 25.203125 
z
" id="ArialMT-52"/>
      </defs>
      <g style="fill:#262626;" transform="translate(172.17348 253.540938)scale(0.1 -0.1)">
       <use xlink:href="#ArialMT-48"/>
       <use x="55.615234" xlink:href="#ArialMT-46"/>
       <use x="83.398438" xlink:href="#ArialMT-52"/>
      </g>
     </g>
    </g>
    <g id="xtick_4">
     <g id="line2d_7">
      <path clip-path="url(#p0ccae872e2)" d="M 239.996207 239.383125 
L 239.996207 21.943125 
" style="fill:none;stroke:#cccccc;stroke-linecap:round;"/>
     </g>
     <g id="line2d_8"/>
     <g id="text_4">
      <!-- 0.6 -->
      <defs>
       <path d="M 49.75 54.046875 
L 41.015625 53.375 
Q 39.84375 58.546875 37.703125 60.890625 
Q 34.125 64.65625 28.90625 64.65625 
Q 24.703125 64.65625 21.53125 62.3125 
Q 17.390625 59.28125 14.984375 53.46875 
Q 12.59375 47.65625 12.5 36.921875 
Q 15.671875 41.75 20.265625 44.09375 
Q 24.859375 46.4375 29.890625 46.4375 
Q 38.671875 46.4375 44.84375 39.96875 
Q 51.03125 33.5 51.03125 23.25 
Q 51.03125 16.5 48.125 10.71875 
Q 45.21875 4.9375 40.140625 1.859375 
Q 35.0625 -1.21875 28.609375 -1.21875 
Q 17.625 -1.21875 10.6875 6.859375 
Q 3.765625 14.9375 3.765625 33.5 
Q 3.765625 54.25 11.421875 63.671875 
Q 18.109375 71.875 29.4375 71.875 
Q 37.890625 71.875 43.28125 67.140625 
Q 48.6875 62.40625 49.75 54.046875 
z
M 13.875 23.1875 
Q 13.875 18.65625 15.796875 14.5 
Q 17.71875 10.359375 21.1875 8.171875 
Q 24.65625 6 28.46875 6 
Q 34.03125 6 38.03125 10.484375 
Q 42.046875 14.984375 42.046875 22.703125 
Q 42.046875 30.125 38.078125 34.390625 
Q 34.125 38.671875 28.125 38.671875 
Q 22.171875 38.671875 18.015625 34.390625 
Q 13.875 30.125 13.875 23.1875 
z
" id="ArialMT-54"/>
      </defs>
      <g style="fill:#262626;" transform="translate(233.046207 253.540938)scale(0.1 -0.1)">
       <use xlink:href="#ArialMT-48"/>
       <use x="55.615234" xlink:href="#ArialMT-46"/>
       <use x="83.398438" xlink:href="#ArialMT-54"/>
      </g>
     </g>
    </g>
    <g id="xtick_5">
     <g id="line2d_9">
      <path clip-path="url(#p0ccae872e2)" d="M 300.868935 239.383125 
L 300.868935 21.943125 
" style="fill:none;stroke:#cccccc;stroke-linecap:round;"/>
     </g>
     <g id="line2d_10"/>
     <g id="text_5">
      <!-- 0.8 -->
      <defs>
       <path d="M 17.671875 38.8125 
Q 12.203125 40.828125 9.5625 44.53125 
Q 6.9375 48.25 6.9375 53.421875 
Q 6.9375 61.234375 12.546875 66.546875 
Q 18.171875 71.875 27.484375 71.875 
Q 36.859375 71.875 42.578125 66.421875 
Q 48.296875 60.984375 48.296875 53.171875 
Q 48.296875 48.1875 45.671875 44.5 
Q 43.0625 40.828125 37.75 38.8125 
Q 44.34375 36.671875 47.78125 31.875 
Q 51.21875 27.09375 51.21875 20.453125 
Q 51.21875 11.28125 44.71875 5.03125 
Q 38.234375 -1.21875 27.640625 -1.21875 
Q 17.046875 -1.21875 10.546875 5.046875 
Q 4.046875 11.328125 4.046875 20.703125 
Q 4.046875 27.6875 7.59375 32.390625 
Q 11.140625 37.109375 17.671875 38.8125 
z
M 15.921875 53.71875 
Q 15.921875 48.640625 19.1875 45.40625 
Q 22.46875 42.1875 27.6875 42.1875 
Q 32.765625 42.1875 36.015625 45.375 
Q 39.265625 48.578125 39.265625 53.21875 
Q 39.265625 58.0625 35.90625 61.359375 
Q 32.5625 64.65625 27.59375 64.65625 
Q 22.5625 64.65625 19.234375 61.421875 
Q 15.921875 58.203125 15.921875 53.71875 
z
M 13.09375 20.65625 
Q 13.09375 16.890625 14.875 13.375 
Q 16.65625 9.859375 20.171875 7.921875 
Q 23.6875 6 27.734375 6 
Q 34.03125 6 38.125 10.046875 
Q 42.234375 14.109375 42.234375 20.359375 
Q 42.234375 26.703125 38.015625 30.859375 
Q 33.796875 35.015625 27.4375 35.015625 
Q 21.234375 35.015625 17.15625 30.90625 
Q 13.09375 26.8125 13.09375 20.65625 
z
" id="ArialMT-56"/>
      </defs>
      <g style="fill:#262626;" transform="translate(293.918935 253.540938)scale(0.1 -0.1)">
       <use xlink:href="#ArialMT-48"/>
       <use x="55.615234" xlink:href="#ArialMT-46"/>
       <use x="83.398438" xlink:href="#ArialMT-56"/>
      </g>
     </g>
    </g>
    <g id="xtick_6">
     <g id="line2d_11">
      <path clip-path="url(#p0ccae872e2)" d="M 361.741662 239.383125 
L 361.741662 21.943125 
" style="fill:none;stroke:#cccccc;stroke-linecap:round;"/>
     </g>
     <g id="line2d_12"/>
     <g id="text_6">
      <!-- 1.0 -->
      <defs>
       <path d="M 37.25 0 
L 28.46875 0 
L 28.46875 56 
Q 25.296875 52.984375 20.140625 49.953125 
Q 14.984375 46.921875 10.890625 45.40625 
L 10.890625 53.90625 
Q 18.265625 57.375 23.78125 62.296875 
Q 29.296875 67.234375 31.59375 71.875 
L 37.25 71.875 
z
" id="ArialMT-49"/>
      </defs>
      <g style="fill:#262626;" transform="translate(354.791662 253.540938)scale(0.1 -0.1)">
       <use xlink:href="#ArialMT-49"/>
       <use x="55.615234" xlink:href="#ArialMT-46"/>
       <use x="83.398438" xlink:href="#ArialMT-48"/>
      </g>
     </g>
    </g>
    <g id="text_7">
     <!-- False positive rate -->
     <defs>
      <path d="M 8.203125 0 
L 8.203125 71.578125 
L 56.5 71.578125 
L 56.5 63.140625 
L 17.671875 63.140625 
L 17.671875 40.96875 
L 51.265625 40.96875 
L 51.265625 32.515625 
L 17.671875 32.515625 
L 17.671875 0 
z
" id="ArialMT-70"/>
      <path d="M 40.4375 6.390625 
Q 35.546875 2.25 31.03125 0.53125 
Q 26.515625 -1.171875 21.34375 -1.171875 
Q 12.796875 -1.171875 8.203125 3 
Q 3.609375 7.171875 3.609375 13.671875 
Q 3.609375 17.484375 5.34375 20.625 
Q 7.078125 23.78125 9.890625 25.6875 
Q 12.703125 27.59375 16.21875 28.5625 
Q 18.796875 29.25 24.03125 29.890625 
Q 34.671875 31.15625 39.703125 32.90625 
Q 39.75 34.71875 39.75 35.203125 
Q 39.75 40.578125 37.25 42.78125 
Q 33.890625 45.75 27.25 45.75 
Q 21.046875 45.75 18.09375 43.578125 
Q 15.140625 41.40625 13.71875 35.890625 
L 5.125 37.0625 
Q 6.296875 42.578125 8.984375 45.96875 
Q 11.671875 49.359375 16.75 51.1875 
Q 21.828125 53.03125 28.515625 53.03125 
Q 35.15625 53.03125 39.296875 51.46875 
Q 43.453125 49.90625 45.40625 47.53125 
Q 47.359375 45.171875 48.140625 41.546875 
Q 48.578125 39.3125 48.578125 33.453125 
L 48.578125 21.734375 
Q 48.578125 9.46875 49.140625 6.21875 
Q 49.703125 2.984375 51.375 0 
L 42.1875 0 
Q 40.828125 2.734375 40.4375 6.390625 
z
M 39.703125 26.03125 
Q 34.90625 24.078125 25.34375 22.703125 
Q 19.921875 21.921875 17.671875 20.9375 
Q 15.4375 19.96875 14.203125 18.09375 
Q 12.984375 16.21875 12.984375 13.921875 
Q 12.984375 10.40625 15.640625 8.0625 
Q 18.3125 5.71875 23.4375 5.71875 
Q 28.515625 5.71875 32.46875 7.9375 
Q 36.421875 10.15625 38.28125 14.015625 
Q 39.703125 17 39.703125 22.796875 
z
" id="ArialMT-97"/>
      <path d="M 6.390625 0 
L 6.390625 71.578125 
L 15.1875 71.578125 
L 15.1875 0 
z
" id="ArialMT-108"/>
      <path d="M 3.078125 15.484375 
L 11.765625 16.84375 
Q 12.5 11.625 15.84375 8.84375 
Q 19.1875 6.0625 25.203125 6.0625 
Q 31.25 6.0625 34.171875 8.515625 
Q 37.109375 10.984375 37.109375 14.3125 
Q 37.109375 17.28125 34.515625 19 
Q 32.71875 20.171875 25.53125 21.96875 
Q 15.875 24.421875 12.140625 26.203125 
Q 8.40625 27.984375 6.46875 31.125 
Q 4.546875 34.28125 4.546875 38.09375 
Q 4.546875 41.546875 6.125 44.5 
Q 7.71875 47.46875 10.453125 49.421875 
Q 12.5 50.921875 16.03125 51.96875 
Q 19.578125 53.03125 23.640625 53.03125 
Q 29.734375 53.03125 34.34375 51.265625 
Q 38.96875 49.515625 41.15625 46.5 
Q 43.359375 43.5 44.1875 38.484375 
L 35.59375 37.3125 
Q 35.015625 41.3125 32.203125 43.546875 
Q 29.390625 45.796875 24.265625 45.796875 
Q 18.21875 45.796875 15.625 43.796875 
Q 13.03125 41.796875 13.03125 39.109375 
Q 13.03125 37.40625 14.109375 36.03125 
Q 15.1875 34.625 17.484375 33.6875 
Q 18.796875 33.203125 25.25 31.453125 
Q 34.578125 28.953125 38.25 27.359375 
Q 41.9375 25.78125 44.03125 22.75 
Q 46.140625 19.734375 46.140625 15.234375 
Q 46.140625 10.84375 43.578125 6.953125 
Q 41.015625 3.078125 36.171875 0.953125 
Q 31.34375 -1.171875 25.25 -1.171875 
Q 15.140625 -1.171875 9.84375 3.03125 
Q 4.546875 7.234375 3.078125 15.484375 
z
" id="ArialMT-115"/>
      <path d="M 42.09375 16.703125 
L 51.171875 15.578125 
Q 49.03125 7.625 43.21875 3.21875 
Q 37.40625 -1.171875 28.375 -1.171875 
Q 17 -1.171875 10.328125 5.828125 
Q 3.65625 12.84375 3.65625 25.484375 
Q 3.65625 38.578125 10.390625 45.796875 
Q 17.140625 53.03125 27.875 53.03125 
Q 38.28125 53.03125 44.875 45.953125 
Q 51.46875 38.875 51.46875 26.03125 
Q 51.46875 25.25 51.421875 23.6875 
L 12.75 23.6875 
Q 13.234375 15.140625 17.578125 10.59375 
Q 21.921875 6.0625 28.421875 6.0625 
Q 33.25 6.0625 36.671875 8.59375 
Q 40.09375 11.140625 42.09375 16.703125 
z
M 13.234375 30.90625 
L 42.1875 30.90625 
Q 41.609375 37.453125 38.875 40.71875 
Q 34.671875 45.796875 27.984375 45.796875 
Q 21.921875 45.796875 17.796875 41.75 
Q 13.671875 37.703125 13.234375 30.90625 
z
" id="ArialMT-101"/>
      <path id="ArialMT-32"/>
      <path d="M 6.59375 -19.875 
L 6.59375 51.859375 
L 14.59375 51.859375 
L 14.59375 45.125 
Q 17.4375 49.078125 21 51.046875 
Q 24.5625 53.03125 29.640625 53.03125 
Q 36.28125 53.03125 41.359375 49.609375 
Q 46.4375 46.1875 49.015625 39.953125 
Q 51.609375 33.734375 51.609375 26.3125 
Q 51.609375 18.359375 48.75 11.984375 
Q 45.90625 5.609375 40.453125 2.21875 
Q 35.015625 -1.171875 29 -1.171875 
Q 24.609375 -1.171875 21.109375 0.6875 
Q 17.625 2.546875 15.375 5.375 
L 15.375 -19.875 
z
M 14.546875 25.640625 
Q 14.546875 15.625 18.59375 10.84375 
Q 22.65625 6.0625 28.421875 6.0625 
Q 34.28125 6.0625 38.453125 11.015625 
Q 42.625 15.96875 42.625 26.375 
Q 42.625 36.28125 38.546875 41.203125 
Q 34.46875 46.140625 28.8125 46.140625 
Q 23.1875 46.140625 18.859375 40.890625 
Q 14.546875 35.640625 14.546875 25.640625 
z
" id="ArialMT-112"/>
      <path d="M 3.328125 25.921875 
Q 3.328125 40.328125 11.328125 47.265625 
Q 18.015625 53.03125 27.640625 53.03125 
Q 38.328125 53.03125 45.109375 46.015625 
Q 51.90625 39.015625 51.90625 26.65625 
Q 51.90625 16.65625 48.90625 10.90625 
Q 45.90625 5.171875 40.15625 2 
Q 34.421875 -1.171875 27.640625 -1.171875 
Q 16.75 -1.171875 10.03125 5.8125 
Q 3.328125 12.796875 3.328125 25.921875 
z
M 12.359375 25.921875 
Q 12.359375 15.96875 16.703125 11.015625 
Q 21.046875 6.0625 27.640625 6.0625 
Q 34.1875 6.0625 38.53125 11.03125 
Q 42.875 16.015625 42.875 26.21875 
Q 42.875 35.84375 38.5 40.796875 
Q 34.125 45.75 27.640625 45.75 
Q 21.046875 45.75 16.703125 40.8125 
Q 12.359375 35.890625 12.359375 25.921875 
z
" id="ArialMT-111"/>
      <path d="M 6.640625 61.46875 
L 6.640625 71.578125 
L 15.4375 71.578125 
L 15.4375 61.46875 
z
M 6.640625 0 
L 6.640625 51.859375 
L 15.4375 51.859375 
L 15.4375 0 
z
" id="ArialMT-105"/>
      <path d="M 25.78125 7.859375 
L 27.046875 0.09375 
Q 23.34375 -0.6875 20.40625 -0.6875 
Q 15.625 -0.6875 12.984375 0.828125 
Q 10.359375 2.34375 9.28125 4.8125 
Q 8.203125 7.28125 8.203125 15.1875 
L 8.203125 45.015625 
L 1.765625 45.015625 
L 1.765625 51.859375 
L 8.203125 51.859375 
L 8.203125 64.703125 
L 16.9375 69.96875 
L 16.9375 51.859375 
L 25.78125 51.859375 
L 25.78125 45.015625 
L 16.9375 45.015625 
L 16.9375 14.703125 
Q 16.9375 10.9375 17.40625 9.859375 
Q 17.875 8.796875 18.921875 8.15625 
Q 19.96875 7.515625 21.921875 7.515625 
Q 23.390625 7.515625 25.78125 7.859375 
z
" id="ArialMT-116"/>
      <path d="M 21 0 
L 1.265625 51.859375 
L 10.546875 51.859375 
L 21.6875 20.796875 
Q 23.484375 15.765625 25 10.359375 
Q 26.171875 14.453125 28.265625 20.21875 
L 39.796875 51.859375 
L 48.828125 51.859375 
L 29.203125 0 
z
" id="ArialMT-118"/>
      <path d="M 6.5 0 
L 6.5 51.859375 
L 14.40625 51.859375 
L 14.40625 44 
Q 17.4375 49.515625 20 51.265625 
Q 22.5625 53.03125 25.640625 53.03125 
Q 30.078125 53.03125 34.671875 50.203125 
L 31.640625 42.046875 
Q 28.421875 43.953125 25.203125 43.953125 
Q 22.3125 43.953125 20.015625 42.21875 
Q 17.71875 40.484375 16.75 37.40625 
Q 15.28125 32.71875 15.28125 27.15625 
L 15.28125 0 
z
" id="ArialMT-114"/>
     </defs>
     <g style="fill:#262626;" transform="translate(164.931641 267.402031)scale(0.11 -0.11)">
      <use xlink:href="#ArialMT-70"/>
      <use x="61.083984" xlink:href="#ArialMT-97"/>
      <use x="116.699219" xlink:href="#ArialMT-108"/>
      <use x="138.916016" xlink:href="#ArialMT-115"/>
      <use x="188.916016" xlink:href="#ArialMT-101"/>
      <use x="244.53125" xlink:href="#ArialMT-32"/>
      <use x="272.314453" xlink:href="#ArialMT-112"/>
      <use x="327.929688" xlink:href="#ArialMT-111"/>
      <use x="383.544922" xlink:href="#ArialMT-115"/>
      <use x="433.544922" xlink:href="#ArialMT-105"/>
      <use x="455.761719" xlink:href="#ArialMT-116"/>
      <use x="483.544922" xlink:href="#ArialMT-105"/>
      <use x="505.761719" xlink:href="#ArialMT-118"/>
      <use x="555.761719" xlink:href="#ArialMT-101"/>
      <use x="611.376953" xlink:href="#ArialMT-32"/>
      <use x="639.160156" xlink:href="#ArialMT-114"/>
      <use x="672.460938" xlink:href="#ArialMT-97"/>
      <use x="728.076172" xlink:href="#ArialMT-116"/>
      <use x="755.859375" xlink:href="#ArialMT-101"/>
     </g>
    </g>
   </g>
   <g id="matplotlib.axis_2">
    <g id="ytick_1">
     <g id="line2d_13">
      <path clip-path="url(#p0ccae872e2)" d="M 42.159844 229.499489 
L 376.959844 229.499489 
" style="fill:none;stroke:#cccccc;stroke-linecap:round;"/>
     </g>
     <g id="line2d_14"/>
     <g id="text_8">
      <!-- 0.0 -->
      <g style="fill:#262626;" transform="translate(21.259844 233.078395)scale(0.1 -0.1)">
       <use xlink:href="#ArialMT-48"/>
       <use x="55.615234" xlink:href="#ArialMT-46"/>
       <use x="83.398438" xlink:href="#ArialMT-48"/>
      </g>
     </g>
    </g>
    <g id="ytick_2">
     <g id="line2d_15">
      <path clip-path="url(#p0ccae872e2)" d="M 42.159844 189.964943 
L 376.959844 189.964943 
" style="fill:none;stroke:#cccccc;stroke-linecap:round;"/>
     </g>
     <g id="line2d_16"/>
     <g id="text_9">
      <!-- 0.2 -->
      <g style="fill:#262626;" transform="translate(21.259844 193.543849)scale(0.1 -0.1)">
       <use xlink:href="#ArialMT-48"/>
       <use x="55.615234" xlink:href="#ArialMT-46"/>
       <use x="83.398438" xlink:href="#ArialMT-50"/>
      </g>
     </g>
    </g>
    <g id="ytick_3">
     <g id="line2d_17">
      <path clip-path="url(#p0ccae872e2)" d="M 42.159844 150.430398 
L 376.959844 150.430398 
" style="fill:none;stroke:#cccccc;stroke-linecap:round;"/>
     </g>
     <g id="line2d_18"/>
     <g id="text_10">
      <!-- 0.4 -->
      <g style="fill:#262626;" transform="translate(21.259844 154.009304)scale(0.1 -0.1)">
       <use xlink:href="#ArialMT-48"/>
       <use x="55.615234" xlink:href="#ArialMT-46"/>
       <use x="83.398438" xlink:href="#ArialMT-52"/>
      </g>
     </g>
    </g>
    <g id="ytick_4">
     <g id="line2d_19">
      <path clip-path="url(#p0ccae872e2)" d="M 42.159844 110.895852 
L 376.959844 110.895852 
" style="fill:none;stroke:#cccccc;stroke-linecap:round;"/>
     </g>
     <g id="line2d_20"/>
     <g id="text_11">
      <!-- 0.6 -->
      <g style="fill:#262626;" transform="translate(21.259844 114.474759)scale(0.1 -0.1)">
       <use xlink:href="#ArialMT-48"/>
       <use x="55.615234" xlink:href="#ArialMT-46"/>
       <use x="83.398438" xlink:href="#ArialMT-54"/>
      </g>
     </g>
    </g>
    <g id="ytick_5">
     <g id="line2d_21">
      <path clip-path="url(#p0ccae872e2)" d="M 42.159844 71.361307 
L 376.959844 71.361307 
" style="fill:none;stroke:#cccccc;stroke-linecap:round;"/>
     </g>
     <g id="line2d_22"/>
     <g id="text_12">
      <!-- 0.8 -->
      <g style="fill:#262626;" transform="translate(21.259844 74.940213)scale(0.1 -0.1)">
       <use xlink:href="#ArialMT-48"/>
       <use x="55.615234" xlink:href="#ArialMT-46"/>
       <use x="83.398438" xlink:href="#ArialMT-56"/>
      </g>
     </g>
    </g>
    <g id="ytick_6">
     <g id="line2d_23">
      <path clip-path="url(#p0ccae872e2)" d="M 42.159844 31.826761 
L 376.959844 31.826761 
" style="fill:none;stroke:#cccccc;stroke-linecap:round;"/>
     </g>
     <g id="line2d_24"/>
     <g id="text_13">
      <!-- 1.0 -->
      <g style="fill:#262626;" transform="translate(21.259844 35.405668)scale(0.1 -0.1)">
       <use xlink:href="#ArialMT-49"/>
       <use x="55.615234" xlink:href="#ArialMT-46"/>
       <use x="83.398438" xlink:href="#ArialMT-48"/>
      </g>
     </g>
    </g>
    <g id="text_14">
     <!-- True positive rate -->
     <defs>
      <path d="M 25.921875 0 
L 25.921875 63.140625 
L 2.34375 63.140625 
L 2.34375 71.578125 
L 59.078125 71.578125 
L 59.078125 63.140625 
L 35.40625 63.140625 
L 35.40625 0 
z
" id="ArialMT-84"/>
      <path d="M 40.578125 0 
L 40.578125 7.625 
Q 34.515625 -1.171875 24.125 -1.171875 
Q 19.53125 -1.171875 15.546875 0.578125 
Q 11.578125 2.34375 9.640625 5 
Q 7.71875 7.671875 6.9375 11.53125 
Q 6.390625 14.109375 6.390625 19.734375 
L 6.390625 51.859375 
L 15.1875 51.859375 
L 15.1875 23.09375 
Q 15.1875 16.21875 15.71875 13.8125 
Q 16.546875 10.359375 19.234375 8.375 
Q 21.921875 6.390625 25.875 6.390625 
Q 29.828125 6.390625 33.296875 8.421875 
Q 36.765625 10.453125 38.203125 13.9375 
Q 39.65625 17.4375 39.65625 24.078125 
L 39.65625 51.859375 
L 48.4375 51.859375 
L 48.4375 0 
z
" id="ArialMT-117"/>
     </defs>
     <g style="fill:#262626;" transform="translate(15.073594 172.944375)rotate(-90)scale(0.11 -0.11)">
      <use xlink:href="#ArialMT-84"/>
      <use x="57.333984" xlink:href="#ArialMT-114"/>
      <use x="90.634766" xlink:href="#ArialMT-117"/>
      <use x="146.25" xlink:href="#ArialMT-101"/>
      <use x="201.865234" xlink:href="#ArialMT-32"/>
      <use x="229.648438" xlink:href="#ArialMT-112"/>
      <use x="285.263672" xlink:href="#ArialMT-111"/>
      <use x="340.878906" xlink:href="#ArialMT-115"/>
      <use x="390.878906" xlink:href="#ArialMT-105"/>
      <use x="413.095703" xlink:href="#ArialMT-116"/>
      <use x="440.878906" xlink:href="#ArialMT-105"/>
      <use x="463.095703" xlink:href="#ArialMT-118"/>
      <use x="513.095703" xlink:href="#ArialMT-101"/>
      <use x="568.710938" xlink:href="#ArialMT-32"/>
      <use x="596.494141" xlink:href="#ArialMT-114"/>
      <use x="629.794922" xlink:href="#ArialMT-97"/>
      <use x="685.410156" xlink:href="#ArialMT-116"/>
      <use x="713.193359" xlink:href="#ArialMT-101"/>
     </g>
    </g>
   </g>
   <g id="line2d_25">
    <path clip-path="url(#p0ccae872e2)" d="M 57.378026 229.499489 
L 57.378026 229.248476 
L 57.586422 229.248476 
L 57.690621 228.74645 
L 57.899018 228.74645 
L 57.899018 228.36993 
L 58.107415 228.36993 
L 58.211613 227.993411 
L 58.42001 227.993411 
L 58.524208 227.365878 
L 58.836804 227.365878 
L 58.941002 226.863852 
L 59.045201 226.863852 
L 59.149399 225.985307 
L 59.253597 225.985307 
L 59.357796 225.608787 
L 59.461994 225.608787 
L 59.566193 225.357774 
L 59.670391 225.357774 
L 59.670391 225.232268 
L 60.191383 225.232268 
L 60.191383 224.981255 
L 60.503979 224.981255 
L 60.608177 224.353722 
L 60.920772 224.353722 
L 60.920772 224.228216 
L 61.129169 224.228216 
L 61.233368 223.977203 
L 62.066955 223.977203 
L 62.066955 223.600683 
L 62.275352 223.600683 
L 62.275352 223.475177 
L 62.483749 223.475177 
L 62.483749 222.345619 
L 62.900543 222.345619 
L 63.004741 221.969099 
L 63.10894 221.969099 
L 63.10894 221.843593 
L 63.421535 221.843593 
L 63.421535 221.467073 
L 63.629932 221.467073 
L 63.629932 221.21606 
L 63.838329 221.21606 
L 63.942527 220.965047 
L 64.046726 220.965047 
L 64.046726 220.839541 
L 64.567718 220.839541 
L 64.567718 220.588528 
L 64.776115 220.588528 
L 64.880313 220.086502 
L 65.192908 220.086502 
L 65.297107 218.831437 
L 65.505504 218.831437 
L 65.505504 218.70593 
L 65.713901 218.70593 
L 65.818099 217.952891 
L 66.026496 217.952891 
L 66.130694 217.576372 
L 66.234893 217.576372 
L 66.755885 217.074346 
L 66.860083 215.317255 
L 67.06848 215.317255 
L 67.06848 215.191748 
L 67.276877 215.191748 
L 67.276877 214.815229 
L 67.485274 214.815229 
L 67.589472 214.689722 
L 67.589472 213.560164 
L 67.797869 213.560164 
L 67.902068 212.681619 
L 68.214663 212.681619 
L 68.318862 212.430606 
L 68.944052 212.430606 
L 69.048251 212.179593 
L 69.152449 212.179593 
L 69.256647 211.92858 
L 69.360846 211.92858 
L 69.360846 211.803073 
L 69.986037 211.803073 
L 70.090235 211.55206 
L 70.298632 211.55206 
L 70.40283 210.924528 
L 70.507029 210.924528 
L 70.611227 210.045982 
L 70.715426 210.045982 
L 70.715426 209.794969 
L 70.923822 209.794969 
L 71.028021 209.543956 
L 71.236418 209.543956 
L 71.236418 209.41845 
L 71.444815 209.41845 
L 71.444815 209.167437 
L 71.653212 209.167437 
L 71.75741 208.539904 
L 71.861608 208.539904 
L 71.861608 208.414398 
L 72.070005 208.414398 
L 72.174204 208.163385 
L 72.903593 207.284839 
L 73.320387 207.284839 
L 73.320387 207.033826 
L 73.424585 207.033826 
L 73.528783 206.90832 
L 73.528783 206.657307 
L 73.73718 206.657307 
L 73.841379 206.406294 
L 74.153974 206.406294 
L 74.258172 206.029774 
L 74.362371 206.029774 
L 74.362371 205.904268 
L 74.570768 205.904268 
L 74.674966 205.402242 
L 74.779165 205.402242 
L 74.779165 205.276735 
L 74.987562 205.276735 
L 75.09176 204.39819 
L 75.195958 204.39819 
L 75.195958 204.147177 
L 75.404355 204.147177 
L 75.404355 204.02167 
L 75.612752 204.02167 
L 75.716951 203.645151 
L 75.821149 203.519644 
L 76.133744 203.519644 
L 76.237943 203.394138 
L 76.342141 203.017619 
L 76.44634 203.017619 
L 76.550538 202.641099 
L 76.758935 202.641099 
L 76.758935 202.390086 
L 76.967332 202.390086 
L 77.07153 201.511541 
L 77.175729 201.511541 
L 77.279927 200.632995 
L 77.384126 200.632995 
L 77.488324 200.256476 
L 77.696721 200.256476 
L 77.696721 200.130969 
L 77.905118 200.130969 
L 78.009316 199.628943 
L 78.113515 199.628943 
L 78.113515 199.503437 
L 78.321912 199.503437 
L 78.42611 198.248372 
L 78.530308 198.248372 
L 78.634507 197.997359 
L 78.738705 197.997359 
L 78.738705 197.871852 
L 78.947102 197.871852 
L 79.051301 197.369826 
L 79.155499 197.24432 
L 79.259697 196.742294 
L 79.363896 196.742294 
L 79.363896 196.491281 
L 79.572293 196.491281 
L 79.572293 196.365774 
L 79.884888 196.365774 
L 79.884888 196.240268 
L 80.093285 196.240268 
L 80.093285 196.114761 
L 80.40588 196.114761 
L 80.510079 195.863748 
L 80.718476 195.487229 
L 80.926872 195.487229 
L 80.926872 195.236216 
L 81.343666 195.236216 
L 81.343666 194.73419 
L 81.552063 194.73419 
L 81.656262 194.106657 
L 81.76046 194.106657 
L 81.76046 193.981151 
L 81.968857 193.981151 
L 81.968857 193.855644 
L 82.281452 193.855644 
L 82.385651 193.353619 
L 82.906643 193.353619 
L 82.906643 193.228112 
L 83.219238 193.228112 
L 83.323437 192.851593 
L 83.636032 192.851593 
L 83.636032 192.726086 
L 83.844429 192.726086 
L 83.844429 192.475073 
L 84.052826 192.475073 
L 84.052826 192.349567 
L 84.261222 192.349567 
L 84.261222 192.098554 
L 84.678016 192.098554 
L 84.782215 190.843489 
L 84.886413 190.843489 
L 84.990612 190.592476 
L 85.407405 190.592476 
L 85.511604 189.588424 
L 85.615802 189.588424 
L 85.720001 188.584372 
L 85.824199 188.458865 
L 85.928397 187.454813 
L 86.136794 187.454813 
L 86.136794 186.952787 
L 86.44939 186.952787 
L 86.553588 186.450761 
L 86.657787 186.450761 
L 86.761985 185.948735 
L 86.866183 185.948735 
L 86.970382 185.572216 
L 87.491374 185.572216 
L 87.491374 185.321203 
L 87.803969 185.321203 
L 87.908168 184.442657 
L 88.116565 184.442657 
L 88.116565 184.317151 
L 88.324962 184.317151 
L 88.324962 183.564112 
L 88.637557 183.564112 
L 88.741755 183.187593 
L 88.950152 183.187593 
L 88.950152 183.062086 
L 89.054351 183.062086 
L 89.158549 182.93658 
L 89.262747 182.309047 
L 89.471144 182.309047 
L 89.471144 181.556008 
L 89.78374 181.556008 
L 89.78374 181.304995 
L 90.096335 181.304995 
L 90.200533 181.053982 
L 90.40893 181.053982 
L 90.513129 180.928476 
L 90.721526 180.928476 
L 90.825724 179.798917 
L 91.034121 179.798917 
L 91.034121 179.547904 
L 91.450915 179.547904 
L 91.555113 179.296891 
L 91.76351 179.296891 
L 91.867708 179.045878 
L 92.076105 179.045878 
L 92.180304 178.543852 
L 92.284502 178.543852 
L 92.388701 177.790813 
L 92.492899 177.665307 
L 92.597097 176.535748 
L 92.701296 176.535748 
L 92.701296 176.410242 
L 92.909693 176.410242 
L 93.013891 176.033722 
L 93.11809 176.033722 
L 93.11809 175.657203 
L 93.430685 175.657203 
L 93.534883 175.155177 
L 93.639082 175.155177 
L 93.74328 174.778657 
L 94.160074 174.778657 
L 94.160074 174.653151 
L 94.576868 174.653151 
L 94.576868 174.527644 
L 94.889463 174.527644 
L 94.889463 174.276631 
L 95.09786 174.276631 
L 95.09786 174.151125 
L 95.306257 174.151125 
L 95.410455 173.900112 
L 95.514654 173.900112 
L 95.618852 173.398086 
L 95.723051 173.398086 
L 95.723051 173.021567 
L 95.931447 173.021567 
L 95.931447 172.645047 
L 96.139844 172.645047 
L 96.244043 172.394034 
L 96.348241 172.394034 
L 96.45244 172.143021 
L 96.556638 172.143021 
L 96.660837 170.636943 
L 96.765035 170.636943 
L 96.869233 169.883904 
L 96.973432 169.883904 
L 97.07763 169.632891 
L 97.181829 169.632891 
L 97.181829 169.381878 
L 97.390226 169.381878 
L 97.494424 169.005359 
L 97.598622 169.005359 
L 97.702821 168.126813 
L 97.807019 168.126813 
L 97.807019 168.001307 
L 98.43221 168.001307 
L 98.536408 166.871748 
L 98.849004 166.871748 
L 98.849004 166.746242 
L 99.057401 166.746242 
L 99.161599 166.118709 
L 99.474194 166.118709 
L 99.578393 165.74219 
L 99.682591 165.74219 
L 99.78679 165.491177 
L 99.890988 165.491177 
L 99.995187 164.989151 
L 100.41198 164.989151 
L 100.516179 164.487125 
L 100.620377 164.487125 
L 100.724576 163.483073 
L 101.453965 163.483073 
L 101.558163 163.23206 
L 101.662362 163.23206 
L 101.76656 162.981047 
L 101.974957 162.981047 
L 101.974957 162.730034 
L 102.287552 162.730034 
L 102.391751 162.228008 
L 102.600148 162.228008 
L 102.600148 162.102502 
L 102.808544 162.102502 
L 102.912743 161.851489 
L 103.12114 161.851489 
L 103.225338 161.600476 
L 103.329537 161.600476 
L 103.329537 161.474969 
L 103.537933 161.474969 
L 103.642132 160.847437 
L 103.850529 160.847437 
L 103.954727 160.219904 
L 104.267323 160.219904 
L 104.371521 159.592372 
L 104.475719 159.592372 
L 104.579918 159.341359 
L 104.684116 159.341359 
L 104.684116 159.090346 
L 104.892513 159.090346 
L 104.892513 158.462813 
L 105.309307 158.462813 
L 105.309307 158.2118 
L 105.517704 158.2118 
L 105.621902 157.835281 
L 105.830299 157.835281 
L 105.830299 157.333255 
L 106.038696 157.333255 
L 106.038696 157.207748 
L 106.351291 157.207748 
L 106.351291 157.082242 
L 106.559688 157.082242 
L 106.559688 156.956735 
L 106.768085 156.956735 
L 106.768085 156.580216 
L 107.497474 156.580216 
L 107.497474 156.329203 
L 108.539458 156.329203 
L 108.539458 156.203696 
L 108.852054 156.203696 
L 109.060451 155.952683 
L 109.477244 155.952683 
L 109.477244 155.70167 
L 109.685641 155.70167 
L 109.685641 155.450657 
L 109.998237 155.450657 
L 110.102435 154.823125 
L 110.310832 154.823125 
L 110.41503 154.446606 
L 110.519229 154.446606 
L 110.519229 154.321099 
L 110.727626 154.321099 
L 110.727626 154.195593 
L 110.936023 154.195593 
L 110.936023 153.56806 
L 111.248618 153.56806 
L 111.352816 153.191541 
L 111.561213 153.191541 
L 111.665412 152.438502 
L 111.76961 152.438502 
L 111.76961 152.312995 
L 111.978007 152.312995 
L 111.978007 152.061982 
L 112.290602 152.061982 
L 112.394801 151.43445 
L 112.707396 151.43445 
L 112.811594 151.183437 
L 113.12419 151.183437 
L 113.228388 150.932424 
L 113.540983 150.932424 
L 113.645182 150.681411 
L 113.853579 150.681411 
L 113.853579 150.053878 
L 114.270373 150.053878 
L 114.374571 149.426346 
L 114.478769 149.426346 
L 114.582968 149.175333 
L 114.791365 149.175333 
L 114.895563 148.798813 
L 115.416555 148.798813 
L 115.520754 148.171281 
L 115.624952 148.171281 
L 115.624952 147.920268 
L 115.833349 147.920268 
L 115.937548 147.669255 
L 116.145944 147.669255 
L 116.250143 147.292735 
L 116.562738 147.292735 
L 116.562738 147.167229 
L 116.875333 147.167229 
L 116.875333 146.916216 
L 117.08373 146.916216 
L 117.187929 145.912164 
L 117.292127 145.912164 
L 117.292127 145.786657 
L 117.396326 145.786657 
L 117.604723 145.661151 
L 117.604723 145.284631 
L 117.813119 145.284631 
L 117.813119 145.159125 
L 118.229913 145.159125 
L 118.229913 144.782606 
L 118.43831 144.782606 
L 118.542508 144.406086 
L 118.646707 144.406086 
L 118.646707 143.778554 
L 118.855104 143.778554 
L 118.855104 143.653047 
L 119.063501 143.653047 
L 119.063501 143.402034 
L 119.376096 143.402034 
L 119.480294 142.648995 
L 119.584493 142.648995 
L 119.688691 141.644943 
L 119.79289 141.644943 
L 119.79289 141.268424 
L 120.209683 141.268424 
L 120.313882 140.891904 
L 120.730676 140.891904 
L 120.834874 140.264372 
L 121.147469 140.264372 
L 121.147469 140.013359 
L 121.460065 140.013359 
L 121.460065 139.636839 
L 121.876858 139.636839 
L 121.876858 139.385826 
L 122.397851 139.385826 
L 122.397851 139.26032 
L 122.710446 139.26032 
L 122.814644 138.758294 
L 122.918843 138.758294 
L 123.023041 138.381774 
L 123.12724 138.381774 
L 123.231438 138.005255 
L 123.335637 138.005255 
L 123.439835 137.377722 
L 123.960827 137.377722 
L 123.960827 136.875696 
L 124.377621 136.875696 
L 124.481819 136.37367 
L 124.690216 136.37367 
L 124.690216 136.248164 
L 125.211208 136.248164 
L 125.211208 136.122657 
L 125.523804 136.122657 
L 125.628002 135.871644 
L 126.044796 135.871644 
L 126.148994 135.118606 
L 126.253193 135.118606 
L 126.253193 134.867593 
L 126.46159 134.867593 
L 126.46159 134.491073 
L 126.669987 134.491073 
L 126.669987 134.24006 
L 127.399376 134.24006 
L 127.503574 133.612528 
L 127.607773 133.612528 
L 127.711971 133.361515 
L 127.920368 133.361515 
L 127.920368 132.984995 
L 128.128765 132.984995 
L 128.128765 132.859489 
L 128.337162 132.859489 
L 128.337162 132.231956 
L 128.649757 132.231956 
L 129.066551 131.72993 
L 129.379146 131.72993 
L 129.483344 131.478917 
L 129.587543 131.478917 
L 129.691741 130.976891 
L 129.900138 130.976891 
L 130.004337 130.223852 
L 130.525329 130.223852 
L 130.629527 129.847333 
L 130.733726 129.847333 
L 130.733726 129.721826 
L 131.046321 129.721826 
L 131.150519 129.470813 
L 131.463115 129.470813 
L 131.567313 129.094294 
L 131.671512 129.094294 
L 131.77571 128.717774 
L 131.879908 128.717774 
L 131.984107 128.341255 
L 132.088305 128.341255 
L 132.192504 128.090242 
L 132.296702 128.090242 
L 132.296702 127.839229 
L 132.609298 127.839229 
L 132.609298 127.588216 
L 132.817694 127.588216 
L 132.817694 127.337203 
L 133.026091 127.337203 
L 133.13029 126.835177 
L 133.234488 126.835177 
L 133.338687 125.580112 
L 133.75548 125.580112 
L 133.859679 125.078086 
L 133.963877 125.078086 
L 134.068076 124.57606 
L 134.276473 124.57606 
L 134.380671 123.948528 
L 134.484869 123.948528 
L 134.484869 123.195489 
L 135.005862 123.195489 
L 135.005862 122.818969 
L 135.214258 122.818969 
L 135.318457 122.191437 
L 135.422655 122.191437 
L 135.526854 121.563904 
L 135.631052 121.563904 
L 135.631052 121.187385 
L 136.360441 121.187385 
L 136.360441 121.061878 
L 136.568838 121.061878 
L 136.568838 120.685359 
L 136.777235 120.685359 
L 136.881433 120.308839 
L 136.985632 120.308839 
L 136.985632 120.183333 
L 137.194029 120.183333 
L 137.298227 119.806813 
L 137.402426 119.806813 
L 137.402426 119.681307 
L 137.610823 119.681307 
L 137.610823 119.304787 
L 137.819219 119.304787 
L 137.819219 119.179281 
L 138.027616 119.179281 
L 138.027616 119.053774 
L 138.236013 119.053774 
L 138.236013 118.928268 
L 138.44441 118.928268 
L 138.44441 118.802761 
L 138.757005 118.802761 
L 138.861204 118.551748 
L 138.965402 118.551748 
L 138.965402 118.300735 
L 139.173799 118.300735 
L 139.277998 118.049722 
L 139.79899 118.049722 
L 139.903188 117.924216 
L 140.007387 117.42219 
L 140.319982 117.42219 
L 140.42418 116.794657 
L 140.528379 116.794657 
L 140.632577 116.292631 
L 140.736776 116.292631 
L 140.840974 115.539593 
L 141.153569 115.539593 
L 141.257768 115.28858 
L 141.570363 115.28858 
L 141.674562 114.786554 
L 141.77876 114.786554 
L 141.77876 114.410034 
L 142.091355 114.410034 
L 142.195554 113.908008 
L 142.403951 113.908008 
L 142.508149 113.405982 
L 142.612348 113.405982 
L 142.716546 113.029463 
L 143.13334 113.029463 
L 143.13334 112.903956 
L 143.445935 112.903956 
L 143.550134 112.527437 
L 144.071126 112.527437 
L 144.071126 112.40193 
L 144.279523 112.40193 
L 144.383721 112.025411 
L 144.696316 112.025411 
L 144.696316 111.899904 
L 145.11311 111.899904 
L 145.217309 111.648891 
L 145.634102 111.648891 
L 145.738301 111.021359 
L 145.842499 111.021359 
L 145.946698 110.519333 
L 146.155094 110.519333 
L 146.259293 110.26832 
L 146.571888 110.26832 
L 146.571888 109.766294 
L 146.780285 109.766294 
L 146.884484 109.013255 
L 146.988682 109.013255 
L 147.09288 108.511229 
L 147.197079 108.511229 
L 147.197079 108.385722 
L 147.926468 108.385722 
L 148.030666 108.009203 
L 148.44746 108.009203 
L 148.551659 107.632683 
L 148.655857 107.632683 
L 148.760055 106.879644 
L 148.968452 106.879644 
L 149.072651 106.377619 
L 149.281048 106.377619 
L 149.385246 106.126606 
L 149.489444 106.126606 
L 149.593643 105.499073 
L 149.80204 105.499073 
L 149.906238 105.24806 
L 150.010437 105.24806 
L 150.010437 105.122554 
L 150.323032 105.122554 
L 150.42723 104.746034 
L 150.635627 104.746034 
L 150.739826 104.244008 
L 151.052421 104.244008 
L 151.052421 104.118502 
L 151.260818 104.118502 
L 151.260818 103.867489 
L 151.573413 103.867489 
L 151.677612 103.490969 
L 151.78181 103.490969 
L 151.78181 103.11445 
L 152.407001 103.11445 
L 152.407001 102.988943 
L 152.615398 102.988943 
L 152.615398 102.863437 
L 152.823794 102.863437 
L 152.823794 102.486917 
L 153.032191 102.486917 
L 153.13639 102.235904 
L 153.344787 102.235904 
L 153.344787 102.110398 
L 153.553184 102.110398 
L 153.553184 101.608372 
L 153.76158 101.608372 
L 153.76158 101.357359 
L 153.969977 101.357359 
L 154.074176 100.729826 
L 154.178374 100.729826 
L 154.178374 100.60432 
L 154.490969 100.60432 
L 154.490969 100.478813 
L 154.699366 100.478813 
L 154.803565 100.2278 
L 155.220359 100.2278 
L 155.324557 99.851281 
L 155.532954 99.851281 
L 155.532954 99.600268 
L 155.741351 99.600268 
L 155.741351 99.223748 
L 156.262343 99.223748 
L 156.366541 98.847229 
L 156.47074 98.847229 
L 156.574938 98.470709 
L 156.679137 98.470709 
L 156.783335 98.09419 
L 156.991732 98.09419 
L 157.09593 97.71767 
L 157.200129 97.71767 
L 157.304327 97.341151 
L 157.512724 97.341151 
L 157.512724 97.215644 
L 158.033716 97.215644 
L 158.033716 97.090138 
L 158.346312 97.090138 
L 158.45051 96.713619 
L 158.867304 96.713619 
L 158.867304 96.462606 
L 158.971502 96.462606 
L 159.075701 96.337099 
L 159.80509 96.337099 
L 159.909288 96.086086 
L 160.534479 96.086086 
L 160.638677 95.709567 
L 160.847074 95.709567 
L 160.847074 95.58406 
L 161.055471 95.58406 
L 161.055471 95.333047 
L 161.263868 95.333047 
L 161.263868 95.082034 
L 161.472265 95.082034 
L 161.472265 94.831021 
L 161.680662 94.831021 
L 161.680662 94.705515 
L 162.305852 94.705515 
L 162.410051 94.077982 
L 162.514249 94.077982 
L 162.618448 93.324943 
L 162.722646 93.324943 
L 162.826844 92.822917 
L 162.931043 92.822917 
L 163.035241 92.571904 
L 163.660432 92.571904 
L 163.660432 92.446398 
L 163.868829 92.446398 
L 163.868829 92.195385 
L 164.181424 92.195385 
L 164.181424 92.069878 
L 164.702416 92.069878 
L 164.806615 91.567852 
L 164.910813 91.567852 
L 165.015012 91.316839 
L 165.327607 91.316839 
L 165.431805 91.065826 
L 165.536004 91.065826 
L 165.536004 90.438294 
L 166.47379 90.438294 
L 166.577988 90.187281 
L 166.890584 90.187281 
L 166.890584 89.936268 
L 167.09898 89.936268 
L 167.09898 89.685255 
L 167.411576 89.685255 
L 167.411576 89.434242 
L 167.724171 89.434242 
L 167.828369 89.183229 
L 167.932568 89.183229 
L 168.036766 88.932216 
L 168.45356 88.932216 
L 168.45356 88.806709 
L 168.974552 88.806709 
L 168.974552 88.681203 
L 169.599743 88.681203 
L 169.599743 88.304683 
L 170.329132 88.304683 
L 170.329132 87.802657 
L 170.537529 87.802657 
L 170.537529 87.551644 
L 170.954323 87.551644 
L 170.954323 87.426138 
L 171.162719 87.426138 
L 171.162719 87.300631 
L 171.996307 87.300631 
L 171.996307 86.924112 
L 172.413101 86.924112 
L 172.413101 86.673099 
L 172.829894 86.673099 
L 172.934093 86.171073 
L 173.038291 86.171073 
L 173.038291 85.92006 
L 173.350887 85.92006 
L 173.350887 85.794554 
L 173.663482 85.794554 
L 173.663482 85.669047 
L 173.871879 85.669047 
L 173.976077 85.418034 
L 174.288673 85.418034 
L 174.392871 85.167021 
L 174.705466 85.167021 
L 174.809665 84.790502 
L 175.330657 84.790502 
L 175.330657 84.664995 
L 175.539054 84.664995 
L 175.539054 84.539489 
L 175.955848 84.539489 
L 176.060046 84.288476 
L 176.164244 84.288476 
L 176.268443 83.535437 
L 176.581038 83.535437 
L 176.581038 83.284424 
L 176.789435 83.284424 
L 176.893634 83.033411 
L 177.10203 83.033411 
L 177.206229 82.531385 
L 177.310427 82.531385 
L 177.310427 82.405878 
L 177.623023 82.405878 
L 177.727221 82.154865 
L 177.935618 82.154865 
L 177.935618 81.903852 
L 178.352412 81.903852 
L 178.352412 81.778346 
L 178.560809 81.778346 
L 178.560809 81.652839 
L 178.769205 81.652839 
L 178.769205 81.150813 
L 179.081801 81.150813 
L 179.185999 80.8998 
L 179.602793 80.8998 
L 179.602793 80.774294 
L 179.81119 80.774294 
L 179.81119 80.648787 
L 180.019587 80.648787 
L 180.019587 80.523281 
L 180.332182 80.523281 
L 180.332182 80.397774 
L 181.478365 80.397774 
L 181.478365 80.272268 
L 181.686762 80.272268 
L 181.686762 79.895748 
L 181.895159 79.895748 
L 181.895159 79.644735 
L 182.207754 79.644735 
L 182.207754 79.519229 
L 182.520349 79.519229 
L 182.624548 79.142709 
L 182.937143 79.142709 
L 183.041341 78.76619 
L 183.249738 78.76619 
L 183.353937 78.264164 
L 183.458135 78.264164 
L 183.458135 78.138657 
L 183.666532 78.138657 
L 183.666532 78.013151 
L 184.395921 78.013151 
L 184.395921 77.636631 
L 184.916913 77.636631 
L 185.021112 77.385619 
L 185.12531 77.385619 
L 185.229509 77.134606 
L 185.750501 77.134606 
L 185.854699 76.758086 
L 185.958898 76.758086 
L 185.958898 76.63258 
L 186.47989 76.63258 
L 186.584088 76.130554 
L 186.792485 76.130554 
L 186.896684 75.503021 
L 187.10508 75.503021 
L 187.10508 75.377515 
L 187.521874 75.377515 
L 187.626073 75.126502 
L 187.938668 75.126502 
L 187.938668 75.000995 
L 188.355462 75.000995 
L 188.45966 74.749982 
L 188.980652 74.749982 
L 189.084851 74.498969 
L 189.293248 74.498969 
L 189.293248 74.247956 
L 189.710041 74.247956 
L 189.81424 73.871437 
L 189.918438 73.871437 
L 190.022637 73.620424 
L 190.231034 73.620424 
L 190.231034 73.369411 
L 190.856224 73.369411 
L 190.856224 73.243904 
L 191.377216 73.243904 
L 191.481415 72.992891 
L 191.79401 72.992891 
L 191.79401 72.741878 
L 192.106605 72.741878 
L 192.210804 72.365359 
L 192.523399 72.365359 
L 192.523399 72.239852 
L 193.252788 72.239852 
L 193.356987 71.863333 
L 193.877979 71.863333 
L 193.982177 71.361307 
L 194.294773 71.361307 
L 194.398971 71.110294 
L 194.50317 71.110294 
L 194.50317 70.984787 
L 195.12836 70.984787 
L 195.12836 70.608268 
L 195.440955 70.608268 
L 195.440955 70.231748 
L 195.753551 70.231748 
L 195.857749 69.980735 
L 195.961948 69.980735 
L 195.961948 69.855229 
L 196.170345 69.855229 
L 196.274543 69.478709 
L 196.691337 69.478709 
L 196.691337 69.353203 
L 197.316527 69.353203 
L 197.316527 68.976683 
L 198.150115 68.976683 
L 198.254313 68.72567 
L 198.46271 68.72567 
L 198.46271 68.600164 
L 198.775305 68.600164 
L 198.879504 68.098138 
L 199.192099 68.098138 
L 199.192099 67.972631 
L 199.400496 67.972631 
L 199.400496 67.847125 
L 199.608893 67.847125 
L 199.608893 67.596112 
L 199.81729 67.596112 
L 199.921488 67.345099 
L 200.025687 67.345099 
L 200.025687 67.094086 
L 200.234084 67.094086 
L 200.234084 66.96858 
L 200.44248 66.96858 
L 200.44248 66.843073 
L 200.859274 66.843073 
L 200.963473 66.090034 
L 201.067671 66.090034 
L 201.067671 65.839021 
L 201.276068 65.839021 
L 201.380266 65.336995 
L 202.213854 65.336995 
L 202.318052 65.085982 
L 202.422251 65.085982 
L 202.422251 64.960476 
L 202.839045 64.960476 
L 202.839045 64.834969 
L 203.255838 64.834969 
L 203.255838 64.709463 
L 203.464235 64.709463 
L 203.568434 64.332943 
L 203.985227 64.332943 
L 204.089426 64.08193 
L 204.297823 64.08193 
L 204.297823 63.956424 
L 204.714616 63.956424 
L 204.714616 63.830917 
L 206.069196 63.830917 
L 206.069196 63.705411 
L 206.277593 63.705411 
L 206.277593 63.579904 
L 206.381791 63.579904 
L 206.798585 63.579904 
L 206.902784 63.203385 
L 207.632173 63.203385 
L 207.632173 63.077878 
L 207.944768 63.077878 
L 207.944768 62.952372 
L 208.048966 62.952372 
L 208.257363 62.701359 
L 208.257363 62.450346 
L 208.46576 62.450346 
L 208.46576 62.073826 
L 209.195149 62.073826 
L 209.195149 61.94832 
L 210.028737 61.94832 
L 210.132935 61.697307 
L 210.341332 61.697307 
L 210.341332 61.446294 
L 211.80011 61.446294 
L 211.80011 61.320787 
L 212.112705 61.320787 
L 212.112705 61.195281 
L 212.529499 61.195281 
L 212.529499 60.944268 
L 213.050491 60.944268 
L 213.050491 60.693255 
L 213.363087 60.693255 
L 213.467285 60.442242 
L 214.092476 60.442242 
L 214.196674 60.191229 
L 214.405071 60.191229 
L 214.405071 60.065722 
L 214.717666 60.065722 
L 214.717666 59.940216 
L 215.030262 59.940216 
L 215.030262 59.814709 
L 215.238659 59.814709 
L 215.238659 59.689203 
L 215.968048 59.689203 
L 215.968048 59.563696 
L 217.739421 59.563696 
L 217.739421 59.43819 
L 218.156215 59.43819 
L 218.260413 59.06167 
L 218.989802 59.06167 
L 218.989802 58.810657 
L 219.406596 58.810657 
L 219.510795 58.434138 
L 219.719191 58.434138 
L 219.719191 58.183125 
L 220.761176 58.183125 
L 220.865374 57.932112 
L 221.17797 57.932112 
L 221.282168 57.681099 
L 222.115755 57.681099 
L 222.219954 57.430086 
L 222.428351 57.430086 
L 222.428351 57.179073 
L 222.636748 57.179073 
L 222.636748 57.053567 
L 222.845145 57.053567 
L 222.845145 56.92806 
L 223.053541 56.92806 
L 223.15774 56.677047 
L 223.366137 56.677047 
L 223.366137 56.551541 
L 224.408121 56.551541 
L 224.51232 56.049515 
L 224.929113 56.049515 
L 224.929113 55.798502 
L 225.866899 55.798502 
L 225.866899 55.547489 
L 226.075296 55.547489 
L 226.075296 55.421982 
L 226.908884 55.421982 
L 227.013082 55.045463 
L 227.11728 55.045463 
L 227.221479 54.543437 
L 228.263463 54.543437 
L 228.263463 54.292424 
L 228.576059 54.292424 
L 228.576059 54.166917 
L 228.784455 54.166917 
L 228.784455 54.041411 
L 229.097051 54.041411 
L 229.097051 53.915904 
L 229.409646 53.915904 
L 229.409646 53.664891 
L 229.930638 53.664891 
L 229.930638 53.413878 
L 230.347432 53.413878 
L 230.347432 53.288372 
L 230.764226 53.288372 
L 230.764226 53.037359 
L 231.076821 53.037359 
L 231.076821 52.911852 
L 231.389416 52.911852 
L 231.389416 52.786346 
L 232.327202 52.786346 
L 232.327202 52.660839 
L 232.743996 52.660839 
L 232.743996 52.409826 
L 232.952393 52.409826 
L 232.952393 52.28432 
L 233.577584 52.28432 
L 233.577584 52.033307 
L 234.51537 52.033307 
L 234.51537 51.9078 
L 234.723766 51.9078 
L 234.723766 51.782294 
L 237.537124 51.782294 
L 237.537124 51.531281 
L 238.058116 51.531281 
L 238.058116 51.405774 
L 238.47491 51.405774 
L 238.47491 51.280268 
L 238.787506 51.280268 
L 238.891704 51.029255 
L 240.767276 51.029255 
L 240.767276 50.903748 
L 241.18407 50.903748 
L 241.18407 50.778242 
L 241.600863 50.778242 
L 241.600863 50.652735 
L 243.059641 50.652735 
L 243.059641 50.527229 
L 243.893229 50.527229 
L 243.893229 50.401722 
L 244.310023 50.401722 
L 244.310023 50.276216 
L 245.039412 50.276216 
L 245.14361 50.025203 
L 245.247809 50.025203 
L 245.352007 49.77419 
L 245.456206 49.77419 
L 245.456206 49.39767 
L 245.872999 49.39767 
L 245.872999 49.272164 
L 246.185595 49.272164 
L 246.185595 48.770138 
L 246.393991 48.770138 
L 246.393991 48.644631 
L 247.227579 48.644631 
L 247.331777 48.393619 
L 248.269563 48.393619 
L 248.269563 48.268112 
L 249.83254 48.268112 
L 249.936738 48.017099 
L 250.249334 48.017099 
L 250.249334 47.891593 
L 250.770326 47.891593 
L 250.770326 47.766086 
L 251.395516 47.766086 
L 251.499715 47.515073 
L 251.603913 47.515073 
L 251.603913 47.389567 
L 252.020707 47.389567 
L 252.020707 47.26406 
L 253.062691 47.26406 
L 253.16689 47.013047 
L 254.104676 47.013047 
L 254.104676 46.887541 
L 255.355057 46.887541 
L 255.355057 46.762034 
L 255.667652 46.762034 
L 255.667652 46.636528 
L 256.188645 46.636528 
L 256.188645 46.260008 
L 256.50124 46.260008 
L 256.50124 46.134502 
L 257.022232 46.134502 
L 257.022232 45.883489 
L 257.751621 45.883489 
L 257.751621 45.632476 
L 258.585209 45.632476 
L 258.689407 45.13045 
L 259.106201 45.13045 
L 259.106201 45.004943 
L 259.731391 45.004943 
L 259.731391 44.879437 
L 260.043987 44.879437 
L 260.148185 44.377411 
L 260.356582 44.377411 
L 260.356582 44.126398 
L 265.462306 44.126398 
L 265.462306 44.000891 
L 267.546274 44.000891 
L 267.546274 43.875385 
L 267.963068 43.875385 
L 267.963068 43.749878 
L 268.692457 43.749878 
L 268.692457 43.624372 
L 268.900854 43.624372 
L 268.900854 43.498865 
L 270.463831 43.498865 
L 270.463831 43.373359 
L 271.19322 43.373359 
L 271.19322 43.247852 
L 272.547799 43.247852 
L 272.547799 43.122346 
L 272.860395 43.122346 
L 272.860395 42.996839 
L 273.277188 42.996839 
L 273.277188 42.871333 
L 273.798181 42.871333 
L 273.798181 42.745826 
L 274.944363 42.745826 
L 274.944363 42.62032 
L 275.256959 42.62032 
L 275.256959 42.494813 
L 275.673752 42.494813 
L 275.673752 42.2438 
L 276.194745 42.2438 
L 276.194745 42.118294 
L 276.715737 42.118294 
L 276.715737 41.992787 
L 277.549324 41.992787 
L 277.549324 41.867281 
L 278.278713 41.867281 
L 278.382912 41.616268 
L 278.48711 41.616268 
L 278.48711 40.988735 
L 280.779476 40.988735 
L 280.779476 40.863229 
L 280.987873 40.863229 
L 281.092071 40.612216 
L 281.613063 40.612216 
L 281.613063 40.486709 
L 281.925659 40.486709 
L 281.925659 40.361203 
L 282.134056 40.361203 
L 282.134056 40.11019 
L 283.17604 40.11019 
L 283.17604 39.984683 
L 284.53062 39.984683 
L 284.53062 39.859177 
L 285.15581 39.859177 
L 285.15581 39.608164 
L 285.468406 39.608164 
L 285.468406 39.482657 
L 285.989398 39.482657 
L 285.989398 39.357151 
L 286.927184 39.357151 
L 286.927184 39.231644 
L 287.448176 39.231644 
L 287.448176 39.106138 
L 287.969168 39.106138 
L 287.969168 38.980631 
L 288.385962 38.980631 
L 288.385962 38.855125 
L 288.698557 38.855125 
L 288.698557 38.729619 
L 289.427946 38.729619 
L 289.427946 38.478606 
L 289.740542 38.478606 
L 289.740542 38.102086 
L 291.095121 38.102086 
L 291.19932 37.851073 
L 292.241304 37.851073 
L 292.241304 37.725567 
L 293.283288 37.725567 
L 293.283288 37.60006 
L 294.221074 37.60006 
L 294.221074 37.474554 
L 294.637868 37.474554 
L 294.637868 37.349047 
L 297.86802 37.349047 
L 297.86802 37.223541 
L 298.597409 37.223541 
L 298.701607 37.098034 
L 300.577179 37.098034 
L 300.577179 36.972528 
L 300.889774 36.972528 
L 300.889774 36.847021 
L 301.20237 36.847021 
L 301.20237 36.721515 
L 301.931759 36.721515 
L 301.931759 36.596008 
L 302.452751 36.596008 
L 302.452751 36.470502 
L 303.18214 36.470502 
L 303.18214 36.344995 
L 303.911529 36.344995 
L 303.911529 36.219489 
L 304.640918 36.219489 
L 304.640918 35.968476 
L 306.099696 35.968476 
L 306.099696 35.842969 
L 306.933284 35.842969 
L 307.037482 35.591956 
L 307.558474 35.591956 
L 307.662673 35.340943 
L 307.975268 35.340943 
L 307.975268 35.215437 
L 308.913054 35.215437 
L 308.913054 35.08993 
L 309.746642 35.08993 
L 309.746642 34.964424 
L 310.059237 34.964424 
L 310.163435 34.713411 
L 312.039007 34.713411 
L 312.039007 34.587904 
L 315.581754 34.587904 
L 315.581754 34.462398 
L 319.437096 34.462398 
L 319.437096 34.336891 
L 320.062287 34.336891 
L 320.062287 34.211385 
L 322.979843 34.211385 
L 322.979843 33.960372 
L 324.334423 33.960372 
L 324.334423 33.709359 
L 332.566099 33.709359 
L 332.566099 33.458346 
L 336.421442 33.458346 
L 336.421442 33.332839 
L 336.838235 33.332839 
L 336.838235 33.207333 
L 339.338998 33.207333 
L 339.338998 33.081826 
L 343.402737 33.081826 
L 343.402737 32.95632 
L 344.132126 32.95632 
L 344.132126 32.830813 
L 345.903499 32.830813 
L 345.903499 32.705307 
L 346.52869 32.705307 
L 346.52869 32.5798 
L 349.029453 32.5798 
L 349.029453 32.454294 
L 357.782121 32.454294 
L 357.782121 32.328787 
L 358.51151 32.328787 
L 358.51151 32.203281 
L 358.928304 32.203281 
L 358.928304 32.077774 
L 361.012273 32.077774 
L 361.012273 31.826761 
L 361.741662 31.826761 
L 361.741662 31.826761 
" style="fill:none;stroke:#0272a2;stroke-linecap:round;stroke-width:2;"/>
   </g>
   <g id="line2d_26">
    <path clip-path="url(#p0ccae872e2)" d="M 57.378026 229.499489 
L 361.741662 31.826761 
" style="fill:none;stroke:#ee82ee;stroke-dasharray:6.475,2.8;stroke-dashoffset:0;stroke-width:1.75;"/>
   </g>
   <g id="patch_3">
    <path d="M 42.159844 239.383125 
L 42.159844 21.943125 
" style="fill:none;stroke:#cccccc;stroke-linecap:square;stroke-linejoin:miter;stroke-width:1.25;"/>
   </g>
   <g id="patch_4">
    <path d="M 376.959844 239.383125 
L 376.959844 21.943125 
" style="fill:none;stroke:#cccccc;stroke-linecap:square;stroke-linejoin:miter;stroke-width:1.25;"/>
   </g>
   <g id="patch_5">
    <path d="M 42.159844 239.383125 
L 376.959844 239.383125 
" style="fill:none;stroke:#cccccc;stroke-linecap:square;stroke-linejoin:miter;stroke-width:1.25;"/>
   </g>
   <g id="patch_6">
    <path d="M 42.159844 21.943125 
L 376.959844 21.943125 
" style="fill:none;stroke:#cccccc;stroke-linecap:square;stroke-linejoin:miter;stroke-width:1.25;"/>
   </g>
   <g id="text_15">
    <!-- ROC curve for high blood pressure in lm3 model -->
    <defs>
     <path d="M 7.859375 0 
L 7.859375 71.578125 
L 39.59375 71.578125 
Q 49.171875 71.578125 54.140625 69.640625 
Q 59.125 67.71875 62.109375 62.828125 
Q 65.09375 57.953125 65.09375 52.046875 
Q 65.09375 44.4375 60.15625 39.203125 
Q 55.21875 33.984375 44.921875 32.5625 
Q 48.6875 30.765625 50.640625 29 
Q 54.78125 25.203125 58.5 19.484375 
L 70.953125 0 
L 59.03125 0 
L 49.5625 14.890625 
Q 45.40625 21.34375 42.71875 24.75 
Q 40.046875 28.171875 37.921875 29.53125 
Q 35.796875 30.90625 33.59375 31.453125 
Q 31.984375 31.78125 28.328125 31.78125 
L 17.328125 31.78125 
L 17.328125 0 
z
M 17.328125 39.984375 
L 37.703125 39.984375 
Q 44.1875 39.984375 47.84375 41.328125 
Q 51.515625 42.671875 53.421875 45.625 
Q 55.328125 48.578125 55.328125 52.046875 
Q 55.328125 57.125 51.640625 60.390625 
Q 47.953125 63.671875 39.984375 63.671875 
L 17.328125 63.671875 
z
" id="ArialMT-82"/>
     <path d="M 4.828125 34.859375 
Q 4.828125 52.6875 14.390625 62.765625 
Q 23.96875 72.859375 39.109375 72.859375 
Q 49.03125 72.859375 56.984375 68.109375 
Q 64.9375 63.375 69.109375 54.90625 
Q 73.296875 46.4375 73.296875 35.6875 
Q 73.296875 24.8125 68.890625 16.21875 
Q 64.5 7.625 56.4375 3.203125 
Q 48.390625 -1.21875 39.0625 -1.21875 
Q 28.953125 -1.21875 20.984375 3.65625 
Q 13.03125 8.546875 8.921875 16.984375 
Q 4.828125 25.4375 4.828125 34.859375 
z
M 14.59375 34.71875 
Q 14.59375 21.78125 21.546875 14.328125 
Q 28.515625 6.890625 39.015625 6.890625 
Q 49.703125 6.890625 56.609375 14.40625 
Q 63.53125 21.921875 63.53125 35.75 
Q 63.53125 44.484375 60.578125 51 
Q 57.625 57.515625 51.921875 61.109375 
Q 46.234375 64.703125 39.15625 64.703125 
Q 29.109375 64.703125 21.84375 57.78125 
Q 14.59375 50.875 14.59375 34.71875 
z
" id="ArialMT-79"/>
     <path d="M 58.796875 25.09375 
L 68.265625 22.703125 
Q 65.28125 11.03125 57.546875 4.90625 
Q 49.8125 -1.21875 38.625 -1.21875 
Q 27.046875 -1.21875 19.796875 3.484375 
Q 12.546875 8.203125 8.765625 17.140625 
Q 4.984375 26.078125 4.984375 36.328125 
Q 4.984375 47.515625 9.25 55.828125 
Q 13.53125 64.15625 21.40625 68.46875 
Q 29.296875 72.796875 38.765625 72.796875 
Q 49.515625 72.796875 56.828125 67.328125 
Q 64.15625 61.859375 67.046875 51.953125 
L 57.71875 49.75 
Q 55.21875 57.5625 50.484375 61.125 
Q 45.75 64.703125 38.578125 64.703125 
Q 30.328125 64.703125 24.78125 60.734375 
Q 19.234375 56.78125 16.984375 50.109375 
Q 14.75 43.453125 14.75 36.375 
Q 14.75 27.25 17.40625 20.4375 
Q 20.0625 13.625 25.671875 10.25 
Q 31.296875 6.890625 37.84375 6.890625 
Q 45.796875 6.890625 51.3125 11.46875 
Q 56.84375 16.0625 58.796875 25.09375 
z
" id="ArialMT-67"/>
     <path d="M 40.4375 19 
L 49.078125 17.875 
Q 47.65625 8.9375 41.8125 3.875 
Q 35.984375 -1.171875 27.484375 -1.171875 
Q 16.84375 -1.171875 10.375 5.78125 
Q 3.90625 12.75 3.90625 25.734375 
Q 3.90625 34.125 6.6875 40.421875 
Q 9.46875 46.734375 15.15625 49.875 
Q 20.84375 53.03125 27.546875 53.03125 
Q 35.984375 53.03125 41.359375 48.75 
Q 46.734375 44.484375 48.25 36.625 
L 39.703125 35.296875 
Q 38.484375 40.53125 35.375 43.15625 
Q 32.28125 45.796875 27.875 45.796875 
Q 21.234375 45.796875 17.078125 41.03125 
Q 12.9375 36.28125 12.9375 25.984375 
Q 12.9375 15.53125 16.9375 10.796875 
Q 20.953125 6.0625 27.390625 6.0625 
Q 32.5625 6.0625 36.03125 9.234375 
Q 39.5 12.40625 40.4375 19 
z
" id="ArialMT-99"/>
     <path d="M 8.6875 0 
L 8.6875 45.015625 
L 0.921875 45.015625 
L 0.921875 51.859375 
L 8.6875 51.859375 
L 8.6875 57.375 
Q 8.6875 62.59375 9.625 65.140625 
Q 10.890625 68.5625 14.078125 70.671875 
Q 17.28125 72.796875 23.046875 72.796875 
Q 26.765625 72.796875 31.25 71.921875 
L 29.9375 64.265625 
Q 27.203125 64.75 24.75 64.75 
Q 20.75 64.75 19.09375 63.03125 
Q 17.4375 61.328125 17.4375 56.640625 
L 17.4375 51.859375 
L 27.546875 51.859375 
L 27.546875 45.015625 
L 17.4375 45.015625 
L 17.4375 0 
z
" id="ArialMT-102"/>
     <path d="M 6.59375 0 
L 6.59375 71.578125 
L 15.375 71.578125 
L 15.375 45.90625 
Q 21.53125 53.03125 30.90625 53.03125 
Q 36.671875 53.03125 40.921875 50.75 
Q 45.171875 48.484375 47 44.484375 
Q 48.828125 40.484375 48.828125 32.859375 
L 48.828125 0 
L 40.046875 0 
L 40.046875 32.859375 
Q 40.046875 39.453125 37.1875 42.453125 
Q 34.328125 45.453125 29.109375 45.453125 
Q 25.203125 45.453125 21.75 43.421875 
Q 18.3125 41.40625 16.84375 37.9375 
Q 15.375 34.46875 15.375 28.375 
L 15.375 0 
z
" id="ArialMT-104"/>
     <path d="M 4.984375 -4.296875 
L 13.53125 -5.5625 
Q 14.0625 -9.515625 16.5 -11.328125 
Q 19.78125 -13.765625 25.4375 -13.765625 
Q 31.546875 -13.765625 34.859375 -11.328125 
Q 38.1875 -8.890625 39.359375 -4.5 
Q 40.046875 -1.8125 39.984375 6.78125 
Q 34.234375 0 25.640625 0 
Q 14.9375 0 9.078125 7.71875 
Q 3.21875 15.4375 3.21875 26.21875 
Q 3.21875 33.640625 5.90625 39.90625 
Q 8.59375 46.1875 13.6875 49.609375 
Q 18.796875 53.03125 25.6875 53.03125 
Q 34.859375 53.03125 40.828125 45.609375 
L 40.828125 51.859375 
L 48.921875 51.859375 
L 48.921875 7.03125 
Q 48.921875 -5.078125 46.453125 -10.125 
Q 44 -15.1875 38.640625 -18.109375 
Q 33.296875 -21.046875 25.484375 -21.046875 
Q 16.21875 -21.046875 10.5 -16.875 
Q 4.78125 -12.703125 4.984375 -4.296875 
z
M 12.25 26.859375 
Q 12.25 16.65625 16.296875 11.96875 
Q 20.359375 7.28125 26.46875 7.28125 
Q 32.515625 7.28125 36.609375 11.9375 
Q 40.71875 16.609375 40.71875 26.5625 
Q 40.71875 36.078125 36.5 40.90625 
Q 32.28125 45.75 26.3125 45.75 
Q 20.453125 45.75 16.34375 40.984375 
Q 12.25 36.234375 12.25 26.859375 
z
" id="ArialMT-103"/>
     <path d="M 14.703125 0 
L 6.546875 0 
L 6.546875 71.578125 
L 15.328125 71.578125 
L 15.328125 46.046875 
Q 20.90625 53.03125 29.546875 53.03125 
Q 34.328125 53.03125 38.59375 51.09375 
Q 42.875 49.171875 45.625 45.671875 
Q 48.390625 42.1875 49.953125 37.25 
Q 51.515625 32.328125 51.515625 26.703125 
Q 51.515625 13.375 44.921875 6.09375 
Q 38.328125 -1.171875 29.109375 -1.171875 
Q 19.921875 -1.171875 14.703125 6.5 
z
M 14.59375 26.3125 
Q 14.59375 17 17.140625 12.84375 
Q 21.296875 6.0625 28.375 6.0625 
Q 34.125 6.0625 38.328125 11.0625 
Q 42.53125 16.0625 42.53125 25.984375 
Q 42.53125 36.140625 38.5 40.96875 
Q 34.46875 45.796875 28.765625 45.796875 
Q 23 45.796875 18.796875 40.796875 
Q 14.59375 35.796875 14.59375 26.3125 
z
" id="ArialMT-98"/>
     <path d="M 40.234375 0 
L 40.234375 6.546875 
Q 35.296875 -1.171875 25.734375 -1.171875 
Q 19.53125 -1.171875 14.328125 2.25 
Q 9.125 5.671875 6.265625 11.796875 
Q 3.421875 17.921875 3.421875 25.875 
Q 3.421875 33.640625 6 39.96875 
Q 8.59375 46.296875 13.765625 49.65625 
Q 18.953125 53.03125 25.34375 53.03125 
Q 30.03125 53.03125 33.6875 51.046875 
Q 37.359375 49.078125 39.65625 45.90625 
L 39.65625 71.578125 
L 48.390625 71.578125 
L 48.390625 0 
z
M 12.453125 25.875 
Q 12.453125 15.921875 16.640625 10.984375 
Q 20.84375 6.0625 26.5625 6.0625 
Q 32.328125 6.0625 36.34375 10.765625 
Q 40.375 15.484375 40.375 25.140625 
Q 40.375 35.796875 36.265625 40.765625 
Q 32.171875 45.75 26.171875 45.75 
Q 20.3125 45.75 16.375 40.96875 
Q 12.453125 36.1875 12.453125 25.875 
z
" id="ArialMT-100"/>
     <path d="M 6.59375 0 
L 6.59375 51.859375 
L 14.5 51.859375 
L 14.5 44.484375 
Q 20.21875 53.03125 31 53.03125 
Q 35.6875 53.03125 39.625 51.34375 
Q 43.5625 49.65625 45.515625 46.921875 
Q 47.46875 44.1875 48.25 40.4375 
Q 48.734375 37.984375 48.734375 31.890625 
L 48.734375 0 
L 39.9375 0 
L 39.9375 31.546875 
Q 39.9375 36.921875 38.90625 39.578125 
Q 37.890625 42.234375 35.28125 43.8125 
Q 32.671875 45.40625 29.15625 45.40625 
Q 23.53125 45.40625 19.453125 41.84375 
Q 15.375 38.28125 15.375 28.328125 
L 15.375 0 
z
" id="ArialMT-110"/>
     <path d="M 6.59375 0 
L 6.59375 51.859375 
L 14.453125 51.859375 
L 14.453125 44.578125 
Q 16.890625 48.390625 20.9375 50.703125 
Q 25 53.03125 30.171875 53.03125 
Q 35.9375 53.03125 39.625 50.640625 
Q 43.3125 48.25 44.828125 43.953125 
Q 50.984375 53.03125 60.84375 53.03125 
Q 68.5625 53.03125 72.703125 48.75 
Q 76.859375 44.484375 76.859375 35.59375 
L 76.859375 0 
L 68.109375 0 
L 68.109375 32.671875 
Q 68.109375 37.9375 67.25 40.25 
Q 66.40625 42.578125 64.15625 43.984375 
Q 61.921875 45.40625 58.890625 45.40625 
Q 53.421875 45.40625 49.796875 41.765625 
Q 46.1875 38.140625 46.1875 30.125 
L 46.1875 0 
L 37.40625 0 
L 37.40625 33.6875 
Q 37.40625 39.546875 35.25 42.46875 
Q 33.109375 45.40625 28.21875 45.40625 
Q 24.515625 45.40625 21.359375 43.453125 
Q 18.21875 41.5 16.796875 37.734375 
Q 15.375 33.984375 15.375 26.90625 
L 15.375 0 
z
" id="ArialMT-109"/>
     <path d="M 4.203125 18.890625 
L 12.984375 20.0625 
Q 14.5 12.59375 18.140625 9.296875 
Q 21.78125 6 27 6 
Q 33.203125 6 37.46875 10.296875 
Q 41.75 14.59375 41.75 20.953125 
Q 41.75 27 37.796875 30.921875 
Q 33.84375 34.859375 27.734375 34.859375 
Q 25.25 34.859375 21.53125 33.890625 
L 22.515625 41.609375 
Q 23.390625 41.5 23.921875 41.5 
Q 29.546875 41.5 34.03125 44.421875 
Q 38.53125 47.359375 38.53125 53.46875 
Q 38.53125 58.296875 35.25 61.46875 
Q 31.984375 64.65625 26.8125 64.65625 
Q 21.6875 64.65625 18.265625 61.421875 
Q 14.84375 58.203125 13.875 51.765625 
L 5.078125 53.328125 
Q 6.6875 62.15625 12.390625 67.015625 
Q 18.109375 71.875 26.609375 71.875 
Q 32.46875 71.875 37.390625 69.359375 
Q 42.328125 66.84375 44.9375 62.5 
Q 47.5625 58.15625 47.5625 53.265625 
Q 47.5625 48.640625 45.0625 44.828125 
Q 42.578125 41.015625 37.703125 38.765625 
Q 44.046875 37.3125 47.5625 32.6875 
Q 51.078125 28.078125 51.078125 21.140625 
Q 51.078125 11.765625 44.234375 5.25 
Q 37.40625 -1.265625 26.953125 -1.265625 
Q 17.53125 -1.265625 11.296875 4.34375 
Q 5.078125 9.96875 4.203125 18.890625 
z
" id="ArialMT-51"/>
    </defs>
    <g style="fill:#262626;" transform="translate(81.177656 15.943125)scale(0.12 -0.12)">
     <use xlink:href="#ArialMT-82"/>
     <use x="72.216797" xlink:href="#ArialMT-79"/>
     <use x="150" xlink:href="#ArialMT-67"/>
     <use x="222.216797" xlink:href="#ArialMT-32"/>
     <use x="250" xlink:href="#ArialMT-99"/>
     <use x="300" xlink:href="#ArialMT-117"/>
     <use x="355.615234" xlink:href="#ArialMT-114"/>
     <use x="388.916016" xlink:href="#ArialMT-118"/>
     <use x="438.916016" xlink:href="#ArialMT-101"/>
     <use x="494.53125" xlink:href="#ArialMT-32"/>
     <use x="522.314453" xlink:href="#ArialMT-102"/>
     <use x="550.097656" xlink:href="#ArialMT-111"/>
     <use x="605.712891" xlink:href="#ArialMT-114"/>
     <use x="639.013672" xlink:href="#ArialMT-32"/>
     <use x="666.796875" xlink:href="#ArialMT-104"/>
     <use x="722.412109" xlink:href="#ArialMT-105"/>
     <use x="744.628906" xlink:href="#ArialMT-103"/>
     <use x="800.244141" xlink:href="#ArialMT-104"/>
     <use x="855.859375" xlink:href="#ArialMT-32"/>
     <use x="883.642578" xlink:href="#ArialMT-98"/>
     <use x="939.257812" xlink:href="#ArialMT-108"/>
     <use x="961.474609" xlink:href="#ArialMT-111"/>
     <use x="1017.089844" xlink:href="#ArialMT-111"/>
     <use x="1072.705078" xlink:href="#ArialMT-100"/>
     <use x="1128.320312" xlink:href="#ArialMT-32"/>
     <use x="1156.103516" xlink:href="#ArialMT-112"/>
     <use x="1211.71875" xlink:href="#ArialMT-114"/>
     <use x="1245.019531" xlink:href="#ArialMT-101"/>
     <use x="1300.634766" xlink:href="#ArialMT-115"/>
     <use x="1350.634766" xlink:href="#ArialMT-115"/>
     <use x="1400.634766" xlink:href="#ArialMT-117"/>
     <use x="1456.25" xlink:href="#ArialMT-114"/>
     <use x="1489.550781" xlink:href="#ArialMT-101"/>
     <use x="1545.166016" xlink:href="#ArialMT-32"/>
     <use x="1572.949219" xlink:href="#ArialMT-105"/>
     <use x="1595.166016" xlink:href="#ArialMT-110"/>
     <use x="1650.78125" xlink:href="#ArialMT-32"/>
     <use x="1678.564453" xlink:href="#ArialMT-108"/>
     <use x="1700.78125" xlink:href="#ArialMT-109"/>
     <use x="1784.082031" xlink:href="#ArialMT-51"/>
     <use x="1839.697266" xlink:href="#ArialMT-32"/>
     <use x="1867.480469" xlink:href="#ArialMT-109"/>
     <use x="1950.78125" xlink:href="#ArialMT-111"/>
     <use x="2006.396484" xlink:href="#ArialMT-100"/>
     <use x="2062.011719" xlink:href="#ArialMT-101"/>
     <use x="2117.626953" xlink:href="#ArialMT-108"/>
    </g>
   </g>
  </g>
 </g>
 <defs>
  <clipPath id="p0ccae872e2">
   <rect height="217.44" width="334.8" x="42.159844" y="21.943125"/>
  </clipPath>
 </defs>
</svg>
