<?xml version="1.0" encoding="utf-8" standalone="no"?>
<!DOCTYPE svg PUBLIC "-//W3C//DTD SVG 1.1//EN"
  "http://www.w3.org/Graphics/SVG/1.1/DTD/svg11.dtd">
<!-- Created with matplotlib (https://matplotlib.org/) -->
<svg height="276.634531pt" version="1.1" viewBox="0 0 370.1 276.634531" width="370.1pt" xmlns="http://www.w3.org/2000/svg" xmlns:xlink="http://www.w3.org/1999/xlink">
 <defs>
  <style type="text/css">
*{stroke-linecap:butt;stroke-linejoin:round;}
  </style>
 </defs>
 <g id="figure_1">
  <g id="patch_1">
   <path d="M 0 276.634531 
L 370.1 276.634531 
L 370.1 0 
L 0 0 
z
" style="fill:#ffffff;"/>
  </g>
  <g id="axes_1">
   <g id="patch_2">
    <path d="M 28.1 239.229375 
L 362.9 239.229375 
L 362.9 21.789375 
L 28.1 21.789375 
z
" style="fill:#ffffff;"/>
   </g>
   <g id="matplotlib.axis_1">
    <g id="xtick_1">
     <g id="line2d_1">
      <path clip-path="url(#p32b7a64536)" d="M 84.327656 239.229375 
L 84.327656 21.789375 
" style="fill:none;stroke:#cccccc;stroke-linecap:round;"/>
     </g>
     <g id="line2d_2"/>
     <g id="text_1">
      <!-- 0.2 -->
      <defs>
       <path d="M 4.15625 35.296875 
Q 4.15625 48 6.765625 55.734375 
Q 9.375 63.484375 14.515625 67.671875 
Q 19.671875 71.875 27.484375 71.875 
Q 33.25 71.875 37.59375 69.546875 
Q 41.9375 67.234375 44.765625 62.859375 
Q 47.609375 58.5 49.21875 52.21875 
Q 50.828125 45.953125 50.828125 35.296875 
Q 50.828125 22.703125 48.234375 14.96875 
Q 45.65625 7.234375 40.5 3 
Q 35.359375 -1.21875 27.484375 -1.21875 
Q 17.140625 -1.21875 11.234375 6.203125 
Q 4.15625 15.140625 4.15625 35.296875 
z
M 13.1875 35.296875 
Q 13.1875 17.671875 17.3125 11.828125 
Q 21.4375 6 27.484375 6 
Q 33.546875 6 37.671875 11.859375 
Q 41.796875 17.71875 41.796875 35.296875 
Q 41.796875 52.984375 37.671875 58.78125 
Q 33.546875 64.59375 27.390625 64.59375 
Q 21.34375 64.59375 17.71875 59.46875 
Q 13.1875 52.9375 13.1875 35.296875 
z
" id="ArialMT-48"/>
       <path d="M 9.078125 0 
L 9.078125 10.015625 
L 19.09375 10.015625 
L 19.09375 0 
z
" id="ArialMT-46"/>
       <path d="M 50.34375 8.453125 
L 50.34375 0 
L 3.03125 0 
Q 2.9375 3.171875 4.046875 6.109375 
Q 5.859375 10.9375 9.828125 15.625 
Q 13.8125 20.3125 21.34375 26.46875 
Q 33.015625 36.03125 37.109375 41.625 
Q 41.21875 47.21875 41.21875 52.203125 
Q 41.21875 57.421875 37.46875 61 
Q 33.734375 64.59375 27.734375 64.59375 
Q 21.390625 64.59375 17.578125 60.78125 
Q 13.765625 56.984375 13.71875 50.25 
L 4.6875 51.171875 
Q 5.609375 61.28125 11.65625 66.578125 
Q 17.71875 71.875 27.9375 71.875 
Q 38.234375 71.875 44.234375 66.15625 
Q 50.25 60.453125 50.25 52 
Q 50.25 47.703125 48.484375 43.546875 
Q 46.734375 39.40625 42.65625 34.8125 
Q 38.578125 30.21875 29.109375 22.21875 
Q 21.1875 15.578125 18.9375 13.203125 
Q 16.703125 10.84375 15.234375 8.453125 
z
" id="ArialMT-50"/>
      </defs>
      <g style="fill:#262626;" transform="translate(77.377656 253.387188)scale(0.1 -0.1)">
       <use xlink:href="#ArialMT-48"/>
       <use x="55.615234" xlink:href="#ArialMT-46"/>
       <use x="83.398438" xlink:href="#ArialMT-50"/>
      </g>
     </g>
    </g>
    <g id="xtick_2">
     <g id="line2d_3">
      <path clip-path="url(#p32b7a64536)" d="M 158.206189 239.229375 
L 158.206189 21.789375 
" style="fill:none;stroke:#cccccc;stroke-linecap:round;"/>
     </g>
     <g id="line2d_4"/>
     <g id="text_2">
      <!-- 0.4 -->
      <defs>
       <path d="M 32.328125 0 
L 32.328125 17.140625 
L 1.265625 17.140625 
L 1.265625 25.203125 
L 33.9375 71.578125 
L 41.109375 71.578125 
L 41.109375 25.203125 
L 50.78125 25.203125 
L 50.78125 17.140625 
L 41.109375 17.140625 
L 41.109375 0 
z
M 32.328125 25.203125 
L 32.328125 57.46875 
L 9.90625 25.203125 
z
" id="ArialMT-52"/>
      </defs>
      <g style="fill:#262626;" transform="translate(151.256189 253.387188)scale(0.1 -0.1)">
       <use xlink:href="#ArialMT-48"/>
       <use x="55.615234" xlink:href="#ArialMT-46"/>
       <use x="83.398438" xlink:href="#ArialMT-52"/>
      </g>
     </g>
    </g>
    <g id="xtick_3">
     <g id="line2d_5">
      <path clip-path="url(#p32b7a64536)" d="M 232.084723 239.229375 
L 232.084723 21.789375 
" style="fill:none;stroke:#cccccc;stroke-linecap:round;"/>
     </g>
     <g id="line2d_6"/>
     <g id="text_3">
      <!-- 0.6 -->
      <defs>
       <path d="M 49.75 54.046875 
L 41.015625 53.375 
Q 39.84375 58.546875 37.703125 60.890625 
Q 34.125 64.65625 28.90625 64.65625 
Q 24.703125 64.65625 21.53125 62.3125 
Q 17.390625 59.28125 14.984375 53.46875 
Q 12.59375 47.65625 12.5 36.921875 
Q 15.671875 41.75 20.265625 44.09375 
Q 24.859375 46.4375 29.890625 46.4375 
Q 38.671875 46.4375 44.84375 39.96875 
Q 51.03125 33.5 51.03125 23.25 
Q 51.03125 16.5 48.125 10.71875 
Q 45.21875 4.9375 40.140625 1.859375 
Q 35.0625 -1.21875 28.609375 -1.21875 
Q 17.625 -1.21875 10.6875 6.859375 
Q 3.765625 14.9375 3.765625 33.5 
Q 3.765625 54.25 11.421875 63.671875 
Q 18.109375 71.875 29.4375 71.875 
Q 37.890625 71.875 43.28125 67.140625 
Q 48.6875 62.40625 49.75 54.046875 
z
M 13.875 23.1875 
Q 13.875 18.65625 15.796875 14.5 
Q 17.71875 10.359375 21.1875 8.171875 
Q 24.65625 6 28.46875 6 
Q 34.03125 6 38.03125 10.484375 
Q 42.046875 14.984375 42.046875 22.703125 
Q 42.046875 30.125 38.078125 34.390625 
Q 34.125 38.671875 28.125 38.671875 
Q 22.171875 38.671875 18.015625 34.390625 
Q 13.875 30.125 13.875 23.1875 
z
" id="ArialMT-54"/>
      </defs>
      <g style="fill:#262626;" transform="translate(225.134723 253.387188)scale(0.1 -0.1)">
       <use xlink:href="#ArialMT-48"/>
       <use x="55.615234" xlink:href="#ArialMT-46"/>
       <use x="83.398438" xlink:href="#ArialMT-54"/>
      </g>
     </g>
    </g>
    <g id="xtick_4">
     <g id="line2d_7">
      <path clip-path="url(#p32b7a64536)" d="M 305.963256 239.229375 
L 305.963256 21.789375 
" style="fill:none;stroke:#cccccc;stroke-linecap:round;"/>
     </g>
     <g id="line2d_8"/>
     <g id="text_4">
      <!-- 0.8 -->
      <defs>
       <path d="M 17.671875 38.8125 
Q 12.203125 40.828125 9.5625 44.53125 
Q 6.9375 48.25 6.9375 53.421875 
Q 6.9375 61.234375 12.546875 66.546875 
Q 18.171875 71.875 27.484375 71.875 
Q 36.859375 71.875 42.578125 66.421875 
Q 48.296875 60.984375 48.296875 53.171875 
Q 48.296875 48.1875 45.671875 44.5 
Q 43.0625 40.828125 37.75 38.8125 
Q 44.34375 36.671875 47.78125 31.875 
Q 51.21875 27.09375 51.21875 20.453125 
Q 51.21875 11.28125 44.71875 5.03125 
Q 38.234375 -1.21875 27.640625 -1.21875 
Q 17.046875 -1.21875 10.546875 5.046875 
Q 4.046875 11.328125 4.046875 20.703125 
Q 4.046875 27.6875 7.59375 32.390625 
Q 11.140625 37.109375 17.671875 38.8125 
z
M 15.921875 53.71875 
Q 15.921875 48.640625 19.1875 45.40625 
Q 22.46875 42.1875 27.6875 42.1875 
Q 32.765625 42.1875 36.015625 45.375 
Q 39.265625 48.578125 39.265625 53.21875 
Q 39.265625 58.0625 35.90625 61.359375 
Q 32.5625 64.65625 27.59375 64.65625 
Q 22.5625 64.65625 19.234375 61.421875 
Q 15.921875 58.203125 15.921875 53.71875 
z
M 13.09375 20.65625 
Q 13.09375 16.890625 14.875 13.375 
Q 16.65625 9.859375 20.171875 7.921875 
Q 23.6875 6 27.734375 6 
Q 34.03125 6 38.125 10.046875 
Q 42.234375 14.109375 42.234375 20.359375 
Q 42.234375 26.703125 38.015625 30.859375 
Q 33.796875 35.015625 27.4375 35.015625 
Q 21.234375 35.015625 17.15625 30.90625 
Q 13.09375 26.8125 13.09375 20.65625 
z
" id="ArialMT-56"/>
      </defs>
      <g style="fill:#262626;" transform="translate(299.013256 253.387188)scale(0.1 -0.1)">
       <use xlink:href="#ArialMT-48"/>
       <use x="55.615234" xlink:href="#ArialMT-46"/>
       <use x="83.398438" xlink:href="#ArialMT-56"/>
      </g>
     </g>
    </g>
    <g id="text_5">
     <!-- Threshold -->
     <defs>
      <path d="M 25.921875 0 
L 25.921875 63.140625 
L 2.34375 63.140625 
L 2.34375 71.578125 
L 59.078125 71.578125 
L 59.078125 63.140625 
L 35.40625 63.140625 
L 35.40625 0 
z
" id="ArialMT-84"/>
      <path d="M 6.59375 0 
L 6.59375 71.578125 
L 15.375 71.578125 
L 15.375 45.90625 
Q 21.53125 53.03125 30.90625 53.03125 
Q 36.671875 53.03125 40.921875 50.75 
Q 45.171875 48.484375 47 44.484375 
Q 48.828125 40.484375 48.828125 32.859375 
L 48.828125 0 
L 40.046875 0 
L 40.046875 32.859375 
Q 40.046875 39.453125 37.1875 42.453125 
Q 34.328125 45.453125 29.109375 45.453125 
Q 25.203125 45.453125 21.75 43.421875 
Q 18.3125 41.40625 16.84375 37.9375 
Q 15.375 34.46875 15.375 28.375 
L 15.375 0 
z
" id="ArialMT-104"/>
      <path d="M 6.5 0 
L 6.5 51.859375 
L 14.40625 51.859375 
L 14.40625 44 
Q 17.4375 49.515625 20 51.265625 
Q 22.5625 53.03125 25.640625 53.03125 
Q 30.078125 53.03125 34.671875 50.203125 
L 31.640625 42.046875 
Q 28.421875 43.953125 25.203125 43.953125 
Q 22.3125 43.953125 20.015625 42.21875 
Q 17.71875 40.484375 16.75 37.40625 
Q 15.28125 32.71875 15.28125 27.15625 
L 15.28125 0 
z
" id="ArialMT-114"/>
      <path d="M 42.09375 16.703125 
L 51.171875 15.578125 
Q 49.03125 7.625 43.21875 3.21875 
Q 37.40625 -1.171875 28.375 -1.171875 
Q 17 -1.171875 10.328125 5.828125 
Q 3.65625 12.84375 3.65625 25.484375 
Q 3.65625 38.578125 10.390625 45.796875 
Q 17.140625 53.03125 27.875 53.03125 
Q 38.28125 53.03125 44.875 45.953125 
Q 51.46875 38.875 51.46875 26.03125 
Q 51.46875 25.25 51.421875 23.6875 
L 12.75 23.6875 
Q 13.234375 15.140625 17.578125 10.59375 
Q 21.921875 6.0625 28.421875 6.0625 
Q 33.25 6.0625 36.671875 8.59375 
Q 40.09375 11.140625 42.09375 16.703125 
z
M 13.234375 30.90625 
L 42.1875 30.90625 
Q 41.609375 37.453125 38.875 40.71875 
Q 34.671875 45.796875 27.984375 45.796875 
Q 21.921875 45.796875 17.796875 41.75 
Q 13.671875 37.703125 13.234375 30.90625 
z
" id="ArialMT-101"/>
      <path d="M 3.078125 15.484375 
L 11.765625 16.84375 
Q 12.5 11.625 15.84375 8.84375 
Q 19.1875 6.0625 25.203125 6.0625 
Q 31.25 6.0625 34.171875 8.515625 
Q 37.109375 10.984375 37.109375 14.3125 
Q 37.109375 17.28125 34.515625 19 
Q 32.71875 20.171875 25.53125 21.96875 
Q 15.875 24.421875 12.140625 26.203125 
Q 8.40625 27.984375 6.46875 31.125 
Q 4.546875 34.28125 4.546875 38.09375 
Q 4.546875 41.546875 6.125 44.5 
Q 7.71875 47.46875 10.453125 49.421875 
Q 12.5 50.921875 16.03125 51.96875 
Q 19.578125 53.03125 23.640625 53.03125 
Q 29.734375 53.03125 34.34375 51.265625 
Q 38.96875 49.515625 41.15625 46.5 
Q 43.359375 43.5 44.1875 38.484375 
L 35.59375 37.3125 
Q 35.015625 41.3125 32.203125 43.546875 
Q 29.390625 45.796875 24.265625 45.796875 
Q 18.21875 45.796875 15.625 43.796875 
Q 13.03125 41.796875 13.03125 39.109375 
Q 13.03125 37.40625 14.109375 36.03125 
Q 15.1875 34.625 17.484375 33.6875 
Q 18.796875 33.203125 25.25 31.453125 
Q 34.578125 28.953125 38.25 27.359375 
Q 41.9375 25.78125 44.03125 22.75 
Q 46.140625 19.734375 46.140625 15.234375 
Q 46.140625 10.84375 43.578125 6.953125 
Q 41.015625 3.078125 36.171875 0.953125 
Q 31.34375 -1.171875 25.25 -1.171875 
Q 15.140625 -1.171875 9.84375 3.03125 
Q 4.546875 7.234375 3.078125 15.484375 
z
" id="ArialMT-115"/>
      <path d="M 3.328125 25.921875 
Q 3.328125 40.328125 11.328125 47.265625 
Q 18.015625 53.03125 27.640625 53.03125 
Q 38.328125 53.03125 45.109375 46.015625 
Q 51.90625 39.015625 51.90625 26.65625 
Q 51.90625 16.65625 48.90625 10.90625 
Q 45.90625 5.171875 40.15625 2 
Q 34.421875 -1.171875 27.640625 -1.171875 
Q 16.75 -1.171875 10.03125 5.8125 
Q 3.328125 12.796875 3.328125 25.921875 
z
M 12.359375 25.921875 
Q 12.359375 15.96875 16.703125 11.015625 
Q 21.046875 6.0625 27.640625 6.0625 
Q 34.1875 6.0625 38.53125 11.03125 
Q 42.875 16.015625 42.875 26.21875 
Q 42.875 35.84375 38.5 40.796875 
Q 34.125 45.75 27.640625 45.75 
Q 21.046875 45.75 16.703125 40.8125 
Q 12.359375 35.890625 12.359375 25.921875 
z
" id="ArialMT-111"/>
      <path d="M 6.390625 0 
L 6.390625 71.578125 
L 15.1875 71.578125 
L 15.1875 0 
z
" id="ArialMT-108"/>
      <path d="M 40.234375 0 
L 40.234375 6.546875 
Q 35.296875 -1.171875 25.734375 -1.171875 
Q 19.53125 -1.171875 14.328125 2.25 
Q 9.125 5.671875 6.265625 11.796875 
Q 3.421875 17.921875 3.421875 25.875 
Q 3.421875 33.640625 6 39.96875 
Q 8.59375 46.296875 13.765625 49.65625 
Q 18.953125 53.03125 25.34375 53.03125 
Q 30.03125 53.03125 33.6875 51.046875 
Q 37.359375 49.078125 39.65625 45.90625 
L 39.65625 71.578125 
L 48.390625 71.578125 
L 48.390625 0 
z
M 12.453125 25.875 
Q 12.453125 15.921875 16.640625 10.984375 
Q 20.84375 6.0625 26.5625 6.0625 
Q 32.328125 6.0625 36.34375 10.765625 
Q 40.375 15.484375 40.375 25.140625 
Q 40.375 35.796875 36.265625 40.765625 
Q 32.171875 45.75 26.171875 45.75 
Q 20.3125 45.75 16.375 40.96875 
Q 12.453125 36.1875 12.453125 25.875 
z
" id="ArialMT-100"/>
     </defs>
     <g style="fill:#262626;" transform="translate(171.044766 267.248281)scale(0.11 -0.11)">
      <use xlink:href="#ArialMT-84"/>
      <use x="61.083984" xlink:href="#ArialMT-104"/>
      <use x="116.699219" xlink:href="#ArialMT-114"/>
      <use x="150" xlink:href="#ArialMT-101"/>
      <use x="205.615234" xlink:href="#ArialMT-115"/>
      <use x="255.615234" xlink:href="#ArialMT-104"/>
      <use x="311.230469" xlink:href="#ArialMT-111"/>
      <use x="366.845703" xlink:href="#ArialMT-108"/>
      <use x="389.0625" xlink:href="#ArialMT-100"/>
     </g>
    </g>
   </g>
   <g id="matplotlib.axis_2">
    <g id="ytick_1">
     <g id="line2d_9">
      <path clip-path="url(#p32b7a64536)" d="M 28.1 229.345739 
L 362.9 229.345739 
" style="fill:none;stroke:#cccccc;stroke-linecap:round;"/>
     </g>
     <g id="line2d_10"/>
     <g id="text_6">
      <!-- 0.0 -->
      <g style="fill:#262626;" transform="translate(7.2 232.924645)scale(0.1 -0.1)">
       <use xlink:href="#ArialMT-48"/>
       <use x="55.615234" xlink:href="#ArialMT-46"/>
       <use x="83.398438" xlink:href="#ArialMT-48"/>
      </g>
     </g>
    </g>
    <g id="ytick_2">
     <g id="line2d_11">
      <path clip-path="url(#p32b7a64536)" d="M 28.1 189.811193 
L 362.9 189.811193 
" style="fill:none;stroke:#cccccc;stroke-linecap:round;"/>
     </g>
     <g id="line2d_12"/>
     <g id="text_7">
      <!-- 0.2 -->
      <g style="fill:#262626;" transform="translate(7.2 193.390099)scale(0.1 -0.1)">
       <use xlink:href="#ArialMT-48"/>
       <use x="55.615234" xlink:href="#ArialMT-46"/>
       <use x="83.398438" xlink:href="#ArialMT-50"/>
      </g>
     </g>
    </g>
    <g id="ytick_3">
     <g id="line2d_13">
      <path clip-path="url(#p32b7a64536)" d="M 28.1 150.276648 
L 362.9 150.276648 
" style="fill:none;stroke:#cccccc;stroke-linecap:round;"/>
     </g>
     <g id="line2d_14"/>
     <g id="text_8">
      <!-- 0.4 -->
      <g style="fill:#262626;" transform="translate(7.2 153.855554)scale(0.1 -0.1)">
       <use xlink:href="#ArialMT-48"/>
       <use x="55.615234" xlink:href="#ArialMT-46"/>
       <use x="83.398438" xlink:href="#ArialMT-52"/>
      </g>
     </g>
    </g>
    <g id="ytick_4">
     <g id="line2d_15">
      <path clip-path="url(#p32b7a64536)" d="M 28.1 110.742102 
L 362.9 110.742102 
" style="fill:none;stroke:#cccccc;stroke-linecap:round;"/>
     </g>
     <g id="line2d_16"/>
     <g id="text_9">
      <!-- 0.6 -->
      <g style="fill:#262626;" transform="translate(7.2 114.321009)scale(0.1 -0.1)">
       <use xlink:href="#ArialMT-48"/>
       <use x="55.615234" xlink:href="#ArialMT-46"/>
       <use x="83.398438" xlink:href="#ArialMT-54"/>
      </g>
     </g>
    </g>
    <g id="ytick_5">
     <g id="line2d_17">
      <path clip-path="url(#p32b7a64536)" d="M 28.1 71.207557 
L 362.9 71.207557 
" style="fill:none;stroke:#cccccc;stroke-linecap:round;"/>
     </g>
     <g id="line2d_18"/>
     <g id="text_10">
      <!-- 0.8 -->
      <g style="fill:#262626;" transform="translate(7.2 74.786463)scale(0.1 -0.1)">
       <use xlink:href="#ArialMT-48"/>
       <use x="55.615234" xlink:href="#ArialMT-46"/>
       <use x="83.398438" xlink:href="#ArialMT-56"/>
      </g>
     </g>
    </g>
    <g id="ytick_6">
     <g id="line2d_19">
      <path clip-path="url(#p32b7a64536)" d="M 28.1 31.673011 
L 362.9 31.673011 
" style="fill:none;stroke:#cccccc;stroke-linecap:round;"/>
     </g>
     <g id="line2d_20"/>
     <g id="text_11">
      <!-- 1.0 -->
      <defs>
       <path d="M 37.25 0 
L 28.46875 0 
L 28.46875 56 
Q 25.296875 52.984375 20.140625 49.953125 
Q 14.984375 46.921875 10.890625 45.40625 
L 10.890625 53.90625 
Q 18.265625 57.375 23.78125 62.296875 
Q 29.296875 67.234375 31.59375 71.875 
L 37.25 71.875 
z
" id="ArialMT-49"/>
      </defs>
      <g style="fill:#262626;" transform="translate(7.2 35.251918)scale(0.1 -0.1)">
       <use xlink:href="#ArialMT-49"/>
       <use x="55.615234" xlink:href="#ArialMT-46"/>
       <use x="83.398438" xlink:href="#ArialMT-48"/>
      </g>
     </g>
    </g>
   </g>
   <g id="line2d_21">
    <path clip-path="url(#p32b7a64536)" d="M 43.318182 160.019341 
L 43.705639 160.032497 
L 52.74428 159.638925 
L 56.540864 159.211008 
L 56.797964 159.13167 
L 57.966753 158.972455 
L 58.118017 158.908566 
L 58.973396 158.796482 
L 61.208234 158.458077 
L 61.529129 158.377026 
L 63.341507 158.014435 
L 63.398385 157.981609 
L 65.356243 157.660211 
L 65.584605 157.639579 
L 66.927705 157.40206 
L 67.030228 157.351832 
L 67.835542 157.16706 
L 67.83979 157.150215 
L 68.389017 156.99826 
L 75.864699 155.16497 
L 76.214564 155.057747 
L 77.239203 154.716151 
L 78.592902 154.467521 
L 78.603355 154.449311 
L 79.593275 154.216583 
L 82.873624 153.422996 
L 83.233543 153.347862 
L 87.204306 152.227005 
L 88.227649 152.054154 
L 90.073692 151.647206 
L 91.829943 151.222061 
L 92.224485 151.051435 
L 92.315625 151.041832 
L 93.692169 150.636053 
L 93.701977 150.615603 
L 94.167622 150.52361 
L 94.41236 150.482557 
L 94.734107 150.472414 
L 96.987576 149.629738 
L 97.514996 149.503305 
L 97.633867 149.492232 
L 99.09953 149.236541 
L 99.340522 149.065869 
L 99.827078 149.138356 
L 104.382628 148.1347 
L 104.65262 147.979632 
L 104.657056 148.011367 
L 104.993564 147.986043 
L 106.403134 147.621424 
L 106.483181 147.553883 
L 106.879863 147.546361 
L 107.308499 147.529369 
L 107.530414 147.438663 
L 107.972485 147.379862 
L 108.236338 147.320897 
L 109.994269 146.861998 
L 110.808973 146.619758 
L 111.326455 146.479544 
L 111.558802 146.418255 
L 112.38911 145.93145 
L 112.863691 145.901461 
L 113.064387 145.782289 
L 113.272983 145.791019 
L 113.890726 145.536131 
L 114.482408 145.3675 
L 114.594247 145.295022 
L 114.618789 145.270835 
L 114.650997 145.303534 
L 115.135901 145.158132 
L 115.222484 145.060918 
L 115.663199 144.890252 
L 115.884506 144.694356 
L 116.887652 144.398803 
L 117.023973 144.225442 
L 117.800921 144.149949 
L 117.935955 144.215764 
L 117.93976 144.19085 
L 118.073047 144.173922 
L 118.541372 144.031907 
L 118.640413 144.014785 
L 118.807915 143.964605 
L 119.297482 143.971167 
L 121.153412 143.722793 
L 121.287079 143.730648 
L 122.110547 143.516488 
L 122.892775 143.267228 
L 122.926359 143.215638 
L 123.699945 142.971739 
L 123.729957 142.919722 
L 125.634844 142.559658 
L 126.437845 142.215269 
L 126.767792 142.169166 
L 127.255919 142.016059 
L 127.619485 141.969542 
L 127.907537 141.849259 
L 127.979632 141.917081 
L 128.183913 141.877233 
L 128.582425 141.871281 
L 128.58831 141.905345 
L 128.681969 141.878307 
L 128.887011 141.885343 
L 129.471725 141.872341 
L 131.610512 141.209432 
L 131.758981 141.126623 
L 131.907745 141.133277 
L 131.929391 141.077954 
L 131.968608 141.050267 
L 132.192139 141.001426 
L 132.308688 141.008021 
L 132.66078 140.841136 
L 132.674279 140.785367 
L 133.043359 140.617639 
L 133.187637 140.539875 
L 133.536916 140.490002 
L 135.837824 139.804926 
L 135.955238 139.690203 
L 140.238779 138.753821 
L 142.104127 138.373212 
L 142.18984 138.313105 
L 142.426165 138.258041 
L 142.444427 138.293311 
L 142.933504 138.338971 
L 143.234138 138.349365 
L 143.629917 138.137464 
L 143.952532 138.183108 
L 144.255255 138.030967 
L 144.329729 137.908889 
L 144.358073 137.944407 
L 144.62526 137.918794 
L 144.69664 137.857557 
L 144.703103 137.89313 
L 145.030275 137.969349 
L 145.591991 137.723465 
L 145.843019 137.635717 
L 146.090779 137.676261 
L 146.215966 137.588196 
L 146.311778 137.62399 
L 147.405889 137.394001 
L 147.526163 137.367408 
L 147.737894 137.340761 
L 147.960949 137.318702 
L 148.452401 137.129993 
L 148.591509 137.035348 
L 148.741489 137.080401 
L 149.026691 137.084908 
L 149.529659 137.057751 
L 150.24975 136.848535 
L 150.291374 136.92112 
L 150.352149 136.857291 
L 150.811438 136.637435 
L 151.025356 136.476595 
L 151.423026 136.189626 
L 151.505695 136.092182 
L 151.525476 136.096078 
L 151.702344 136.002203 
L 151.728648 136.038682 
L 151.761957 136.006046 
L 152.650619 135.820918 
L 152.697469 135.755171 
L 152.747036 135.791769 
L 153.224095 135.703949 
L 155.191709 135.419627 
L 155.415879 135.252677 
L 155.77541 135.118689 
L 155.874864 135.051552 
L 156.290399 135.064534 
L 156.526469 134.929606 
L 157.064103 134.729514 
L 157.301299 134.701572 
L 157.423661 134.744711 
L 157.505421 134.747763 
L 157.79907 134.654356 
L 158.322506 134.488641 
L 158.338455 134.525947 
L 158.40218 134.49153 
L 158.550632 134.388128 
L 159.374099 134.186001 
L 159.567678 133.977318 
L 159.747006 133.907553 
L 159.931777 133.875095 
L 160.06017 133.772498 
L 160.209161 133.81239 
L 161.775184 133.268112 
L 161.858916 133.343788 
L 162.29483 133.390256 
L 162.487518 133.432652 
L 162.487644 133.396729 
L 162.760813 133.326916 
L 163.255399 133.373658 
L 163.640389 133.305575 
L 163.914167 133.273506 
L 163.919837 133.200834 
L 163.986918 133.277691 
L 164.023221 133.316163 
L 164.706711 133.174541 
L 164.859385 133.178596 
L 165.69784 132.816692 
L 165.78438 132.818459 
L 166.791444 132.643082 
L 167.186692 132.685378 
L 167.265383 132.687061 
L 167.297554 132.726123 
L 167.403853 132.727838 
L 167.418753 132.690433 
L 167.66911 132.578043 
L 168.135112 132.543677 
L 168.291792 132.545258 
L 168.421146 132.469956 
L 168.439616 132.509177 
L 168.630885 132.58933 
L 168.643311 132.551608 
L 168.98262 132.439773 
L 169.120494 132.480691 
L 169.557187 132.290908 
L 169.673304 132.216125 
L 169.942146 132.180615 
L 169.961227 132.220154 
L 169.986579 132.181931 
L 171.633964 131.73055 
L 171.721461 131.810372 
L 171.775584 131.771451 
L 172.190204 131.694463 
L 172.218877 131.734456 
L 172.221098 131.695411 
L 172.902344 131.502107 
L 173.098464 131.463547 
L 173.18597 131.384737 
L 173.187024 131.424895 
L 174.202553 131.189901 
L 174.216428 131.270579 
L 174.32874 131.311618 
L 174.602355 131.273056 
L 174.803444 131.2743 
L 175.457668 131.195458 
L 175.793219 131.236707 
L 176.000353 131.035746 
L 176.286353 131.076934 
L 177.492348 130.795147 
L 177.601413 130.713836 
L 177.936648 130.714345 
L 177.984957 130.796571 
L 178.009406 130.755645 
L 178.284623 130.756055 
L 178.503576 130.715198 
L 178.68239 130.67424 
L 178.83794 130.756878 
L 178.863345 130.674515 
L 179.063115 130.550746 
L 179.218898 130.592222 
L 179.232838 130.550816 
L 179.315025 130.633802 
L 179.375412 130.675347 
L 179.403323 130.592431 
L 179.673994 130.550955 
L 179.714398 130.46776 
L 180.231937 130.300947 
L 180.244534 130.259156 
L 181.881263 129.835873 
L 181.929743 129.793475 
L 181.988032 129.877159 
L 182.315408 129.918046 
L 182.532003 129.70445 
L 182.785365 129.744519 
L 183.248995 129.657337 
L 183.545217 129.741217 
L 184.595389 129.692546 
L 184.899792 129.777254 
L 185.126143 129.601826 
L 185.341834 129.469904 
L 186.828771 129.062989 
L 186.85918 129.018498 
L 186.911411 129.104951 
L 187.106679 129.103702 
L 187.349629 129.18921 
L 187.788599 129.00784 
L 188.16484 129.005151 
L 188.203349 129.048739 
L 188.2244 129.003803 
L 188.480244 128.868753 
L 188.612209 128.73334 
L 188.63911 128.688121 
L 188.668345 128.731743 
L 189.480597 128.543371 
L 189.615171 128.674929 
L 189.634869 128.629335 
L 190.083965 128.446547 
L 190.192419 128.354904 
L 190.422717 128.440916 
L 190.426311 128.394988 
L 191.721902 127.779089 
L 191.739265 127.823357 
L 191.757015 127.867666 
L 191.853118 127.82088 
L 191.900776 127.774051 
L 192.285557 127.771526 
L 192.865721 127.76392 
L 192.971064 127.669776 
L 193.267034 127.711687 
L 193.279712 127.664503 
L 193.317346 127.617275 
L 193.849298 127.427925 
L 193.883392 127.285449 
L 193.892964 127.330023 
L 194.6884 127.407719 
L 194.698875 127.35995 
L 194.723525 127.40481 
L 195.005433 127.35107 
L 195.014726 127.396053 
L 195.099941 127.486145 
L 195.131627 127.438189 
L 196.665458 126.935843 
L 196.913718 126.93244 
L 196.916746 126.977823 
L 197.079595 127.019923 
L 197.085431 126.97108 
L 197.098275 127.062144 
L 197.893829 127.327234 
L 197.921746 127.229092 
L 198.080941 127.03224 
L 198.111238 127.078219 
L 198.486608 127.018783 
L 198.625861 127.015402 
L 198.636629 126.965823 
L 198.667734 127.012015 
L 198.748709 127.058251 
L 198.776621 127.008621 
L 199.048136 126.902208 
L 199.164937 126.994979 
L 199.170772 126.945101 
L 199.58805 126.795173 
L 200.164608 126.486119 
L 200.274407 126.330453 
L 200.303558 126.377014 
L 200.401818 126.372944 
L 201.188477 126.050223 
L 201.300335 125.891772 
L 201.510854 125.976501 
L 201.657882 125.915781 
L 202.001411 126.005565 
L 202.139591 126.00105 
L 202.19332 125.949222 
L 202.787752 126.082381 
L 202.916223 125.926237 
L 203.099591 125.869404 
L 203.112429 125.916978 
L 203.141646 125.9646 
L 203.149724 125.912335 
L 203.2622 125.850591 
L 203.294567 125.898348 
L 203.379893 125.941519 
L 203.393909 125.888976 
L 204.828307 125.600452 
L 205.201535 125.686851 
L 205.381403 125.681892 
L 205.460568 125.73025 
L 205.469894 125.676923 
L 205.592233 125.62354 
L 205.599542 125.671943 
L 205.897783 125.7591 
L 206.609989 125.588062 
L 207.156478 125.62158 
L 207.857806 125.389124 
L 207.96137 125.48204 
L 208.585053 125.362189 
L 208.608431 125.411499 
L 208.683946 125.356768 
L 208.794539 125.296487 
L 209.201771 125.236014 
L 209.369241 125.329491 
L 209.456451 125.213634 
L 209.506386 125.263284 
L 209.664595 125.257708 
L 209.679909 125.146977 
L 209.709912 125.196723 
L 210.074842 125.135543 
L 210.171473 125.18539 
L 210.179382 125.129808 
L 210.422394 125.068357 
L 210.49097 125.268454 
L 210.501259 125.212678 
L 210.585081 125.262833 
L 210.899854 125.240231 
L 210.900939 125.290645 
L 210.948665 125.23455 
L 211.046149 125.178395 
L 211.051943 125.279373 
L 211.371181 125.414717 
L 211.836635 125.409182 
L 212.002706 125.239536 
L 212.020009 125.290471 
L 212.102148 125.233796 
L 212.22647 125.335825 
L 212.230955 125.279082 
L 212.503743 125.051489 
L 212.540794 124.931213 
L 212.560447 125.033526 
L 212.982416 125.027512 
L 213.175652 125.072831 
L 213.178168 125.015444 
L 213.283423 125.118301 
L 213.719431 125.365068 
L 213.830377 125.192055 
L 213.850055 125.243953 
L 214.051527 125.122298 
L 214.079208 125.174301 
L 214.237873 125.168357 
L 214.491177 125.41814 
L 214.512139 125.301629 
L 214.865105 125.178874 
L 214.934258 125.231435 
L 214.943557 125.172878 
L 215.251122 124.919083 
L 215.278894 124.971854 
L 215.640702 124.728486 
L 215.697371 124.609535 
L 215.718201 124.6624 
L 216.018369 124.40278 
L 216.034765 124.34271 
L 216.087719 124.395785 
L 216.33808 124.441968 
L 216.414638 124.381747 
L 216.848284 124.474436 
L 216.849595 124.413991 
L 216.915083 124.467475 
L 217.113716 124.567767 
L 217.122989 124.507167 
L 217.177266 124.385755 
L 217.200203 124.547089 
L 217.354787 124.479266 
L 217.71661 124.519292 
L 218.000133 124.375502 
L 218.184256 124.538615 
L 218.355947 124.524575 
L 219.217692 124.771245 
L 219.354725 124.647194 
L 219.439957 124.757615 
L 219.503253 124.695471 
L 219.827155 124.799353 
L 219.957982 124.67467 
L 220.396813 124.409827 
L 220.649343 124.513896 
L 221.579179 124.032235 
L 221.590725 124.088312 
L 221.785561 124.136714 
L 222.018085 124.121171 
L 222.932278 124.123025 
L 222.93345 124.179953 
L 223.404568 123.846936 
L 223.496922 123.650842 
L 223.93757 123.862845 
L 224.320994 124.085011 
L 224.399988 124.134832 
L 224.340197 124.076971 
L 224.412349 124.06891 
L 224.484183 124.002906 
L 224.770575 124.044607 
L 224.817147 123.84555 
L 225.067888 124.078456 
L 225.264925 124.363459 
L 225.468422 124.280985 
L 225.569918 124.391234 
L 225.709933 124.316304 
L 225.906739 124.49435 
L 226.147789 124.224982 
L 226.174975 124.284463 
L 226.657013 124.635379 
L 226.707061 124.755641 
L 226.78876 124.687945 
L 226.795579 124.748188 
L 226.836611 124.808509 
L 226.886105 124.740716 
L 227.133772 124.793692 
L 227.172502 124.725713 
L 227.198157 124.786254 
L 227.249342 124.846875 
L 227.298187 124.778798 
L 227.326747 124.710631 
L 227.335707 124.771321 
L 227.420768 124.83209 
L 227.460639 124.763825 
L 227.785813 124.627028 
L 227.89254 124.74122 
L 228.009089 124.664912 
L 228.018197 124.726051 
L 228.019071 124.78727 
L 228.088362 124.710801 
L 228.303671 124.833623 
L 228.400864 124.756994 
L 228.439336 124.818598 
L 228.452814 124.880284 
L 229.157554 124.571276 
L 229.474884 124.501286 
L 229.476142 124.563337 
L 229.496356 124.625471 
L 229.500834 124.555377 
L 229.616244 124.617589 
L 229.644511 124.547396 
L 229.817169 124.336251 
L 229.826118 124.26568 
L 229.912033 124.327948 
L 230.394813 124.507167 
L 230.541124 124.499056 
L 230.552479 124.428165 
L 230.628097 124.490923 
L 230.791287 124.616692 
L 231.25743 124.537592 
L 231.571157 124.59264 
L 231.63306 124.449925 
L 232.495527 124.128456 
L 232.498951 124.25563 
L 232.50026 124.319348 
L 232.801611 124.447048 
L 232.811927 124.374704 
L 233.024896 124.221031 
L 233.0315 124.349214 
L 233.096627 124.413439 
L 233.102218 124.34067 
L 233.229901 124.259125 
L 233.235489 124.323511 
L 233.492881 124.250426 
L 233.509887 124.314895 
L 233.561369 124.500456 
L 233.52891 124.306256 
L 233.61832 124.427137 
L 234.057915 124.059002 
L 234.208707 124.049936 
L 234.332907 124.114899 
L 234.349619 124.040845 
L 234.404418 123.966686 
L 234.629989 124.096861 
L 234.644536 124.162086 
L 234.6939 124.087803 
L 234.81423 124.013416 
L 234.847624 124.078721 
L 234.94271 124.135095 
L 235.426309 124.389259 
L 235.435253 124.239641 
L 235.708381 124.089597 
L 235.995219 124.146519 
L 236.480277 123.520945 
L 236.531352 123.587261 
L 236.813483 123.510846 
L 236.817885 123.577251 
L 236.863302 123.710349 
L 236.883307 123.557143 
L 237.179744 123.470157 
L 237.413675 123.593711 
L 237.517788 123.284495 
L 238.380303 123.753843 
L 238.4244 123.675336 
L 238.465362 123.596713 
L 238.870983 123.428561 
L 238.914132 123.349459 
L 239.543914 123.16894 
L 239.802826 123.009395 
L 239.913 123.215728 
L 239.988851 123.055652 
L 240.084911 122.975433 
L 240.117783 123.044393 
L 240.127793 123.113457 
L 240.198049 123.033099 
L 240.340857 122.87202 
L 241.026647 122.976116 
L 241.224212 122.813719 
L 241.307722 122.871676 
L 241.486531 122.859971 
L 241.701148 122.696524 
L 241.70985 122.614612 
L 241.731976 122.684513 
L 242.393906 123.213762 
L 242.461767 123.131233 
L 242.468496 123.202406 
L 242.679162 123.416594 
L 242.857086 123.405511 
L 243.038361 123.216896 
L 243.059142 123.288808 
L 243.077685 123.121921 
L 243.257484 123.338282 
L 243.280593 123.483093 
L 243.336059 123.399407 
L 243.399408 123.471976 
L 243.460568 123.388148 
L 243.587923 123.533613 
L 243.624948 123.449635 
L 243.671843 123.365523 
L 243.731804 123.438411 
L 243.925437 123.584534 
L 243.972288 123.500262 
L 244.087703 123.246639 
L 244.13768 123.319839 
L 244.146303 123.235019 
L 244.210487 123.150062 
L 244.23439 123.223361 
L 244.345232 123.370312 
L 244.432273 123.273567 
L 244.840579 123.250207 
L 245.084656 123.610083 
L 245.18108 123.684768 
L 245.360686 123.58761 
L 245.37285 123.66252 
L 245.442191 123.489976 
L 245.463797 123.403493 
L 245.471405 123.478497 
L 245.592731 123.305086 
L 245.607932 123.218168 
L 245.66213 123.293266 
L 245.853606 123.281408 
L 245.90215 123.356743 
L 246.243809 123.170041 
L 246.340982 123.245596 
L 246.454548 123.070079 
L 246.704764 123.285455 
L 246.799595 123.437888 
L 246.860908 123.349705 
L 246.978684 123.426102 
L 246.984014 123.337762 
L 247.364395 122.982924 
L 247.376229 123.059398 
L 247.490175 123.123618 
L 247.85466 122.932198 
L 247.953662 122.996476 
L 248.012635 122.906578 
L 248.041484 122.983764 
L 248.118854 123.138528 
L 248.261758 123.216106 
L 248.44404 123.035767 
L 248.516934 122.854814 
L 248.526654 122.932482 
L 248.698263 123.166281 
L 248.718549 123.24448 
L 249.432261 122.643505 
L 249.590352 122.70876 
L 249.717504 122.430577 
L 249.771009 122.667955 
L 249.921267 122.574868 
L 249.927674 122.654258 
L 250.164613 122.733787 
L 250.183703 122.453475 
L 250.256157 122.612879 
L 250.368054 122.425134 
L 250.370109 122.505022 
L 250.602337 122.476738 
L 250.769427 122.798737 
L 251.025649 122.676395 
L 251.116211 122.757503 
L 251.173344 122.66242 
L 251.214745 122.471744 
L 251.231705 122.552959 
L 251.619265 122.879279 
L 252.129845 122.563181 
L 252.343504 122.727688 
L 252.394268 122.519878 
L 252.420637 122.602466 
L 252.520155 122.505338 
L 252.522194 122.588064 
L 252.591032 122.837146 
L 252.615376 122.54454 
L 252.759897 122.711277 
L 252.797953 122.613357 
L 252.828572 122.515257 
L 252.832875 122.598829 
L 252.938491 122.682554 
L 253.261207 122.257731 
L 253.504631 121.541061 
L 253.907534 121.338991 
L 254.032587 121.03446 
L 254.113692 121.202749 
L 254.139774 121.100824 
L 254.450678 120.485213 
L 254.49986 120.569475 
L 254.677122 120.73848 
L 254.694938 120.635143 
L 254.983009 120.40862 
L 254.992547 120.493453 
L 255.272092 120.160515 
L 255.277021 120.055529 
L 255.286258 120.140594 
L 255.629299 120.291509 
L 255.67441 120.186041 
L 255.678402 120.271726 
L 255.785119 120.337866 
L 255.818203 120.125788 
L 255.864452 120.211915 
L 255.937268 120.298211 
L 256.163706 119.978423 
L 256.175968 119.87141 
L 256.208309 120.044348 
L 256.718469 120.305031 
L 256.79448 120.090172 
L 256.994971 120.244471 
L 257.078936 120.115869 
L 257.126703 120.203697 
L 257.207604 120.46823 
L 257.251379 120.3394 
L 257.387186 120.10033 
L 257.42243 120.189112 
L 257.67216 120.456532 
L 257.71253 120.236776 
L 257.738455 120.326235 
L 257.82553 120.415874 
L 257.881194 120.305621 
L 257.913426 120.395421 
L 258.166861 120.575568 
L 258.193681 120.465029 
L 258.237117 120.354265 
L 258.385871 120.444572 
L 258.761496 120.312774 
L 258.823173 120.403407 
L 259.032472 120.180165 
L 259.157044 120.249896 
L 259.428779 119.890592 
L 259.476017 119.98182 
L 259.520156 120.073237 
L 259.719409 119.960001 
L 259.731736 120.051585 
L 259.736974 120.14336 
L 259.84165 120.029844 
L 259.919542 119.802102 
L 259.94116 119.893999 
L 260.036561 119.986088 
L 260.053988 119.871814 
L 260.111374 119.734761 
L 260.146215 119.827166 
L 260.253831 119.689394 
L 260.315488 119.782141 
L 260.354212 119.666567 
L 260.535471 119.318379 
L 260.64279 119.085023 
L 260.666321 118.967974 
L 260.691921 119.060742 
L 260.777859 119.153708 
L 260.816649 119.036357 
L 260.909761 119.222832 
L 261.025113 119.598179 
L 261.089272 119.480425 
L 261.137262 119.57474 
L 261.22812 119.763979 
L 261.241556 119.740796 
L 261.369878 119.503812 
L 261.767237 119.360805 
L 261.976577 119.527557 
L 262.029447 119.383533 
L 262.106704 119.479496 
L 262.202112 119.359161 
L 262.464347 119.551666 
L 262.497641 119.431013 
L 262.647667 119.527557 
L 262.655817 119.406612 
L 262.722684 119.16392 
L 262.744147 119.260595 
L 262.887672 119.527557 
L 262.892723 119.405401 
L 263.148919 119.011632 
L 263.320713 119.182061 
L 263.632677 119.379154 
L 263.744937 119.577136 
L 263.85585 119.776014 
L 263.859846 119.651926 
L 264.067199 119.001031 
L 264.358032 119.578164 
L 264.469798 119.451558 
L 264.536937 119.552919 
L 264.617284 119.425991 
L 264.669376 119.527557 
L 264.893376 119.629358 
L 265.275192 119.3745 
L 265.309219 119.476479 
L 265.462273 119.578695 
L 265.65121 119.424923 
L 265.657474 119.527557 
L 265.716199 119.398964 
L 265.741351 119.501808 
L 265.838975 119.372883 
L 265.9559 119.579236 
L 266.150381 119.865459 
L 266.757605 120.791651 
L 266.770556 120.898636 
L 266.825319 120.744819 
L 266.862984 120.852263 
L 266.993055 120.697533 
L 266.994214 120.805441 
L 267.182756 120.541674 
L 267.250031 120.649786 
L 267.30855 120.866803 
L 267.327001 120.73435 
L 267.360239 120.601573 
L 267.401636 120.710421 
L 267.484906 120.928918 
L 267.49759 120.795727 
L 267.789758 120.90535 
L 267.848162 120.771802 
L 267.88262 120.881665 
L 268.146389 121.078892 
L 268.250905 120.944566 
L 268.312161 121.055462 
L 268.354761 120.920773 
L 268.486637 120.625739 
L 268.600013 120.848678 
L 268.636149 120.712546 
L 268.755276 120.439255 
L 268.913995 120.551051 
L 269.099677 120.276317 
L 269.129058 120.138429 
L 269.324369 119.834545 
L 269.379266 119.555536 
L 269.421742 119.780012 
L 269.552986 119.612032 
L 269.557905 119.724919 
L 269.699822 119.924319 
L 269.702591 119.782948 
L 269.768371 119.499107 
L 270.095141 119.928981 
L 270.224592 119.585356 
L 270.288455 119.701182 
L 270.552842 119.933754 
L 270.925886 120.586045 
L 271.208838 120.824738 
L 271.218575 120.944566 
L 271.21867 120.798669 
L 271.259247 120.918784 
L 271.44392 121.013594 
L 271.521273 120.866803 
L 271.53489 120.987826 
L 271.595078 121.109177 
L 271.779937 121.230859 
L 271.890414 120.935866 
L 271.903162 121.05781 
L 271.977191 120.883337 
L 272.013391 120.73435 
L 272.025993 120.856855 
L 272.525186 120.2282 
L 272.534797 120.351193 
L 272.719042 120.474529 
L 272.820114 120.170843 
L 272.822945 120.294444 
L 273.294377 120.91766 
L 273.316367 121.169408 
L 273.380758 120.836029 
L 273.538164 120.808509 
L 273.573486 120.653897 
L 273.726193 120.498845 
L 273.773917 120.625739 
L 273.843795 120.597419 
L 274.066682 120.128002 
L 274.06962 120.255458 
L 274.344886 120.383283 
L 274.388794 120.067907 
L 274.51376 119.909533 
L 274.529969 120.037598 
L 274.752096 120.683538 
L 274.950016 120.36488 
L 274.999493 120.495118 
L 275.038492 120.625739 
L 275.062298 120.465621 
L 275.483954 120.727933 
L 275.633805 120.831037 
L 275.717205 120.640468 
L 275.795027 120.478222 
L 275.914128 120.610965 
L 275.977464 120.448188 
L 276.034249 120.71478 
L 276.093927 120.551426 
L 276.233582 120.223238 
L 276.274237 120.491166 
L 276.633583 121.031915 
L 276.67801 120.866803 
L 276.682709 120.701186 
L 276.919718 120.837315 
L 277.009 120.504467 
L 277.09928 120.640921 
L 277.25902 120.91509 
L 277.393123 121.329527 
L 277.445744 121.301018 
L 277.591812 120.96443 
L 277.799577 120.795349 
L 277.87465 121.074292 
L 278.096758 120.563577 
L 278.191105 120.220416 
L 278.353427 120.500629 
L 278.418814 120.328133 
L 278.579978 120.468856 
L 278.65539 120.29576 
L 278.655522 120.436879 
L 278.663855 120.578449 
L 278.739229 120.404699 
L 278.822043 120.689095 
L 278.855289 120.657519 
L 278.92689 120.482498 
L 278.931762 120.625739 
L 279.003225 120.913612 
L 279.013435 120.737871 
L 279.264758 120.384674 
L 279.410288 120.965438 
L 279.547295 120.609509 
L 279.563024 120.755786 
L 279.750805 121.345739 
L 279.766514 121.166634 
L 280.247381 122.468451 
L 280.258444 122.622602 
L 280.301763 122.4411 
L 280.361683 122.595731 
L 280.625733 123.534692 
L 280.652349 123.5106 
L 280.800252 123.143753 
L 280.80109 122.959375 
L 280.947074 122.774355 
L 280.980961 122.933068 
L 281.052536 122.747357 
L 281.122254 122.906578 
L 281.269581 122.720169 
L 281.665718 123.662806 
L 281.762521 123.990756 
L 281.872639 124.155609 
L 281.992148 123.589055 
L 282.059685 123.398845 
L 282.088745 123.564117 
L 282.127975 123.729985 
L 282.162496 123.538999 
L 282.245167 123.321276 
L 282.324311 123.128153 
L 282.43531 123.462541 
L 282.62778 123.268616 
L 282.635945 123.073979 
L 282.678793 123.241995 
L 282.850948 123.046592 
L 282.909026 122.62447 
L 282.969526 122.764735 
L 283.024011 122.365555 
L 283.232694 122.53571 
L 283.314077 121.728072 
L 283.424377 121.524251 
L 283.428752 121.694747 
L 283.47026 121.865891 
L 283.505555 121.661167 
L 283.611889 122.00529 
L 283.633425 121.799657 
L 283.798169 121.141905 
L 283.813658 121.315295 
L 283.943133 121.105527 
L 284.042048 121.27952 
L 284.228901 121.068865 
L 284.342969 121.771386 
L 284.453195 121.34703 
L 284.456848 121.524251 
L 284.570639 121.880804 
L 284.7158 122.060143 
L 284.786302 121.200138 
L 284.843538 121.343099 
L 284.967651 121.124912 
L 284.992754 121.305989 
L 285.116967 121.086841 
L 285.138263 121.230859 
L 285.251521 121.414004 
L 285.626215 120.440806 
L 285.635998 120.625739 
L 285.878673 120.398766 
L 285.988594 119.666567 
L 286.088649 119.8526 
L 286.095775 120.039421 
L 286.146355 119.807348 
L 286.17817 119.994868 
L 286.309388 120.183188 
L 286.319116 119.949934 
L 286.596579 120.47631 
L 286.645093 120.668525 
L 286.742393 120.432783 
L 287.013641 120.819535 
L 287.040113 120.582579 
L 287.05257 120.344585 
L 287.197687 120.53904 
L 287.274938 120.299904 
L 287.275865 120.495118 
L 287.434879 120.209355 
L 287.446179 120.406102 
L 287.952457 121.973507 
L 288.017265 121.728924 
L 288.144091 121.441819 
L 288.195625 121.8555 
L 288.349891 121.607254 
L 288.430873 122.024583 
L 288.541599 121.524251 
L 288.701822 121.734184 
L 288.741617 121.228965 
L 288.816443 121.396802 
L 288.828656 121.609418 
L 288.887708 121.353512 
L 289.066515 121.781582 
L 289.328197 123.432203 
L 289.397333 123.65933 
L 289.412121 123.397081 
L 289.415551 123.133527 
L 289.448477 123.361608 
L 289.528899 123.59083 
L 289.711998 123.021772 
L 289.713663 123.253034 
L 289.716209 123.485471 
L 289.81816 123.178801 
L 290.004276 123.413431 
L 290.031138 123.649267 
L 290.05169 123.064558 
L 290.076655 122.747357 
L 290.09207 122.986397 
L 290.167946 123.226696 
L 290.364724 122.623495 
L 290.48145 122.86603 
L 290.626429 122.581324 
L 290.637502 122.295093 
L 290.709655 122.538701 
L 290.858746 122.783622 
L 290.861922 122.495616 
L 290.930144 122.989217 
L 291.056919 123.488213 
L 291.093737 123.198192 
L 291.516793 123.956688 
L 291.598338 123.371193 
L 291.637465 123.62662 
L 291.706349 123.331315 
L 291.768365 123.588061 
L 291.850002 123.290989 
L 291.927324 123.808605 
L 291.944335 124.069612 
L 292.005151 123.770532 
L 292.108592 123.429406 
L 292.150934 123.3886 
L 292.249173 123.920284 
L 292.497889 122.9513 
L 292.541069 123.220558 
L 292.822077 122.590735 
L 293.006481 123.133527 
L 293.102226 123.089228 
L 293.135114 122.769178 
L 293.170319 123.044393 
L 293.208964 123.321276 
L 293.263496 122.999013 
L 293.354211 122.348574 
L 293.54287 121.580233 
L 293.635004 121.861193 
L 293.74546 121.524251 
L 293.971077 121.806802 
L 293.975455 122.091136 
L 294.035294 121.410154 
L 294.166263 121.928726 
L 294.233013 121.58222 
L 294.299634 121.873188 
L 294.548338 121.173041 
L 294.550041 121.465525 
L 294.744424 121.111819 
L 294.982919 121.406026 
L 295.114643 122.245465 
L 295.181629 121.524251 
L 295.366647 121.827803 
L 295.368227 122.133412 
L 295.457414 121.401587 
L 295.549691 121.708877 
L 295.568663 121.338991 
L 295.705437 120.966554 
L 295.873381 121.275528 
L 295.989876 120.833088 
L 296.098127 120.452342 
L 296.408817 121.079757 
L 296.460208 120.695835 
L 296.47254 121.012643 
L 296.77391 122.631114 
L 297.094039 122.243061 
L 297.105496 122.573609 
L 297.184437 122.182502 
L 297.337812 122.515257 
L 297.341862 122.121049 
L 297.712235 123.476076 
L 297.730135 123.078069 
L 297.84159 122.617498 
L 297.862686 122.964614 
L 298.017631 122.146298 
L 298.224873 120.471307 
L 298.279741 120.819535 
L 298.367323 120.392267 
L 298.447164 120.742936 
L 298.555585 120.230393 
L 298.66461 120.586045 
L 298.687876 120.147498 
L 298.698328 120.505694 
L 298.9291 120.063255 
L 299.065259 118.714089 
L 299.284881 118.256933 
L 299.311069 117.795984 
L 299.445835 118.15483 
L 299.463385 117.689596 
L 299.497758 118.05101 
L 299.913361 116.511092 
L 299.957764 116.876773 
L 299.994237 117.245621 
L 300.223151 117.99298 
L 300.228826 118.371576 
L 300.519451 118.753508 
L 300.530541 118.264162 
L 300.704914 117.770466 
L 300.917264 120.944566 
L 300.99348 121.35786 
L 301.017067 121.272332 
L 301.188941 120.764945 
L 301.223416 120.252771 
L 301.252451 120.672581 
L 301.562465 121.096388 
L 302.017912 121.524251 
L 302.152251 120.482498 
L 302.191279 120.913612 
L 302.214481 120.384674 
L 302.215388 119.850551 
L 302.299893 120.284924 
L 302.497039 120.723596 
L 302.661118 121.614102 
L 302.963674 122.983764 
L 303.085679 123.449635 
L 303.104875 124.395785 
L 303.28804 124.876214 
L 303.552805 124.332102 
L 303.658603 125.307461 
L 303.757289 125.802881 
L 303.945443 125.252122 
L 304.293976 124.695471 
L 304.390619 125.195592 
L 304.420955 124.632618 
L 304.730951 125.137833 
L 304.998014 124.568391 
L 305.099284 125.078806 
L 305.195158 125.018466 
L 305.275827 124.435632 
L 305.36268 124.95677 
L 305.447617 124.367002 
L 305.757365 125.426362 
L 305.79561 124.829124 
L 306.009726 124.224982 
L 306.022477 124.763075 
L 306.156301 125.307461 
L 306.175006 124.695471 
L 306.264714 125.2459 
L 306.622245 126.936976 
L 306.776818 125.688089 
L 306.942983 126.264869 
L 307.103859 124.984361 
L 307.169733 125.567557 
L 307.484981 126.158089 
L 307.774788 125.505002 
L 308.18682 129.208897 
L 308.459386 129.85483 
L 308.482139 130.509375 
L 308.800968 128.492306 
L 309.013654 130.509375 
L 309.197679 129.097427 
L 309.289554 130.509375 
L 309.371926 129.787942 
L 309.439835 127.559036 
L 309.973335 126.793722 
L 310.079361 127.514334 
L 310.236209 126.678508 
L 310.577004 127.420739 
L 310.674499 125.802881 
L 310.684679 126.55592 
L 310.80478 127.321105 
L 311.07531 125.64857 
L 311.475798 127.21483 
L 311.482909 128.017702 
L 311.869974 126.285599 
L 311.94391 125.307461 
L 311.952074 126.136085 
L 312.161972 126.979505 
L 312.238158 126.057287 
L 312.329921 126.915325 
L 312.805134 123.050027 
L 312.817123 123.920284 
L 313.354026 128.532648 
L 313.59256 129.511028 
L 314.202645 130.509375 
L 314.216975 131.528307 
L 314.462758 129.468992 
L 314.756699 130.509375 
L 314.997438 128.360758 
L 315.170764 131.619896 
L 315.368531 128.210855 
L 315.429911 125.802881 
L 315.796797 124.555377 
L 316.07542 120.105547 
L 316.091371 121.284648 
L 316.174249 119.824363 
L 316.187638 118.32407 
L 316.34362 116.782102 
L 316.371693 117.980822 
L 317.060495 121.788519 
L 317.871592 120.183188 
L 317.880622 121.524251 
L 317.911313 119.865459 
L 318.116944 118.15483 
L 318.146821 116.389894 
L 318.500016 119.167497 
L 318.514997 117.331193 
L 318.86933 115.432642 
L 319.286588 109.330154 
L 319.469874 110.742102 
L 319.510881 108.545739 
L 319.525487 109.996167 
L 319.753538 107.700983 
L 319.826727 109.191728 
L 320.328776 106.788648 
L 320.558636 108.32162 
L 320.601322 105.800284 
L 320.676858 107.37746 
L 320.69706 109.023209 
L 320.766827 106.349375 
L 320.841164 108.046565 
L 321.439082 109.822694 
L 321.985797 113.634874 
L 322.100536 110.742102 
L 322.45526 112.769515 
L 322.842789 117.15311 
L 322.921455 114.036648 
L 322.988523 116.389894 
L 323.451408 118.881568 
L 323.635839 121.524251 
L 323.646481 118.15483 
L 323.894286 120.944566 
L 324.687597 117.331193 
L 325.391724 113.468623 
L 325.790479 109.330154 
L 325.803476 112.206345 
L 326.099542 115.303781 
L 326.705842 118.649011 
L 326.751984 114.036648 
L 327.734275 117.617675 
L 328.446327 121.524251 
L 328.634384 116.389894 
L 328.9808 110.742102 
L 329.911439 114.903633 
L 330.097214 108.545739 
L 330.152852 113.067664 
L 330.59831 118.15483 
L 331.011644 110.742102 
L 331.260086 102.270414 
L 331.475213 107.700983 
L 331.60549 121.524251 
L 332.383225 110.742102 
L 333.020226 97.56392 
L 333.203823 105.800284 
L 333.924354 116.389894 
L 334.500751 97.56392 
L 335.580518 110.742102 
L 338.978567 130.509375 
L 339.33893 97.56392 
L 339.823509 31.673011 
L 347.681818 31.673011 
L 347.681818 31.673011 
" style="fill:none;stroke:#0272a2;stroke-linecap:round;stroke-width:1.75;"/>
   </g>
   <g id="line2d_22">
    <path clip-path="url(#p32b7a64536)" d="M 43.318182 31.798518 
L 43.491961 31.924024 
L 50.27782 31.924024 
L 50.502984 32.049531 
L 51.101759 32.049531 
L 51.281345 32.175037 
L 52.930184 32.175037 
L 53.015515 32.300544 
L 61.697145 32.300544 
L 61.910048 32.42605 
L 63.670757 32.42605 
L 63.857428 32.551557 
L 64.265725 32.551557 
L 64.358878 32.677063 
L 65.412481 32.677063 
L 65.584605 32.80257 
L 65.929501 32.80257 
L 65.93552 32.928076 
L 68.649 32.928076 
L 68.773786 33.053583 
L 69.956937 33.053583 
L 70.074676 33.179089 
L 70.143739 33.179089 
L 70.652766 33.304596 
L 73.079803 33.304596 
L 73.183333 33.555609 
L 78.181987 33.555609 
L 78.603355 33.806622 
L 78.917314 33.806622 
L 79.049581 34.057635 
L 80.865166 34.057635 
L 80.982928 34.183141 
L 81.246452 34.183141 
L 81.419925 34.308648 
L 83.932657 34.308648 
L 83.984891 34.434154 
L 86.027047 34.434154 
L 86.087986 34.559661 
L 86.975744 34.559661 
L 87.094233 34.810674 
L 87.502063 34.810674 
L 87.519745 34.93618 
L 88.166953 34.93618 
L 88.227649 35.061687 
L 88.482268 35.061687 
L 88.595402 35.187193 
L 88.610268 35.187193 
L 88.695302 35.438206 
L 88.917509 35.438206 
L 89.030301 35.689219 
L 89.673268 35.689219 
L 89.721332 35.814726 
L 90.508161 35.814726 
L 90.621075 36.065739 
L 90.959431 36.065739 
L 91.144745 36.191245 
L 91.451915 36.191245 
L 91.553831 36.316752 
L 91.789703 36.316752 
L 91.829943 36.442258 
L 92.028028 36.442258 
L 92.224485 36.567765 
L 92.259333 36.567765 
L 92.423143 36.693271 
L 92.547514 36.693271 
L 92.683601 36.818778 
L 92.720745 36.818778 
L 92.786498 36.944284 
L 93.701977 36.944284 
L 94.216884 37.069791 
L 94.41236 37.069791 
L 94.711911 37.195297 
L 96.120789 37.195297 
L 96.579394 37.44631 
L 96.849947 37.44631 
L 96.987576 37.571817 
L 97.542787 37.571817 
L 97.633867 37.697323 
L 98.500909 37.697323 
L 98.745032 37.948336 
L 99.340522 37.948336 
L 99.748045 38.324856 
L 99.961921 38.324856 
L 100.088359 38.575869 
L 100.380161 38.575869 
L 100.581174 38.826881 
L 100.935561 38.826881 
L 101.039332 38.952388 
L 101.263078 38.952388 
L 101.403841 39.077894 
L 101.46899 39.077894 
L 101.470665 39.203401 
L 102.002592 39.203401 
L 102.110985 39.328907 
L 102.449044 39.328907 
L 103.201998 39.57992 
L 103.323569 39.705427 
L 103.45304 39.705427 
L 103.47682 39.830933 
L 104.161024 39.830933 
L 104.253103 39.95644 
L 104.65262 39.95644 
L 104.657056 40.081946 
L 104.993564 40.332959 
L 105.111215 40.332959 
L 105.258423 40.458466 
L 105.327123 40.458466 
L 105.401309 40.709479 
L 105.571305 40.709479 
L 105.700197 40.834985 
L 106.662287 40.834985 
L 106.788561 41.211505 
L 107.060484 41.462518 
L 107.150916 41.462518 
L 107.308499 41.713531 
L 107.530414 41.713531 
L 108.130799 41.839037 
L 108.20468 41.839037 
L 108.236338 41.964544 
L 108.490007 41.964544 
L 108.636828 42.09005 
L 108.833217 42.09005 
L 108.988669 42.341063 
L 109.102288 42.341063 
L 109.22146 42.46657 
L 109.259992 42.46657 
L 109.371715 42.592076 
L 110.054195 42.592076 
L 110.240457 42.843089 
L 110.496137 42.843089 
L 110.710008 43.094102 
L 111.527277 43.094102 
L 111.595157 43.219609 
L 111.855004 43.219609 
L 112.008809 43.345115 
L 112.38911 43.345115 
L 112.95924 43.596128 
L 113.064387 43.596128 
L 113.139741 43.721635 
L 113.419702 43.721635 
L 113.558964 43.847141 
L 114.618789 43.847141 
L 114.650997 43.972648 
L 117.504864 43.972648 
L 117.650486 44.223661 
L 117.729329 44.223661 
L 118.197882 44.851193 
L 118.541372 44.851193 
L 118.640413 44.9767 
L 118.807915 44.9767 
L 119.043791 45.227713 
L 119.196249 45.478726 
L 119.57193 45.478726 
L 119.719345 45.729739 
L 119.940668 45.729739 
L 120.044939 45.980752 
L 120.6202 45.980752 
L 120.915 46.106258 
L 120.997472 46.106258 
L 121.287079 46.482778 
L 121.619774 46.482778 
L 121.719284 46.608284 
L 121.75076 46.608284 
L 121.835594 46.733791 
L 122.708538 46.733791 
L 122.817467 46.859297 
L 123.148545 46.859297 
L 123.519159 47.11031 
L 123.917782 47.11031 
L 124.036424 47.235817 
L 124.467451 47.235817 
L 124.586042 47.48683 
L 124.669142 47.48683 
L 124.799342 47.612336 
L 124.971271 47.612336 
L 125.201499 47.737843 
L 125.293935 47.737843 
L 125.611764 48.114362 
L 126.437845 48.114362 
L 126.817099 48.239869 
L 127.147726 48.239869 
L 127.255919 48.365375 
L 127.619485 48.490881 
L 127.780631 48.490881 
L 127.979632 48.992907 
L 128.582425 49.62044 
L 128.681969 49.745946 
L 128.887011 49.871453 
L 129.575022 50.122466 
L 129.919 50.122466 
L 130.014116 50.247972 
L 130.307097 50.247972 
L 130.324554 50.373479 
L 130.664485 50.373479 
L 130.69825 50.498985 
L 131.758981 50.498985 
L 131.968608 50.624492 
L 132.308688 50.875505 
L 133.093074 50.875505 
L 133.250913 51.001011 
L 133.536916 51.126518 
L 133.649038 51.126518 
L 133.799932 51.252024 
L 133.844632 51.252024 
L 133.883194 51.377531 
L 134.303392 51.377531 
L 134.47427 51.628544 
L 136.104325 51.628544 
L 136.292516 51.75405 
L 136.621602 51.75405 
L 136.772402 51.879557 
L 137.421849 51.879557 
L 137.496688 52.13057 
L 137.706954 52.13057 
L 138.034598 52.632596 
L 138.865442 52.632596 
L 139.284771 52.883609 
L 139.443416 52.883609 
L 139.567926 53.134622 
L 139.884007 53.134622 
L 140.033201 53.260128 
L 140.132391 53.260128 
L 140.425629 53.511141 
L 140.608415 53.511141 
L 140.828288 53.762154 
L 141.091267 53.762154 
L 141.163991 53.887661 
L 142.085613 54.389687 
L 142.314309 54.389687 
L 142.444427 54.6407 
L 142.766841 54.6407 
L 143.155708 55.268232 
L 143.629917 55.268232 
L 143.952532 55.644752 
L 144.329729 55.644752 
L 144.358073 55.770258 
L 144.643654 55.895765 
L 144.69664 55.895765 
L 144.810484 56.146778 
L 144.846032 56.272284 
L 145.217814 56.397791 
L 145.675815 56.397791 
L 146.311778 57.025323 
L 146.661042 57.025323 
L 147.25526 57.527349 
L 147.471452 57.527349 
L 147.665856 57.778362 
L 147.798069 57.778362 
L 147.813431 57.903869 
L 147.942366 57.903869 
L 147.960949 58.029375 
L 148.591509 58.029375 
L 148.741489 58.405894 
L 148.959718 58.405894 
L 149.026691 58.531401 
L 149.529659 58.656907 
L 149.626088 58.656907 
L 149.68536 58.90792 
L 150.206691 58.90792 
L 150.352149 59.28444 
L 150.446802 59.28444 
L 150.514095 59.409946 
L 151.237235 59.409946 
L 151.437136 59.535453 
L 151.505695 59.535453 
L 151.605077 59.786466 
L 151.702344 59.786466 
L 151.761957 59.911972 
L 152.162393 59.911972 
L 152.622028 60.288492 
L 152.697469 60.288492 
L 152.91229 60.539505 
L 153.070836 60.539505 
L 153.175154 60.790518 
L 153.794693 60.790518 
L 154.369578 61.041531 
L 154.493161 61.041531 
L 155.0011 61.292544 
L 155.874864 61.292544 
L 156.251377 61.669063 
L 156.319387 61.79457 
L 156.813163 61.79457 
L 156.936174 61.920076 
L 157.198526 61.920076 
L 157.320498 62.296596 
L 157.396695 62.296596 
L 157.505421 62.673115 
L 157.928398 63.049635 
L 158.148603 63.049635 
L 158.550632 63.426154 
L 158.864367 63.426154 
L 159.598289 63.677167 
L 159.747006 63.677167 
L 160.209161 64.179193 
L 160.387464 64.179193 
L 160.635963 64.681219 
L 160.712558 64.681219 
L 160.807489 64.806726 
L 160.964514 64.806726 
L 161.084211 65.057739 
L 161.498042 65.183245 
L 161.660825 65.183245 
L 161.845438 65.559765 
L 161.858916 65.685271 
L 162.15548 65.685271 
L 162.487644 66.689323 
L 162.593067 66.689323 
L 162.760813 66.81483 
L 163.001229 67.065843 
L 163.137227 67.191349 
L 163.390548 67.442362 
L 163.481233 67.442362 
L 163.567559 67.693375 
L 163.640389 67.693375 
L 163.919837 67.944388 
L 164.023221 68.320907 
L 164.141754 68.320907 
L 164.223391 68.446414 
L 164.432517 68.446414 
L 164.481656 68.57192 
L 164.706711 68.57192 
L 164.984634 68.822933 
L 165.196498 68.822933 
L 165.335502 69.199453 
L 165.69784 69.199453 
L 165.78438 69.324959 
L 166.038813 69.324959 
L 166.307077 69.701479 
L 166.40189 69.701479 
L 166.539003 70.077998 
L 166.791444 70.077998 
L 167.297554 70.705531 
L 167.460855 70.831037 
L 167.830355 70.831037 
L 168.135112 71.08205 
L 168.291792 71.207557 
L 168.421146 71.207557 
L 168.504855 71.45857 
L 168.580398 71.45857 
L 168.75477 71.709583 
L 168.916262 71.709583 
L 169.120494 72.086102 
L 169.60557 72.086102 
L 169.762635 72.211609 
L 169.795932 72.211609 
L 169.942146 72.462622 
L 169.986579 72.588128 
L 170.131265 72.588128 
L 170.262154 72.964648 
L 170.451794 73.090154 
L 170.75637 73.090154 
L 170.951873 73.215661 
L 171.064387 73.215661 
L 171.633964 73.843193 
L 171.775584 74.094206 
L 172.009328 74.094206 
L 172.320161 74.345219 
L 172.398589 74.596232 
L 172.893074 74.596232 
L 172.902344 74.721739 
L 173.187024 74.972752 
L 173.418975 74.972752 
L 173.769618 75.223765 
L 173.962513 75.223765 
L 174.032885 75.349271 
L 174.098809 75.349271 
L 174.202693 75.600284 
L 174.32874 75.976804 
L 174.445338 75.976804 
L 174.803444 76.47883 
L 175.171052 76.47883 
L 175.580351 76.855349 
L 176.13016 77.106362 
L 176.265363 77.106362 
L 176.286353 77.231869 
L 176.56877 77.231869 
L 176.68005 77.357375 
L 177.248665 77.859401 
L 177.525538 77.859401 
L 177.601413 77.984907 
L 177.783293 77.984907 
L 178.009406 78.61244 
L 178.160253 78.61244 
L 178.503576 78.988959 
L 178.582589 78.988959 
L 179.000496 79.490985 
L 179.063115 79.490985 
L 179.403323 80.118518 
L 179.714398 80.244024 
L 180.485016 80.244024 
L 180.59001 80.369531 
L 180.817768 80.369531 
L 181.517 80.74605 
L 181.676066 80.74605 
L 181.71694 80.871557 
L 182.89044 82.252128 
L 183.151339 82.252128 
L 183.248995 82.503141 
L 183.545217 82.879661 
L 183.852857 82.879661 
L 183.990449 83.130674 
L 184.063756 83.130674 
L 184.123057 83.381687 
L 184.351661 83.381687 
L 184.685054 84.009219 
L 185.341834 84.636752 
L 185.611635 84.636752 
L 185.763086 85.013271 
L 185.947389 85.013271 
L 186.334937 85.515297 
L 186.618602 85.640804 
L 186.756579 85.640804 
L 186.911411 86.017323 
L 186.977052 86.017323 
L 187.788599 86.770362 
L 187.996629 86.770362 
L 188.2244 87.146881 
L 188.63911 87.146881 
L 188.668345 87.272388 
L 188.880967 87.272388 
L 189.114761 87.397894 
L 189.267946 87.397894 
L 189.430407 87.648907 
L 189.634869 88.150933 
L 190.192419 88.150933 
L 190.773788 88.652959 
L 190.980402 88.652959 
L 191.110205 88.778466 
L 191.298782 88.778466 
L 191.517211 89.154985 
L 191.900776 89.531505 
L 192.148871 89.531505 
L 192.285557 89.657011 
L 192.712516 89.908024 
L 192.876309 90.033531 
L 192.971064 90.033531 
L 193.317346 90.284544 
L 193.883392 90.284544 
L 193.892964 90.41005 
L 194.151235 90.661063 
L 194.319997 90.912076 
L 194.525781 91.163089 
L 194.698875 91.163089 
L 194.723525 91.288596 
L 194.897688 91.288596 
L 195.131627 91.916128 
L 195.377474 91.916128 
L 195.460455 92.041635 
L 195.622053 92.041635 
L 195.625456 92.167141 
L 196.163564 92.418154 
L 196.34249 92.418154 
L 196.481767 92.543661 
L 196.916746 92.92018 
L 197.238627 93.547713 
L 197.789806 94.300752 
L 197.921746 94.551765 
L 198.080941 94.551765 
L 198.221387 94.677271 
L 198.25037 94.677271 
L 198.776621 95.43031 
L 198.852678 95.43031 
L 198.979105 95.681323 
L 199.048136 95.681323 
L 199.170772 95.932336 
L 199.813889 95.932336 
L 199.901617 96.183349 
L 200.229898 96.183349 
L 200.401818 96.559869 
L 200.655537 96.559869 
L 200.790856 96.936388 
L 201.09261 96.936388 
L 201.300335 97.187401 
L 202.039178 98.316959 
L 202.60109 98.944492 
L 202.916223 99.069998 
L 203.06211 99.069998 
L 203.393909 100.07405 
L 203.664784 100.07405 
L 203.755788 100.199557 
L 204.012601 100.325063 
L 204.124608 100.325063 
L 204.382552 100.576076 
L 204.660305 100.576076 
L 204.916862 100.827089 
L 205.079037 101.203609 
L 205.307485 101.203609 
L 205.469894 101.454622 
L 205.592233 101.454622 
L 205.717084 101.705635 
L 205.839534 101.956648 
L 205.897783 102.082154 
L 206.176645 102.082154 
L 206.401362 102.333167 
L 206.609989 102.333167 
L 206.843304 102.58418 
L 207.156478 102.835193 
L 207.281069 102.835193 
L 207.404585 102.9607 
L 207.787722 102.9607 
L 207.96137 103.588232 
L 208.12912 103.588232 
L 208.240648 103.713739 
L 208.567827 103.713739 
L 208.71574 104.090258 
L 208.989996 104.090258 
L 209.240127 104.341271 
L 209.35515 104.466778 
L 209.506386 104.843297 
L 209.975019 105.219817 
L 210.074842 105.219817 
L 210.294572 105.47083 
L 210.422394 105.47083 
L 210.501259 105.972856 
L 211.051943 106.976907 
L 211.243653 107.60444 
L 211.371181 107.729946 
L 211.836635 107.855453 
L 212.002706 107.855453 
L 212.102148 107.980959 
L 212.344731 108.231972 
L 212.525634 108.231972 
L 212.560447 108.608492 
L 212.765787 108.608492 
L 213.091561 108.859505 
L 213.413242 109.487037 
L 213.731982 110.11457 
L 213.830377 110.11457 
L 213.942661 110.365583 
L 214.051527 110.365583 
L 214.180086 110.491089 
L 214.422994 111.244128 
L 214.512139 111.495141 
L 214.64294 111.495141 
L 216.722538 113.503245 
L 216.722667 113.754258 
L 216.849595 113.754258 
L 217.571419 115.13483 
L 217.776542 115.13483 
L 217.906697 115.385843 
L 218.26725 116.013375 
L 218.355947 116.138881 
L 218.644965 116.389894 
L 218.667923 116.640907 
L 218.932737 117.017427 
L 218.945206 117.142933 
L 219.248986 117.26844 
L 219.354725 117.26844 
L 219.583557 117.644959 
L 220.053362 117.895972 
L 220.076258 117.895972 
L 220.288848 118.146985 
L 220.396813 118.146985 
L 220.649343 118.523505 
L 220.785845 118.523505 
L 220.97082 118.649011 
L 221.08514 118.649011 
L 221.172296 118.900024 
L 221.232056 118.900024 
L 221.376477 119.025531 
L 221.428212 119.151037 
L 221.579179 119.151037 
L 221.590725 119.276544 
L 222.105129 119.904076 
L 222.188829 120.029583 
L 222.414157 120.029583 
L 222.792881 120.531609 
L 222.900454 120.531609 
L 222.93345 120.908128 
L 223.1143 120.908128 
L 223.228337 121.033635 
L 223.496922 121.033635 
L 224.320994 122.414206 
L 224.412349 122.665219 
L 224.484183 122.665219 
L 224.707943 122.916232 
L 224.817147 123.041739 
L 225.047183 123.418258 
L 225.264925 124.296804 
L 225.333125 124.296804 
L 225.484405 124.79883 
L 225.559616 124.79883 
L 225.614279 125.049843 
L 225.709933 125.049843 
L 225.956608 125.426362 
L 226.147789 125.426362 
L 226.287654 125.677375 
L 226.441173 125.928388 
L 226.707061 126.681427 
L 226.78876 126.681427 
L 226.886105 126.93244 
L 227.335707 127.559972 
L 227.460639 127.685479 
L 227.785813 127.685479 
L 227.89254 128.061998 
L 227.944492 128.061998 
L 228.044966 128.564024 
L 228.088362 128.564024 
L 228.303671 128.815037 
L 228.35547 128.815037 
L 228.452814 129.191557 
L 228.577308 129.191557 
L 228.682655 129.317063 
L 228.805932 129.317063 
L 228.931496 129.568076 
L 229.085361 129.568076 
L 229.157554 129.693583 
L 229.474884 129.693583 
L 229.500834 129.944596 
L 229.644511 130.070102 
L 229.826118 130.070102 
L 229.912033 130.195609 
L 230.222206 130.446622 
L 230.781202 131.074154 
L 230.791287 131.199661 
L 231.061326 131.199661 
L 231.63306 131.57618 
L 231.868159 131.57618 
L 232.318278 132.078206 
L 232.495527 132.078206 
L 232.50026 132.454726 
L 232.973349 132.705739 
L 233.226631 133.333271 
L 233.229901 133.333271 
L 233.235489 133.458778 
L 233.492881 133.458778 
L 233.61832 134.08631 
L 234.128311 134.08631 
L 234.404418 134.337323 
L 234.629989 134.588336 
L 234.6939 134.713843 
L 234.81423 134.713843 
L 234.94271 135.090362 
L 235.297149 135.466881 
L 235.435253 135.717894 
L 235.708381 135.717894 
L 236.046526 135.968907 
L 236.073236 135.968907 
L 236.300206 136.094414 
L 236.334834 136.094414 
L 236.413507 136.21992 
L 236.480277 136.21992 
L 236.531352 136.345427 
L 236.813483 136.345427 
L 236.883307 136.721946 
L 237.155083 136.721946 
L 237.340322 137.223972 
L 237.517788 137.223972 
L 237.803711 137.600492 
L 237.925679 138.228024 
L 237.991873 138.228024 
L 238.239841 138.855557 
L 238.465362 139.10657 
L 238.738565 139.10657 
L 238.914132 139.232076 
L 239.458874 139.232076 
L 239.543914 139.483089 
L 239.802826 139.483089 
L 240.271734 140.110622 
L 240.340857 140.110622 
L 240.830121 140.487141 
L 240.908246 140.738154 
L 241.224212 140.738154 
L 241.41954 141.114674 
L 241.70985 141.114674 
L 241.864452 141.491193 
L 241.894732 141.491193 
L 242.226641 142.495245 
L 242.620407 142.871765 
L 242.857086 143.248284 
L 242.905193 143.248284 
L 243.016608 143.499297 
L 243.038361 143.499297 
L 243.173712 143.75031 
L 243.460568 144.377843 
L 244.432273 145.632907 
L 244.735203 145.632907 
L 244.840579 145.88392 
L 245.18108 146.762466 
L 245.266829 146.762466 
L 245.66213 147.264492 
L 245.801812 147.264492 
L 245.90215 147.515505 
L 246.111027 147.515505 
L 246.243809 147.641011 
L 246.454548 147.766518 
L 246.650868 148.017531 
L 246.860908 148.519557 
L 247.098277 148.645063 
L 247.364395 148.645063 
L 247.490175 149.021583 
L 247.64396 149.021583 
L 247.691237 149.147089 
L 247.85466 149.147089 
L 248.068368 149.649115 
L 248.261758 149.900128 
L 248.516934 149.900128 
L 248.644477 150.151141 
L 248.817061 150.527661 
L 248.861024 150.527661 
L 249.007396 150.778674 
L 249.083654 150.778674 
L 249.595786 151.2807 
L 249.717504 151.2807 
L 249.771009 151.657219 
L 249.921267 151.657219 
L 249.927674 151.782726 
L 250.219932 152.033739 
L 250.370109 152.284752 
L 250.525751 152.284752 
L 250.641641 152.661271 
L 251.182855 153.41431 
L 251.214745 153.41431 
L 251.327124 153.665323 
L 251.910413 154.292856 
L 252.129845 154.292856 
L 252.420637 154.794881 
L 252.520155 154.794881 
L 252.615376 155.296907 
L 252.938491 155.798933 
L 253.223115 155.798933 
L 253.310502 156.049946 
L 253.343514 156.049946 
L 253.504631 156.175453 
L 254.032587 156.175453 
L 254.296192 156.426466 
L 254.450678 156.426466 
L 254.694938 156.802985 
L 254.766187 156.802985 
L 254.822807 156.928492 
L 254.983009 156.928492 
L 255.09817 157.053998 
L 255.203911 157.053998 
L 255.538558 157.681531 
L 255.67441 157.681531 
L 255.785119 158.05805 
L 255.818203 158.05805 
L 255.937268 158.309063 
L 256.175968 158.309063 
L 256.208309 158.560076 
L 257.078936 159.438622 
L 257.67216 160.693687 
L 257.71253 160.693687 
L 257.82553 160.9447 
L 257.881194 160.9447 
L 257.913426 161.070206 
L 259.332027 161.948752 
L 259.428779 162.074258 
L 259.520156 162.325271 
L 259.719409 162.325271 
L 259.84165 162.576284 
L 259.919542 162.576284 
L 260.0603 162.952804 
L 260.111374 162.952804 
L 260.315488 163.329323 
L 260.666321 163.329323 
L 260.816649 163.580336 
L 260.909761 163.831349 
L 261.025113 164.333375 
L 261.089272 164.333375 
L 261.369878 164.835401 
L 261.715188 164.835401 
L 262.106704 165.58844 
L 262.202112 165.58844 
L 262.647667 165.964959 
L 262.722684 165.964959 
L 262.892723 166.592492 
L 262.952575 166.592492 
L 263.000162 166.717998 
L 263.148919 166.717998 
L 263.320713 167.094518 
L 263.632677 167.345531 
L 263.744937 167.596544 
L 263.859846 167.847557 
L 264.000566 167.847557 
L 264.127658 168.349583 
L 264.21717 168.349583 
L 264.536937 168.977115 
L 264.617284 168.977115 
L 264.669376 169.102622 
L 264.893376 169.228128 
L 265.275192 169.228128 
L 265.309219 169.353635 
L 265.716199 169.730154 
L 265.838975 169.855661 
L 265.9559 170.106674 
L 266.150381 170.6087 
L 266.702979 171.612752 
L 266.862984 172.240284 
L 266.931556 172.240284 
L 266.994214 172.491297 
L 267.182756 172.491297 
L 267.49759 173.244336 
L 267.88262 173.495349 
L 268.636149 174.373894 
L 268.755276 174.373894 
L 269.053484 174.499401 
L 269.289264 174.499401 
L 269.421742 174.87592 
L 269.505054 174.87592 
L 269.84676 175.628959 
L 270.211263 176.256492 
L 270.288455 176.507505 
L 270.549962 176.633011 
L 270.613247 176.884024 
L 271.44392 178.515609 
L 271.521273 178.515609 
L 271.595078 178.766622 
L 272.013391 179.143141 
L 272.148785 179.394154 
L 272.525186 179.394154 
L 272.534797 179.519661 
L 272.944429 179.89618 
L 273.538164 180.900232 
L 273.726193 180.900232 
L 273.843795 181.151245 
L 274.066682 181.151245 
L 274.06962 181.276752 
L 274.529969 181.527765 
L 274.752096 182.155297 
L 274.950016 182.155297 
L 275.062298 182.40631 
L 275.483954 182.657323 
L 275.795027 183.033843 
L 276.394104 183.786881 
L 276.405338 183.912388 
L 277.303002 184.790933 
L 277.445744 185.167453 
L 277.799577 185.167453 
L 277.987621 185.418466 
L 278.191105 185.418466 
L 278.353427 185.669479 
L 278.418814 185.669479 
L 278.655522 185.920492 
L 278.773549 186.171505 
L 279.127509 186.799037 
L 279.264758 186.799037 
L 279.410288 187.301063 
L 279.547295 187.301063 
L 279.629694 187.803089 
L 279.842216 188.179609 
L 280.082337 188.807141 
L 280.218664 189.058154 
L 280.361683 189.56018 
L 280.652349 190.438726 
L 280.947074 190.438726 
L 281.122254 190.689739 
L 281.269581 190.689739 
L 281.579693 191.317271 
L 281.762521 191.819297 
L 281.992148 191.944804 
L 282.059685 191.944804 
L 282.245167 192.321323 
L 282.324311 192.321323 
L 282.43531 192.572336 
L 282.635945 192.572336 
L 282.678793 192.697843 
L 282.879065 192.697843 
L 283.024011 193.074362 
L 283.505555 193.450881 
L 284.042048 194.078414 
L 284.228901 194.078414 
L 284.342969 194.58044 
L 284.453195 194.58044 
L 284.570639 194.956959 
L 284.797955 195.207972 
L 284.843538 195.333479 
L 284.967651 195.333479 
L 284.992754 195.458985 
L 285.116967 195.458985 
L 285.251521 195.835505 
L 285.327249 195.835505 
L 285.477771 196.086518 
L 285.626215 196.086518 
L 285.635998 196.212024 
L 285.923781 196.212024 
L 285.988594 196.337531 
L 286.498497 197.09057 
L 286.645093 197.467089 
L 286.742393 197.467089 
L 287.274938 197.843609 
L 287.275865 197.969115 
L 287.416343 197.969115 
L 287.556706 198.471141 
L 287.809944 198.847661 
L 287.850201 199.098674 
L 287.938524 199.098674 
L 288.042747 199.349687 
L 288.195625 199.726206 
L 288.349891 199.726206 
L 288.430873 199.977219 
L 288.541599 199.977219 
L 288.751261 200.228232 
L 288.887708 200.479245 
L 289.066515 200.730258 
L 289.448477 202.361843 
L 290.076655 203.491401 
L 290.167946 203.742414 
L 290.236597 203.742414 
L 290.271204 203.86792 
L 290.364724 203.86792 
L 290.626429 203.993427 
L 290.637502 203.993427 
L 291.24216 204.871972 
L 291.598338 205.122985 
L 291.768365 205.373998 
L 291.850002 205.373998 
L 292.541069 206.503557 
L 292.822077 206.503557 
L 293.170319 207.005583 
L 293.276999 207.131089 
L 293.428816 207.131089 
L 293.54287 207.382102 
L 293.74546 207.507609 
L 294.035294 207.758622 
L 294.165502 208.009635 
L 294.233013 208.135141 
L 294.299634 208.260648 
L 294.548338 208.260648 
L 294.550041 208.386154 
L 294.744424 208.386154 
L 295.009548 208.637167 
L 295.146879 209.013687 
L 295.181629 209.013687 
L 295.883788 209.515713 
L 295.989876 209.641219 
L 296.098127 209.641219 
L 296.47254 210.017739 
L 296.77391 210.645271 
L 297.094039 210.645271 
L 297.184437 210.770778 
L 297.633858 211.272804 
L 297.997427 211.649323 
L 298.224873 211.649323 
L 298.447164 211.900336 
L 298.500772 211.900336 
L 298.555585 212.025843 
L 298.698328 212.276856 
L 299.311069 212.276856 
L 299.642372 212.527869 
L 299.868258 212.527869 
L 299.994237 212.904388 
L 300.223151 213.155401 
L 300.228826 213.280907 
L 300.717382 213.53192 
L 300.917264 214.410466 
L 301.188941 214.661479 
L 301.223416 214.661479 
L 301.252451 214.786985 
L 302.299893 215.289011 
L 302.555714 215.540024 
L 303.092576 216.293063 
L 303.104875 216.41857 
L 303.28804 216.544076 
L 303.552805 216.544076 
L 303.658603 216.795089 
L 303.757289 216.920596 
L 304.293976 216.920596 
L 304.420955 217.046102 
L 305.275827 217.422622 
L 305.447617 217.548128 
L 305.79561 217.799141 
L 306.009726 217.799141 
L 306.022477 217.924648 
L 306.942983 218.677687 
L 307.103859 218.677687 
L 307.169733 218.803193 
L 307.901827 219.179713 
L 308.18682 219.681739 
L 308.838019 220.058258 
L 308.954887 220.309271 
L 309.133205 220.434778 
L 309.197679 220.434778 
L 309.439835 220.685791 
L 309.973335 220.685791 
L 310.236209 220.936804 
L 310.684679 221.187817 
L 310.935443 221.313323 
L 311.07531 221.313323 
L 311.475798 221.564336 
L 311.482909 221.689843 
L 311.884777 221.689843 
L 311.952074 221.940856 
L 312.454056 222.191869 
L 312.805134 222.191869 
L 312.899763 222.442881 
L 313.59256 223.070414 
L 314.202645 223.19592 
L 314.216975 223.321427 
L 314.462758 223.321427 
L 315.081588 223.697946 
L 315.264731 223.823453 
L 315.888021 223.823453 
L 316.091371 224.199972 
L 316.34362 224.199972 
L 316.371693 224.325479 
L 317.060495 224.701998 
L 317.871592 224.701998 
L 317.911313 224.827505 
L 318.146821 224.827505 
L 318.514997 225.078518 
L 319.286588 225.078518 
L 319.826727 225.455037 
L 320.328776 225.455037 
L 320.676858 225.70605 
L 320.766827 225.831557 
L 320.841164 225.957063 
L 321.749895 226.208076 
L 322.988523 226.835609 
L 323.646481 227.086622 
L 323.894286 227.212128 
L 325.790479 227.212128 
L 325.803476 227.337635 
L 326.099542 227.463141 
L 328.446327 227.839661 
L 328.9808 227.839661 
L 330.152852 228.090674 
L 330.59831 228.21618 
L 331.260086 228.21618 
L 331.579428 228.467193 
L 331.60549 228.5927 
L 333.020226 228.5927 
L 333.203823 228.718206 
L 334.500751 228.843713 
L 335.580518 228.969219 
L 347.681818 229.345739 
L 347.681818 229.345739 
" style="fill:none;stroke:#9fc377;stroke-linecap:round;stroke-width:1.75;"/>
   </g>
   <g id="patch_3">
    <path d="M 28.1 239.229375 
L 28.1 21.789375 
" style="fill:none;stroke:#cccccc;stroke-linecap:square;stroke-linejoin:miter;stroke-width:1.25;"/>
   </g>
   <g id="patch_4">
    <path d="M 362.9 239.229375 
L 362.9 21.789375 
" style="fill:none;stroke:#cccccc;stroke-linecap:square;stroke-linejoin:miter;stroke-width:1.25;"/>
   </g>
   <g id="patch_5">
    <path d="M 28.1 239.229375 
L 362.9 239.229375 
" style="fill:none;stroke:#cccccc;stroke-linecap:square;stroke-linejoin:miter;stroke-width:1.25;"/>
   </g>
   <g id="patch_6">
    <path d="M 28.1 21.789375 
L 362.9 21.789375 
" style="fill:none;stroke:#cccccc;stroke-linecap:square;stroke-linejoin:miter;stroke-width:1.25;"/>
   </g>
   <g id="text_12">
    <!-- Precision and Recall Curves for lm3 model -->
    <defs>
     <path d="M 7.71875 0 
L 7.71875 71.578125 
L 34.71875 71.578125 
Q 41.84375 71.578125 45.609375 70.90625 
Q 50.875 70.015625 54.4375 67.546875 
Q 58.015625 65.09375 60.1875 60.640625 
Q 62.359375 56.203125 62.359375 50.875 
Q 62.359375 41.75 56.546875 35.421875 
Q 50.734375 29.109375 35.546875 29.109375 
L 17.1875 29.109375 
L 17.1875 0 
z
M 17.1875 37.546875 
L 35.6875 37.546875 
Q 44.875 37.546875 48.734375 40.96875 
Q 52.59375 44.390625 52.59375 50.59375 
Q 52.59375 55.078125 50.3125 58.265625 
Q 48.046875 61.46875 44.34375 62.5 
Q 41.9375 63.140625 35.5 63.140625 
L 17.1875 63.140625 
z
" id="ArialMT-80"/>
     <path d="M 40.4375 19 
L 49.078125 17.875 
Q 47.65625 8.9375 41.8125 3.875 
Q 35.984375 -1.171875 27.484375 -1.171875 
Q 16.84375 -1.171875 10.375 5.78125 
Q 3.90625 12.75 3.90625 25.734375 
Q 3.90625 34.125 6.6875 40.421875 
Q 9.46875 46.734375 15.15625 49.875 
Q 20.84375 53.03125 27.546875 53.03125 
Q 35.984375 53.03125 41.359375 48.75 
Q 46.734375 44.484375 48.25 36.625 
L 39.703125 35.296875 
Q 38.484375 40.53125 35.375 43.15625 
Q 32.28125 45.796875 27.875 45.796875 
Q 21.234375 45.796875 17.078125 41.03125 
Q 12.9375 36.28125 12.9375 25.984375 
Q 12.9375 15.53125 16.9375 10.796875 
Q 20.953125 6.0625 27.390625 6.0625 
Q 32.5625 6.0625 36.03125 9.234375 
Q 39.5 12.40625 40.4375 19 
z
" id="ArialMT-99"/>
     <path d="M 6.640625 61.46875 
L 6.640625 71.578125 
L 15.4375 71.578125 
L 15.4375 61.46875 
z
M 6.640625 0 
L 6.640625 51.859375 
L 15.4375 51.859375 
L 15.4375 0 
z
" id="ArialMT-105"/>
     <path d="M 6.59375 0 
L 6.59375 51.859375 
L 14.5 51.859375 
L 14.5 44.484375 
Q 20.21875 53.03125 31 53.03125 
Q 35.6875 53.03125 39.625 51.34375 
Q 43.5625 49.65625 45.515625 46.921875 
Q 47.46875 44.1875 48.25 40.4375 
Q 48.734375 37.984375 48.734375 31.890625 
L 48.734375 0 
L 39.9375 0 
L 39.9375 31.546875 
Q 39.9375 36.921875 38.90625 39.578125 
Q 37.890625 42.234375 35.28125 43.8125 
Q 32.671875 45.40625 29.15625 45.40625 
Q 23.53125 45.40625 19.453125 41.84375 
Q 15.375 38.28125 15.375 28.328125 
L 15.375 0 
z
" id="ArialMT-110"/>
     <path id="ArialMT-32"/>
     <path d="M 40.4375 6.390625 
Q 35.546875 2.25 31.03125 0.53125 
Q 26.515625 -1.171875 21.34375 -1.171875 
Q 12.796875 -1.171875 8.203125 3 
Q 3.609375 7.171875 3.609375 13.671875 
Q 3.609375 17.484375 5.34375 20.625 
Q 7.078125 23.78125 9.890625 25.6875 
Q 12.703125 27.59375 16.21875 28.5625 
Q 18.796875 29.25 24.03125 29.890625 
Q 34.671875 31.15625 39.703125 32.90625 
Q 39.75 34.71875 39.75 35.203125 
Q 39.75 40.578125 37.25 42.78125 
Q 33.890625 45.75 27.25 45.75 
Q 21.046875 45.75 18.09375 43.578125 
Q 15.140625 41.40625 13.71875 35.890625 
L 5.125 37.0625 
Q 6.296875 42.578125 8.984375 45.96875 
Q 11.671875 49.359375 16.75 51.1875 
Q 21.828125 53.03125 28.515625 53.03125 
Q 35.15625 53.03125 39.296875 51.46875 
Q 43.453125 49.90625 45.40625 47.53125 
Q 47.359375 45.171875 48.140625 41.546875 
Q 48.578125 39.3125 48.578125 33.453125 
L 48.578125 21.734375 
Q 48.578125 9.46875 49.140625 6.21875 
Q 49.703125 2.984375 51.375 0 
L 42.1875 0 
Q 40.828125 2.734375 40.4375 6.390625 
z
M 39.703125 26.03125 
Q 34.90625 24.078125 25.34375 22.703125 
Q 19.921875 21.921875 17.671875 20.9375 
Q 15.4375 19.96875 14.203125 18.09375 
Q 12.984375 16.21875 12.984375 13.921875 
Q 12.984375 10.40625 15.640625 8.0625 
Q 18.3125 5.71875 23.4375 5.71875 
Q 28.515625 5.71875 32.46875 7.9375 
Q 36.421875 10.15625 38.28125 14.015625 
Q 39.703125 17 39.703125 22.796875 
z
" id="ArialMT-97"/>
     <path d="M 7.859375 0 
L 7.859375 71.578125 
L 39.59375 71.578125 
Q 49.171875 71.578125 54.140625 69.640625 
Q 59.125 67.71875 62.109375 62.828125 
Q 65.09375 57.953125 65.09375 52.046875 
Q 65.09375 44.4375 60.15625 39.203125 
Q 55.21875 33.984375 44.921875 32.5625 
Q 48.6875 30.765625 50.640625 29 
Q 54.78125 25.203125 58.5 19.484375 
L 70.953125 0 
L 59.03125 0 
L 49.5625 14.890625 
Q 45.40625 21.34375 42.71875 24.75 
Q 40.046875 28.171875 37.921875 29.53125 
Q 35.796875 30.90625 33.59375 31.453125 
Q 31.984375 31.78125 28.328125 31.78125 
L 17.328125 31.78125 
L 17.328125 0 
z
M 17.328125 39.984375 
L 37.703125 39.984375 
Q 44.1875 39.984375 47.84375 41.328125 
Q 51.515625 42.671875 53.421875 45.625 
Q 55.328125 48.578125 55.328125 52.046875 
Q 55.328125 57.125 51.640625 60.390625 
Q 47.953125 63.671875 39.984375 63.671875 
L 17.328125 63.671875 
z
" id="ArialMT-82"/>
     <path d="M 58.796875 25.09375 
L 68.265625 22.703125 
Q 65.28125 11.03125 57.546875 4.90625 
Q 49.8125 -1.21875 38.625 -1.21875 
Q 27.046875 -1.21875 19.796875 3.484375 
Q 12.546875 8.203125 8.765625 17.140625 
Q 4.984375 26.078125 4.984375 36.328125 
Q 4.984375 47.515625 9.25 55.828125 
Q 13.53125 64.15625 21.40625 68.46875 
Q 29.296875 72.796875 38.765625 72.796875 
Q 49.515625 72.796875 56.828125 67.328125 
Q 64.15625 61.859375 67.046875 51.953125 
L 57.71875 49.75 
Q 55.21875 57.5625 50.484375 61.125 
Q 45.75 64.703125 38.578125 64.703125 
Q 30.328125 64.703125 24.78125 60.734375 
Q 19.234375 56.78125 16.984375 50.109375 
Q 14.75 43.453125 14.75 36.375 
Q 14.75 27.25 17.40625 20.4375 
Q 20.0625 13.625 25.671875 10.25 
Q 31.296875 6.890625 37.84375 6.890625 
Q 45.796875 6.890625 51.3125 11.46875 
Q 56.84375 16.0625 58.796875 25.09375 
z
" id="ArialMT-67"/>
     <path d="M 40.578125 0 
L 40.578125 7.625 
Q 34.515625 -1.171875 24.125 -1.171875 
Q 19.53125 -1.171875 15.546875 0.578125 
Q 11.578125 2.34375 9.640625 5 
Q 7.71875 7.671875 6.9375 11.53125 
Q 6.390625 14.109375 6.390625 19.734375 
L 6.390625 51.859375 
L 15.1875 51.859375 
L 15.1875 23.09375 
Q 15.1875 16.21875 15.71875 13.8125 
Q 16.546875 10.359375 19.234375 8.375 
Q 21.921875 6.390625 25.875 6.390625 
Q 29.828125 6.390625 33.296875 8.421875 
Q 36.765625 10.453125 38.203125 13.9375 
Q 39.65625 17.4375 39.65625 24.078125 
L 39.65625 51.859375 
L 48.4375 51.859375 
L 48.4375 0 
z
" id="ArialMT-117"/>
     <path d="M 21 0 
L 1.265625 51.859375 
L 10.546875 51.859375 
L 21.6875 20.796875 
Q 23.484375 15.765625 25 10.359375 
Q 26.171875 14.453125 28.265625 20.21875 
L 39.796875 51.859375 
L 48.828125 51.859375 
L 29.203125 0 
z
" id="ArialMT-118"/>
     <path d="M 8.6875 0 
L 8.6875 45.015625 
L 0.921875 45.015625 
L 0.921875 51.859375 
L 8.6875 51.859375 
L 8.6875 57.375 
Q 8.6875 62.59375 9.625 65.140625 
Q 10.890625 68.5625 14.078125 70.671875 
Q 17.28125 72.796875 23.046875 72.796875 
Q 26.765625 72.796875 31.25 71.921875 
L 29.9375 64.265625 
Q 27.203125 64.75 24.75 64.75 
Q 20.75 64.75 19.09375 63.03125 
Q 17.4375 61.328125 17.4375 56.640625 
L 17.4375 51.859375 
L 27.546875 51.859375 
L 27.546875 45.015625 
L 17.4375 45.015625 
L 17.4375 0 
z
" id="ArialMT-102"/>
     <path d="M 6.59375 0 
L 6.59375 51.859375 
L 14.453125 51.859375 
L 14.453125 44.578125 
Q 16.890625 48.390625 20.9375 50.703125 
Q 25 53.03125 30.171875 53.03125 
Q 35.9375 53.03125 39.625 50.640625 
Q 43.3125 48.25 44.828125 43.953125 
Q 50.984375 53.03125 60.84375 53.03125 
Q 68.5625 53.03125 72.703125 48.75 
Q 76.859375 44.484375 76.859375 35.59375 
L 76.859375 0 
L 68.109375 0 
L 68.109375 32.671875 
Q 68.109375 37.9375 67.25 40.25 
Q 66.40625 42.578125 64.15625 43.984375 
Q 61.921875 45.40625 58.890625 45.40625 
Q 53.421875 45.40625 49.796875 41.765625 
Q 46.1875 38.140625 46.1875 30.125 
L 46.1875 0 
L 37.40625 0 
L 37.40625 33.6875 
Q 37.40625 39.546875 35.25 42.46875 
Q 33.109375 45.40625 28.21875 45.40625 
Q 24.515625 45.40625 21.359375 43.453125 
Q 18.21875 41.5 16.796875 37.734375 
Q 15.375 33.984375 15.375 26.90625 
L 15.375 0 
z
" id="ArialMT-109"/>
     <path d="M 4.203125 18.890625 
L 12.984375 20.0625 
Q 14.5 12.59375 18.140625 9.296875 
Q 21.78125 6 27 6 
Q 33.203125 6 37.46875 10.296875 
Q 41.75 14.59375 41.75 20.953125 
Q 41.75 27 37.796875 30.921875 
Q 33.84375 34.859375 27.734375 34.859375 
Q 25.25 34.859375 21.53125 33.890625 
L 22.515625 41.609375 
Q 23.390625 41.5 23.921875 41.5 
Q 29.546875 41.5 34.03125 44.421875 
Q 38.53125 47.359375 38.53125 53.46875 
Q 38.53125 58.296875 35.25 61.46875 
Q 31.984375 64.65625 26.8125 64.65625 
Q 21.6875 64.65625 18.265625 61.421875 
Q 14.84375 58.203125 13.875 51.765625 
L 5.078125 53.328125 
Q 6.6875 62.15625 12.390625 67.015625 
Q 18.109375 71.875 26.609375 71.875 
Q 32.46875 71.875 37.390625 69.359375 
Q 42.328125 66.84375 44.9375 62.5 
Q 47.5625 58.15625 47.5625 53.265625 
Q 47.5625 48.640625 45.0625 44.828125 
Q 42.578125 41.015625 37.703125 38.765625 
Q 44.046875 37.3125 47.5625 32.6875 
Q 51.078125 28.078125 51.078125 21.140625 
Q 51.078125 11.765625 44.234375 5.25 
Q 37.40625 -1.265625 26.953125 -1.265625 
Q 17.53125 -1.265625 11.296875 4.34375 
Q 5.078125 9.96875 4.203125 18.890625 
z
" id="ArialMT-51"/>
    </defs>
    <g style="fill:#262626;" transform="translate(82.127188 15.789375)scale(0.12 -0.12)">
     <use xlink:href="#ArialMT-80"/>
     <use x="66.699219" xlink:href="#ArialMT-114"/>
     <use x="100" xlink:href="#ArialMT-101"/>
     <use x="155.615234" xlink:href="#ArialMT-99"/>
     <use x="205.615234" xlink:href="#ArialMT-105"/>
     <use x="227.832031" xlink:href="#ArialMT-115"/>
     <use x="277.832031" xlink:href="#ArialMT-105"/>
     <use x="300.048828" xlink:href="#ArialMT-111"/>
     <use x="355.664062" xlink:href="#ArialMT-110"/>
     <use x="411.279297" xlink:href="#ArialMT-32"/>
     <use x="439.0625" xlink:href="#ArialMT-97"/>
     <use x="494.677734" xlink:href="#ArialMT-110"/>
     <use x="550.292969" xlink:href="#ArialMT-100"/>
     <use x="605.908203" xlink:href="#ArialMT-32"/>
     <use x="633.691406" xlink:href="#ArialMT-82"/>
     <use x="705.908203" xlink:href="#ArialMT-101"/>
     <use x="761.523438" xlink:href="#ArialMT-99"/>
     <use x="811.523438" xlink:href="#ArialMT-97"/>
     <use x="867.138672" xlink:href="#ArialMT-108"/>
     <use x="889.355469" xlink:href="#ArialMT-108"/>
     <use x="911.572266" xlink:href="#ArialMT-32"/>
     <use x="939.355469" xlink:href="#ArialMT-67"/>
     <use x="1011.572266" xlink:href="#ArialMT-117"/>
     <use x="1067.1875" xlink:href="#ArialMT-114"/>
     <use x="1100.488281" xlink:href="#ArialMT-118"/>
     <use x="1150.488281" xlink:href="#ArialMT-101"/>
     <use x="1206.103516" xlink:href="#ArialMT-115"/>
     <use x="1256.103516" xlink:href="#ArialMT-32"/>
     <use x="1283.886719" xlink:href="#ArialMT-102"/>
     <use x="1311.669922" xlink:href="#ArialMT-111"/>
     <use x="1367.285156" xlink:href="#ArialMT-114"/>
     <use x="1400.585938" xlink:href="#ArialMT-32"/>
     <use x="1428.369141" xlink:href="#ArialMT-108"/>
     <use x="1450.585938" xlink:href="#ArialMT-109"/>
     <use x="1533.886719" xlink:href="#ArialMT-51"/>
     <use x="1589.501953" xlink:href="#ArialMT-32"/>
     <use x="1617.285156" xlink:href="#ArialMT-109"/>
     <use x="1700.585938" xlink:href="#ArialMT-111"/>
     <use x="1756.201172" xlink:href="#ArialMT-100"/>
     <use x="1811.816406" xlink:href="#ArialMT-101"/>
     <use x="1867.431641" xlink:href="#ArialMT-108"/>
    </g>
   </g>
   <g id="legend_1">
    <g id="line2d_23">
     <path d="M 37.1 210.596563 
L 57.1 210.596563 
" style="fill:none;stroke:#0272a2;stroke-linecap:round;stroke-width:1.75;"/>
    </g>
    <g id="line2d_24"/>
    <g id="text_13">
     <!-- precision -->
     <defs>
      <path d="M 6.59375 -19.875 
L 6.59375 51.859375 
L 14.59375 51.859375 
L 14.59375 45.125 
Q 17.4375 49.078125 21 51.046875 
Q 24.5625 53.03125 29.640625 53.03125 
Q 36.28125 53.03125 41.359375 49.609375 
Q 46.4375 46.1875 49.015625 39.953125 
Q 51.609375 33.734375 51.609375 26.3125 
Q 51.609375 18.359375 48.75 11.984375 
Q 45.90625 5.609375 40.453125 2.21875 
Q 35.015625 -1.171875 29 -1.171875 
Q 24.609375 -1.171875 21.109375 0.6875 
Q 17.625 2.546875 15.375 5.375 
L 15.375 -19.875 
z
M 14.546875 25.640625 
Q 14.546875 15.625 18.59375 10.84375 
Q 22.65625 6.0625 28.421875 6.0625 
Q 34.28125 6.0625 38.453125 11.015625 
Q 42.625 15.96875 42.625 26.375 
Q 42.625 36.28125 38.546875 41.203125 
Q 34.46875 46.140625 28.8125 46.140625 
Q 23.1875 46.140625 18.859375 40.890625 
Q 14.546875 35.640625 14.546875 25.640625 
z
" id="ArialMT-112"/>
     </defs>
     <g style="fill:#262626;" transform="translate(65.1 214.096563)scale(0.1 -0.1)">
      <use xlink:href="#ArialMT-112"/>
      <use x="55.615234" xlink:href="#ArialMT-114"/>
      <use x="88.916016" xlink:href="#ArialMT-101"/>
      <use x="144.53125" xlink:href="#ArialMT-99"/>
      <use x="194.53125" xlink:href="#ArialMT-105"/>
      <use x="216.748047" xlink:href="#ArialMT-115"/>
      <use x="266.748047" xlink:href="#ArialMT-105"/>
      <use x="288.964844" xlink:href="#ArialMT-111"/>
      <use x="344.580078" xlink:href="#ArialMT-110"/>
     </g>
    </g>
    <g id="line2d_25">
     <path d="M 37.1 224.741875 
L 57.1 224.741875 
" style="fill:none;stroke:#9fc377;stroke-linecap:round;stroke-width:1.75;"/>
    </g>
    <g id="line2d_26"/>
    <g id="text_14">
     <!-- recall -->
     <g style="fill:#262626;" transform="translate(65.1 228.241875)scale(0.1 -0.1)">
      <use xlink:href="#ArialMT-114"/>
      <use x="33.300781" xlink:href="#ArialMT-101"/>
      <use x="88.916016" xlink:href="#ArialMT-99"/>
      <use x="138.916016" xlink:href="#ArialMT-97"/>
      <use x="194.53125" xlink:href="#ArialMT-108"/>
      <use x="216.748047" xlink:href="#ArialMT-108"/>
     </g>
    </g>
   </g>
  </g>
 </g>
 <defs>
  <clipPath id="p32b7a64536">
   <rect height="217.44" width="334.8" x="28.1" y="21.789375"/>
  </clipPath>
 </defs>
</svg>
