<?xml version="1.0" encoding="utf-8" standalone="no"?>
<!DOCTYPE svg PUBLIC "-//W3C//DTD SVG 1.1//EN"
  "http://www.w3.org/Graphics/SVG/1.1/DTD/svg11.dtd">
<!-- Created with matplotlib (https://matplotlib.org/) -->
<svg height="276.788281pt" version="1.1" viewBox="0 0 384.159844 276.788281" width="384.159844pt" xmlns="http://www.w3.org/2000/svg" xmlns:xlink="http://www.w3.org/1999/xlink">
 <defs>
  <style type="text/css">
*{stroke-linecap:butt;stroke-linejoin:round;}
  </style>
 </defs>
 <g id="figure_1">
  <g id="patch_1">
   <path d="M 0 276.788281 
L 384.159844 276.788281 
L 384.159844 0 
L 0 0 
z
" style="fill:#ffffff;"/>
  </g>
  <g id="axes_1">
   <g id="patch_2">
    <path d="M 42.159844 239.383125 
L 376.959844 239.383125 
L 376.959844 21.943125 
L 42.159844 21.943125 
z
" style="fill:#ffffff;"/>
   </g>
   <g id="matplotlib.axis_1">
    <g id="xtick_1">
     <g id="line2d_1">
      <path clip-path="url(#p6b437d4a15)" d="M 57.378026 239.383125 
L 57.378026 21.943125 
" style="fill:none;stroke:#cccccc;stroke-linecap:round;"/>
     </g>
     <g id="line2d_2"/>
     <g id="text_1">
      <!-- 0.0 -->
      <defs>
       <path d="M 4.15625 35.296875 
Q 4.15625 48 6.765625 55.734375 
Q 9.375 63.484375 14.515625 67.671875 
Q 19.671875 71.875 27.484375 71.875 
Q 33.25 71.875 37.59375 69.546875 
Q 41.9375 67.234375 44.765625 62.859375 
Q 47.609375 58.5 49.21875 52.21875 
Q 50.828125 45.953125 50.828125 35.296875 
Q 50.828125 22.703125 48.234375 14.96875 
Q 45.65625 7.234375 40.5 3 
Q 35.359375 -1.21875 27.484375 -1.21875 
Q 17.140625 -1.21875 11.234375 6.203125 
Q 4.15625 15.140625 4.15625 35.296875 
z
M 13.1875 35.296875 
Q 13.1875 17.671875 17.3125 11.828125 
Q 21.4375 6 27.484375 6 
Q 33.546875 6 37.671875 11.859375 
Q 41.796875 17.71875 41.796875 35.296875 
Q 41.796875 52.984375 37.671875 58.78125 
Q 33.546875 64.59375 27.390625 64.59375 
Q 21.34375 64.59375 17.71875 59.46875 
Q 13.1875 52.9375 13.1875 35.296875 
z
" id="ArialMT-48"/>
       <path d="M 9.078125 0 
L 9.078125 10.015625 
L 19.09375 10.015625 
L 19.09375 0 
z
" id="ArialMT-46"/>
      </defs>
      <g style="fill:#262626;" transform="translate(50.428026 253.540938)scale(0.1 -0.1)">
       <use xlink:href="#ArialMT-48"/>
       <use x="55.615234" xlink:href="#ArialMT-46"/>
       <use x="83.398438" xlink:href="#ArialMT-48"/>
      </g>
     </g>
    </g>
    <g id="xtick_2">
     <g id="line2d_3">
      <path clip-path="url(#p6b437d4a15)" d="M 118.250753 239.383125 
L 118.250753 21.943125 
" style="fill:none;stroke:#cccccc;stroke-linecap:round;"/>
     </g>
     <g id="line2d_4"/>
     <g id="text_2">
      <!-- 0.2 -->
      <defs>
       <path d="M 50.34375 8.453125 
L 50.34375 0 
L 3.03125 0 
Q 2.9375 3.171875 4.046875 6.109375 
Q 5.859375 10.9375 9.828125 15.625 
Q 13.8125 20.3125 21.34375 26.46875 
Q 33.015625 36.03125 37.109375 41.625 
Q 41.21875 47.21875 41.21875 52.203125 
Q 41.21875 57.421875 37.46875 61 
Q 33.734375 64.59375 27.734375 64.59375 
Q 21.390625 64.59375 17.578125 60.78125 
Q 13.765625 56.984375 13.71875 50.25 
L 4.6875 51.171875 
Q 5.609375 61.28125 11.65625 66.578125 
Q 17.71875 71.875 27.9375 71.875 
Q 38.234375 71.875 44.234375 66.15625 
Q 50.25 60.453125 50.25 52 
Q 50.25 47.703125 48.484375 43.546875 
Q 46.734375 39.40625 42.65625 34.8125 
Q 38.578125 30.21875 29.109375 22.21875 
Q 21.1875 15.578125 18.9375 13.203125 
Q 16.703125 10.84375 15.234375 8.453125 
z
" id="ArialMT-50"/>
      </defs>
      <g style="fill:#262626;" transform="translate(111.300753 253.540938)scale(0.1 -0.1)">
       <use xlink:href="#ArialMT-48"/>
       <use x="55.615234" xlink:href="#ArialMT-46"/>
       <use x="83.398438" xlink:href="#ArialMT-50"/>
      </g>
     </g>
    </g>
    <g id="xtick_3">
     <g id="line2d_5">
      <path clip-path="url(#p6b437d4a15)" d="M 179.12348 239.383125 
L 179.12348 21.943125 
" style="fill:none;stroke:#cccccc;stroke-linecap:round;"/>
     </g>
     <g id="line2d_6"/>
     <g id="text_3">
      <!-- 0.4 -->
      <defs>
       <path d="M 32.328125 0 
L 32.328125 17.140625 
L 1.265625 17.140625 
L 1.265625 25.203125 
L 33.9375 71.578125 
L 41.109375 71.578125 
L 41.109375 25.203125 
L 50.78125 25.203125 
L 50.78125 17.140625 
L 41.109375 17.140625 
L 41.109375 0 
z
M 32.328125 25.203125 
L 32.328125 57.46875 
L 9.90625 25.203125 
z
" id="ArialMT-52"/>
      </defs>
      <g style="fill:#262626;" transform="translate(172.17348 253.540938)scale(0.1 -0.1)">
       <use xlink:href="#ArialMT-48"/>
       <use x="55.615234" xlink:href="#ArialMT-46"/>
       <use x="83.398438" xlink:href="#ArialMT-52"/>
      </g>
     </g>
    </g>
    <g id="xtick_4">
     <g id="line2d_7">
      <path clip-path="url(#p6b437d4a15)" d="M 239.996207 239.383125 
L 239.996207 21.943125 
" style="fill:none;stroke:#cccccc;stroke-linecap:round;"/>
     </g>
     <g id="line2d_8"/>
     <g id="text_4">
      <!-- 0.6 -->
      <defs>
       <path d="M 49.75 54.046875 
L 41.015625 53.375 
Q 39.84375 58.546875 37.703125 60.890625 
Q 34.125 64.65625 28.90625 64.65625 
Q 24.703125 64.65625 21.53125 62.3125 
Q 17.390625 59.28125 14.984375 53.46875 
Q 12.59375 47.65625 12.5 36.921875 
Q 15.671875 41.75 20.265625 44.09375 
Q 24.859375 46.4375 29.890625 46.4375 
Q 38.671875 46.4375 44.84375 39.96875 
Q 51.03125 33.5 51.03125 23.25 
Q 51.03125 16.5 48.125 10.71875 
Q 45.21875 4.9375 40.140625 1.859375 
Q 35.0625 -1.21875 28.609375 -1.21875 
Q 17.625 -1.21875 10.6875 6.859375 
Q 3.765625 14.9375 3.765625 33.5 
Q 3.765625 54.25 11.421875 63.671875 
Q 18.109375 71.875 29.4375 71.875 
Q 37.890625 71.875 43.28125 67.140625 
Q 48.6875 62.40625 49.75 54.046875 
z
M 13.875 23.1875 
Q 13.875 18.65625 15.796875 14.5 
Q 17.71875 10.359375 21.1875 8.171875 
Q 24.65625 6 28.46875 6 
Q 34.03125 6 38.03125 10.484375 
Q 42.046875 14.984375 42.046875 22.703125 
Q 42.046875 30.125 38.078125 34.390625 
Q 34.125 38.671875 28.125 38.671875 
Q 22.171875 38.671875 18.015625 34.390625 
Q 13.875 30.125 13.875 23.1875 
z
" id="ArialMT-54"/>
      </defs>
      <g style="fill:#262626;" transform="translate(233.046207 253.540938)scale(0.1 -0.1)">
       <use xlink:href="#ArialMT-48"/>
       <use x="55.615234" xlink:href="#ArialMT-46"/>
       <use x="83.398438" xlink:href="#ArialMT-54"/>
      </g>
     </g>
    </g>
    <g id="xtick_5">
     <g id="line2d_9">
      <path clip-path="url(#p6b437d4a15)" d="M 300.868935 239.383125 
L 300.868935 21.943125 
" style="fill:none;stroke:#cccccc;stroke-linecap:round;"/>
     </g>
     <g id="line2d_10"/>
     <g id="text_5">
      <!-- 0.8 -->
      <defs>
       <path d="M 17.671875 38.8125 
Q 12.203125 40.828125 9.5625 44.53125 
Q 6.9375 48.25 6.9375 53.421875 
Q 6.9375 61.234375 12.546875 66.546875 
Q 18.171875 71.875 27.484375 71.875 
Q 36.859375 71.875 42.578125 66.421875 
Q 48.296875 60.984375 48.296875 53.171875 
Q 48.296875 48.1875 45.671875 44.5 
Q 43.0625 40.828125 37.75 38.8125 
Q 44.34375 36.671875 47.78125 31.875 
Q 51.21875 27.09375 51.21875 20.453125 
Q 51.21875 11.28125 44.71875 5.03125 
Q 38.234375 -1.21875 27.640625 -1.21875 
Q 17.046875 -1.21875 10.546875 5.046875 
Q 4.046875 11.328125 4.046875 20.703125 
Q 4.046875 27.6875 7.59375 32.390625 
Q 11.140625 37.109375 17.671875 38.8125 
z
M 15.921875 53.71875 
Q 15.921875 48.640625 19.1875 45.40625 
Q 22.46875 42.1875 27.6875 42.1875 
Q 32.765625 42.1875 36.015625 45.375 
Q 39.265625 48.578125 39.265625 53.21875 
Q 39.265625 58.0625 35.90625 61.359375 
Q 32.5625 64.65625 27.59375 64.65625 
Q 22.5625 64.65625 19.234375 61.421875 
Q 15.921875 58.203125 15.921875 53.71875 
z
M 13.09375 20.65625 
Q 13.09375 16.890625 14.875 13.375 
Q 16.65625 9.859375 20.171875 7.921875 
Q 23.6875 6 27.734375 6 
Q 34.03125 6 38.125 10.046875 
Q 42.234375 14.109375 42.234375 20.359375 
Q 42.234375 26.703125 38.015625 30.859375 
Q 33.796875 35.015625 27.4375 35.015625 
Q 21.234375 35.015625 17.15625 30.90625 
Q 13.09375 26.8125 13.09375 20.65625 
z
" id="ArialMT-56"/>
      </defs>
      <g style="fill:#262626;" transform="translate(293.918935 253.540938)scale(0.1 -0.1)">
       <use xlink:href="#ArialMT-48"/>
       <use x="55.615234" xlink:href="#ArialMT-46"/>
       <use x="83.398438" xlink:href="#ArialMT-56"/>
      </g>
     </g>
    </g>
    <g id="xtick_6">
     <g id="line2d_11">
      <path clip-path="url(#p6b437d4a15)" d="M 361.741662 239.383125 
L 361.741662 21.943125 
" style="fill:none;stroke:#cccccc;stroke-linecap:round;"/>
     </g>
     <g id="line2d_12"/>
     <g id="text_6">
      <!-- 1.0 -->
      <defs>
       <path d="M 37.25 0 
L 28.46875 0 
L 28.46875 56 
Q 25.296875 52.984375 20.140625 49.953125 
Q 14.984375 46.921875 10.890625 45.40625 
L 10.890625 53.90625 
Q 18.265625 57.375 23.78125 62.296875 
Q 29.296875 67.234375 31.59375 71.875 
L 37.25 71.875 
z
" id="ArialMT-49"/>
      </defs>
      <g style="fill:#262626;" transform="translate(354.791662 253.540938)scale(0.1 -0.1)">
       <use xlink:href="#ArialMT-49"/>
       <use x="55.615234" xlink:href="#ArialMT-46"/>
       <use x="83.398438" xlink:href="#ArialMT-48"/>
      </g>
     </g>
    </g>
    <g id="text_7">
     <!-- False positive rate -->
     <defs>
      <path d="M 8.203125 0 
L 8.203125 71.578125 
L 56.5 71.578125 
L 56.5 63.140625 
L 17.671875 63.140625 
L 17.671875 40.96875 
L 51.265625 40.96875 
L 51.265625 32.515625 
L 17.671875 32.515625 
L 17.671875 0 
z
" id="ArialMT-70"/>
      <path d="M 40.4375 6.390625 
Q 35.546875 2.25 31.03125 0.53125 
Q 26.515625 -1.171875 21.34375 -1.171875 
Q 12.796875 -1.171875 8.203125 3 
Q 3.609375 7.171875 3.609375 13.671875 
Q 3.609375 17.484375 5.34375 20.625 
Q 7.078125 23.78125 9.890625 25.6875 
Q 12.703125 27.59375 16.21875 28.5625 
Q 18.796875 29.25 24.03125 29.890625 
Q 34.671875 31.15625 39.703125 32.90625 
Q 39.75 34.71875 39.75 35.203125 
Q 39.75 40.578125 37.25 42.78125 
Q 33.890625 45.75 27.25 45.75 
Q 21.046875 45.75 18.09375 43.578125 
Q 15.140625 41.40625 13.71875 35.890625 
L 5.125 37.0625 
Q 6.296875 42.578125 8.984375 45.96875 
Q 11.671875 49.359375 16.75 51.1875 
Q 21.828125 53.03125 28.515625 53.03125 
Q 35.15625 53.03125 39.296875 51.46875 
Q 43.453125 49.90625 45.40625 47.53125 
Q 47.359375 45.171875 48.140625 41.546875 
Q 48.578125 39.3125 48.578125 33.453125 
L 48.578125 21.734375 
Q 48.578125 9.46875 49.140625 6.21875 
Q 49.703125 2.984375 51.375 0 
L 42.1875 0 
Q 40.828125 2.734375 40.4375 6.390625 
z
M 39.703125 26.03125 
Q 34.90625 24.078125 25.34375 22.703125 
Q 19.921875 21.921875 17.671875 20.9375 
Q 15.4375 19.96875 14.203125 18.09375 
Q 12.984375 16.21875 12.984375 13.921875 
Q 12.984375 10.40625 15.640625 8.0625 
Q 18.3125 5.71875 23.4375 5.71875 
Q 28.515625 5.71875 32.46875 7.9375 
Q 36.421875 10.15625 38.28125 14.015625 
Q 39.703125 17 39.703125 22.796875 
z
" id="ArialMT-97"/>
      <path d="M 6.390625 0 
L 6.390625 71.578125 
L 15.1875 71.578125 
L 15.1875 0 
z
" id="ArialMT-108"/>
      <path d="M 3.078125 15.484375 
L 11.765625 16.84375 
Q 12.5 11.625 15.84375 8.84375 
Q 19.1875 6.0625 25.203125 6.0625 
Q 31.25 6.0625 34.171875 8.515625 
Q 37.109375 10.984375 37.109375 14.3125 
Q 37.109375 17.28125 34.515625 19 
Q 32.71875 20.171875 25.53125 21.96875 
Q 15.875 24.421875 12.140625 26.203125 
Q 8.40625 27.984375 6.46875 31.125 
Q 4.546875 34.28125 4.546875 38.09375 
Q 4.546875 41.546875 6.125 44.5 
Q 7.71875 47.46875 10.453125 49.421875 
Q 12.5 50.921875 16.03125 51.96875 
Q 19.578125 53.03125 23.640625 53.03125 
Q 29.734375 53.03125 34.34375 51.265625 
Q 38.96875 49.515625 41.15625 46.5 
Q 43.359375 43.5 44.1875 38.484375 
L 35.59375 37.3125 
Q 35.015625 41.3125 32.203125 43.546875 
Q 29.390625 45.796875 24.265625 45.796875 
Q 18.21875 45.796875 15.625 43.796875 
Q 13.03125 41.796875 13.03125 39.109375 
Q 13.03125 37.40625 14.109375 36.03125 
Q 15.1875 34.625 17.484375 33.6875 
Q 18.796875 33.203125 25.25 31.453125 
Q 34.578125 28.953125 38.25 27.359375 
Q 41.9375 25.78125 44.03125 22.75 
Q 46.140625 19.734375 46.140625 15.234375 
Q 46.140625 10.84375 43.578125 6.953125 
Q 41.015625 3.078125 36.171875 0.953125 
Q 31.34375 -1.171875 25.25 -1.171875 
Q 15.140625 -1.171875 9.84375 3.03125 
Q 4.546875 7.234375 3.078125 15.484375 
z
" id="ArialMT-115"/>
      <path d="M 42.09375 16.703125 
L 51.171875 15.578125 
Q 49.03125 7.625 43.21875 3.21875 
Q 37.40625 -1.171875 28.375 -1.171875 
Q 17 -1.171875 10.328125 5.828125 
Q 3.65625 12.84375 3.65625 25.484375 
Q 3.65625 38.578125 10.390625 45.796875 
Q 17.140625 53.03125 27.875 53.03125 
Q 38.28125 53.03125 44.875 45.953125 
Q 51.46875 38.875 51.46875 26.03125 
Q 51.46875 25.25 51.421875 23.6875 
L 12.75 23.6875 
Q 13.234375 15.140625 17.578125 10.59375 
Q 21.921875 6.0625 28.421875 6.0625 
Q 33.25 6.0625 36.671875 8.59375 
Q 40.09375 11.140625 42.09375 16.703125 
z
M 13.234375 30.90625 
L 42.1875 30.90625 
Q 41.609375 37.453125 38.875 40.71875 
Q 34.671875 45.796875 27.984375 45.796875 
Q 21.921875 45.796875 17.796875 41.75 
Q 13.671875 37.703125 13.234375 30.90625 
z
" id="ArialMT-101"/>
      <path id="ArialMT-32"/>
      <path d="M 6.59375 -19.875 
L 6.59375 51.859375 
L 14.59375 51.859375 
L 14.59375 45.125 
Q 17.4375 49.078125 21 51.046875 
Q 24.5625 53.03125 29.640625 53.03125 
Q 36.28125 53.03125 41.359375 49.609375 
Q 46.4375 46.1875 49.015625 39.953125 
Q 51.609375 33.734375 51.609375 26.3125 
Q 51.609375 18.359375 48.75 11.984375 
Q 45.90625 5.609375 40.453125 2.21875 
Q 35.015625 -1.171875 29 -1.171875 
Q 24.609375 -1.171875 21.109375 0.6875 
Q 17.625 2.546875 15.375 5.375 
L 15.375 -19.875 
z
M 14.546875 25.640625 
Q 14.546875 15.625 18.59375 10.84375 
Q 22.65625 6.0625 28.421875 6.0625 
Q 34.28125 6.0625 38.453125 11.015625 
Q 42.625 15.96875 42.625 26.375 
Q 42.625 36.28125 38.546875 41.203125 
Q 34.46875 46.140625 28.8125 46.140625 
Q 23.1875 46.140625 18.859375 40.890625 
Q 14.546875 35.640625 14.546875 25.640625 
z
" id="ArialMT-112"/>
      <path d="M 3.328125 25.921875 
Q 3.328125 40.328125 11.328125 47.265625 
Q 18.015625 53.03125 27.640625 53.03125 
Q 38.328125 53.03125 45.109375 46.015625 
Q 51.90625 39.015625 51.90625 26.65625 
Q 51.90625 16.65625 48.90625 10.90625 
Q 45.90625 5.171875 40.15625 2 
Q 34.421875 -1.171875 27.640625 -1.171875 
Q 16.75 -1.171875 10.03125 5.8125 
Q 3.328125 12.796875 3.328125 25.921875 
z
M 12.359375 25.921875 
Q 12.359375 15.96875 16.703125 11.015625 
Q 21.046875 6.0625 27.640625 6.0625 
Q 34.1875 6.0625 38.53125 11.03125 
Q 42.875 16.015625 42.875 26.21875 
Q 42.875 35.84375 38.5 40.796875 
Q 34.125 45.75 27.640625 45.75 
Q 21.046875 45.75 16.703125 40.8125 
Q 12.359375 35.890625 12.359375 25.921875 
z
" id="ArialMT-111"/>
      <path d="M 6.640625 61.46875 
L 6.640625 71.578125 
L 15.4375 71.578125 
L 15.4375 61.46875 
z
M 6.640625 0 
L 6.640625 51.859375 
L 15.4375 51.859375 
L 15.4375 0 
z
" id="ArialMT-105"/>
      <path d="M 25.78125 7.859375 
L 27.046875 0.09375 
Q 23.34375 -0.6875 20.40625 -0.6875 
Q 15.625 -0.6875 12.984375 0.828125 
Q 10.359375 2.34375 9.28125 4.8125 
Q 8.203125 7.28125 8.203125 15.1875 
L 8.203125 45.015625 
L 1.765625 45.015625 
L 1.765625 51.859375 
L 8.203125 51.859375 
L 8.203125 64.703125 
L 16.9375 69.96875 
L 16.9375 51.859375 
L 25.78125 51.859375 
L 25.78125 45.015625 
L 16.9375 45.015625 
L 16.9375 14.703125 
Q 16.9375 10.9375 17.40625 9.859375 
Q 17.875 8.796875 18.921875 8.15625 
Q 19.96875 7.515625 21.921875 7.515625 
Q 23.390625 7.515625 25.78125 7.859375 
z
" id="ArialMT-116"/>
      <path d="M 21 0 
L 1.265625 51.859375 
L 10.546875 51.859375 
L 21.6875 20.796875 
Q 23.484375 15.765625 25 10.359375 
Q 26.171875 14.453125 28.265625 20.21875 
L 39.796875 51.859375 
L 48.828125 51.859375 
L 29.203125 0 
z
" id="ArialMT-118"/>
      <path d="M 6.5 0 
L 6.5 51.859375 
L 14.40625 51.859375 
L 14.40625 44 
Q 17.4375 49.515625 20 51.265625 
Q 22.5625 53.03125 25.640625 53.03125 
Q 30.078125 53.03125 34.671875 50.203125 
L 31.640625 42.046875 
Q 28.421875 43.953125 25.203125 43.953125 
Q 22.3125 43.953125 20.015625 42.21875 
Q 17.71875 40.484375 16.75 37.40625 
Q 15.28125 32.71875 15.28125 27.15625 
L 15.28125 0 
z
" id="ArialMT-114"/>
     </defs>
     <g style="fill:#262626;" transform="translate(164.931641 267.402031)scale(0.11 -0.11)">
      <use xlink:href="#ArialMT-70"/>
      <use x="61.083984" xlink:href="#ArialMT-97"/>
      <use x="116.699219" xlink:href="#ArialMT-108"/>
      <use x="138.916016" xlink:href="#ArialMT-115"/>
      <use x="188.916016" xlink:href="#ArialMT-101"/>
      <use x="244.53125" xlink:href="#ArialMT-32"/>
      <use x="272.314453" xlink:href="#ArialMT-112"/>
      <use x="327.929688" xlink:href="#ArialMT-111"/>
      <use x="383.544922" xlink:href="#ArialMT-115"/>
      <use x="433.544922" xlink:href="#ArialMT-105"/>
      <use x="455.761719" xlink:href="#ArialMT-116"/>
      <use x="483.544922" xlink:href="#ArialMT-105"/>
      <use x="505.761719" xlink:href="#ArialMT-118"/>
      <use x="555.761719" xlink:href="#ArialMT-101"/>
      <use x="611.376953" xlink:href="#ArialMT-32"/>
      <use x="639.160156" xlink:href="#ArialMT-114"/>
      <use x="672.460938" xlink:href="#ArialMT-97"/>
      <use x="728.076172" xlink:href="#ArialMT-116"/>
      <use x="755.859375" xlink:href="#ArialMT-101"/>
     </g>
    </g>
   </g>
   <g id="matplotlib.axis_2">
    <g id="ytick_1">
     <g id="line2d_13">
      <path clip-path="url(#p6b437d4a15)" d="M 42.159844 229.499489 
L 376.959844 229.499489 
" style="fill:none;stroke:#cccccc;stroke-linecap:round;"/>
     </g>
     <g id="line2d_14"/>
     <g id="text_8">
      <!-- 0.0 -->
      <g style="fill:#262626;" transform="translate(21.259844 233.078395)scale(0.1 -0.1)">
       <use xlink:href="#ArialMT-48"/>
       <use x="55.615234" xlink:href="#ArialMT-46"/>
       <use x="83.398438" xlink:href="#ArialMT-48"/>
      </g>
     </g>
    </g>
    <g id="ytick_2">
     <g id="line2d_15">
      <path clip-path="url(#p6b437d4a15)" d="M 42.159844 189.964943 
L 376.959844 189.964943 
" style="fill:none;stroke:#cccccc;stroke-linecap:round;"/>
     </g>
     <g id="line2d_16"/>
     <g id="text_9">
      <!-- 0.2 -->
      <g style="fill:#262626;" transform="translate(21.259844 193.543849)scale(0.1 -0.1)">
       <use xlink:href="#ArialMT-48"/>
       <use x="55.615234" xlink:href="#ArialMT-46"/>
       <use x="83.398438" xlink:href="#ArialMT-50"/>
      </g>
     </g>
    </g>
    <g id="ytick_3">
     <g id="line2d_17">
      <path clip-path="url(#p6b437d4a15)" d="M 42.159844 150.430398 
L 376.959844 150.430398 
" style="fill:none;stroke:#cccccc;stroke-linecap:round;"/>
     </g>
     <g id="line2d_18"/>
     <g id="text_10">
      <!-- 0.4 -->
      <g style="fill:#262626;" transform="translate(21.259844 154.009304)scale(0.1 -0.1)">
       <use xlink:href="#ArialMT-48"/>
       <use x="55.615234" xlink:href="#ArialMT-46"/>
       <use x="83.398438" xlink:href="#ArialMT-52"/>
      </g>
     </g>
    </g>
    <g id="ytick_4">
     <g id="line2d_19">
      <path clip-path="url(#p6b437d4a15)" d="M 42.159844 110.895852 
L 376.959844 110.895852 
" style="fill:none;stroke:#cccccc;stroke-linecap:round;"/>
     </g>
     <g id="line2d_20"/>
     <g id="text_11">
      <!-- 0.6 -->
      <g style="fill:#262626;" transform="translate(21.259844 114.474759)scale(0.1 -0.1)">
       <use xlink:href="#ArialMT-48"/>
       <use x="55.615234" xlink:href="#ArialMT-46"/>
       <use x="83.398438" xlink:href="#ArialMT-54"/>
      </g>
     </g>
    </g>
    <g id="ytick_5">
     <g id="line2d_21">
      <path clip-path="url(#p6b437d4a15)" d="M 42.159844 71.361307 
L 376.959844 71.361307 
" style="fill:none;stroke:#cccccc;stroke-linecap:round;"/>
     </g>
     <g id="line2d_22"/>
     <g id="text_12">
      <!-- 0.8 -->
      <g style="fill:#262626;" transform="translate(21.259844 74.940213)scale(0.1 -0.1)">
       <use xlink:href="#ArialMT-48"/>
       <use x="55.615234" xlink:href="#ArialMT-46"/>
       <use x="83.398438" xlink:href="#ArialMT-56"/>
      </g>
     </g>
    </g>
    <g id="ytick_6">
     <g id="line2d_23">
      <path clip-path="url(#p6b437d4a15)" d="M 42.159844 31.826761 
L 376.959844 31.826761 
" style="fill:none;stroke:#cccccc;stroke-linecap:round;"/>
     </g>
     <g id="line2d_24"/>
     <g id="text_13">
      <!-- 1.0 -->
      <g style="fill:#262626;" transform="translate(21.259844 35.405668)scale(0.1 -0.1)">
       <use xlink:href="#ArialMT-49"/>
       <use x="55.615234" xlink:href="#ArialMT-46"/>
       <use x="83.398438" xlink:href="#ArialMT-48"/>
      </g>
     </g>
    </g>
    <g id="text_14">
     <!-- True positive rate -->
     <defs>
      <path d="M 25.921875 0 
L 25.921875 63.140625 
L 2.34375 63.140625 
L 2.34375 71.578125 
L 59.078125 71.578125 
L 59.078125 63.140625 
L 35.40625 63.140625 
L 35.40625 0 
z
" id="ArialMT-84"/>
      <path d="M 40.578125 0 
L 40.578125 7.625 
Q 34.515625 -1.171875 24.125 -1.171875 
Q 19.53125 -1.171875 15.546875 0.578125 
Q 11.578125 2.34375 9.640625 5 
Q 7.71875 7.671875 6.9375 11.53125 
Q 6.390625 14.109375 6.390625 19.734375 
L 6.390625 51.859375 
L 15.1875 51.859375 
L 15.1875 23.09375 
Q 15.1875 16.21875 15.71875 13.8125 
Q 16.546875 10.359375 19.234375 8.375 
Q 21.921875 6.390625 25.875 6.390625 
Q 29.828125 6.390625 33.296875 8.421875 
Q 36.765625 10.453125 38.203125 13.9375 
Q 39.65625 17.4375 39.65625 24.078125 
L 39.65625 51.859375 
L 48.4375 51.859375 
L 48.4375 0 
z
" id="ArialMT-117"/>
     </defs>
     <g style="fill:#262626;" transform="translate(15.073594 172.944375)rotate(-90)scale(0.11 -0.11)">
      <use xlink:href="#ArialMT-84"/>
      <use x="57.333984" xlink:href="#ArialMT-114"/>
      <use x="90.634766" xlink:href="#ArialMT-117"/>
      <use x="146.25" xlink:href="#ArialMT-101"/>
      <use x="201.865234" xlink:href="#ArialMT-32"/>
      <use x="229.648438" xlink:href="#ArialMT-112"/>
      <use x="285.263672" xlink:href="#ArialMT-111"/>
      <use x="340.878906" xlink:href="#ArialMT-115"/>
      <use x="390.878906" xlink:href="#ArialMT-105"/>
      <use x="413.095703" xlink:href="#ArialMT-116"/>
      <use x="440.878906" xlink:href="#ArialMT-105"/>
      <use x="463.095703" xlink:href="#ArialMT-118"/>
      <use x="513.095703" xlink:href="#ArialMT-101"/>
      <use x="568.710938" xlink:href="#ArialMT-32"/>
      <use x="596.494141" xlink:href="#ArialMT-114"/>
      <use x="629.794922" xlink:href="#ArialMT-97"/>
      <use x="685.410156" xlink:href="#ArialMT-116"/>
      <use x="713.193359" xlink:href="#ArialMT-101"/>
     </g>
    </g>
   </g>
   <g id="line2d_25">
    <path clip-path="url(#p6b437d4a15)" d="M 57.378026 229.499489 
L 57.482224 228.997463 
L 57.586422 228.997463 
L 57.586422 228.36993 
L 57.794819 228.36993 
L 57.899018 227.993411 
L 58.003216 227.993411 
L 58.003216 227.867904 
L 58.211613 227.867904 
L 58.315812 226.989359 
L 58.42001 226.989359 
L 58.524208 226.110813 
L 58.628407 226.110813 
L 58.732605 224.228216 
L 58.941002 224.228216 
L 59.045201 223.34967 
L 59.149399 223.34967 
L 59.253597 222.094606 
L 59.357796 222.094606 
L 59.461994 221.59258 
L 59.566193 221.59258 
L 59.670391 220.965047 
L 59.878788 220.965047 
L 59.878788 219.835489 
L 60.087185 219.835489 
L 60.191383 219.207956 
L 60.295582 219.207956 
L 60.39978 218.956943 
L 61.024971 218.956943 
L 61.024971 218.203904 
L 61.337566 218.203904 
L 61.337566 217.827385 
L 61.545963 217.827385 
L 61.545963 217.576372 
L 61.962757 217.576372 
L 62.066955 217.325359 
L 62.587947 217.325359 
L 62.692146 215.944787 
L 62.796344 215.944787 
L 62.900543 215.442761 
L 63.004741 215.442761 
L 63.004741 215.317255 
L 63.317337 215.317255 
L 63.317337 214.815229 
L 63.525733 214.815229 
L 63.525733 214.689722 
L 63.73413 214.689722 
L 63.73413 214.438709 
L 64.150924 214.438709 
L 64.255122 213.811177 
L 64.359321 213.811177 
L 64.359321 213.560164 
L 64.567718 213.560164 
L 64.671916 212.932631 
L 64.776115 212.932631 
L 64.880313 212.556112 
L 64.984512 212.556112 
L 65.08871 211.803073 
L 65.192908 211.803073 
L 65.192908 211.677567 
L 65.505504 211.677567 
L 65.609702 211.301047 
L 65.818099 211.301047 
L 65.922297 211.050034 
L 66.026496 211.050034 
L 66.130694 210.673515 
L 66.234893 210.673515 
L 66.234893 210.422502 
L 66.44329 210.422502 
L 66.547488 210.045982 
L 66.651687 210.045982 
L 66.755885 208.790917 
L 66.860083 208.790917 
L 66.860083 208.414398 
L 67.06848 208.414398 
L 67.172679 207.661359 
L 67.381076 207.661359 
L 67.485274 207.410346 
L 67.589472 207.410346 
L 67.693671 206.782813 
L 67.797869 206.782813 
L 67.902068 206.155281 
L 68.006266 206.155281 
L 68.006266 206.029774 
L 68.214663 206.029774 
L 68.318862 205.527748 
L 68.42306 205.527748 
L 68.527258 205.276735 
L 68.735655 205.276735 
L 68.735655 205.151229 
L 69.152449 205.151229 
L 69.256647 204.02167 
L 69.360846 204.02167 
L 69.360846 203.519644 
L 69.569243 203.519644 
L 69.569243 203.143125 
L 69.77764 203.143125 
L 69.77764 203.017619 
L 69.986037 203.017619 
L 70.090235 202.641099 
L 70.298632 202.641099 
L 70.40283 202.013567 
L 70.507029 202.013567 
L 70.611227 201.762554 
L 70.819624 201.762554 
L 70.819624 201.511541 
L 71.236418 201.511541 
L 71.340616 201.135021 
L 71.444815 201.135021 
L 71.444815 200.884008 
L 71.653212 200.884008 
L 71.75741 200.130969 
L 72.174204 200.130969 
L 72.278402 199.503437 
L 72.382601 199.503437 
L 72.486799 199.252424 
L 72.903593 199.252424 
L 73.007791 198.248372 
L 73.11199 198.248372 
L 73.216188 197.871852 
L 73.320387 197.871852 
L 73.320387 197.495333 
L 73.632982 197.495333 
L 73.632982 197.369826 
L 74.049776 197.369826 
L 74.153974 196.114761 
L 74.362371 196.114761 
L 74.466569 195.738242 
L 74.570768 195.738242 
L 74.674966 195.487229 
L 74.779165 195.487229 
L 74.883363 194.985203 
L 75.195958 194.985203 
L 75.195958 194.859696 
L 75.404355 194.859696 
L 75.508554 193.102606 
L 75.612752 193.102606 
L 75.716951 192.475073 
L 75.821149 192.475073 
L 75.821149 192.098554 
L 76.029546 192.098554 
L 76.133744 190.592476 
L 76.237943 190.592476 
L 76.342141 190.215956 
L 76.550538 190.215956 
L 76.550538 189.964943 
L 76.758935 189.964943 
L 76.863133 189.71393 
L 77.07153 189.71393 
L 77.07153 189.588424 
L 77.279927 189.588424 
L 77.384126 189.337411 
L 77.592522 189.337411 
L 77.592522 188.584372 
L 77.905118 188.584372 
L 77.905118 188.207852 
L 78.217713 188.207852 
L 78.321912 187.705826 
L 78.42611 187.705826 
L 78.42611 187.454813 
L 78.634507 187.454813 
L 78.634507 187.329307 
L 78.842904 187.329307 
L 78.947102 186.701774 
L 79.051301 186.701774 
L 79.155499 185.948735 
L 79.259697 185.948735 
L 79.363896 185.321203 
L 79.468094 185.321203 
L 79.468094 185.195696 
L 79.78069 185.195696 
L 79.884888 184.944683 
L 80.197483 184.944683 
L 80.301682 184.69367 
L 80.926872 184.69367 
L 80.926872 184.568164 
L 81.239468 184.568164 
L 81.343666 184.317151 
L 81.552063 184.317151 
L 81.656262 183.815125 
L 81.76046 183.815125 
L 81.864658 183.564112 
L 81.968857 183.564112 
L 81.968857 183.438606 
L 82.281452 183.438606 
L 82.385651 182.685567 
L 82.489849 182.685567 
L 82.489849 182.434554 
L 82.698246 182.434554 
L 82.698246 182.309047 
L 83.11504 182.309047 
L 83.11504 182.183541 
L 83.323437 182.183541 
L 83.323437 182.058034 
L 83.531833 182.058034 
L 83.531833 181.807021 
L 83.74023 181.807021 
L 83.74023 181.556008 
L 84.052826 181.556008 
L 84.052826 181.304995 
L 84.261222 181.304995 
L 84.261222 181.179489 
L 84.469619 181.179489 
L 84.469619 180.928476 
L 84.678016 180.928476 
L 84.782215 180.175437 
L 84.990612 180.175437 
L 85.09481 179.673411 
L 85.511604 179.673411 
L 85.615802 179.422398 
L 85.928397 179.422398 
L 85.928397 179.171385 
L 86.345191 179.171385 
L 86.345191 178.920372 
L 86.657787 178.920372 
L 86.761985 178.167333 
L 86.970382 178.167333 
L 87.07458 177.665307 
L 87.178779 177.665307 
L 87.282977 177.288787 
L 87.387176 177.288787 
L 87.491374 176.786761 
L 87.803969 176.786761 
L 87.803969 176.535748 
L 88.012366 176.535748 
L 88.012366 176.284735 
L 88.533358 176.284735 
L 88.533358 175.908216 
L 88.845954 175.908216 
L 88.845954 175.657203 
L 89.054351 175.657203 
L 89.158549 175.155177 
L 89.262747 175.155177 
L 89.262747 175.02967 
L 89.471144 175.02967 
L 89.575343 174.025619 
L 89.679541 174.025619 
L 89.78374 173.523593 
L 89.887938 173.523593 
L 89.992137 173.27258 
L 90.40893 173.27258 
L 90.40893 173.147073 
L 90.617327 173.147073 
L 90.617327 173.021567 
L 90.825724 173.021567 
L 90.929922 172.017515 
L 91.034121 172.017515 
L 91.138319 171.138969 
L 91.242518 171.138969 
L 91.242518 170.887956 
L 91.76351 170.887956 
L 91.867708 170.511437 
L 92.284502 170.511437 
L 92.284502 170.134917 
L 92.492899 170.134917 
L 92.597097 169.758398 
L 92.701296 169.758398 
L 92.805494 169.005359 
L 93.013891 169.005359 
L 93.11809 167.750294 
L 93.222288 167.750294 
L 93.222288 167.624787 
L 93.534883 167.624787 
L 93.639082 167.373774 
L 93.74328 167.373774 
L 93.74328 166.871748 
L 93.951677 166.871748 
L 94.055876 166.369722 
L 94.160074 166.369722 
L 94.264272 165.74219 
L 94.368471 165.74219 
L 94.368471 165.36567 
L 94.576868 165.36567 
L 94.681066 164.612631 
L 94.993662 164.612631 
L 94.993662 164.361619 
L 95.202058 164.361619 
L 95.202058 164.110606 
L 95.410455 164.110606 
L 95.514654 163.483073 
L 95.618852 163.483073 
L 95.618852 163.357567 
L 95.931447 163.357567 
L 96.035646 162.604528 
L 96.139844 162.604528 
L 96.139844 162.479021 
L 96.348241 162.479021 
L 96.348241 162.353515 
L 96.869233 162.353515 
L 96.869233 161.976995 
L 97.07763 161.976995 
L 97.181829 161.725982 
L 97.494424 161.725982 
L 97.598622 160.72193 
L 97.702821 160.72193 
L 97.807019 160.345411 
L 97.911218 160.345411 
L 98.015416 159.717878 
L 98.223813 159.717878 
L 98.223813 159.592372 
L 98.536408 159.592372 
L 98.536408 159.466865 
L 99.057401 159.466865 
L 99.161599 158.713826 
L 99.265798 158.713826 
L 99.369996 158.337307 
L 99.474194 158.337307 
L 99.578393 157.458761 
L 99.890988 157.458761 
L 99.995187 156.705722 
L 100.099385 156.705722 
L 100.099385 156.454709 
L 100.516179 156.454709 
L 100.516179 156.329203 
L 100.828774 156.329203 
L 100.932973 156.07819 
L 101.037171 156.07819 
L 101.037171 155.952683 
L 101.349766 155.952683 
L 101.349766 155.827177 
L 101.662362 155.827177 
L 101.662362 155.70167 
L 101.974957 155.70167 
L 102.079155 155.199644 
L 102.495949 155.199644 
L 102.495949 155.074138 
L 102.704346 155.074138 
L 102.808544 154.823125 
L 102.912743 154.823125 
L 103.016941 154.446606 
L 103.12114 154.446606 
L 103.225338 154.195593 
L 103.329537 154.195593 
L 103.433735 153.56806 
L 103.74633 153.56806 
L 103.850529 153.317047 
L 103.954727 153.317047 
L 103.954727 153.066034 
L 104.163124 153.066034 
L 104.267323 152.689515 
L 104.371521 152.689515 
L 104.475719 152.438502 
L 105.205108 152.438502 
L 105.309307 152.061982 
L 106.45549 152.061982 
L 106.559688 151.810969 
L 106.872283 151.810969 
L 106.872283 151.308943 
L 107.08068 151.308943 
L 107.184879 150.681411 
L 107.393276 150.681411 
L 107.393276 150.430398 
L 107.601673 150.430398 
L 107.601673 150.304891 
L 107.810069 150.304891 
L 107.810069 150.179385 
L 108.43526 150.179385 
L 108.43526 149.928372 
L 108.643657 149.928372 
L 108.747855 149.426346 
L 108.852054 149.426346 
L 108.956252 149.175333 
L 109.268848 149.175333 
L 109.268848 148.92432 
L 109.581443 148.92432 
L 109.581443 148.296787 
L 109.998237 148.296787 
L 109.998237 148.045774 
L 110.310832 148.045774 
L 110.310832 147.669255 
L 110.519229 147.669255 
L 110.519229 147.418242 
L 111.457015 147.418242 
L 111.457015 147.292735 
L 111.76961 147.292735 
L 111.76961 147.167229 
L 111.978007 147.167229 
L 112.082205 146.539696 
L 112.290602 146.539696 
L 112.290602 146.288683 
L 112.603198 146.288683 
L 112.707396 145.912164 
L 112.811594 145.912164 
L 112.915793 145.410138 
L 113.332587 145.410138 
L 113.436785 144.782606 
L 113.540983 144.782606 
L 113.540983 144.406086 
L 113.74938 144.406086 
L 113.853579 143.90406 
L 114.061976 143.90406 
L 114.061976 143.778554 
L 114.374571 143.778554 
L 114.374571 143.653047 
L 114.582968 143.653047 
L 114.687166 143.276528 
L 114.895563 143.276528 
L 114.895563 143.025515 
L 115.312357 143.025515 
L 115.312357 142.900008 
L 115.520754 142.900008 
L 115.624952 142.523489 
L 115.833349 142.523489 
L 115.833349 142.397982 
L 116.041746 142.397982 
L 116.041746 142.272476 
L 116.45854 142.272476 
L 116.562738 141.644943 
L 116.666937 141.644943 
L 116.666937 141.519437 
L 116.875333 141.519437 
L 116.875333 141.39393 
L 117.396326 141.39393 
L 117.396326 140.891904 
L 117.708921 140.891904 
L 117.813119 140.389878 
L 117.917318 140.389878 
L 118.021516 139.887852 
L 118.229913 139.887852 
L 118.334112 139.385826 
L 118.646707 139.385826 
L 118.750905 138.8838 
L 119.271898 138.8838 
L 119.376096 138.507281 
L 119.584493 138.507281 
L 119.688691 137.503229 
L 119.79289 137.503229 
L 119.79289 137.377722 
L 120.209683 137.377722 
L 120.209683 137.252216 
L 120.41808 137.252216 
L 120.522279 136.624683 
L 120.730676 136.624683 
L 120.730676 136.499177 
L 120.939073 136.499177 
L 121.043271 135.620631 
L 121.355866 135.620631 
L 121.355866 135.244112 
L 121.564263 135.244112 
L 121.564263 134.993099 
L 121.876858 134.993099 
L 121.876858 134.867593 
L 122.189454 134.867593 
L 122.189454 134.61658 
L 122.397851 134.61658 
L 122.397851 134.114554 
L 122.606248 134.114554 
L 122.606248 132.859489 
L 122.814644 132.859489 
L 122.918843 132.608476 
L 123.12724 132.608476 
L 123.12724 132.10645 
L 123.335637 132.10645 
L 123.439835 130.349359 
L 123.960827 130.349359 
L 124.065026 129.721826 
L 124.273423 129.721826 
L 124.273423 129.470813 
L 124.481819 129.470813 
L 124.481819 129.345307 
L 125.211208 129.345307 
L 125.315407 128.968787 
L 125.523804 128.968787 
L 125.523804 128.843281 
L 125.732201 128.843281 
L 125.732201 128.717774 
L 125.940598 128.717774 
L 126.044796 128.090242 
L 126.148994 128.090242 
L 126.148994 127.964735 
L 126.357391 127.964735 
L 126.357391 127.713722 
L 126.669987 127.713722 
L 126.774185 127.337203 
L 126.878383 127.337203 
L 126.982582 127.08619 
L 127.190979 127.08619 
L 127.295177 126.584164 
L 127.503574 126.584164 
L 127.607773 126.207644 
L 127.711971 126.207644 
L 127.816169 125.580112 
L 127.920368 125.580112 
L 127.920368 125.454606 
L 128.232963 125.454606 
L 128.232963 125.078086 
L 128.44136 125.078086 
L 128.545558 124.57606 
L 128.753955 124.57606 
L 128.858154 124.199541 
L 129.066551 124.199541 
L 129.170749 123.948528 
L 129.274948 123.948528 
L 129.379146 123.446502 
L 129.483344 123.446502 
L 129.483344 123.195489 
L 129.79594 123.195489 
L 129.79594 122.693463 
L 130.004337 122.693463 
L 130.004337 122.44245 
L 130.212733 122.44245 
L 130.212733 122.191437 
L 130.837924 122.191437 
L 130.942123 121.814917 
L 131.046321 121.814917 
L 131.046321 121.689411 
L 131.984107 121.689411 
L 132.088305 121.438398 
L 132.400901 121.438398 
L 132.400901 121.312891 
L 132.817694 121.312891 
L 132.817694 120.685359 
L 133.338687 120.685359 
L 133.338687 120.559852 
L 134.068076 120.559852 
L 134.172274 120.183333 
L 134.380671 120.183333 
L 134.484869 119.681307 
L 134.589068 119.681307 
L 134.693266 119.304787 
L 135.005862 119.304787 
L 135.11006 118.802761 
L 135.214258 118.802761 
L 135.214258 118.677255 
L 135.943648 118.677255 
L 135.943648 118.426242 
L 136.152044 118.426242 
L 136.152044 118.300735 
L 136.360441 118.300735 
L 136.46464 117.924216 
L 136.673037 117.924216 
L 136.673037 117.798709 
L 137.08983 117.798709 
L 137.08983 117.673203 
L 137.610823 117.673203 
L 137.610823 117.547696 
L 137.819219 117.547696 
L 137.923418 117.04567 
L 138.027616 117.04567 
L 138.027616 116.794657 
L 138.236013 116.794657 
L 138.236013 116.669151 
L 138.548608 116.669151 
L 138.652807 116.418138 
L 139.069601 116.418138 
L 139.069601 116.292631 
L 139.382196 116.292631 
L 139.486394 115.665099 
L 139.590593 115.665099 
L 139.694791 115.037567 
L 140.840974 115.037567 
L 140.945173 114.535541 
L 141.049371 114.535541 
L 141.153569 114.284528 
L 141.257768 114.284528 
L 141.361966 114.033515 
L 141.570363 114.033515 
L 141.674562 113.405982 
L 141.882958 113.405982 
L 141.882958 113.280476 
L 142.403951 113.280476 
L 142.403951 113.154969 
L 142.612348 113.154969 
L 142.716546 112.903956 
L 143.029141 112.903956 
L 143.13334 112.652943 
L 143.237538 112.652943 
L 143.237538 112.40193 
L 143.445935 112.40193 
L 143.550134 112.150917 
L 143.862729 112.150917 
L 143.966927 111.899904 
L 144.071126 111.899904 
L 144.071126 111.523385 
L 144.592118 111.523385 
L 144.696316 111.146865 
L 144.904713 111.146865 
L 144.904713 110.770346 
L 145.11311 110.770346 
L 145.217309 110.393826 
L 145.321507 110.393826 
L 145.321507 110.26832 
L 145.529904 110.26832 
L 145.529904 110.142813 
L 145.842499 110.142813 
L 145.842499 109.138761 
L 146.155094 109.138761 
L 146.155094 108.887748 
L 146.780285 108.887748 
L 146.884484 108.385722 
L 147.197079 108.385722 
L 147.301277 108.134709 
L 147.405476 108.134709 
L 147.509674 107.75819 
L 147.613873 107.75819 
L 147.718071 107.38167 
L 148.030666 107.38167 
L 148.030666 107.005151 
L 148.760055 107.005151 
L 148.864254 106.754138 
L 149.072651 106.754138 
L 149.176849 106.503125 
L 149.489444 106.503125 
L 149.593643 106.252112 
L 149.697841 106.252112 
L 149.80204 105.750086 
L 149.906238 105.750086 
L 150.010437 105.499073 
L 150.218834 105.499073 
L 150.218834 105.373567 
L 150.42723 105.373567 
L 150.531429 104.997047 
L 150.635627 104.997047 
L 150.739826 104.620528 
L 151.052421 104.620528 
L 151.052421 104.244008 
L 151.260818 104.244008 
L 151.365016 103.616476 
L 151.990207 103.616476 
L 151.990207 103.239956 
L 152.511199 103.239956 
L 152.615398 102.863437 
L 152.927993 102.863437 
L 152.927993 102.73793 
L 153.13639 102.73793 
L 153.240588 102.486917 
L 153.344787 102.486917 
L 153.344787 102.361411 
L 153.657382 102.361411 
L 153.657382 102.235904 
L 153.865779 102.235904 
L 153.865779 101.859385 
L 154.074176 101.859385 
L 154.074176 101.733878 
L 154.282573 101.733878 
L 154.282573 101.482865 
L 154.699366 101.482865 
L 154.803565 100.2278 
L 154.907763 100.2278 
L 154.907763 99.851281 
L 155.220359 99.851281 
L 155.220359 99.600268 
L 155.428755 99.600268 
L 155.532954 99.098242 
L 155.637152 99.098242 
L 155.741351 98.847229 
L 155.949748 98.847229 
L 155.949748 98.721722 
L 156.262343 98.721722 
L 156.366541 98.345203 
L 156.574938 98.345203 
L 156.574938 98.219696 
L 156.783335 98.219696 
L 156.783335 97.843177 
L 157.09593 97.843177 
L 157.09593 97.592164 
L 157.304327 97.592164 
L 157.408526 96.964631 
L 157.512724 96.964631 
L 157.512724 96.839125 
L 157.929518 96.839125 
L 157.929518 96.713619 
L 158.346312 96.713619 
L 158.346312 96.588112 
L 158.554709 96.588112 
L 158.554709 96.462606 
L 158.763105 96.462606 
L 158.867304 95.709567 
L 158.971502 95.709567 
L 158.971502 95.58406 
L 159.284098 95.58406 
L 159.284098 95.333047 
L 159.596693 95.333047 
L 159.596693 95.082034 
L 160.013487 95.082034 
L 160.013487 94.956528 
L 160.43028 94.956528 
L 160.43028 94.831021 
L 160.742876 94.831021 
L 160.847074 94.203489 
L 161.159669 94.203489 
L 161.263868 93.826969 
L 161.368066 93.826969 
L 161.368066 93.575956 
L 161.78486 93.575956 
L 161.78486 93.45045 
L 162.201654 93.45045 
L 162.305852 93.07393 
L 162.410051 93.07393 
L 162.410051 92.822917 
L 162.618448 92.822917 
L 162.722646 92.571904 
L 163.035241 92.571904 
L 163.13944 92.195385 
L 163.347837 92.195385 
L 163.347837 91.944372 
L 163.556234 91.944372 
L 163.556234 91.818865 
L 163.973027 91.818865 
L 164.077226 91.442346 
L 164.285623 91.442346 
L 164.285623 91.316839 
L 164.494019 91.316839 
L 164.494019 91.065826 
L 165.327607 91.065826 
L 165.327607 90.94032 
L 165.536004 90.94032 
L 165.640202 90.438294 
L 165.744401 90.438294 
L 165.744401 90.312787 
L 166.161194 90.312787 
L 166.161194 90.187281 
L 166.577988 90.187281 
L 166.577988 90.061774 
L 167.515774 90.061774 
L 167.619973 89.810761 
L 168.036766 89.810761 
L 168.140965 89.434242 
L 168.349362 89.434242 
L 168.349362 89.057722 
L 168.557759 89.057722 
L 168.661957 88.681203 
L 168.870354 88.681203 
L 168.974552 88.43019 
L 169.391346 88.43019 
L 169.391346 88.304683 
L 170.016537 88.304683 
L 170.016537 88.179177 
L 170.224934 88.179177 
L 170.224934 88.05367 
L 170.43333 88.05367 
L 170.43333 87.802657 
L 170.641727 87.802657 
L 170.641727 87.677151 
L 171.162719 87.677151 
L 171.162719 87.551644 
L 171.579513 87.551644 
L 171.579513 87.175125 
L 172.204704 87.175125 
L 172.308902 86.673099 
L 172.413101 86.673099 
L 172.413101 86.547593 
L 172.725696 86.547593 
L 172.829894 85.543541 
L 173.350887 85.543541 
L 173.455085 85.167021 
L 173.976077 85.167021 
L 173.976077 84.916008 
L 174.497069 84.916008 
L 174.497069 84.664995 
L 175.12226 84.664995 
L 175.226459 84.162969 
L 176.060046 84.162969 
L 176.164244 83.660943 
L 176.372641 83.660943 
L 176.372641 83.40993 
L 176.581038 83.40993 
L 176.581038 83.158917 
L 176.789435 83.158917 
L 176.789435 82.907904 
L 177.10203 82.907904 
L 177.206229 82.656891 
L 177.310427 82.656891 
L 177.414626 82.154865 
L 177.831419 82.154865 
L 177.935618 81.903852 
L 178.144015 81.903852 
L 178.248213 81.527333 
L 178.352412 81.527333 
L 178.352412 81.150813 
L 179.290198 81.150813 
L 179.290198 80.8998 
L 179.602793 80.8998 
L 179.602793 80.648787 
L 179.81119 80.648787 
L 179.81119 80.523281 
L 180.748976 80.523281 
L 180.748976 80.397774 
L 181.165769 80.397774 
L 181.165769 80.146761 
L 181.582563 80.146761 
L 181.686762 79.770242 
L 181.79096 79.770242 
L 181.79096 79.519229 
L 182.416151 79.519229 
L 182.416151 79.393722 
L 183.041341 79.393722 
L 183.041341 79.268216 
L 183.249738 79.268216 
L 183.249738 79.017203 
L 183.979127 79.017203 
L 183.979127 78.891696 
L 184.187524 78.891696 
L 184.187524 78.76619 
L 184.604318 78.76619 
L 184.604318 78.640683 
L 184.916913 78.640683 
L 185.021112 78.38967 
L 185.12531 78.38967 
L 185.12531 78.264164 
L 185.854699 78.264164 
L 185.854699 78.138657 
L 186.063096 78.138657 
L 186.063096 78.013151 
L 186.584088 78.013151 
L 186.584088 77.762138 
L 187.209279 77.762138 
L 187.209279 77.385619 
L 187.626073 77.385619 
L 187.626073 77.009099 
L 187.938668 77.009099 
L 188.042866 76.758086 
L 188.251263 76.758086 
L 188.251263 76.507073 
L 188.45966 76.507073 
L 188.563859 76.130554 
L 188.772255 76.130554 
L 188.772255 75.879541 
L 189.397446 75.879541 
L 189.501645 75.628528 
L 190.126835 75.628528 
L 190.126835 75.252008 
L 190.543629 75.252008 
L 190.543629 75.126502 
L 191.16882 75.126502 
L 191.273018 74.875489 
L 191.481415 74.875489 
L 191.481415 74.624476 
L 192.210804 74.624476 
L 192.210804 73.996943 
L 192.419201 73.996943 
L 192.419201 73.871437 
L 192.835995 73.871437 
L 192.940193 73.369411 
L 193.14859 73.369411 
L 193.252788 73.118398 
L 193.356987 73.118398 
L 193.356987 72.992891 
L 193.565384 72.992891 
L 193.565384 72.867385 
L 194.086376 72.867385 
L 194.190574 72.490865 
L 194.398971 72.490865 
L 194.398971 72.239852 
L 194.711566 72.239852 
L 194.711566 72.114346 
L 194.919963 72.114346 
L 194.919963 71.988839 
L 195.232559 71.988839 
L 195.232559 71.737826 
L 195.649352 71.737826 
L 195.649352 71.61232 
L 196.274543 71.61232 
L 196.274543 71.486813 
L 196.48294 71.486813 
L 196.48294 71.361307 
L 196.691337 71.361307 
L 196.691337 71.110294 
L 196.899734 71.110294 
L 196.899734 70.984787 
L 197.10813 70.984787 
L 197.10813 70.859281 
L 198.150115 70.859281 
L 198.150115 70.608268 
L 198.46271 70.608268 
L 198.566909 70.357255 
L 199.400496 70.357255 
L 199.504695 70.106242 
L 199.608893 70.106242 
L 199.713091 69.729722 
L 200.650877 69.729722 
L 200.650877 69.604216 
L 200.859274 69.604216 
L 200.859274 69.478709 
L 201.067671 69.478709 
L 201.067671 69.353203 
L 201.484465 69.353203 
L 201.484465 68.72567 
L 201.901259 68.72567 
L 202.005457 68.223644 
L 202.318052 68.223644 
L 202.318052 67.972631 
L 202.526449 67.972631 
L 202.630648 67.345099 
L 203.255838 67.345099 
L 203.255838 67.219593 
L 203.672632 67.219593 
L 203.672632 67.094086 
L 204.297823 67.094086 
L 204.297823 66.717567 
L 204.714616 66.717567 
L 204.714616 66.59206 
L 205.444005 66.59206 
L 205.444005 66.466554 
L 206.381791 66.466554 
L 206.381791 66.215541 
L 206.590188 66.215541 
L 206.590188 65.839021 
L 206.798585 65.839021 
L 206.798585 65.713515 
L 207.11118 65.713515 
L 207.215379 65.211489 
L 207.423776 65.211489 
L 207.527974 64.960476 
L 207.84057 64.960476 
L 207.84057 64.834969 
L 208.048966 64.834969 
L 208.048966 64.709463 
L 208.674157 64.709463 
L 208.674157 64.583956 
L 209.403546 64.583956 
L 209.507745 64.207437 
L 209.924538 64.207437 
L 210.028737 63.579904 
L 210.549729 63.579904 
L 210.653927 63.328891 
L 210.966523 63.328891 
L 210.966523 62.952372 
L 211.17492 62.952372 
L 211.17492 62.826865 
L 211.383316 62.826865 
L 211.487515 62.575852 
L 211.904309 62.575852 
L 211.904309 62.450346 
L 212.633698 62.450346 
L 212.633698 62.073826 
L 212.842095 62.073826 
L 212.842095 61.320787 
L 213.15469 61.320787 
L 213.258888 61.069774 
L 213.675682 61.069774 
L 213.675682 60.944268 
L 213.988277 60.944268 
L 213.988277 60.693255 
L 214.613468 60.693255 
L 214.613468 60.567748 
L 214.821865 60.567748 
L 214.926063 60.316735 
L 215.030262 60.316735 
L 215.030262 60.191229 
L 215.238659 60.191229 
L 215.238659 60.065722 
L 215.655452 60.065722 
L 215.655452 59.814709 
L 216.176445 59.814709 
L 216.280643 59.187177 
L 216.48904 59.187177 
L 216.48904 59.06167 
L 216.697437 59.06167 
L 216.697437 58.685151 
L 217.11423 58.685151 
L 217.11423 58.559644 
L 217.635223 58.559644 
L 217.635223 58.434138 
L 217.947818 58.434138 
L 218.052016 58.183125 
L 218.156215 58.183125 
L 218.156215 57.932112 
L 218.46881 57.932112 
L 218.46881 57.806606 
L 219.198199 57.806606 
L 219.302398 57.430086 
L 219.614993 57.430086 
L 219.614993 57.30458 
L 219.82339 57.30458 
L 219.82339 57.179073 
L 221.073771 57.179073 
L 221.073771 57.053567 
L 221.282168 57.053567 
L 221.386366 56.802554 
L 222.219954 56.802554 
L 222.219954 56.677047 
L 222.428351 56.677047 
L 222.428351 56.551541 
L 222.845145 56.551541 
L 222.949343 56.300528 
L 223.15774 56.300528 
L 223.15774 56.049515 
L 223.470335 56.049515 
L 223.470335 55.421982 
L 223.991327 55.421982 
L 223.991327 55.296476 
L 224.199724 55.296476 
L 224.303923 55.045463 
L 225.241709 55.045463 
L 225.241709 54.919956 
L 225.554304 54.919956 
L 225.554304 54.668943 
L 225.866899 54.668943 
L 225.866899 54.543437 
L 226.387891 54.543437 
L 226.387891 54.41793 
L 226.596288 54.41793 
L 226.596288 54.292424 
L 226.804685 54.292424 
L 226.804685 54.041411 
L 227.221479 54.041411 
L 227.221479 53.915904 
L 227.429876 53.915904 
L 227.429876 53.790398 
L 228.263463 53.790398 
L 228.263463 53.539385 
L 228.784455 53.539385 
L 228.784455 53.413878 
L 228.992852 53.413878 
L 228.992852 53.288372 
L 229.201249 53.288372 
L 229.201249 53.162865 
L 231.702012 53.162865 
L 231.80621 52.911852 
L 232.535599 52.911852 
L 232.535599 52.786346 
L 232.952393 52.786346 
L 232.952393 52.535333 
L 234.098576 52.535333 
L 234.098576 52.409826 
L 234.306973 52.409826 
L 234.306973 52.28432 
L 234.619568 52.28432 
L 234.619568 52.158813 
L 235.036362 52.158813 
L 235.14056 51.656787 
L 235.244759 51.656787 
L 235.244759 51.531281 
L 235.661552 51.531281 
L 235.661552 51.405774 
L 236.078346 51.405774 
L 236.078346 51.280268 
L 236.286743 51.280268 
L 236.286743 51.154761 
L 236.599338 51.154761 
L 236.599338 51.029255 
L 237.328727 51.029255 
L 237.432926 50.778242 
L 238.162315 50.778242 
L 238.266513 50.401722 
L 239.204299 50.401722 
L 239.204299 50.276216 
L 240.142085 50.276216 
L 240.142085 50.150709 
L 240.871474 50.150709 
L 240.871474 50.025203 
L 241.079871 50.025203 
L 241.18407 49.77419 
L 241.392466 49.77419 
L 241.496665 49.523177 
L 241.913459 49.523177 
L 241.913459 49.39767 
L 242.330252 49.39767 
L 242.330252 49.146657 
L 242.851245 49.146657 
L 242.851245 48.393619 
L 243.268038 48.393619 
L 243.268038 48.268112 
L 243.476435 48.268112 
L 243.476435 48.142606 
L 244.205824 48.142606 
L 244.205824 48.017099 
L 244.51842 48.017099 
L 244.51842 47.891593 
L 245.14361 47.891593 
L 245.14361 47.766086 
L 245.977198 47.766086 
L 245.977198 47.64058 
L 246.393991 47.64058 
L 246.393991 47.515073 
L 246.914984 47.515073 
L 246.914984 47.138554 
L 247.435976 47.138554 
L 247.540174 46.636528 
L 248.582159 46.636528 
L 248.582159 46.511021 
L 249.624143 46.511021 
L 249.624143 46.385515 
L 250.770326 46.385515 
L 250.874524 46.134502 
L 251.395516 46.134502 
L 251.395516 46.008995 
L 252.020707 46.008995 
L 252.020707 45.883489 
L 252.645898 45.883489 
L 252.645898 45.757982 
L 252.958493 45.757982 
L 252.958493 45.632476 
L 253.375287 45.632476 
L 253.375287 45.506969 
L 253.896279 45.506969 
L 253.896279 45.381463 
L 254.52147 45.381463 
L 254.52147 45.255956 
L 255.14666 45.255956 
L 255.14666 45.13045 
L 256.918034 45.13045 
L 256.918034 45.004943 
L 257.334827 45.004943 
L 257.334827 44.879437 
L 258.168415 44.879437 
L 258.272613 44.502917 
L 258.689407 44.502917 
L 258.689407 44.251904 
L 259.106201 44.251904 
L 259.106201 44.126398 
L 260.460781 44.126398 
L 260.564979 43.875385 
L 261.919559 43.875385 
L 261.919559 43.624372 
L 262.127956 43.624372 
L 262.127956 43.498865 
L 262.336352 43.498865 
L 262.336352 43.373359 
L 262.648948 43.373359 
L 262.753146 43.122346 
L 262.961543 43.122346 
L 262.961543 42.996839 
L 263.586734 42.996839 
L 263.586734 42.871333 
L 264.732916 42.871333 
L 264.732916 42.745826 
L 266.712687 42.745826 
L 266.816885 42.494813 
L 267.233679 42.494813 
L 267.233679 42.369307 
L 267.650473 42.369307 
L 267.650473 42.2438 
L 268.171465 42.2438 
L 268.171465 42.118294 
L 268.692457 42.118294 
L 268.692457 41.992787 
L 270.255434 41.992787 
L 270.255434 41.867281 
L 272.443601 41.867281 
L 272.443601 41.741774 
L 272.651998 41.741774 
L 272.651998 41.616268 
L 273.693982 41.616268 
L 273.693982 41.365255 
L 273.902379 41.365255 
L 273.902379 41.239748 
L 274.110776 41.239748 
L 274.110776 40.988735 
L 275.256959 40.988735 
L 275.256959 40.863229 
L 275.465356 40.863229 
L 275.465356 40.737722 
L 275.882149 40.737722 
L 275.882149 40.612216 
L 276.50734 40.612216 
L 276.50734 40.486709 
L 276.715737 40.486709 
L 276.715737 40.361203 
L 276.924134 40.361203 
L 276.924134 40.235696 
L 277.132531 40.235696 
L 277.132531 40.11019 
L 278.174515 40.11019 
L 278.278713 39.73367 
L 279.529095 39.73367 
L 279.529095 39.608164 
L 279.945888 39.608164 
L 279.945888 39.482657 
L 280.258484 39.482657 
L 280.258484 39.357151 
L 280.571079 39.357151 
L 280.571079 39.231644 
L 280.779476 39.231644 
L 280.883674 38.980631 
L 281.717262 38.980631 
L 281.717262 38.855125 
L 282.238254 38.855125 
L 282.238254 38.729619 
L 282.967643 38.729619 
L 282.967643 38.604112 
L 283.17604 38.604112 
L 283.17604 38.478606 
L 283.384437 38.478606 
L 283.384437 38.353099 
L 284.322223 38.353099 
L 284.322223 38.102086 
L 286.406192 38.102086 
L 286.406192 37.97658 
L 286.718787 37.97658 
L 286.718787 37.851073 
L 287.239779 37.851073 
L 287.239779 37.725567 
L 288.385962 37.725567 
L 288.385962 37.60006 
L 289.011152 37.60006 
L 289.011152 37.474554 
L 290.574129 37.474554 
L 290.574129 37.349047 
L 292.762296 37.349047 
L 292.762296 37.223541 
L 293.387487 37.223541 
L 293.387487 37.098034 
L 295.679852 37.098034 
L 295.679852 36.972528 
L 296.826035 36.972528 
L 296.826035 36.847021 
L 298.701607 36.847021 
L 298.701607 36.721515 
L 299.014202 36.721515 
L 299.118401 36.470502 
L 300.056187 36.470502 
L 300.056187 36.344995 
L 301.82756 36.344995 
L 301.931759 36.093982 
L 302.452751 36.093982 
L 302.452751 35.968476 
L 302.869545 35.968476 
L 302.869545 35.591956 
L 304.640918 35.591956 
L 304.640918 35.46645 
L 305.474506 35.46645 
L 305.474506 35.340943 
L 308.287863 35.340943 
L 308.287863 35.08993 
L 309.746642 35.08993 
L 309.746642 34.964424 
L 311.518015 34.964424 
L 311.518015 34.838917 
L 311.726412 34.838917 
L 311.83061 34.587904 
L 317.457326 34.587904 
L 317.457326 34.462398 
L 318.916104 34.462398 
L 318.916104 34.336891 
L 320.270684 34.336891 
L 320.270684 34.211385 
L 324.751217 34.211385 
L 324.751217 34.085878 
L 327.043582 34.085878 
L 327.043582 33.960372 
L 327.981368 33.960372 
L 327.981368 33.834865 
L 332.461901 33.834865 
L 332.461901 33.583852 
L 339.547395 33.583852 
L 339.547395 33.458346 
L 339.85999 33.458346 
L 339.85999 33.332839 
L 341.422967 33.332839 
L 341.422967 32.95632 
L 341.83976 32.95632 
L 341.83976 32.830813 
L 342.569149 32.830813 
L 342.569149 32.705307 
L 342.881745 32.705307 
L 342.881745 32.5798 
L 344.757317 32.5798 
L 344.757317 32.454294 
L 345.486706 32.454294 
L 345.486706 32.328787 
L 347.779071 32.328787 
L 347.779071 32.203281 
L 348.821056 32.203281 
L 348.821056 32.077774 
L 349.967238 32.077774 
L 349.967238 31.952268 
L 359.032503 31.952268 
L 359.032503 31.826761 
L 361.741662 31.826761 
L 361.741662 31.826761 
" style="fill:none;stroke:#0272a2;stroke-linecap:round;stroke-width:2;"/>
   </g>
   <g id="line2d_26">
    <path clip-path="url(#p6b437d4a15)" d="M 57.378026 229.499489 
L 361.741662 31.826761 
" style="fill:none;stroke:#ee82ee;stroke-dasharray:6.475,2.8;stroke-dashoffset:0;stroke-width:1.75;"/>
   </g>
   <g id="patch_3">
    <path d="M 42.159844 239.383125 
L 42.159844 21.943125 
" style="fill:none;stroke:#cccccc;stroke-linecap:square;stroke-linejoin:miter;stroke-width:1.25;"/>
   </g>
   <g id="patch_4">
    <path d="M 376.959844 239.383125 
L 376.959844 21.943125 
" style="fill:none;stroke:#cccccc;stroke-linecap:square;stroke-linejoin:miter;stroke-width:1.25;"/>
   </g>
   <g id="patch_5">
    <path d="M 42.159844 239.383125 
L 376.959844 239.383125 
" style="fill:none;stroke:#cccccc;stroke-linecap:square;stroke-linejoin:miter;stroke-width:1.25;"/>
   </g>
   <g id="patch_6">
    <path d="M 42.159844 21.943125 
L 376.959844 21.943125 
" style="fill:none;stroke:#cccccc;stroke-linecap:square;stroke-linejoin:miter;stroke-width:1.25;"/>
   </g>
   <g id="text_15">
    <!-- ROC curve for high blood pressure in rf2 model -->
    <defs>
     <path d="M 7.859375 0 
L 7.859375 71.578125 
L 39.59375 71.578125 
Q 49.171875 71.578125 54.140625 69.640625 
Q 59.125 67.71875 62.109375 62.828125 
Q 65.09375 57.953125 65.09375 52.046875 
Q 65.09375 44.4375 60.15625 39.203125 
Q 55.21875 33.984375 44.921875 32.5625 
Q 48.6875 30.765625 50.640625 29 
Q 54.78125 25.203125 58.5 19.484375 
L 70.953125 0 
L 59.03125 0 
L 49.5625 14.890625 
Q 45.40625 21.34375 42.71875 24.75 
Q 40.046875 28.171875 37.921875 29.53125 
Q 35.796875 30.90625 33.59375 31.453125 
Q 31.984375 31.78125 28.328125 31.78125 
L 17.328125 31.78125 
L 17.328125 0 
z
M 17.328125 39.984375 
L 37.703125 39.984375 
Q 44.1875 39.984375 47.84375 41.328125 
Q 51.515625 42.671875 53.421875 45.625 
Q 55.328125 48.578125 55.328125 52.046875 
Q 55.328125 57.125 51.640625 60.390625 
Q 47.953125 63.671875 39.984375 63.671875 
L 17.328125 63.671875 
z
" id="ArialMT-82"/>
     <path d="M 4.828125 34.859375 
Q 4.828125 52.6875 14.390625 62.765625 
Q 23.96875 72.859375 39.109375 72.859375 
Q 49.03125 72.859375 56.984375 68.109375 
Q 64.9375 63.375 69.109375 54.90625 
Q 73.296875 46.4375 73.296875 35.6875 
Q 73.296875 24.8125 68.890625 16.21875 
Q 64.5 7.625 56.4375 3.203125 
Q 48.390625 -1.21875 39.0625 -1.21875 
Q 28.953125 -1.21875 20.984375 3.65625 
Q 13.03125 8.546875 8.921875 16.984375 
Q 4.828125 25.4375 4.828125 34.859375 
z
M 14.59375 34.71875 
Q 14.59375 21.78125 21.546875 14.328125 
Q 28.515625 6.890625 39.015625 6.890625 
Q 49.703125 6.890625 56.609375 14.40625 
Q 63.53125 21.921875 63.53125 35.75 
Q 63.53125 44.484375 60.578125 51 
Q 57.625 57.515625 51.921875 61.109375 
Q 46.234375 64.703125 39.15625 64.703125 
Q 29.109375 64.703125 21.84375 57.78125 
Q 14.59375 50.875 14.59375 34.71875 
z
" id="ArialMT-79"/>
     <path d="M 58.796875 25.09375 
L 68.265625 22.703125 
Q 65.28125 11.03125 57.546875 4.90625 
Q 49.8125 -1.21875 38.625 -1.21875 
Q 27.046875 -1.21875 19.796875 3.484375 
Q 12.546875 8.203125 8.765625 17.140625 
Q 4.984375 26.078125 4.984375 36.328125 
Q 4.984375 47.515625 9.25 55.828125 
Q 13.53125 64.15625 21.40625 68.46875 
Q 29.296875 72.796875 38.765625 72.796875 
Q 49.515625 72.796875 56.828125 67.328125 
Q 64.15625 61.859375 67.046875 51.953125 
L 57.71875 49.75 
Q 55.21875 57.5625 50.484375 61.125 
Q 45.75 64.703125 38.578125 64.703125 
Q 30.328125 64.703125 24.78125 60.734375 
Q 19.234375 56.78125 16.984375 50.109375 
Q 14.75 43.453125 14.75 36.375 
Q 14.75 27.25 17.40625 20.4375 
Q 20.0625 13.625 25.671875 10.25 
Q 31.296875 6.890625 37.84375 6.890625 
Q 45.796875 6.890625 51.3125 11.46875 
Q 56.84375 16.0625 58.796875 25.09375 
z
" id="ArialMT-67"/>
     <path d="M 40.4375 19 
L 49.078125 17.875 
Q 47.65625 8.9375 41.8125 3.875 
Q 35.984375 -1.171875 27.484375 -1.171875 
Q 16.84375 -1.171875 10.375 5.78125 
Q 3.90625 12.75 3.90625 25.734375 
Q 3.90625 34.125 6.6875 40.421875 
Q 9.46875 46.734375 15.15625 49.875 
Q 20.84375 53.03125 27.546875 53.03125 
Q 35.984375 53.03125 41.359375 48.75 
Q 46.734375 44.484375 48.25 36.625 
L 39.703125 35.296875 
Q 38.484375 40.53125 35.375 43.15625 
Q 32.28125 45.796875 27.875 45.796875 
Q 21.234375 45.796875 17.078125 41.03125 
Q 12.9375 36.28125 12.9375 25.984375 
Q 12.9375 15.53125 16.9375 10.796875 
Q 20.953125 6.0625 27.390625 6.0625 
Q 32.5625 6.0625 36.03125 9.234375 
Q 39.5 12.40625 40.4375 19 
z
" id="ArialMT-99"/>
     <path d="M 8.6875 0 
L 8.6875 45.015625 
L 0.921875 45.015625 
L 0.921875 51.859375 
L 8.6875 51.859375 
L 8.6875 57.375 
Q 8.6875 62.59375 9.625 65.140625 
Q 10.890625 68.5625 14.078125 70.671875 
Q 17.28125 72.796875 23.046875 72.796875 
Q 26.765625 72.796875 31.25 71.921875 
L 29.9375 64.265625 
Q 27.203125 64.75 24.75 64.75 
Q 20.75 64.75 19.09375 63.03125 
Q 17.4375 61.328125 17.4375 56.640625 
L 17.4375 51.859375 
L 27.546875 51.859375 
L 27.546875 45.015625 
L 17.4375 45.015625 
L 17.4375 0 
z
" id="ArialMT-102"/>
     <path d="M 6.59375 0 
L 6.59375 71.578125 
L 15.375 71.578125 
L 15.375 45.90625 
Q 21.53125 53.03125 30.90625 53.03125 
Q 36.671875 53.03125 40.921875 50.75 
Q 45.171875 48.484375 47 44.484375 
Q 48.828125 40.484375 48.828125 32.859375 
L 48.828125 0 
L 40.046875 0 
L 40.046875 32.859375 
Q 40.046875 39.453125 37.1875 42.453125 
Q 34.328125 45.453125 29.109375 45.453125 
Q 25.203125 45.453125 21.75 43.421875 
Q 18.3125 41.40625 16.84375 37.9375 
Q 15.375 34.46875 15.375 28.375 
L 15.375 0 
z
" id="ArialMT-104"/>
     <path d="M 4.984375 -4.296875 
L 13.53125 -5.5625 
Q 14.0625 -9.515625 16.5 -11.328125 
Q 19.78125 -13.765625 25.4375 -13.765625 
Q 31.546875 -13.765625 34.859375 -11.328125 
Q 38.1875 -8.890625 39.359375 -4.5 
Q 40.046875 -1.8125 39.984375 6.78125 
Q 34.234375 0 25.640625 0 
Q 14.9375 0 9.078125 7.71875 
Q 3.21875 15.4375 3.21875 26.21875 
Q 3.21875 33.640625 5.90625 39.90625 
Q 8.59375 46.1875 13.6875 49.609375 
Q 18.796875 53.03125 25.6875 53.03125 
Q 34.859375 53.03125 40.828125 45.609375 
L 40.828125 51.859375 
L 48.921875 51.859375 
L 48.921875 7.03125 
Q 48.921875 -5.078125 46.453125 -10.125 
Q 44 -15.1875 38.640625 -18.109375 
Q 33.296875 -21.046875 25.484375 -21.046875 
Q 16.21875 -21.046875 10.5 -16.875 
Q 4.78125 -12.703125 4.984375 -4.296875 
z
M 12.25 26.859375 
Q 12.25 16.65625 16.296875 11.96875 
Q 20.359375 7.28125 26.46875 7.28125 
Q 32.515625 7.28125 36.609375 11.9375 
Q 40.71875 16.609375 40.71875 26.5625 
Q 40.71875 36.078125 36.5 40.90625 
Q 32.28125 45.75 26.3125 45.75 
Q 20.453125 45.75 16.34375 40.984375 
Q 12.25 36.234375 12.25 26.859375 
z
" id="ArialMT-103"/>
     <path d="M 14.703125 0 
L 6.546875 0 
L 6.546875 71.578125 
L 15.328125 71.578125 
L 15.328125 46.046875 
Q 20.90625 53.03125 29.546875 53.03125 
Q 34.328125 53.03125 38.59375 51.09375 
Q 42.875 49.171875 45.625 45.671875 
Q 48.390625 42.1875 49.953125 37.25 
Q 51.515625 32.328125 51.515625 26.703125 
Q 51.515625 13.375 44.921875 6.09375 
Q 38.328125 -1.171875 29.109375 -1.171875 
Q 19.921875 -1.171875 14.703125 6.5 
z
M 14.59375 26.3125 
Q 14.59375 17 17.140625 12.84375 
Q 21.296875 6.0625 28.375 6.0625 
Q 34.125 6.0625 38.328125 11.0625 
Q 42.53125 16.0625 42.53125 25.984375 
Q 42.53125 36.140625 38.5 40.96875 
Q 34.46875 45.796875 28.765625 45.796875 
Q 23 45.796875 18.796875 40.796875 
Q 14.59375 35.796875 14.59375 26.3125 
z
" id="ArialMT-98"/>
     <path d="M 40.234375 0 
L 40.234375 6.546875 
Q 35.296875 -1.171875 25.734375 -1.171875 
Q 19.53125 -1.171875 14.328125 2.25 
Q 9.125 5.671875 6.265625 11.796875 
Q 3.421875 17.921875 3.421875 25.875 
Q 3.421875 33.640625 6 39.96875 
Q 8.59375 46.296875 13.765625 49.65625 
Q 18.953125 53.03125 25.34375 53.03125 
Q 30.03125 53.03125 33.6875 51.046875 
Q 37.359375 49.078125 39.65625 45.90625 
L 39.65625 71.578125 
L 48.390625 71.578125 
L 48.390625 0 
z
M 12.453125 25.875 
Q 12.453125 15.921875 16.640625 10.984375 
Q 20.84375 6.0625 26.5625 6.0625 
Q 32.328125 6.0625 36.34375 10.765625 
Q 40.375 15.484375 40.375 25.140625 
Q 40.375 35.796875 36.265625 40.765625 
Q 32.171875 45.75 26.171875 45.75 
Q 20.3125 45.75 16.375 40.96875 
Q 12.453125 36.1875 12.453125 25.875 
z
" id="ArialMT-100"/>
     <path d="M 6.59375 0 
L 6.59375 51.859375 
L 14.5 51.859375 
L 14.5 44.484375 
Q 20.21875 53.03125 31 53.03125 
Q 35.6875 53.03125 39.625 51.34375 
Q 43.5625 49.65625 45.515625 46.921875 
Q 47.46875 44.1875 48.25 40.4375 
Q 48.734375 37.984375 48.734375 31.890625 
L 48.734375 0 
L 39.9375 0 
L 39.9375 31.546875 
Q 39.9375 36.921875 38.90625 39.578125 
Q 37.890625 42.234375 35.28125 43.8125 
Q 32.671875 45.40625 29.15625 45.40625 
Q 23.53125 45.40625 19.453125 41.84375 
Q 15.375 38.28125 15.375 28.328125 
L 15.375 0 
z
" id="ArialMT-110"/>
     <path d="M 6.59375 0 
L 6.59375 51.859375 
L 14.453125 51.859375 
L 14.453125 44.578125 
Q 16.890625 48.390625 20.9375 50.703125 
Q 25 53.03125 30.171875 53.03125 
Q 35.9375 53.03125 39.625 50.640625 
Q 43.3125 48.25 44.828125 43.953125 
Q 50.984375 53.03125 60.84375 53.03125 
Q 68.5625 53.03125 72.703125 48.75 
Q 76.859375 44.484375 76.859375 35.59375 
L 76.859375 0 
L 68.109375 0 
L 68.109375 32.671875 
Q 68.109375 37.9375 67.25 40.25 
Q 66.40625 42.578125 64.15625 43.984375 
Q 61.921875 45.40625 58.890625 45.40625 
Q 53.421875 45.40625 49.796875 41.765625 
Q 46.1875 38.140625 46.1875 30.125 
L 46.1875 0 
L 37.40625 0 
L 37.40625 33.6875 
Q 37.40625 39.546875 35.25 42.46875 
Q 33.109375 45.40625 28.21875 45.40625 
Q 24.515625 45.40625 21.359375 43.453125 
Q 18.21875 41.5 16.796875 37.734375 
Q 15.375 33.984375 15.375 26.90625 
L 15.375 0 
z
" id="ArialMT-109"/>
    </defs>
    <g style="fill:#262626;" transform="translate(83.843906 15.943125)scale(0.12 -0.12)">
     <use xlink:href="#ArialMT-82"/>
     <use x="72.216797" xlink:href="#ArialMT-79"/>
     <use x="150" xlink:href="#ArialMT-67"/>
     <use x="222.216797" xlink:href="#ArialMT-32"/>
     <use x="250" xlink:href="#ArialMT-99"/>
     <use x="300" xlink:href="#ArialMT-117"/>
     <use x="355.615234" xlink:href="#ArialMT-114"/>
     <use x="388.916016" xlink:href="#ArialMT-118"/>
     <use x="438.916016" xlink:href="#ArialMT-101"/>
     <use x="494.53125" xlink:href="#ArialMT-32"/>
     <use x="522.314453" xlink:href="#ArialMT-102"/>
     <use x="550.097656" xlink:href="#ArialMT-111"/>
     <use x="605.712891" xlink:href="#ArialMT-114"/>
     <use x="639.013672" xlink:href="#ArialMT-32"/>
     <use x="666.796875" xlink:href="#ArialMT-104"/>
     <use x="722.412109" xlink:href="#ArialMT-105"/>
     <use x="744.628906" xlink:href="#ArialMT-103"/>
     <use x="800.244141" xlink:href="#ArialMT-104"/>
     <use x="855.859375" xlink:href="#ArialMT-32"/>
     <use x="883.642578" xlink:href="#ArialMT-98"/>
     <use x="939.257812" xlink:href="#ArialMT-108"/>
     <use x="961.474609" xlink:href="#ArialMT-111"/>
     <use x="1017.089844" xlink:href="#ArialMT-111"/>
     <use x="1072.705078" xlink:href="#ArialMT-100"/>
     <use x="1128.320312" xlink:href="#ArialMT-32"/>
     <use x="1156.103516" xlink:href="#ArialMT-112"/>
     <use x="1211.71875" xlink:href="#ArialMT-114"/>
     <use x="1245.019531" xlink:href="#ArialMT-101"/>
     <use x="1300.634766" xlink:href="#ArialMT-115"/>
     <use x="1350.634766" xlink:href="#ArialMT-115"/>
     <use x="1400.634766" xlink:href="#ArialMT-117"/>
     <use x="1456.25" xlink:href="#ArialMT-114"/>
     <use x="1489.550781" xlink:href="#ArialMT-101"/>
     <use x="1545.166016" xlink:href="#ArialMT-32"/>
     <use x="1572.949219" xlink:href="#ArialMT-105"/>
     <use x="1595.166016" xlink:href="#ArialMT-110"/>
     <use x="1650.78125" xlink:href="#ArialMT-32"/>
     <use x="1678.564453" xlink:href="#ArialMT-114"/>
     <use x="1711.865234" xlink:href="#ArialMT-102"/>
     <use x="1739.648438" xlink:href="#ArialMT-50"/>
     <use x="1795.263672" xlink:href="#ArialMT-32"/>
     <use x="1823.046875" xlink:href="#ArialMT-109"/>
     <use x="1906.347656" xlink:href="#ArialMT-111"/>
     <use x="1961.962891" xlink:href="#ArialMT-100"/>
     <use x="2017.578125" xlink:href="#ArialMT-101"/>
     <use x="2073.193359" xlink:href="#ArialMT-108"/>
    </g>
   </g>
  </g>
 </g>
 <defs>
  <clipPath id="p6b437d4a15">
   <rect height="217.44" width="334.8" x="42.159844" y="21.943125"/>
  </clipPath>
 </defs>
</svg>
